<?xml version="1.0" encoding="iso-8859-1"?>
<!-- Generator: Adobe Illustrator 29.5.1, SVG Export Plug-In . SVG Version: 9.03 Build 0)  -->
<svg version="1.1" id="Layer_1" xmlns="http://www.w3.org/2000/svg" xmlns:xlink="http://www.w3.org/1999/xlink" x="0px" y="0px"
	 viewBox="0 0 1000 144" style="enable-background:new 0 0 1000 144;" xml:space="preserve">
<g>
	<defs>
		<rect id="SVGID_1_" width="1000" height="144"/>
	</defs>
	<clipPath id="SVGID_00000055690623265941469500000001718041595857476513_">
		<use xlink:href="#SVGID_1_"  style="overflow:visible;"/>
	</clipPath>
	<path style="clip-path:url(#SVGID_00000055690623265941469500000001718041595857476513_);fill:#FFFFFF;" d="M414.759,115.025
		v11.825c0,0.397-0.133,0.706-0.443,0.927c-0.265,0.221-0.619,0.353-1.062,0.353c-0.265,0-0.664,0-1.106-0.044
		c-0.442-0.044-0.929-0.088-1.372-0.132c-0.442-0.045-0.841-0.177-1.195-0.309c-0.309-0.133-0.486-0.309-0.486-0.486v-12.09
		L398.74,94.903c-0.354-0.706-0.399-1.192-0.133-1.5c0.266-0.309,0.752-0.486,1.46-0.486c0.443,0,0.885,0,1.372,0.044
		c0.443,0,0.885,0.044,1.283,0.133c0.399,0.044,0.753,0.132,1.018,0.22c0.266,0.089,0.487,0.221,0.575,0.441l7.612,15.489
		l7.611-15.444c0.089-0.177,0.265-0.354,0.575-0.442c0.266-0.088,0.62-0.176,1.018-0.264c0.398-0.045,0.841-0.089,1.283-0.133
		c0.443,0,0.93-0.044,1.372-0.044c0.708,0,1.195,0.132,1.461,0.441c0.221,0.309,0.177,0.795-0.178,1.545L414.759,115.025z
		 M384.491,98.521v28.329c0,0.397-0.133,0.706-0.443,0.927c-0.31,0.221-0.619,0.353-1.018,0.353c-0.265,0-0.663,0-1.15-0.044
		c-0.487-0.044-0.974-0.088-1.416-0.132c-0.443-0.045-0.841-0.177-1.151-0.309c-0.354-0.133-0.486-0.309-0.486-0.486V98.565h-8.762
		c-0.354,0-0.62-0.132-0.885-0.397c-0.222-0.265-0.354-0.573-0.354-0.971c0-0.265,0-0.573,0.044-1.015
		c0.044-0.397,0.088-0.838,0.133-1.235c0.044-0.397,0.177-0.75,0.265-1.059c0.133-0.265,0.266-0.441,0.487-0.441h23.453
		c0.354,0,0.62,0.132,0.885,0.397c0.222,0.265,0.354,0.617,0.354,0.971c0,0.264,0,0.573-0.044,1.014
		c-0.044,0.442-0.088,0.839-0.133,1.236c-0.044,0.397-0.132,0.75-0.265,1.015s-0.266,0.441-0.487,0.441H384.491z M364.046,126.85
		c0,0.397-0.132,0.706-0.442,0.927c-0.266,0.221-0.62,0.353-1.062,0.353c-0.266,0-0.664,0-1.151-0.044
		c-0.486-0.044-0.929-0.088-1.416-0.132c-0.442-0.045-0.84-0.177-1.195-0.309c-0.309-0.133-0.486-0.309-0.486-0.486V93.932
		c0-0.177,0.177-0.353,0.486-0.486c0.355-0.132,0.753-0.264,1.195-0.308c0.443-0.044,0.93-0.133,1.416-0.133
		c0.487-0.044,0.841-0.044,1.151-0.044c0.398,0,0.752,0.133,1.062,0.397c0.265,0.265,0.442,0.574,0.442,0.927V126.85z
		 M332.141,122.305c0.265,0.044,0.62,0.177,1.151,0.265c0.531,0.132,1.106,0.265,1.814,0.397c0.664,0.133,1.416,0.221,2.257,0.353
		c0.796,0.088,1.637,0.133,2.434,0.133c0.885,0,1.725-0.089,2.522-0.221c0.796-0.132,1.549-0.397,2.168-0.706
		c0.62-0.353,1.151-0.794,1.505-1.324c0.398-0.574,0.575-1.235,0.575-2.074c0-1.147-0.354-2.118-1.106-2.912
		c-0.753-0.794-1.682-1.545-2.788-2.251c-1.106-0.706-2.345-1.412-3.673-2.118s-2.522-1.544-3.673-2.471
		c-1.15-0.926-2.08-2.03-2.788-3.309c-0.752-1.28-1.106-2.824-1.106-4.678c0-1.544,0.265-2.868,0.841-3.927
		c0.575-1.059,1.327-1.941,2.301-2.647c0.973-0.662,2.168-1.192,3.496-1.501c1.371-0.309,2.876-0.485,4.513-0.485
		c0.354,0,0.885,0,1.593,0.044s1.461,0.088,2.257,0.176c0.797,0.089,1.593,0.177,2.346,0.309c0.796,0.133,1.416,0.309,1.858,0.53
		c0.443,0.176,0.708,0.397,0.797,0.618c0.088,0.22,0.088,0.573,0.044,1.103c-0.044,0.838-0.221,1.5-0.531,2.074
		c-0.266,0.573-0.664,0.794-1.195,0.706c-0.796-0.177-1.681-0.309-2.699-0.486c-1.018-0.132-2.169-0.22-3.408-0.22
		c-1.947,0-3.584,0.309-4.823,0.838c-1.239,0.574-1.859,1.5-1.859,2.824c0,1.059,0.355,1.942,1.107,2.692
		c0.752,0.75,1.681,1.456,2.788,2.118c1.106,0.662,2.345,1.368,3.672,2.074c1.328,0.706,2.523,1.544,3.673,2.515
		c1.107,0.971,2.08,2.118,2.788,3.442c0.752,1.324,1.106,3.001,1.106,4.898c0,1.809-0.354,3.31-1.017,4.457
		c-0.664,1.191-1.593,2.074-2.7,2.736c-1.106,0.662-2.434,1.103-3.894,1.368c-1.46,0.264-3.009,0.397-4.602,0.397
		c-0.708,0-1.505-0.044-2.301-0.088c-0.797-0.045-1.549-0.133-2.345-0.221c-0.753-0.088-1.461-0.221-2.169-0.353
		c-0.664-0.133-1.239-0.265-1.726-0.441c-0.486-0.177-0.752-0.353-0.84-0.53c-0.089-0.221-0.133-0.574-0.045-1.059
		c0.089-0.927,0.266-1.721,0.531-2.339C331.344,122.482,331.698,122.173,332.141,122.305 M313.953,98.477h-6.593v11.429h6.593
		c1.284,0,2.346-0.089,3.098-0.221c0.797-0.132,1.372-0.397,1.814-0.794c0.443-0.397,0.709-0.883,0.841-1.545
		c0.133-0.661,0.221-1.544,0.221-2.603v-1.059c0-1.059-0.088-1.942-0.221-2.648c-0.132-0.661-0.442-1.191-0.841-1.588
		c-0.442-0.397-1.017-0.618-1.814-0.795C316.255,98.565,315.237,98.477,313.953,98.477 M301.652,127.115V94.638
		c0-0.353,0.132-0.618,0.442-0.883c0.31-0.22,0.62-0.352,1.062-0.352h10.488c2.168,0,4.027,0.176,5.575,0.485
		c1.549,0.309,2.788,0.882,3.762,1.677c0.973,0.794,1.681,1.853,2.124,3.177c0.443,1.324,0.664,2.956,0.664,4.986v1.059
		c0,1.5-0.133,2.78-0.354,3.883c-0.222,1.103-0.62,2.074-1.107,2.869c-0.486,0.794-1.194,1.412-2.035,1.897
		s-1.859,0.838-3.009,1.103l6.593,11.385c0.354,0.617,0.531,1.059,0.531,1.368c0,0.176-0.088,0.353-0.221,0.485
		c-0.177,0.132-0.354,0.221-0.531,0.265c-0.177,0.044-0.398,0.088-0.575,0.132c-0.222,0-0.354,0.044-0.443,0.044
		c-0.265,0-0.664,0-1.106-0.044c-0.443-0.044-0.885-0.088-1.328-0.176c-0.442-0.089-0.885-0.177-1.239-0.353
		c-0.354-0.177-0.619-0.398-0.796-0.662l-6.992-11.914h-5.841v11.914c0,0.397-0.133,0.662-0.443,0.882
		c-0.265,0.221-0.619,0.353-1.018,0.353c-0.265,0-0.663,0-1.15-0.044c-0.487-0.044-0.929-0.088-1.416-0.132
		c-0.443-0.044-0.841-0.177-1.195-0.309C301.829,127.468,301.652,127.336,301.652,127.115 M273.773,126.586V94.638
		c0-0.397,0.133-0.706,0.443-0.927c0.265-0.22,0.619-0.308,1.062-0.308h19.072c0.354,0,0.664,0.132,0.885,0.441
		c0.221,0.265,0.354,0.617,0.354,0.971c0,0.264,0,0.573-0.044,1.014c-0.044,0.442-0.089,0.839-0.133,1.236
		c-0.044,0.397-0.177,0.75-0.265,1.015c-0.133,0.265-0.31,0.441-0.487,0.441h-15.134v9.178h12.966c0.309,0,0.575,0.133,0.84,0.397
		c0.222,0.265,0.354,0.574,0.354,0.927c0,0.265,0,0.574-0.044,1.015c-0.044,0.441-0.088,0.838-0.133,1.236
		c-0.044,0.397-0.177,0.75-0.265,1.059c-0.133,0.264-0.266,0.441-0.487,0.441h-13.275v9.708h14.824c0.354,0,0.664,0.132,0.885,0.397
		c0.221,0.265,0.354,0.574,0.354,0.971c0,0.264,0,0.573-0.044,1.015c-0.045,0.397-0.089,0.838-0.133,1.235
		c-0.044,0.397-0.177,0.75-0.266,1.059c-0.132,0.309-0.309,0.441-0.486,0.441h-18.675c-0.442,0-0.929-0.088-1.416-0.309
		C273.994,127.027,273.773,126.806,273.773,126.586 M256.338,118.466l7.169-24.578c0.442-0.442,0.973-0.706,1.548-0.839
		c0.576-0.088,1.239-0.176,2.036-0.176c0.31,0,0.664,0,0.974,0.044c0.353,0.044,0.619,0.088,0.84,0.221
		c0.222,0.132,0.399,0.265,0.531,0.485c0.133,0.221,0.089,0.486,0,0.883l-11.018,32.874c-0.045,0.265-0.222,0.441-0.487,0.574
		c-0.266,0.132-0.531,0.176-0.841,0.176c-1.062,0-1.947-0.044-2.655-0.176c-0.708-0.133-1.151-0.309-1.328-0.53l-10.974-32.918
		c-0.088-0.309-0.088-0.574,0-0.795c0.089-0.22,0.221-0.353,0.442-0.485c0.178-0.132,0.399-0.221,0.664-0.265
		c0.222-0.044,0.443-0.088,0.576-0.088c0.486,0,0.973,0,1.46,0.044s0.929,0.088,1.372,0.177c0.398,0.088,0.752,0.22,1.062,0.352
		c0.265,0.177,0.487,0.354,0.575,0.618l7.346,24.358c0.133,0.397,0.221,0.794,0.265,1.192c0.045,0.441,0.089,0.794,0.177,1.147
		c0.045-0.353,0.089-0.75,0.133-1.147C256.117,119.216,256.205,118.819,256.338,118.466 M237.929,126.85
		c0,0.397-0.133,0.706-0.442,0.927c-0.266,0.221-0.62,0.353-1.062,0.353c-0.266,0-0.664,0-1.151-0.044
		c-0.487-0.044-0.929-0.088-1.416-0.132c-0.442-0.045-0.841-0.177-1.195-0.309c-0.354-0.133-0.487-0.309-0.487-0.486V93.932
		c0-0.177,0.177-0.353,0.487-0.486c0.354-0.132,0.708-0.264,1.195-0.308c0.442-0.044,0.929-0.133,1.416-0.133
		c0.487-0.044,0.841-0.044,1.151-0.044c0.398,0,0.752,0.133,1.062,0.397c0.265,0.265,0.442,0.574,0.442,0.927V126.85z
		 M220.494,117.584V93.755c0-0.176,0.177-0.352,0.531-0.441c0.354-0.132,0.752-0.22,1.239-0.265c0.487-0.044,0.974-0.088,1.46-0.132
		c0.487-0.044,0.885-0.044,1.151-0.044c0.841,0,1.239,0.485,1.239,1.412v32.565c0,0.397-0.133,0.662-0.442,0.883
		c-0.31,0.221-0.62,0.353-0.974,0.353c-0.266,0-0.575,0-1.018-0.044c-0.442-0.044-0.841-0.044-1.283-0.133
		c-0.443-0.088-0.797-0.176-1.151-0.264c-0.354-0.133-0.575-0.265-0.708-0.442l-15.444-23.696v23.343
		c0,0.397-0.132,0.706-0.442,0.927c-0.266,0.221-0.62,0.353-1.018,0.353c-0.265,0-0.664,0-1.15-0.044
		c-0.487-0.044-0.974-0.088-1.417-0.132c-0.442-0.045-0.84-0.177-1.15-0.309c-0.354-0.133-0.487-0.309-0.487-0.486V93.932
		c0-0.177,0.177-0.353,0.487-0.485c0.354-0.133,0.708-0.265,1.15-0.309c0.443-0.044,0.886-0.089,1.372-0.133
		c0.487-0.044,0.841-0.044,1.151-0.044c0.354,0,0.664,0.088,0.885,0.309c0.221,0.221,0.442,0.441,0.575,0.706L220.494,117.584z
		 M187.571,115.466V94.02c0-0.176,0.177-0.353,0.486-0.485c0.355-0.132,0.753-0.265,1.195-0.353
		c0.487-0.088,0.974-0.177,1.416-0.221c0.487-0.044,0.841-0.088,1.151-0.088c0.398,0,0.752,0.132,1.018,0.441
		c0.265,0.309,0.398,0.618,0.398,0.971v21.446c0,2.338-0.266,4.28-0.797,5.868c-0.531,1.589-1.283,2.824-2.345,3.839
		c-1.062,0.971-2.389,1.677-3.983,2.074c-1.593,0.397-3.495,0.618-5.62,0.618h-0.398c-2.08,0-3.938-0.221-5.487-0.618
		c-1.593-0.397-2.876-1.103-3.938-2.074c-1.062-0.97-1.815-2.25-2.346-3.839c-0.531-1.544-0.796-3.53-0.796-5.868V94.02
		c0-0.176,0.177-0.353,0.486-0.485c0.355-0.132,0.708-0.265,1.195-0.353c0.443-0.088,0.93-0.177,1.416-0.221
		c0.487-0.044,0.885-0.088,1.151-0.088c0.398,0,0.708,0.132,1.018,0.441c0.265,0.309,0.442,0.618,0.442,0.971v21.137
		c0,1.367,0.089,2.515,0.31,3.486c0.221,0.97,0.575,1.765,1.106,2.338c0.531,0.618,1.239,1.059,2.124,1.324s1.992,0.441,3.319,0.441
		h0.398c1.372,0,2.479-0.132,3.408-0.441c0.885-0.309,1.637-0.75,2.168-1.324c0.531-0.618,0.93-1.368,1.151-2.338
		C187.482,117.981,187.571,116.834,187.571,115.466 M393.474,38.244v40.994h-11.329V16.622h15.798l15.179,38.567V16.622h11.505
		v62.616h-14.426L393.474,38.244z M360.949,16.622h12.745v62.615h-12.745V16.622z M312.051,16.622h13.098v27.226l16.329-27.226
		h13.674l-18.143,28.815l18.143,33.845h-15.179l-14.824-30.447v30.447h-13.098V16.622z M290.721,65.338H272.49l-3.319,13.944
		h-13.143l17.701-62.66h16.727l17.435,62.66h-13.762L290.721,65.338z M288.11,54.439l-6.283-25.903l-6.594,25.903H288.11z
		 M217.928,16.622h33.94v10.635h-20.665v13.37h19.028v10.899h-19.028v16.68h20.71v11.032h-33.985V16.622z M189.12,16.622
		c16.771,0,21.948,8.87,21.948,31.33c0,22.461-5.221,31.33-21.993,31.33h-21.506v-62.66H189.12z M180.756,68.471h5.974
		c9.78,0,11.019-5.736,11.019-20.74c0-14.958-1.239-20.695-11.019-20.695h-5.974V68.471z"/>
	<path style="clip-path:url(#SVGID_00000055690623265941469500000001718041595857476513_);fill:#FFFFFF;" d="M71.713,1.288
		C32.549,1.288,0.799,32.947,0.799,72s31.749,70.712,70.913,70.712S142.625,111.053,142.625,72S110.877,1.288,71.713,1.288"/>
	<path style="clip-path:url(#SVGID_00000055690623265941469500000001718041595857476513_);fill:#FFFFFF;" d="M71.713,2.968
		c38.175,0,69.233,30.968,69.233,69.032s-31.058,69.032-69.233,69.032S2.479,110.064,2.479,72S33.538,2.968,71.713,2.968"/>
	<path style="clip-path:url(#SVGID_00000055690623265941469500000001718041595857476513_);" d="M95.076,94.204L68.262,47.816
		l3.533-5.928l30.099,52.316H95.076z M82.396,94.204L61.86,58.843l3.45-5.804l23.655,41.165H82.396z M69.509,94.204L55.416,69.953
		l3.575-6.011l17.336,30.22h-6.818V94.204z M56.539,94.204l-7.567-13.1l3.576-6.011l10.933,19.111H56.539z M41.365,94.204
		l4.614-7.877l4.615,7.877H41.365z M35.503,36.416V85.83c0,19.94,16.213,36.107,36.209,36.107c19.997,0,36.21-16.167,36.21-36.107
		V36.416H35.503z"/>
</g>
<rect x="471.959" y="16.622" style="fill:#FFFFFF;" width="2" height="110.978"/>
<g>
	<defs>
		<rect id="SVGID_00000124843601307494147340000002653171103266472600_" width="1000" height="144"/>
	</defs>
	<clipPath id="SVGID_00000012465766613136242330000004373008156162340236_">
		<use xlink:href="#SVGID_00000124843601307494147340000002653171103266472600_"  style="overflow:visible;"/>
	</clipPath>
	<path style="clip-path:url(#SVGID_00000012465766613136242330000004373008156162340236_);fill:#FFFFFF;" d="M741.372,125.838
		c1.852-1.578,2.778-3.945,2.778-7.102c0-2.059-0.4-3.686-1.2-4.879s-2.09-2.345-3.868-3.456l-6.646-4.246
		c-0.726-0.459-1.256-0.985-1.589-1.578c-0.334-0.593-0.501-1.23-0.501-1.912c0-1.111,0.301-1.997,0.901-2.656
		c0.6-0.659,1.411-0.989,2.434-0.989c2.208,0,3.312,1.422,3.312,4.267v0.778h6.735v-1.133c0-3.171-0.811-5.42-2.434-6.746
		c-1.623-1.327-3.983-1.99-7.08-1.99c-3.467,0-6.146,0.76-8.035,2.278c-1.89,1.52-2.834,3.672-2.834,6.458
		c0,2.06,0.385,3.76,1.155,5.101c0.771,1.342,2.446,2.812,5.024,4.413l5.446,3.334c0.741,0.459,1.3,0.993,1.678,1.6
		c0.378,0.608,0.567,1.349,0.567,2.223c0,1.156-0.315,2.049-0.945,2.679s-1.53,0.944-2.7,0.944c-1.379,0-2.342-0.407-2.89-1.222
		c-0.549-0.815-0.823-2.045-0.823-3.69v-0.867h-6.979v2.045c0,2.89,0.844,5.064,2.534,6.524c1.689,1.46,4.171,2.189,7.446,2.189
		C736.682,128.205,739.518,127.416,741.372,125.838 M701.438,94.73v32.875h18.294v-5.134h-11.425v-9.514h10.203v-5.068h-10.203
		v-8.091h11.069V94.73H701.438z M676.195,94.73v5.334h7.558v27.541h6.979v-27.541h7.647V94.73H676.195z M655.646,94.73v32.875
		h18.294v-5.134h-11.425v-9.514h10.202v-5.068h-10.202v-8.091h11.069V94.73H655.646z M635.968,113.224h3.423
		c1.852,0,3.179,0.333,3.979,1c0.8,0.667,1.2,1.867,1.2,3.601c0,1.675-0.363,2.882-1.089,3.623
		c-0.726,0.741-2.304,1.111-4.735,1.111h-2.778V113.224z M635.968,108.178v-8.38h2.956c2.119,0,3.531,0.333,4.235,1
		c0.703,0.667,1.056,1.652,1.056,2.956c0,1.26-0.152,2.138-0.456,2.634c-0.304,0.497-0.76,0.919-1.367,1.267
		c-0.608,0.349-1.534,0.523-2.779,0.523H635.968z M629.143,94.73v32.875h12.248c3.482,0,6.031-0.715,7.646-2.145
		c1.615-1.43,2.423-3.686,2.423-6.768c0-2.549-0.5-4.472-1.5-5.769c-1.001-1.296-2.553-2.092-4.657-2.389
		c1.852-0.385,3.249-1.208,4.19-2.467c0.941-1.26,1.411-2.942,1.411-5.046c0-2.905-0.815-5.013-2.445-6.324
		c-1.63-1.312-4.216-1.967-7.757-1.967H629.143z M612.12,101.065l3.423,14.292h-6.646L612.12,101.065z M608.031,94.73l-9.113,32.875
		h6.801l1.868-7.291h9.358l1.822,7.291h7.247l-8.914-32.875H608.031z M588.968,127.605h6.869V94.729h-6.869V127.605z
		 M569.411,99.798h1.911c2.015,0,3.412,0.277,4.19,0.833c0.778,0.556,1.334,1.645,1.667,3.268c0.334,1.622,0.501,4.212,0.501,7.769
		c0,3.378-0.193,5.738-0.578,7.079c-0.386,1.342-0.96,2.297-1.723,2.868c-0.763,0.57-2.197,0.856-4.301,0.856h-1.667V99.798z
		 M562.385,94.73v32.875H572.5c3.023,0,5.394-0.47,7.113-1.411c1.719-0.941,2.975-2.416,3.768-4.424
		c0.793-2.008,1.189-5.435,1.189-10.28c0-3.72-0.155-6.446-0.466-8.18c-0.312-1.734-0.845-3.235-1.601-4.502
		c-0.756-1.267-1.904-2.263-3.445-2.989c-1.542-0.726-3.579-1.089-6.113-1.089H562.385z M537.583,121.003
		c-0.8,0.86-1.589,1.486-2.367,1.879s-1.678,0.589-2.701,0.589c-1.452,0-2.634-0.474-3.545-1.423
		c-0.912-0.948-1.367-2.193-1.367-3.734c0-0.978,0.255-1.912,0.766-2.801c0.512-0.889,1.345-1.793,2.501-2.712L537.583,121.003z
		 M530.359,103.076c-0.386-0.733-0.578-1.418-0.578-2.056c0-0.785,0.263-1.452,0.789-2s1.189-0.823,1.99-0.823
		c0.889,0,1.596,0.252,2.122,0.756s0.789,1.178,0.789,2.023c0,0.889-0.255,1.689-0.766,2.4c-0.512,0.712-1.345,1.445-2.501,2.201
		C531.359,104.643,530.744,103.81,530.359,103.076 M540.206,105.188c0.83-1.267,1.245-2.626,1.245-4.079
		c0-2.178-0.778-3.882-2.334-5.112c-1.556-1.23-3.727-1.845-6.513-1.845c-2.638,0-4.761,0.663-6.368,1.989
		c-1.609,1.326-2.412,3.116-2.412,5.368c0,1.127,0.263,2.268,0.789,3.423c0.526,1.156,1.374,2.431,2.545,3.824
		c-2.238,1.526-3.845,3.012-4.824,4.456c-0.978,1.445-1.467,3.161-1.467,5.146c0,3.142,1.008,5.568,3.023,7.28
		c2.016,1.712,4.861,2.567,8.536,2.567c1.971,0,3.66-0.233,5.068-0.7c1.408-0.467,2.771-1.315,4.09-2.545l2.001,2.645h6.735
		l-4.957-6.779c0.815-1.393,1.389-2.871,1.723-4.435c0.333-1.563,0.5-3.56,0.5-5.99v-0.823h-5.557
		c0.029,0.208,0.044,0.415,0.044,0.622c0,1.053-0.07,2.123-0.211,3.212c-0.141,1.09-0.33,1.998-0.567,2.723l-5.135-6.735
		C538.028,107.859,539.375,106.455,540.206,105.188"/>
	<path style="clip-path:url(#SVGID_00000012465766613136242330000004373008156162340236_);fill:#FFFFFF;" d="M691.772,51.43v32.876
		h18.294v-5.135h-11.425v-9.514h10.203v-5.068h-10.203v-8.091h11.069V51.43H691.772z M671.63,51.43v32.876h17.161v-5.468h-10.203
		V51.43H671.63z M643.902,51.43l8.558,20.806v12.07h6.979v-12.07l9.136-20.806h-7.002l-5.246,13.893l-4.912-13.893H643.902z
		 M619.866,51.43v5.335h7.558v27.541h6.98V56.765h7.646V51.43H619.866z M614.775,82.539c1.852-1.579,2.779-3.946,2.779-7.102
		c0-2.06-0.401-3.687-1.201-4.88c-0.8-1.192-2.089-2.345-3.867-3.456l-6.647-4.246c-0.726-0.459-1.256-0.985-1.589-1.578
		c-0.334-0.592-0.5-1.23-0.5-1.911c0-1.112,0.3-1.997,0.9-2.657c0.6-0.659,1.412-0.989,2.434-0.989c2.208,0,3.312,1.423,3.312,4.268
		v0.778h6.735v-1.134c0-3.171-0.811-5.42-2.434-6.746c-1.622-1.326-3.982-1.989-7.08-1.989c-3.467,0-6.146,0.759-8.035,2.278
		c-1.889,1.519-2.834,3.671-2.834,6.457c0,2.06,0.385,3.761,1.156,5.102c0.77,1.341,2.445,2.812,5.023,4.412l5.446,3.334
		c0.741,0.46,1.301,0.993,1.679,1.601c0.377,0.607,0.566,1.348,0.566,2.222c0,1.156-0.315,2.049-0.944,2.679
		c-0.63,0.63-1.531,0.945-2.701,0.945c-1.378,0-2.342-0.408-2.89-1.223s-0.822-2.045-0.822-3.69v-0.867h-6.98v2.045
		c0,2.89,0.845,5.065,2.534,6.524c1.689,1.46,4.171,2.19,7.447,2.19C610.085,84.906,612.922,84.117,614.775,82.539 M574.843,51.43
		v32.876h18.293v-5.135h-11.425v-9.514h10.203v-5.068h-10.203v-8.091h11.07V51.43H574.843z M554.663,51.43v32.876h6.913V69.968
		h9.692v-5.045h-9.692v-8.425h10.158V51.43H554.663z M543.009,84.306h6.869V51.43h-6.869V84.306z M522.867,51.43v32.876h17.16
		v-5.468h-10.203V51.43H522.867z"/>
	<path style="clip-path:url(#SVGID_00000012465766613136242330000004373008156162340236_);fill:#FFFFFF;" d="M966.015,28.529
		c0.08,0,0.151-0.061,0.212-0.182c0.06-0.121,0.11-0.272,0.151-0.453c0.04-0.182,0.07-0.368,0.09-0.56
		c0.02-0.191,0.031-0.367,0.031-0.529c0-0.221-0.071-0.393-0.212-0.514c-0.141-0.121-0.302-0.181-0.484-0.181h-8.345v-7.045h9.917
		c0.081,0,0.152-0.061,0.212-0.182c0.061-0.121,0.111-0.272,0.151-0.453c0.041-0.182,0.071-0.373,0.091-0.575
		c0.02-0.201,0.03-0.383,0.03-0.544c0-0.222-0.071-0.388-0.211-0.499c-0.142-0.111-0.303-0.166-0.484-0.166h-11.43
		c-0.665,0-0.998,0.211-0.998,0.635v20.924c0,0.081,0.071,0.156,0.212,0.226c0.141,0.071,0.318,0.126,0.529,0.167
		c0.212,0.04,0.434,0.075,0.665,0.106c0.232,0.03,0.428,0.045,0.59,0.045c0.222,0,0.398-0.086,0.529-0.257
		c0.131-0.171,0.197-0.368,0.197-0.59v-9.373H966.015z M936.322,21.756c0.192-0.746,0.514-1.346,0.968-1.799
		c0.454-0.454,1.048-0.776,1.784-0.968c0.736-0.191,1.648-0.287,2.736-0.287h0.242c1.089,0,1.996,0.096,2.722,0.287
		c0.725,0.192,1.315,0.514,1.768,0.968c0.454,0.453,0.776,1.053,0.968,1.799c0.191,0.746,0.287,1.673,0.287,2.782v5.956
		c0,1.109-0.096,2.037-0.287,2.782c-0.192,0.746-0.514,1.346-0.968,1.799c-0.453,0.454-1.043,0.776-1.768,0.968
		c-0.726,0.192-1.633,0.287-2.722,0.287h-0.242c-1.088,0-2-0.095-2.736-0.287c-0.736-0.192-1.33-0.514-1.784-0.968
		c-0.454-0.453-0.776-1.053-0.968-1.799c-0.191-0.745-0.287-1.673-0.287-2.782v-5.956C936.035,23.429,936.131,22.502,936.322,21.756
		 M945.802,38.341c1.068-0.272,1.955-0.726,2.661-1.361c0.705-0.635,1.234-1.471,1.587-2.51c0.352-1.038,0.529-2.323,0.529-3.855
		v-6.198c0-1.532-0.177-2.817-0.529-3.856c-0.353-1.038-0.882-1.874-1.587-2.509c-0.706-0.635-1.593-1.089-2.661-1.361
		c-1.069-0.272-2.319-0.408-3.75-0.408h-0.242c-1.451,0-2.711,0.136-3.779,0.408c-1.069,0.272-1.956,0.726-2.661,1.361
		c-0.706,0.635-1.235,1.471-1.588,2.509c-0.352,1.039-0.529,2.324-0.529,3.856v6.198c0,1.532,0.177,2.817,0.529,3.855
		c0.353,1.039,0.882,1.875,1.588,2.51c0.705,0.635,1.592,1.089,2.661,1.361c1.068,0.272,2.328,0.408,3.779,0.408h0.242
		C943.483,38.749,944.733,38.613,945.802,38.341 M923.367,19.065c0.08,0,0.151-0.061,0.211-0.182
		c0.061-0.121,0.116-0.272,0.167-0.453c0.05-0.182,0.085-0.373,0.105-0.575c0.02-0.201,0.031-0.383,0.031-0.544
		c0-0.201-0.076-0.363-0.227-0.484s-0.328-0.181-0.529-0.181H908.46c-0.101,0-0.182,0.065-0.242,0.196
		c-0.061,0.132-0.111,0.287-0.151,0.469c-0.041,0.181-0.071,0.373-0.091,0.574c-0.02,0.202-0.03,0.374-0.03,0.514
		c0,0.202,0.07,0.363,0.211,0.484c0.141,0.121,0.323,0.182,0.545,0.182h5.835v19.17c0,0.101,0.071,0.181,0.212,0.242
		c0.141,0.06,0.318,0.11,0.529,0.151c0.212,0.04,0.433,0.07,0.665,0.091c0.232,0.02,0.428,0.03,0.59,0.03
		c0.222,0,0.398-0.081,0.529-0.242c0.131-0.161,0.197-0.352,0.197-0.574V19.065H923.367z M891.17,16.797
		c-0.101-0.141-0.211-0.262-0.332-0.363s-0.263-0.151-0.424-0.151c-0.181,0-0.378,0.01-0.589,0.03
		c-0.212,0.02-0.419,0.056-0.62,0.106c-0.202,0.05-0.368,0.111-0.499,0.181c-0.131,0.071-0.197,0.147-0.197,0.227v21.408
		c0,0.101,0.071,0.181,0.212,0.242c0.141,0.06,0.312,0.11,0.514,0.151c0.201,0.04,0.413,0.07,0.635,0.091
		c0.222,0.02,0.413,0.03,0.575,0.03c0.221,0,0.397-0.081,0.529-0.242c0.131-0.161,0.196-0.352,0.196-0.574v-16.54l10.855,16.872
		c0.061,0.081,0.167,0.151,0.318,0.212c0.151,0.06,0.327,0.11,0.529,0.151c0.201,0.04,0.403,0.07,0.605,0.091
		c0.201,0.02,0.373,0.03,0.514,0.03c0.201,0,0.367-0.076,0.499-0.227c0.131-0.151,0.196-0.337,0.196-0.559V17.129
		c0-0.241-0.045-0.443-0.136-0.604c-0.091-0.161-0.247-0.242-0.468-0.242c-0.182,0-0.394,0.01-0.635,0.03
		c-0.242,0.02-0.469,0.051-0.681,0.091c-0.211,0.04-0.388,0.091-0.529,0.151c-0.141,0.06-0.212,0.131-0.212,0.212v16.932
		L891.17,16.797z M871.906,38.235c0.282,0.101,0.555,0.151,0.817,0.151h11.399c0.08,0,0.151-0.06,0.212-0.181
		c0.06-0.121,0.11-0.272,0.151-0.454c0.04-0.181,0.07-0.373,0.091-0.574c0.02-0.202,0.03-0.383,0.03-0.545
		c0-0.201-0.071-0.362-0.212-0.483c-0.141-0.121-0.302-0.182-0.483-0.182h-9.707v-7.438h8.981c0.08,0,0.151-0.061,0.211-0.182
		c0.061-0.121,0.116-0.272,0.167-0.453c0.05-0.182,0.085-0.373,0.106-0.575c0.019-0.201,0.03-0.372,0.03-0.514
		c0-0.221-0.071-0.393-0.212-0.514c-0.141-0.121-0.313-0.181-0.514-0.181h-8.769v-7.045h9.918c0.08,0,0.151-0.061,0.212-0.182
		c0.06-0.121,0.11-0.272,0.151-0.453c0.04-0.182,0.07-0.373,0.091-0.575c0.02-0.201,0.03-0.383,0.03-0.544
		c0-0.222-0.071-0.388-0.212-0.499s-0.302-0.166-0.483-0.166h-11.702c-0.484,0-0.726,0.262-0.726,0.786v20.41
		C871.483,38.003,871.624,38.134,871.906,38.235 M865.142,38.477c0.131,0.08,0.292,0.141,0.484,0.181
		c0.191,0.04,0.403,0.065,0.635,0.076c0.232,0.01,0.458,0.015,0.681,0.015c0.161,0,0.332-0.045,0.514-0.136
		c0.181-0.091,0.241-0.297,0.181-0.62l-4.354-21.196c-0.041-0.141-0.121-0.262-0.242-0.363s-0.323-0.151-0.605-0.151
		c-0.262,0-0.589,0.035-0.983,0.106c-0.393,0.071-0.63,0.207-0.71,0.408l-6.199,16.63c-0.101,0.283-0.192,0.575-0.272,0.877
		c-0.081,0.303-0.141,0.575-0.181,0.817c-0.041-0.242-0.101-0.519-0.182-0.832c-0.08-0.312-0.171-0.609-0.272-0.892l-6.259-16.6
		c-0.141-0.343-0.413-0.514-0.816-0.514c-0.162,0-0.343,0.005-0.545,0.015c-0.201,0.01-0.388,0.035-0.559,0.076
		c-0.171,0.04-0.317,0.095-0.438,0.166c-0.121,0.071-0.192,0.156-0.212,0.257l-4.445,21.196c-0.06,0.302,0.01,0.504,0.212,0.605
		c0.201,0.1,0.363,0.151,0.484,0.151c0.201,0,0.423-0.005,0.665-0.015c0.242-0.011,0.458-0.041,0.65-0.091
		c0.191-0.05,0.358-0.111,0.499-0.181c0.141-0.071,0.221-0.167,0.242-0.288l3.235-16.207c0.04-0.1,0.07-0.236,0.091-0.408
		c0.02-0.171,0.04-0.348,0.06-0.529c0.02,0.162,0.056,0.333,0.106,0.514c0.05,0.182,0.096,0.323,0.136,0.423l5.987,16.177
		c0.04,0.121,0.126,0.222,0.257,0.303c0.131,0.08,0.277,0.14,0.439,0.181c0.161,0.04,0.327,0.07,0.498,0.091
		c0.171,0.02,0.328,0.03,0.469,0.03c0.504,0,0.826-0.202,0.968-0.605l5.956-16.177c0.041-0.1,0.086-0.257,0.136-0.468
		c0.051-0.212,0.086-0.368,0.106-0.469c0.02,0.162,0.046,0.333,0.076,0.514c0.03,0.182,0.055,0.323,0.075,0.423l3.206,16.207
		C864.935,38.295,865.011,38.396,865.142,38.477 M839.09,19.065c0.081,0,0.152-0.061,0.212-0.182
		c0.061-0.121,0.116-0.272,0.166-0.453c0.05-0.182,0.086-0.373,0.106-0.575c0.02-0.201,0.03-0.383,0.03-0.544
		c0-0.201-0.075-0.363-0.226-0.484s-0.328-0.181-0.529-0.181h-14.665c-0.101,0-0.182,0.065-0.242,0.196
		c-0.061,0.132-0.111,0.287-0.151,0.469c-0.041,0.181-0.071,0.373-0.091,0.574c-0.021,0.202-0.03,0.374-0.03,0.514
		c0,0.202,0.07,0.363,0.211,0.484c0.141,0.121,0.322,0.182,0.544,0.182h5.836v19.17c0,0.101,0.071,0.181,0.212,0.242
		c0.141,0.06,0.317,0.11,0.529,0.151c0.212,0.04,0.433,0.07,0.665,0.091c0.232,0.02,0.428,0.03,0.59,0.03
		c0.221,0,0.398-0.081,0.529-0.242c0.131-0.161,0.197-0.352,0.197-0.574V19.065H839.09z M816.102,19.201
		c0.574,0.111,1.017,0.312,1.33,0.604c0.312,0.293,0.529,0.696,0.65,1.21c0.121,0.514,0.182,1.174,0.182,1.98v0.515
		c0,0.806-0.061,1.466-0.182,1.98c-0.121,0.514-0.338,0.912-0.65,1.194c-0.313,0.283-0.756,0.479-1.33,0.59
		c-0.575,0.111-1.316,0.166-2.223,0.166h-4.656v-8.406h4.656C814.786,19.034,815.527,19.09,816.102,19.201 M806.728,38.447
		c0.151,0.06,0.333,0.115,0.545,0.166c0.211,0.05,0.428,0.085,0.65,0.106c0.221,0.02,0.413,0.03,0.574,0.03
		c0.222,0,0.398-0.076,0.529-0.227c0.131-0.151,0.197-0.337,0.197-0.559v-8.104h4.535l4.596,8.074
		c0.081,0.161,0.212,0.297,0.393,0.408c0.182,0.11,0.378,0.196,0.59,0.257c0.212,0.06,0.428,0.1,0.65,0.121
		c0.222,0.02,0.413,0.03,0.575,0.03c0.141,0,0.317-0.03,0.529-0.091c0.211-0.06,0.317-0.192,0.317-0.393
		c0-0.201-0.09-0.443-0.272-0.726l-4.475-7.952c0.847-0.121,1.547-0.332,2.102-0.635c0.554-0.302,1.002-0.695,1.345-1.179
		c0.343-0.484,0.585-1.078,0.726-1.784c0.141-0.705,0.212-1.532,0.212-2.479v-0.515c0-1.209-0.121-2.222-0.363-3.038
		c-0.242-0.817-0.646-1.472-1.21-1.966c-0.564-0.493-1.315-0.846-2.253-1.058c-0.937-0.212-2.091-0.318-3.462-0.318h-6.501
		c-0.222,0-0.403,0.076-0.544,0.227c-0.141,0.151-0.212,0.338-0.212,0.56v20.803C806.501,38.306,806.577,38.386,806.728,38.447
		 M794.298,20.304c0.02-0.201,0.05-0.382,0.091-0.544c0,0.101,0.025,0.283,0.075,0.544c0.05,0.263,0.096,0.444,0.136,0.545
		l2.903,8.799h-6.259l2.933-8.799C794.237,20.688,794.278,20.506,794.298,20.304 M800.92,38.643
		c0.342,0.071,0.796,0.106,1.361,0.106c0.181,0,0.357-0.035,0.529-0.106c0.171-0.071,0.257-0.196,0.257-0.378
		c0-0.121-0.011-0.211-0.031-0.272l-7.256-21.136c-0.121-0.382-0.353-0.574-0.696-0.574c-0.383,0-0.801,0.035-1.255,0.106
		c-0.453,0.071-0.721,0.217-0.801,0.438l-7.287,21.166c-0.041,0.121-0.061,0.212-0.061,0.272c0,0.182,0.086,0.307,0.257,0.378
		c0.171,0.071,0.358,0.106,0.56,0.106c0.463,0,0.881-0.02,1.255-0.06c0.372-0.041,0.599-0.182,0.68-0.424l2.117-6.259h7.68
		l2.026,6.138C800.355,38.406,800.577,38.572,800.92,38.643 M779.772,19.231c0.585,0.111,1.043,0.313,1.376,0.605
		s0.564,0.695,0.695,1.209c0.131,0.514,0.197,1.164,0.197,1.95v0.515c0,0.786-0.066,1.436-0.197,1.95
		c-0.131,0.514-0.362,0.917-0.695,1.209c-0.333,0.293-0.791,0.494-1.376,0.605c-0.585,0.111-1.33,0.166-2.237,0.166h-4.536v-8.375
		h4.536C778.442,19.065,779.187,19.12,779.772,19.231 M770.504,38.447c0.152,0.06,0.333,0.115,0.545,0.166
		c0.211,0.05,0.428,0.085,0.65,0.106c0.221,0.02,0.413,0.03,0.574,0.03c0.222,0,0.398-0.076,0.529-0.227s0.197-0.337,0.197-0.559
		v-8.104h4.536c1.35,0,2.489-0.095,3.416-0.287c0.927-0.191,1.679-0.529,2.253-1.013c0.575-0.484,0.987-1.134,1.24-1.95
		c0.252-0.817,0.378-1.849,0.378-3.099v-0.515c0-1.209-0.121-2.222-0.363-3.038c-0.242-0.817-0.646-1.467-1.21-1.951
		c-0.564-0.483-1.315-0.831-2.252-1.043c-0.938-0.211-2.092-0.317-3.462-0.317h-6.501c-0.222,0-0.404,0.045-0.545,0.136
		c-0.141,0.09-0.211,0.307-0.211,0.65v20.773C770.278,38.306,770.353,38.386,770.504,38.447 M753.705,38.235
		c0.282,0.101,0.554,0.151,0.816,0.151h11.4c0.08,0,0.151-0.06,0.211-0.181c0.061-0.121,0.111-0.272,0.152-0.454
		c0.04-0.181,0.07-0.373,0.09-0.574c0.02-0.202,0.03-0.383,0.03-0.545c0-0.201-0.07-0.362-0.211-0.483
		c-0.141-0.121-0.303-0.182-0.484-0.182h-9.706v-7.438h8.98c0.081,0,0.152-0.061,0.212-0.182c0.06-0.121,0.116-0.272,0.166-0.453
		c0.05-0.182,0.086-0.373,0.106-0.575c0.02-0.201,0.03-0.372,0.03-0.514c0-0.221-0.07-0.393-0.211-0.514
		c-0.142-0.121-0.313-0.181-0.514-0.181h-8.769v-7.045h9.918c0.08,0,0.151-0.061,0.211-0.182c0.061-0.121,0.111-0.272,0.152-0.453
		c0.04-0.182,0.07-0.373,0.09-0.575c0.02-0.201,0.03-0.383,0.03-0.544c0-0.222-0.07-0.388-0.211-0.499s-0.303-0.166-0.484-0.166
		h-11.702c-0.484,0-0.725,0.262-0.725,0.786v20.41C753.282,38.003,753.422,38.134,753.705,38.235 M743.346,19.352
		c0.726,0.212,1.315,0.559,1.769,1.043c0.453,0.484,0.776,1.114,0.968,1.89c0.191,0.776,0.287,1.719,0.287,2.827v4.778
		c0,1.108-0.096,2.051-0.287,2.827c-0.192,0.776-0.515,1.406-0.968,1.89c-0.454,0.483-1.043,0.831-1.769,1.043
		c-0.726,0.211-1.633,0.317-2.721,0.317h-4.143V19.034h4.143C741.713,19.034,742.62,19.14,743.346,19.352 M734.033,16.797
		c-0.181,0.121-0.272,0.323-0.272,0.605v20.44c0,0.161,0.136,0.292,0.408,0.393c0.272,0.101,0.549,0.151,0.832,0.151h5.624
		c1.451,0,2.711-0.136,3.779-0.408c1.069-0.272,1.955-0.726,2.661-1.361s1.23-1.471,1.573-2.509
		c0.342-1.038,0.514-2.323,0.514-3.856v-5.473c0-1.531-0.172-2.816-0.514-3.855c-0.343-1.038-0.867-1.874-1.573-2.509
		c-0.706-0.635-1.592-1.094-2.661-1.376c-1.068-0.282-2.328-0.424-3.779-0.424h-5.987C734.416,16.615,734.214,16.676,734.033,16.797
		 M708.483,16.797c-0.101-0.141-0.211-0.262-0.332-0.363s-0.263-0.151-0.424-0.151c-0.181,0-0.378,0.01-0.589,0.03
		c-0.212,0.02-0.419,0.056-0.62,0.106c-0.202,0.05-0.368,0.111-0.499,0.181c-0.131,0.071-0.197,0.147-0.197,0.227v21.408
		c0,0.101,0.071,0.181,0.212,0.242c0.141,0.06,0.312,0.11,0.514,0.151c0.201,0.04,0.413,0.07,0.635,0.091
		c0.222,0.02,0.413,0.03,0.575,0.03c0.221,0,0.397-0.081,0.529-0.242c0.131-0.161,0.196-0.352,0.196-0.574v-16.54l10.855,16.872
		c0.061,0.081,0.167,0.151,0.318,0.212c0.151,0.06,0.327,0.11,0.529,0.151c0.201,0.04,0.403,0.07,0.605,0.091
		c0.201,0.02,0.373,0.03,0.514,0.03c0.201,0,0.367-0.076,0.499-0.227c0.131-0.151,0.196-0.337,0.196-0.559V17.129
		c0-0.241-0.045-0.443-0.136-0.604c-0.091-0.161-0.247-0.242-0.468-0.242c-0.182,0-0.394,0.01-0.635,0.03
		c-0.242,0.02-0.469,0.051-0.681,0.091c-0.211,0.04-0.388,0.091-0.529,0.151c-0.141,0.06-0.212,0.131-0.212,0.212v16.932
		L708.483,16.797z M701.333,17.099c0-0.221-0.066-0.413-0.197-0.574c-0.131-0.161-0.308-0.242-0.529-0.242
		c-0.182,0-0.383,0.01-0.605,0.03c-0.222,0.02-0.438,0.056-0.65,0.106c-0.212,0.05-0.388,0.111-0.529,0.181
		c-0.141,0.071-0.212,0.147-0.212,0.227v21.408c0,0.101,0.071,0.181,0.212,0.242c0.141,0.06,0.317,0.11,0.529,0.151
		c0.212,0.04,0.428,0.07,0.65,0.091c0.222,0.02,0.423,0.03,0.605,0.03c0.221,0,0.398-0.081,0.529-0.242
		c0.131-0.161,0.197-0.352,0.197-0.574V17.099z M682.174,27.35l10.069,10.855c0.222,0.242,0.534,0.393,0.938,0.453
		c0.403,0.061,0.836,0.091,1.3,0.091c0.141,0,0.302-0.02,0.484-0.06c0.181-0.041,0.272-0.162,0.272-0.363
		c0-0.222-0.162-0.504-0.484-0.847l-9.706-10.432l8.859-9.494c0.343-0.363,0.514-0.645,0.514-0.847c0-0.201-0.09-0.322-0.272-0.363
		c-0.181-0.04-0.353-0.06-0.514-0.06c-0.443,0-0.872,0.03-1.285,0.091c-0.413,0.06-0.731,0.211-0.952,0.453l-9.223,9.948v-9.676
		c0-0.221-0.065-0.413-0.196-0.574c-0.131-0.161-0.308-0.242-0.529-0.242c-0.182,0-0.383,0.01-0.605,0.03
		c-0.222,0.02-0.438,0.056-0.65,0.106c-0.212,0.05-0.388,0.111-0.529,0.181c-0.142,0.071-0.212,0.147-0.212,0.227v21.408
		c0,0.101,0.07,0.181,0.212,0.242c0.141,0.06,0.317,0.11,0.529,0.151c0.212,0.04,0.428,0.07,0.65,0.091
		c0.222,0.02,0.423,0.03,0.605,0.03c0.221,0,0.398-0.081,0.529-0.242c0.131-0.161,0.196-0.352,0.196-0.574V27.35z M667.234,20.304
		c0.02-0.201,0.051-0.382,0.091-0.544c0,0.101,0.025,0.283,0.076,0.544c0.05,0.263,0.095,0.444,0.136,0.545l2.903,8.799h-6.259
		l2.933-8.799C667.174,20.688,667.214,20.506,667.234,20.304 M673.856,38.643c0.343,0.071,0.797,0.106,1.361,0.106
		c0.181,0,0.358-0.035,0.529-0.106c0.171-0.071,0.257-0.196,0.257-0.378c0-0.121-0.01-0.211-0.03-0.272l-7.257-21.136
		c-0.121-0.382-0.353-0.574-0.695-0.574c-0.383,0-0.802,0.035-1.255,0.106c-0.454,0.071-0.721,0.217-0.801,0.438l-7.288,21.166
		c-0.04,0.121-0.06,0.212-0.06,0.272c0,0.182,0.085,0.307,0.257,0.378c0.171,0.071,0.358,0.106,0.559,0.106
		c0.464,0,0.882-0.02,1.255-0.06c0.373-0.041,0.6-0.182,0.681-0.424l2.116-6.259h7.68l2.026,6.138
		C673.292,38.406,673.513,38.572,673.856,38.643 M642.854,38.235c0.283,0.101,0.555,0.151,0.817,0.151h11.399
		c0.081,0,0.151-0.06,0.212-0.181c0.06-0.121,0.11-0.272,0.151-0.454c0.04-0.181,0.071-0.373,0.091-0.574
		c0.02-0.202,0.03-0.383,0.03-0.545c0-0.201-0.071-0.362-0.212-0.483c-0.141-0.121-0.302-0.182-0.483-0.182h-9.706v-7.438h8.98
		c0.08,0,0.151-0.061,0.212-0.182c0.06-0.121,0.115-0.272,0.166-0.453c0.05-0.182,0.085-0.373,0.106-0.575
		c0.02-0.201,0.03-0.372,0.03-0.514c0-0.221-0.071-0.393-0.212-0.514c-0.141-0.121-0.312-0.181-0.514-0.181h-8.768v-7.045h9.917
		c0.081,0,0.151-0.061,0.212-0.182c0.06-0.121,0.11-0.272,0.151-0.453c0.04-0.182,0.071-0.373,0.091-0.575
		c0.02-0.201,0.03-0.383,0.03-0.544c0-0.222-0.071-0.388-0.212-0.499s-0.302-0.166-0.483-0.166h-11.702
		c-0.484,0-0.726,0.262-0.726,0.786v20.41C642.431,38.003,642.572,38.134,642.854,38.235 M632.496,19.352
		c0.725,0.212,1.315,0.559,1.769,1.043c0.453,0.484,0.775,1.114,0.967,1.89c0.191,0.776,0.287,1.719,0.287,2.827v4.778
		c0,1.108-0.096,2.051-0.287,2.827c-0.192,0.776-0.514,1.406-0.967,1.89c-0.454,0.483-1.044,0.831-1.769,1.043
		c-0.726,0.211-1.633,0.317-2.722,0.317h-4.142V19.034h4.142C630.863,19.034,631.77,19.14,632.496,19.352 M623.183,16.797
		c-0.182,0.121-0.272,0.323-0.272,0.605v20.44c0,0.161,0.136,0.292,0.408,0.393c0.272,0.101,0.549,0.151,0.831,0.151h5.624
		c1.452,0,2.711-0.136,3.78-0.408c1.068-0.272,1.955-0.726,2.661-1.361c0.705-0.635,1.229-1.471,1.572-2.509
		c0.343-1.038,0.514-2.323,0.514-3.856v-5.473c0-1.531-0.171-2.816-0.514-3.855c-0.343-1.038-0.867-1.874-1.572-2.509
		c-0.706-0.635-1.593-1.094-2.661-1.376c-1.069-0.282-2.328-0.424-3.78-0.424h-5.987C623.565,16.615,623.364,16.676,623.183,16.797
		 M606.84,19.201c0.575,0.111,1.018,0.312,1.331,0.604c0.312,0.293,0.529,0.696,0.65,1.21c0.121,0.514,0.181,1.174,0.181,1.98v0.515
		c0,0.806-0.06,1.466-0.181,1.98c-0.121,0.514-0.338,0.912-0.65,1.194c-0.313,0.283-0.756,0.479-1.331,0.59
		c-0.574,0.111-1.315,0.166-2.222,0.166h-4.656v-8.406h4.656C605.525,19.034,606.266,19.09,606.84,19.201 M597.467,38.447
		c0.151,0.06,0.333,0.115,0.544,0.166c0.212,0.05,0.428,0.085,0.65,0.106c0.222,0.02,0.413,0.03,0.575,0.03
		c0.221,0,0.398-0.076,0.529-0.227c0.131-0.151,0.197-0.337,0.197-0.559v-8.104h4.535l4.596,8.074
		c0.08,0.161,0.212,0.297,0.393,0.408c0.182,0.11,0.378,0.196,0.59,0.257c0.211,0.06,0.428,0.1,0.65,0.121
		c0.222,0.02,0.413,0.03,0.574,0.03c0.141,0,0.318-0.03,0.53-0.091c0.211-0.06,0.317-0.192,0.317-0.393
		c0-0.201-0.091-0.443-0.272-0.726l-4.475-7.952c0.846-0.121,1.547-0.332,2.101-0.635c0.554-0.302,1.003-0.695,1.346-1.179
		c0.342-0.484,0.584-1.078,0.726-1.784c0.14-0.705,0.211-1.532,0.211-2.479v-0.515c0-1.209-0.121-2.222-0.363-3.038
		c-0.242-0.817-0.645-1.472-1.209-1.966c-0.565-0.493-1.315-0.846-2.253-1.058c-0.937-0.212-2.091-0.318-3.462-0.318h-6.501
		c-0.222,0-0.403,0.076-0.544,0.227c-0.141,0.151-0.212,0.338-0.212,0.56v20.803C597.24,38.306,597.316,38.386,597.467,38.447
		 M580.667,38.235c0.282,0.101,0.555,0.151,0.817,0.151h11.399c0.08,0,0.151-0.06,0.212-0.181c0.06-0.121,0.11-0.272,0.151-0.454
		c0.04-0.181,0.07-0.373,0.091-0.574c0.02-0.202,0.03-0.383,0.03-0.545c0-0.201-0.071-0.362-0.212-0.483
		c-0.141-0.121-0.302-0.182-0.483-0.182h-9.707v-7.438h8.981c0.08,0,0.151-0.061,0.211-0.182c0.061-0.121,0.116-0.272,0.167-0.453
		c0.05-0.182,0.085-0.373,0.106-0.575c0.019-0.201,0.03-0.372,0.03-0.514c0-0.221-0.071-0.393-0.212-0.514
		c-0.141-0.121-0.313-0.181-0.514-0.181h-8.769v-7.045h9.918c0.08,0,0.151-0.061,0.212-0.182c0.06-0.121,0.11-0.272,0.151-0.453
		c0.04-0.182,0.07-0.373,0.091-0.575c0.02-0.201,0.03-0.383,0.03-0.544c0-0.222-0.071-0.388-0.212-0.499
		c-0.141-0.111-0.302-0.166-0.483-0.166H580.97c-0.484,0-0.726,0.262-0.726,0.786v20.41
		C580.244,38.003,580.385,38.134,580.667,38.235 M563.807,27.35l10.069,10.855c0.222,0.242,0.534,0.393,0.938,0.453
		c0.403,0.061,0.836,0.091,1.3,0.091c0.141,0,0.302-0.02,0.484-0.06c0.181-0.041,0.272-0.162,0.272-0.363
		c0-0.222-0.162-0.504-0.484-0.847l-9.706-10.432l8.859-9.494c0.343-0.363,0.514-0.645,0.514-0.847c0-0.201-0.09-0.322-0.272-0.363
		c-0.181-0.04-0.353-0.06-0.514-0.06c-0.444,0-0.872,0.03-1.285,0.091c-0.413,0.06-0.731,0.211-0.952,0.453l-9.223,9.948v-9.676
		c0-0.221-0.065-0.413-0.196-0.574c-0.132-0.161-0.308-0.242-0.529-0.242c-0.182,0-0.384,0.01-0.605,0.03
		c-0.222,0.02-0.439,0.056-0.65,0.106c-0.212,0.05-0.389,0.111-0.529,0.181c-0.142,0.071-0.212,0.147-0.212,0.227v21.408
		c0,0.101,0.07,0.181,0.212,0.242c0.14,0.06,0.317,0.11,0.529,0.151c0.211,0.04,0.428,0.07,0.65,0.091
		c0.221,0.02,0.423,0.03,0.605,0.03c0.221,0,0.397-0.081,0.529-0.242c0.131-0.161,0.196-0.352,0.196-0.574V27.35z M548.867,20.304
		c0.02-0.201,0.05-0.382,0.091-0.544c0,0.101,0.025,0.283,0.076,0.544c0.05,0.263,0.095,0.444,0.136,0.545l2.903,8.799h-6.26
		l2.933-8.799C548.807,20.688,548.847,20.506,548.867,20.304 M555.489,38.643c0.343,0.071,0.796,0.106,1.361,0.106
		c0.181,0,0.358-0.035,0.529-0.106c0.171-0.071,0.257-0.196,0.257-0.378c0-0.121-0.01-0.211-0.03-0.272l-7.257-21.136
		c-0.121-0.382-0.353-0.574-0.696-0.574c-0.383,0-0.801,0.035-1.254,0.106c-0.454,0.071-0.721,0.217-0.802,0.438l-7.287,21.166
		c-0.04,0.121-0.06,0.212-0.06,0.272c0,0.182,0.085,0.307,0.257,0.378c0.171,0.071,0.357,0.106,0.559,0.106
		c0.464,0,0.882-0.02,1.255-0.06c0.373-0.041,0.6-0.182,0.68-0.424l2.117-6.259h7.68l2.026,6.138
		C554.925,38.406,555.146,38.572,555.489,38.643 M532.67,19.277c0.443,0.162,0.796,0.385,1.058,0.668
		c0.262,0.284,0.448,0.633,0.559,1.048c0.111,0.415,0.167,0.876,0.167,1.382v0.243c0,1.194-0.248,2.07-0.741,2.627
		c-0.494,0.556-1.417,0.835-2.767,0.835h-6.168v-7.046h6.229C531.672,19.034,532.226,19.116,532.67,19.277 M534.015,29.103
		c0.575,0.585,0.862,1.533,0.862,2.843v0.604c0,0.666-0.066,1.22-0.197,1.663c-0.131,0.444-0.347,0.792-0.65,1.044
		c-0.302,0.252-0.7,0.433-1.194,0.544s-1.094,0.166-1.799,0.166h-6.259v-7.741h6.349C532.478,28.226,533.441,28.519,534.015,29.103
		 M522.268,16.812c-0.141,0.131-0.212,0.328-0.212,0.59v20.44c0,0.161,0.136,0.292,0.409,0.393c0.272,0.101,0.549,0.151,0.831,0.151
		h7.711c1.108,0,2.076-0.1,2.902-0.302c0.827-0.201,1.512-0.528,2.056-0.981c0.545-0.453,0.953-1.052,1.225-1.796
		c0.272-0.745,0.408-1.661,0.408-2.748v-0.604c0-0.905-0.106-1.655-0.317-2.249c-0.212-0.594-0.474-1.082-0.786-1.464
		c-0.313-0.383-0.656-0.664-1.029-0.846c-0.373-0.181-0.71-0.302-1.012-0.362c0.382-0.08,0.74-0.227,1.073-0.439
		c0.333-0.212,0.62-0.49,0.862-0.833c0.242-0.343,0.433-0.772,0.574-1.287s0.212-1.136,0.212-1.863V22.37
		c0-0.848-0.096-1.621-0.287-2.317c-0.192-0.696-0.525-1.302-0.998-1.817c-0.474-0.515-1.109-0.914-1.905-1.196
		c-0.797-0.283-1.789-0.425-2.978-0.425h-7.983C522.661,16.615,522.409,16.681,522.268,16.812"/>
</g>
</svg>
