<?xml version="1.0" encoding="UTF-8"?>
<!-- Generator: Adobe Illustrator 30.1.0, SVG Export Plug-In . SVG Version: 9.03 Build 0)  -->
<svg version="1.1" id="Layer_1" xmlns="http://www.w3.org/2000/svg" xmlns:xlink="http://www.w3.org/1999/xlink" x="0px" y="0px"
	 viewBox="0 0 1000 144" style="enable-background:new 0 0 1000 144;" xml:space="preserve">
<g>
	<defs>
		<rect id="SVGID_1_" width="1000" height="144"/>
	</defs>
	<clipPath id="SVGID_00000065782907477202673590000015079067554450728078_">
		<use xlink:href="#SVGID_1_"  style="overflow:visible;"/>
	</clipPath>
	<path style="clip-path:url(#SVGID_00000065782907477202673590000015079067554450728078_);fill:#FFFFFF;" d="M414.759,115.025
		v11.825c0,0.397-0.133,0.706-0.443,0.927c-0.265,0.221-0.619,0.353-1.062,0.353c-0.265,0-0.664,0-1.106-0.044
		c-0.442-0.044-0.929-0.088-1.372-0.132c-0.442-0.045-0.841-0.177-1.195-0.309c-0.309-0.133-0.486-0.309-0.486-0.486v-12.09
		L398.74,94.903c-0.354-0.706-0.399-1.192-0.133-1.5c0.266-0.309,0.752-0.486,1.46-0.486c0.443,0,0.885,0,1.372,0.044
		c0.443,0,0.885,0.044,1.283,0.133c0.399,0.044,0.753,0.132,1.018,0.22c0.266,0.089,0.487,0.221,0.575,0.441l7.612,15.489
		l7.611-15.444c0.089-0.177,0.265-0.354,0.575-0.442c0.266-0.088,0.62-0.176,1.018-0.264c0.398-0.045,0.841-0.089,1.283-0.133
		c0.443,0,0.93-0.044,1.372-0.044c0.708,0,1.195,0.132,1.461,0.441c0.221,0.309,0.177,0.795-0.178,1.545L414.759,115.025z
		 M384.491,98.521v28.329c0,0.397-0.133,0.706-0.443,0.927c-0.31,0.221-0.619,0.353-1.018,0.353c-0.265,0-0.663,0-1.15-0.044
		c-0.487-0.044-0.974-0.088-1.416-0.132c-0.443-0.045-0.841-0.177-1.151-0.309c-0.354-0.133-0.486-0.309-0.486-0.486V98.565h-8.762
		c-0.354,0-0.62-0.132-0.885-0.397c-0.222-0.265-0.354-0.573-0.354-0.971c0-0.265,0-0.573,0.044-1.015
		c0.044-0.397,0.088-0.838,0.133-1.235c0.044-0.397,0.177-0.75,0.265-1.059c0.133-0.265,0.266-0.441,0.487-0.441h23.453
		c0.354,0,0.62,0.132,0.885,0.397c0.222,0.265,0.354,0.617,0.354,0.971c0,0.264,0,0.573-0.044,1.014
		c-0.044,0.442-0.088,0.839-0.133,1.236c-0.044,0.397-0.132,0.75-0.265,1.015s-0.266,0.441-0.487,0.441H384.491z M364.046,126.85
		c0,0.397-0.132,0.706-0.442,0.927c-0.266,0.221-0.62,0.353-1.062,0.353c-0.266,0-0.664,0-1.151-0.044
		c-0.486-0.044-0.929-0.088-1.416-0.132c-0.442-0.045-0.84-0.177-1.195-0.309c-0.309-0.133-0.486-0.309-0.486-0.486V93.932
		c0-0.177,0.177-0.353,0.486-0.486c0.355-0.132,0.753-0.264,1.195-0.308c0.443-0.044,0.93-0.133,1.416-0.133
		c0.487-0.044,0.841-0.044,1.151-0.044c0.398,0,0.752,0.133,1.062,0.397c0.265,0.265,0.442,0.574,0.442,0.927V126.85z
		 M332.141,122.305c0.265,0.044,0.62,0.177,1.151,0.265c0.531,0.132,1.106,0.265,1.814,0.397c0.664,0.133,1.416,0.221,2.257,0.353
		c0.796,0.088,1.637,0.133,2.434,0.133c0.885,0,1.725-0.089,2.522-0.221c0.796-0.132,1.549-0.397,2.168-0.706
		c0.62-0.353,1.151-0.794,1.505-1.324c0.398-0.574,0.575-1.235,0.575-2.074c0-1.147-0.354-2.118-1.106-2.912
		c-0.753-0.794-1.682-1.545-2.788-2.251c-1.106-0.706-2.345-1.412-3.673-2.118s-2.522-1.544-3.673-2.471
		c-1.15-0.926-2.08-2.03-2.788-3.309c-0.752-1.28-1.106-2.824-1.106-4.678c0-1.544,0.265-2.868,0.841-3.927
		c0.575-1.059,1.327-1.941,2.301-2.647c0.973-0.662,2.168-1.192,3.496-1.501c1.371-0.309,2.876-0.485,4.513-0.485
		c0.354,0,0.885,0,1.593,0.044s1.461,0.088,2.257,0.176c0.797,0.089,1.593,0.177,2.346,0.309c0.796,0.133,1.416,0.309,1.858,0.53
		c0.443,0.176,0.708,0.397,0.797,0.618c0.088,0.22,0.088,0.573,0.044,1.103c-0.044,0.838-0.221,1.5-0.531,2.074
		c-0.266,0.573-0.664,0.794-1.195,0.706c-0.796-0.177-1.681-0.309-2.699-0.486c-1.018-0.132-2.169-0.22-3.408-0.22
		c-1.947,0-3.584,0.309-4.823,0.838c-1.239,0.574-1.859,1.5-1.859,2.824c0,1.059,0.355,1.942,1.107,2.692
		c0.752,0.75,1.681,1.456,2.788,2.118c1.106,0.662,2.345,1.368,3.672,2.074c1.328,0.706,2.523,1.544,3.673,2.515
		c1.107,0.971,2.08,2.118,2.788,3.442c0.752,1.324,1.106,3.001,1.106,4.898c0,1.809-0.354,3.31-1.017,4.457
		c-0.664,1.191-1.593,2.074-2.7,2.736c-1.106,0.662-2.434,1.103-3.894,1.368c-1.46,0.264-3.009,0.397-4.602,0.397
		c-0.708,0-1.505-0.044-2.301-0.088c-0.797-0.045-1.549-0.133-2.345-0.221c-0.753-0.088-1.461-0.221-2.169-0.353
		c-0.664-0.133-1.239-0.265-1.726-0.441c-0.486-0.177-0.752-0.353-0.84-0.53c-0.089-0.221-0.133-0.574-0.045-1.059
		c0.089-0.927,0.266-1.721,0.531-2.339C331.344,122.482,331.698,122.173,332.141,122.305 M313.953,98.477h-6.593v11.429h6.593
		c1.284,0,2.346-0.089,3.098-0.221c0.797-0.132,1.372-0.397,1.814-0.794c0.443-0.397,0.709-0.883,0.841-1.545
		c0.133-0.661,0.221-1.544,0.221-2.603v-1.059c0-1.059-0.088-1.942-0.221-2.648c-0.132-0.661-0.442-1.191-0.841-1.588
		c-0.442-0.397-1.017-0.618-1.814-0.795C316.255,98.565,315.237,98.477,313.953,98.477 M301.652,127.115V94.638
		c0-0.353,0.132-0.618,0.442-0.883c0.31-0.22,0.62-0.352,1.062-0.352h10.488c2.168,0,4.027,0.176,5.575,0.485
		c1.549,0.309,2.788,0.882,3.762,1.677c0.973,0.794,1.681,1.853,2.124,3.177c0.443,1.324,0.664,2.956,0.664,4.986v1.059
		c0,1.5-0.133,2.78-0.354,3.883c-0.222,1.103-0.62,2.074-1.107,2.869c-0.486,0.794-1.194,1.412-2.035,1.897
		s-1.859,0.838-3.009,1.103l6.593,11.385c0.354,0.617,0.531,1.059,0.531,1.368c0,0.176-0.088,0.353-0.221,0.485
		c-0.177,0.132-0.354,0.221-0.531,0.265c-0.177,0.044-0.398,0.088-0.575,0.132c-0.222,0-0.354,0.044-0.443,0.044
		c-0.265,0-0.664,0-1.106-0.044c-0.443-0.044-0.885-0.088-1.328-0.176c-0.442-0.089-0.885-0.177-1.239-0.353
		c-0.354-0.177-0.619-0.398-0.796-0.662l-6.992-11.914h-5.841v11.914c0,0.397-0.133,0.662-0.443,0.882
		c-0.265,0.221-0.619,0.353-1.018,0.353c-0.265,0-0.663,0-1.15-0.044c-0.487-0.044-0.929-0.088-1.416-0.132
		c-0.443-0.044-0.841-0.177-1.195-0.309C301.829,127.468,301.652,127.336,301.652,127.115 M273.773,126.586V94.638
		c0-0.397,0.133-0.706,0.443-0.927c0.265-0.22,0.619-0.308,1.062-0.308h19.072c0.354,0,0.664,0.132,0.885,0.441
		c0.221,0.265,0.354,0.617,0.354,0.971c0,0.264,0,0.573-0.044,1.014c-0.044,0.442-0.089,0.839-0.133,1.236
		c-0.044,0.397-0.177,0.75-0.265,1.015c-0.133,0.265-0.31,0.441-0.487,0.441h-15.134v9.178h12.966c0.309,0,0.575,0.133,0.84,0.397
		c0.222,0.265,0.354,0.574,0.354,0.927c0,0.265,0,0.574-0.044,1.015c-0.044,0.441-0.088,0.838-0.133,1.236
		c-0.044,0.397-0.177,0.75-0.265,1.059c-0.133,0.264-0.266,0.441-0.487,0.441h-13.275v9.708h14.824c0.354,0,0.664,0.132,0.885,0.397
		c0.221,0.265,0.354,0.574,0.354,0.971c0,0.264,0,0.573-0.044,1.015c-0.045,0.397-0.089,0.838-0.133,1.235
		c-0.044,0.397-0.177,0.75-0.266,1.059c-0.132,0.309-0.309,0.441-0.486,0.441h-18.675c-0.442,0-0.929-0.088-1.416-0.309
		C273.994,127.027,273.773,126.806,273.773,126.586 M256.338,118.466l7.169-24.578c0.442-0.442,0.973-0.706,1.548-0.839
		c0.576-0.088,1.239-0.176,2.036-0.176c0.31,0,0.664,0,0.974,0.044c0.353,0.044,0.619,0.088,0.84,0.221
		c0.222,0.132,0.399,0.265,0.531,0.485c0.133,0.221,0.089,0.486,0,0.883l-11.018,32.874c-0.045,0.265-0.222,0.441-0.487,0.574
		c-0.266,0.132-0.531,0.176-0.841,0.176c-1.062,0-1.947-0.044-2.655-0.176c-0.708-0.133-1.151-0.309-1.328-0.53l-10.974-32.918
		c-0.088-0.309-0.088-0.574,0-0.795c0.089-0.22,0.221-0.353,0.442-0.485c0.178-0.132,0.399-0.221,0.664-0.265
		c0.222-0.044,0.443-0.088,0.576-0.088c0.486,0,0.973,0,1.46,0.044s0.929,0.088,1.372,0.177c0.398,0.088,0.752,0.22,1.062,0.352
		c0.265,0.177,0.487,0.354,0.575,0.618l7.346,24.358c0.133,0.397,0.221,0.794,0.265,1.192c0.045,0.441,0.089,0.794,0.177,1.147
		c0.045-0.353,0.089-0.75,0.133-1.147C256.117,119.216,256.205,118.819,256.338,118.466 M237.929,126.85
		c0,0.397-0.133,0.706-0.442,0.927c-0.266,0.221-0.62,0.353-1.062,0.353c-0.266,0-0.664,0-1.151-0.044
		c-0.487-0.044-0.929-0.088-1.416-0.132c-0.442-0.045-0.841-0.177-1.195-0.309c-0.354-0.133-0.487-0.309-0.487-0.486V93.932
		c0-0.177,0.177-0.353,0.487-0.486c0.354-0.132,0.708-0.264,1.195-0.308c0.442-0.044,0.929-0.133,1.416-0.133
		c0.487-0.044,0.841-0.044,1.151-0.044c0.398,0,0.752,0.133,1.062,0.397c0.265,0.265,0.442,0.574,0.442,0.927V126.85z
		 M220.494,117.584V93.755c0-0.176,0.177-0.352,0.531-0.441c0.354-0.132,0.752-0.22,1.239-0.265c0.487-0.044,0.974-0.088,1.46-0.132
		c0.487-0.044,0.885-0.044,1.151-0.044c0.841,0,1.239,0.485,1.239,1.412v32.565c0,0.397-0.133,0.662-0.442,0.883
		c-0.31,0.221-0.62,0.353-0.974,0.353c-0.266,0-0.575,0-1.018-0.044c-0.442-0.044-0.841-0.044-1.283-0.133
		c-0.443-0.088-0.797-0.176-1.151-0.264c-0.354-0.133-0.575-0.265-0.708-0.442l-15.444-23.696v23.343
		c0,0.397-0.132,0.706-0.442,0.927c-0.266,0.221-0.62,0.353-1.018,0.353c-0.265,0-0.664,0-1.15-0.044
		c-0.487-0.044-0.974-0.088-1.417-0.132c-0.442-0.045-0.84-0.177-1.15-0.309c-0.354-0.133-0.487-0.309-0.487-0.486V93.932
		c0-0.177,0.177-0.353,0.487-0.485c0.354-0.133,0.708-0.265,1.15-0.309c0.443-0.044,0.886-0.089,1.372-0.133
		c0.487-0.044,0.841-0.044,1.151-0.044c0.354,0,0.664,0.088,0.885,0.309c0.221,0.221,0.442,0.441,0.575,0.706L220.494,117.584z
		 M187.571,115.466V94.02c0-0.176,0.177-0.353,0.486-0.485c0.355-0.132,0.753-0.265,1.195-0.353
		c0.487-0.088,0.974-0.177,1.416-0.221c0.487-0.044,0.841-0.088,1.151-0.088c0.398,0,0.752,0.132,1.018,0.441
		c0.265,0.309,0.398,0.618,0.398,0.971v21.446c0,2.338-0.266,4.28-0.797,5.868c-0.531,1.589-1.283,2.824-2.345,3.839
		c-1.062,0.971-2.389,1.677-3.983,2.074c-1.593,0.397-3.495,0.618-5.62,0.618h-0.398c-2.08,0-3.938-0.221-5.487-0.618
		c-1.593-0.397-2.876-1.103-3.938-2.074c-1.062-0.97-1.815-2.25-2.346-3.839c-0.531-1.544-0.796-3.53-0.796-5.868V94.02
		c0-0.176,0.177-0.353,0.486-0.485c0.355-0.132,0.708-0.265,1.195-0.353c0.443-0.088,0.93-0.177,1.416-0.221
		c0.487-0.044,0.885-0.088,1.151-0.088c0.398,0,0.708,0.132,1.018,0.441c0.265,0.309,0.442,0.618,0.442,0.971v21.137
		c0,1.367,0.089,2.515,0.31,3.486c0.221,0.97,0.575,1.765,1.106,2.338c0.531,0.618,1.239,1.059,2.124,1.324s1.992,0.441,3.319,0.441
		h0.398c1.372,0,2.479-0.132,3.408-0.441c0.885-0.309,1.637-0.75,2.168-1.324c0.531-0.618,0.93-1.368,1.151-2.338
		C187.482,117.981,187.571,116.834,187.571,115.466 M393.474,38.244v40.994h-11.329V16.622h15.798l15.179,38.567V16.622h11.505
		v62.616h-14.426L393.474,38.244z M360.949,16.622h12.745v62.615h-12.745V16.622z M312.051,16.622h13.098v27.226l16.329-27.226
		h13.674l-18.143,28.815l18.143,33.845h-15.179l-14.824-30.447v30.447h-13.098V16.622z M290.721,65.338H272.49l-3.319,13.944
		h-13.143l17.701-62.66h16.727l17.435,62.66h-13.762L290.721,65.338z M288.11,54.439l-6.283-25.903l-6.594,25.903H288.11z
		 M217.928,16.622h33.94v10.635h-20.665v13.37h19.028v10.899h-19.028v16.68h20.71v11.032h-33.985V16.622z M189.12,16.622
		c16.771,0,21.948,8.87,21.948,31.33c0,22.461-5.221,31.33-21.993,31.33h-21.506v-62.66H189.12z M180.756,68.471h5.974
		c9.78,0,11.019-5.736,11.019-20.74c0-14.958-1.239-20.695-11.019-20.695h-5.974V68.471z"/>
	<path style="clip-path:url(#SVGID_00000065782907477202673590000015079067554450728078_);fill:#FFFFFF;" d="M71.713,1.288
		C32.549,1.288,0.799,32.947,0.799,72s31.749,70.712,70.913,70.712S142.625,111.053,142.625,72S110.877,1.288,71.713,1.288"/>
	<path style="clip-path:url(#SVGID_00000065782907477202673590000015079067554450728078_);fill:#FFFFFF;" d="M71.713,2.968
		c38.175,0,69.233,30.968,69.233,69.032s-31.058,69.032-69.233,69.032S2.479,110.064,2.479,72S33.538,2.968,71.713,2.968"/>
	<path style="clip-path:url(#SVGID_00000065782907477202673590000015079067554450728078_);" d="M95.076,94.204L68.262,47.816
		l3.533-5.928l30.099,52.316H95.076z M82.396,94.204L61.86,58.843l3.45-5.804l23.655,41.165H82.396z M69.509,94.204L55.416,69.953
		l3.575-6.011l17.336,30.22h-6.818V94.204z M56.539,94.204l-7.567-13.1l3.576-6.011l10.933,19.111H56.539z M41.365,94.204
		l4.614-7.877l4.615,7.877H41.365z M35.503,36.416V85.83c0,19.94,16.213,36.107,36.209,36.107c19.997,0,36.21-16.167,36.21-36.107
		V36.416H35.503z"/>
</g>
<rect x="471.959" y="16.622" style="fill:#FFFFFF;" width="2" height="110.978"/>
<g>
	<defs>
		<rect id="SVGID_00000008843786913441576780000012526945755152548021_" width="1000" height="144"/>
	</defs>
	<clipPath id="SVGID_00000119111329443695816930000014268872374451157682_">
		<use xlink:href="#SVGID_00000008843786913441576780000012526945755152548021_"  style="overflow:visible;"/>
	</clipPath>
	<path style="clip-path:url(#SVGID_00000119111329443695816930000014268872374451157682_);fill:#FFFFFF;" d="M816.786,96.552v31.054
		h16.934v-4.851h-10.576v-8.986h9.445v-4.787h-9.445v-7.643h10.247v-4.787H816.786z M813.042,105.413
		c0-3.205-0.751-5.561-2.253-7.065c-1.502-1.505-3.701-2.258-6.595-2.258c-2.469,0-4.434,0.417-5.895,1.25
		c-1.461,0.833-2.504,1.956-3.128,3.37c-0.624,1.414-1.025,2.946-1.203,4.598c-0.179,1.652-0.268,3.926-0.268,6.823
		c0,3.682,0.168,6.369,0.504,8.063s0.851,3.086,1.543,4.178c0.693,1.092,1.698,1.96,3.015,2.604
		c1.317,0.643,3.025,0.965,5.123,0.965c3.224,0,5.611-0.825,7.161-2.477c1.55-1.652,2.325-4.122,2.325-7.412v-0.902h-6.276v0.356
		c0,2.002-0.278,3.462-0.833,4.378c-0.556,0.917-1.376,1.375-2.459,1.375c-1.29,0-2.209-0.598-2.757-1.795
		c-0.549-1.197-0.851-2.708-0.906-4.535c-0.055-1.827-0.082-3.286-0.082-4.378c0-3.247,0.082-5.564,0.247-6.949
		c0.165-1.386,0.504-2.53,1.019-3.433c0.514-0.903,1.327-1.354,2.438-1.354c0.974,0,1.725,0.388,2.253,1.165
		c0.528,0.777,0.792,2.04,0.792,3.79v0.588h6.235V105.413z M783.218,127.606h6.358V96.553h-6.358V127.606z M759.821,96.552v5.039
		h6.996v26.015h6.461v-26.015h7.078v-5.039H759.821z M755.074,125.936c1.715-1.49,2.572-3.726,2.572-6.708
		c0-1.945-0.37-3.482-1.111-4.609c-0.741-1.126-1.934-2.215-3.58-3.264l-6.152-4.011c-0.673-0.433-1.163-0.93-1.472-1.49
		c-0.308-0.56-0.463-1.162-0.463-1.806c0-1.05,0.278-1.886,0.834-2.509c0.555-0.623,1.306-0.934,2.253-0.934
		c2.044,0,3.066,1.343,3.066,4.031v0.735h6.234V104.3c0-2.995-0.751-5.12-2.253-6.372c-1.502-1.253-3.687-1.88-6.553-1.88
		c-3.21,0-5.69,0.718-7.439,2.153c-1.749,1.434-2.623,3.468-2.623,6.099c0,1.946,0.356,3.552,1.07,4.819
		c0.713,1.266,2.263,2.656,4.65,4.167l5.041,3.15c0.686,0.434,1.204,0.938,1.554,1.511c0.349,0.574,0.524,1.274,0.524,2.1
		c0,1.092-0.291,1.935-0.874,2.53s-1.417,0.892-2.5,0.892c-1.276,0-2.168-0.384-2.675-1.154c-0.508-0.77-0.761-1.932-0.761-3.486
		v-0.819h-6.461v1.932c0,2.729,0.782,4.784,2.345,6.162c1.564,1.379,3.862,2.068,6.893,2.068
		C750.733,128.172,753.359,127.427,755.074,125.936 M713.745,96.552v20.786c0,3.654,0.826,6.373,2.48,8.157
		c1.652,1.785,4.207,2.677,7.664,2.677c3.622,0,6.276-0.878,7.963-2.635c1.687-1.756,2.531-4.475,2.531-8.157V96.552h-6.193v20.954
		c0,2.002-0.343,3.51-1.029,4.525c-0.686,1.015-1.742,1.522-3.169,1.522c-1.331,0-2.311-0.5-2.942-1.501
		c-0.631-1.001-0.947-2.53-0.947-4.588V96.552H713.745z M703.143,96.552v22.928c0,1.456-0.216,2.485-0.648,3.086
		c-0.432,0.603-1.142,0.903-2.13,0.903c-0.905,0-1.54-0.336-1.903-1.007c-0.363-0.672-0.545-1.582-0.545-2.73v-2.457h-6.482v2.541
		c0,2.842,0.707,4.92,2.12,6.236c1.412,1.316,3.601,1.973,6.563,1.973c2.936,0,5.234-0.65,6.893-1.952
		c1.66-1.302,2.49-3.1,2.49-5.396V96.552H703.143z M666.397,96.552v31.054h15.885v-5.165h-9.444V96.552H666.397z M650.651,102.536
		l3.168,13.501h-6.152L650.651,102.536z M646.865,96.552l-8.437,31.054h6.297l1.728-6.887h8.663l1.687,6.887h6.708l-8.251-31.054
		H646.865z M629.185,127.606h6.358V96.553h-6.358V127.606z M625.444,105.413c0-3.205-0.751-5.561-2.253-7.065
		c-1.502-1.505-3.7-2.258-6.594-2.258c-2.469,0-4.434,0.417-5.895,1.25c-1.461,0.833-2.504,1.956-3.128,3.37
		c-0.624,1.414-1.026,2.946-1.204,4.598c-0.178,1.652-0.267,3.926-0.267,6.823c0,3.682,0.168,6.369,0.504,8.063
		s0.85,3.086,1.543,4.178s1.698,1.96,3.015,2.604c1.316,0.643,3.024,0.965,5.123,0.965c3.223,0,5.61-0.825,7.161-2.477
		c1.55-1.652,2.325-4.122,2.325-7.412v-0.902h-6.276v0.356c0,2.002-0.278,3.462-0.833,4.378c-0.556,0.917-1.376,1.375-2.459,1.375
		c-1.29,0-2.209-0.598-2.757-1.795c-0.549-1.197-0.851-2.708-0.906-4.535c-0.055-1.827-0.082-3.286-0.082-4.378
		c0-3.247,0.082-5.564,0.247-6.949c0.164-1.386,0.504-2.53,1.018-3.433c0.515-0.903,1.327-1.354,2.439-1.354
		c0.973,0,1.724,0.388,2.253,1.165c0.528,0.777,0.792,2.04,0.792,3.79v0.588h6.234V105.413z M587.845,109.969
		c0-3.681,0.289-6.197,0.865-7.548c0.576-1.351,1.639-2.026,3.189-2.026c1.577,0,2.651,0.633,3.22,1.9
		c0.569,1.267,0.854,3.314,0.854,6.141v2.961c0,2.043-0.038,4.031-0.113,5.962c-0.076,1.932-0.391,3.447-0.947,4.546
		c-0.555,1.099-1.574,1.648-3.055,1.648c-1.057,0-1.869-0.322-2.438-0.966c-0.57-0.643-0.975-1.637-1.214-2.981
		c-0.241-1.344-0.361-3.681-0.361-7.013V109.969z M591.755,128.172c1.92,0,3.525-0.231,4.815-0.692
		c1.289-0.462,2.328-1.116,3.117-1.964c0.789-0.846,1.382-1.892,1.78-3.138c0.398-1.246,0.665-2.583,0.802-4.011
		c0.137-1.427,0.206-3.597,0.206-6.509c0-3.247-0.103-5.7-0.308-7.359c-0.206-1.658-0.635-3.156-1.286-4.493
		c-0.652-1.336-1.702-2.383-3.149-3.139c-1.447-0.756-3.405-1.134-5.874-1.134c-2.483,0-4.503,0.491-6.06,1.47
		c-1.557,0.98-2.685,2.527-3.385,4.64c-0.699,2.114-1.049,5.396-1.049,9.848c0,3.779,0.175,6.554,0.525,8.324
		c0.349,1.771,0.881,3.237,1.594,4.399s1.746,2.079,3.097,2.751C587.931,127.837,589.656,128.172,591.755,128.172 M575.47,125.936
		c1.715-1.49,2.573-3.726,2.573-6.708c0-1.945-0.371-3.482-1.112-4.609c-0.74-1.126-1.934-2.215-3.58-3.264l-6.152-4.011
		c-0.672-0.433-1.163-0.93-1.471-1.49c-0.309-0.56-0.463-1.162-0.463-1.806c0-1.05,0.278-1.886,0.833-2.509
		c0.556-0.623,1.307-0.934,2.253-0.934c2.044,0,3.066,1.343,3.066,4.031v0.735h6.235V104.3c0-2.995-0.751-5.12-2.254-6.372
		c-1.502-1.253-3.686-1.88-6.553-1.88c-3.21,0-5.689,0.718-7.438,2.153c-1.749,1.434-2.624,3.468-2.624,6.099
		c0,1.946,0.357,3.552,1.07,4.819c0.713,1.266,2.264,2.656,4.65,4.167l5.042,3.15c0.685,0.434,1.203,0.938,1.553,1.511
		c0.35,0.574,0.525,1.274,0.525,2.1c0,1.092-0.292,1.935-0.875,2.53s-1.416,0.892-2.5,0.892c-1.276,0-2.167-0.384-2.675-1.154
		c-0.507-0.77-0.761-1.932-0.761-3.486v-0.819h-6.461v1.932c0,2.729,0.782,4.784,2.346,6.162c1.564,1.379,3.861,2.068,6.893,2.068
		C571.129,128.172,573.756,127.427,575.47,125.936 M536.276,121.37c-0.741,0.812-1.471,1.403-2.191,1.774
		c-0.721,0.371-1.554,0.556-2.5,0.556c-1.345,0-2.439-0.448-3.282-1.343c-0.844-0.896-1.266-2.072-1.266-3.528
		c0-0.924,0.237-1.805,0.71-2.645c0.473-0.84,1.245-1.694,2.315-2.562L536.276,121.37z M529.589,104.436
		c-0.357-0.693-0.535-1.34-0.535-1.942c0-0.742,0.243-1.371,0.73-1.889c0.487-0.518,1.101-0.777,1.842-0.777
		c0.823,0,1.478,0.238,1.965,0.714s0.73,1.112,0.73,1.91c0,0.84-0.236,1.596-0.71,2.268c-0.473,0.672-1.244,1.365-2.314,2.078
		C530.515,105.917,529.945,105.129,529.589,104.436 M538.704,106.431c0.768-1.197,1.152-2.481,1.152-3.853
		c0-2.057-0.72-3.667-2.16-4.829c-1.441-1.162-3.45-1.743-6.029-1.743c-2.442,0-4.407,0.627-5.895,1.88
		c-1.489,1.252-2.233,2.943-2.233,5.07c0,1.064,0.244,2.142,0.731,3.234c0.487,1.091,1.272,2.295,2.356,3.611
		c-2.072,1.442-3.56,2.845-4.465,4.21c-0.906,1.364-1.358,2.985-1.358,4.86c0,2.968,0.932,5.26,2.798,6.876
		c1.865,1.617,4.499,2.425,7.901,2.425c1.825,0,3.388-0.22,4.692-0.661c1.303-0.441,2.565-1.242,3.786-2.404l1.852,2.499h6.234
		l-4.588-6.404c0.754-1.316,1.286-2.712,1.594-4.189c0.309-1.477,0.463-3.363,0.463-5.658v-0.777h-5.144
		c0.028,0.196,0.041,0.392,0.041,0.588c0,0.994-0.065,2.005-0.195,3.034c-0.131,1.028-0.306,1.886-0.525,2.572l-4.753-6.362
		C536.688,108.954,537.936,107.628,538.704,106.431"/>
	<path style="clip-path:url(#SVGID_00000119111329443695816930000014268872374451157682_);fill:#FFFFFF;" d="M850.994,53.252v31.053
		h6.42V70.637h7.202v13.668h6.399V53.252h-6.399v12.304h-7.202V53.252H850.994z M827.501,53.252v5.039h6.996v26.014h6.461V58.291
		h7.078v-5.039H827.501z M813.648,53.252v31.053h15.885V79.14h-9.444V53.252H813.648z M797.902,59.236l3.169,13.5h-6.153
		L797.902,59.236z M794.116,53.252l-8.436,31.053h6.296l1.728-6.886h8.663l1.687,6.886h6.708l-8.251-31.053H794.116z
		 M766.437,53.252v31.053h16.935v-4.85h-10.577v-8.986h9.445v-4.787h-9.445v-7.643h10.247v-4.787H766.437z M741.779,53.252v31.053
		h6.42V70.637h7.201v13.668h6.4V53.252h-6.4v12.304h-7.201V53.252H741.779z M727.749,61.818c0-2.995-0.851-5.301-2.551-6.918
		c-1.701-1.617-4.123-2.425-7.264-2.425c-2.524,0-4.575,0.49-6.152,1.47c-1.578,0.98-2.737,2.506-3.477,4.577
		c-0.741,2.072-1.111,5.291-1.111,9.658c0,4.703,0.294,8.101,0.884,10.194c0.59,2.093,1.76,3.667,3.509,4.724
		c1.748,1.057,4.2,1.585,7.355,1.585c0.947,0,1.969-0.056,3.066-0.168c1.098-0.112,3.011-0.427,5.741-0.945V67.844h-9.774v4.808
		h3.498v6.845c-0.521,0.196-1.042,0.343-1.563,0.441c-0.522,0.098-1.07,0.147-1.647,0.147c-1.659,0-2.822-0.591-3.487-1.774
		c-0.666-1.183-1.026-2.887-1.08-5.113l-0.062-4.808c0-1.036,0.027-2.565,0.082-4.587c0.055-2.023,0.388-3.647,0.998-4.872
		c0.61-1.224,1.643-1.837,3.097-1.837c1.097,0,1.975,0.371,2.634,1.113c0.658,0.742,0.987,1.701,0.987,2.877v1.511h6.317V61.818z
		 M680.456,53.252v31.053h5.905V61.608l8.333,22.697h8.354V53.252h-5.905v21.5l-8.128-21.5H680.456z M669.512,84.305h6.358V53.252
		h-6.358V84.305z M665.772,62.112c0-3.205-0.751-5.56-2.253-7.065c-1.502-1.504-3.7-2.257-6.595-2.257
		c-2.469,0-4.434,0.417-5.895,1.249c-1.461,0.833-2.503,1.957-3.127,3.37c-0.625,1.414-1.026,2.947-1.204,4.598
		c-0.178,1.652-0.267,3.927-0.267,6.824c0,3.682,0.167,6.369,0.504,8.063c0.336,1.693,0.85,3.086,1.543,4.178
		c0.692,1.092,1.697,1.96,3.014,2.603c1.317,0.644,3.025,0.966,5.124,0.966c3.223,0,5.61-0.826,7.16-2.477
		c1.55-1.652,2.325-4.123,2.325-7.412v-0.903h-6.275v0.357c0,2.002-0.278,3.461-0.834,4.378c-0.555,0.917-1.375,1.375-2.459,1.375
		c-1.289,0-2.208-0.598-2.757-1.795c-0.548-1.197-0.85-2.709-0.905-4.535c-0.055-1.827-0.082-3.286-0.082-4.378
		c0-3.247,0.082-5.564,0.247-6.95c0.164-1.385,0.504-2.53,1.018-3.433c0.515-0.902,1.327-1.354,2.438-1.354
		c0.974,0,1.725,0.389,2.253,1.165c0.528,0.777,0.793,2.041,0.793,3.79v0.588h6.234V62.112z M619.682,53.252v31.053h5.906V61.608
		l8.333,22.697h8.354V53.252h-5.905v21.5l-8.128-21.5H619.682z M603.895,59.236l3.169,13.5h-6.152L603.895,59.236z M600.109,53.252
		l-8.436,31.053h6.296l1.729-6.886h8.662l1.688,6.886h6.707l-8.251-31.053H600.109z M570.482,53.252l7.51,31.053h7.449l8.045-31.053
		h-6.276l-5.35,22.592l-4.753-22.592H570.482z M554.86,58.039h1.77c1.865,0,3.158,0.263,3.878,0.787
		c0.72,0.525,1.235,1.554,1.543,3.087c0.309,1.533,0.463,3.979,0.463,7.338c0,3.191-0.178,5.421-0.535,6.687
		c-0.356,1.267-0.888,2.17-1.594,2.709c-0.707,0.539-2.034,0.808-3.982,0.808h-1.543V58.039z M548.358,53.252v31.053h9.362
		c2.798,0,4.993-0.444,6.585-1.333c1.591-0.889,2.753-2.281,3.487-4.178s1.101-5.134,1.101-9.711c0-3.513-0.144-6.089-0.432-7.727
		c-0.288-1.637-0.782-3.054-1.482-4.251c-0.699-1.197-1.762-2.138-3.189-2.824s-3.313-1.029-5.658-1.029H548.358z M532.551,59.236
		l3.169,13.5h-6.153L532.551,59.236z M528.765,53.252l-8.436,31.053h6.296l1.729-6.886h8.662l1.687,6.886h6.708l-8.251-31.053
		H528.765z"/>
	<path style="clip-path:url(#SVGID_00000119111329443695816930000014268872374451157682_);fill:#FFFFFF;" d="M607.66,16.797
		c-0.101-0.141-0.212-0.262-0.333-0.363c-0.121-0.1-0.262-0.151-0.423-0.151c-0.182,0-0.378,0.01-0.59,0.03
		c-0.212,0.021-0.419,0.056-0.62,0.106c-0.202,0.051-0.368,0.111-0.499,0.181c-0.131,0.071-0.196,0.147-0.196,0.227v21.408
		c0,0.101,0.07,0.181,0.211,0.242c0.141,0.06,0.313,0.111,0.514,0.151c0.202,0.04,0.413,0.071,0.635,0.091
		c0.222,0.02,0.413,0.03,0.575,0.03c0.222,0,0.398-0.081,0.529-0.242c0.131-0.161,0.197-0.352,0.197-0.574v-16.54l10.855,16.872
		c0.06,0.081,0.166,0.151,0.317,0.212c0.151,0.06,0.328,0.111,0.529,0.151c0.202,0.04,0.403,0.071,0.605,0.091
		c0.201,0.02,0.373,0.03,0.514,0.03c0.201,0,0.368-0.075,0.499-0.227c0.131-0.151,0.197-0.337,0.197-0.559V17.13
		c0-0.242-0.046-0.444-0.137-0.605c-0.09-0.161-0.247-0.242-0.468-0.242c-0.182,0-0.393,0.01-0.635,0.03
		c-0.242,0.021-0.469,0.051-0.681,0.091c-0.211,0.041-0.388,0.091-0.529,0.151c-0.141,0.061-0.211,0.131-0.211,0.212V33.7
		L607.66,16.797z M600.509,17.099c0-0.221-0.066-0.413-0.197-0.574c-0.131-0.161-0.307-0.242-0.529-0.242
		c-0.181,0-0.383,0.01-0.605,0.03c-0.222,0.021-0.438,0.056-0.65,0.106c-0.211,0.051-0.388,0.111-0.529,0.181
		c-0.141,0.071-0.211,0.147-0.211,0.227v21.408c0,0.101,0.07,0.181,0.211,0.242c0.141,0.06,0.318,0.111,0.529,0.151
		c0.212,0.04,0.428,0.071,0.65,0.091c0.222,0.02,0.424,0.03,0.605,0.03c0.222,0,0.398-0.081,0.529-0.242
		c0.131-0.161,0.197-0.352,0.197-0.574V17.099z M581.351,27.35l10.069,10.855c0.221,0.242,0.534,0.393,0.937,0.453
		c0.403,0.061,0.836,0.091,1.3,0.091c0.141,0,0.303-0.02,0.484-0.06c0.181-0.041,0.272-0.162,0.272-0.363
		c0-0.222-0.161-0.504-0.484-0.847l-9.706-10.432l8.86-9.494c0.342-0.363,0.514-0.645,0.514-0.847c0-0.201-0.091-0.322-0.272-0.363
		c-0.182-0.04-0.353-0.06-0.514-0.06c-0.444,0-0.873,0.03-1.285,0.091c-0.414,0.06-0.731,0.211-0.953,0.453l-9.222,9.948v-9.676
		c0-0.221-0.066-0.413-0.197-0.574c-0.131-0.161-0.307-0.242-0.529-0.242c-0.181,0-0.383,0.01-0.605,0.03
		c-0.222,0.021-0.438,0.056-0.65,0.106c-0.211,0.051-0.388,0.111-0.529,0.181c-0.141,0.071-0.212,0.147-0.212,0.227v21.408
		c0,0.101,0.071,0.181,0.212,0.242c0.141,0.06,0.318,0.111,0.529,0.151c0.212,0.04,0.428,0.071,0.65,0.091
		c0.222,0.02,0.424,0.03,0.605,0.03c0.222,0,0.398-0.081,0.529-0.242c0.131-0.161,0.197-0.352,0.197-0.574V27.35z M566.411,20.304
		c0.02-0.201,0.05-0.382,0.091-0.544c0,0.101,0.025,0.283,0.075,0.544c0.05,0.263,0.096,0.444,0.136,0.545l2.903,8.799h-6.259
		l2.933-8.799C566.35,20.688,566.39,20.506,566.411,20.304 M573.033,38.643c0.342,0.071,0.796,0.106,1.36,0.106
		c0.182,0,0.358-0.035,0.53-0.106c0.171-0.071,0.257-0.196,0.257-0.378c0-0.121-0.011-0.211-0.031-0.272l-7.257-21.136
		c-0.121-0.382-0.352-0.574-0.695-0.574c-0.383,0-0.801,0.035-1.255,0.106c-0.453,0.071-0.721,0.217-0.801,0.438l-7.287,21.166
		c-0.041,0.121-0.061,0.212-0.061,0.272c0,0.182,0.086,0.307,0.257,0.378c0.171,0.071,0.358,0.106,0.56,0.106
		c0.463,0,0.881-0.02,1.254-0.06c0.373-0.041,0.6-0.182,0.681-0.424l2.116-6.259h7.681l2.026,6.138
		C572.468,38.406,572.69,38.572,573.033,38.643 M542.031,38.235c0.282,0.101,0.554,0.151,0.816,0.151h11.4
		c0.08,0,0.151-0.06,0.211-0.181c0.061-0.121,0.111-0.272,0.151-0.454c0.041-0.181,0.071-0.372,0.091-0.574
		c0.02-0.201,0.03-0.383,0.03-0.544c0-0.202-0.07-0.363-0.211-0.484c-0.142-0.121-0.303-0.182-0.484-0.182h-9.706v-7.438h8.98
		c0.081,0,0.151-0.06,0.212-0.181c0.06-0.121,0.116-0.273,0.166-0.454s0.086-0.373,0.106-0.575c0.02-0.201,0.03-0.372,0.03-0.514
		c0-0.221-0.071-0.393-0.211-0.514c-0.142-0.121-0.313-0.181-0.514-0.181h-8.769v-7.045h9.918c0.08,0,0.151-0.061,0.211-0.182
		c0.061-0.121,0.111-0.272,0.151-0.453c0.041-0.182,0.071-0.373,0.091-0.575c0.02-0.201,0.03-0.382,0.03-0.544
		c0-0.222-0.07-0.388-0.211-0.499c-0.142-0.11-0.303-0.166-0.484-0.166h-11.702c-0.484,0-0.726,0.262-0.726,0.786v20.41
		C541.607,38.004,541.747,38.134,542.031,38.235 M531.672,19.352c0.726,0.212,1.315,0.559,1.769,1.043
		c0.453,0.484,0.776,1.114,0.967,1.89c0.192,0.776,0.288,1.719,0.288,2.827v4.778c0,1.108-0.096,2.051-0.288,2.827
		c-0.191,0.776-0.514,1.406-0.967,1.89c-0.454,0.483-1.043,0.831-1.769,1.043c-0.726,0.211-1.633,0.317-2.721,0.317h-4.143V19.035
		h4.143C530.039,19.035,530.945,19.14,531.672,19.352 M522.359,16.797c-0.181,0.121-0.272,0.323-0.272,0.605v20.44
		c0,0.162,0.136,0.292,0.408,0.393c0.272,0.101,0.549,0.151,0.832,0.151h5.624c1.451,0,2.711-0.136,3.779-0.408
		c1.069-0.272,1.955-0.726,2.661-1.361c0.705-0.635,1.229-1.471,1.572-2.509c0.343-1.038,0.515-2.323,0.515-3.856V24.78
		c0-1.532-0.172-2.817-0.515-3.856c-0.343-1.038-0.867-1.874-1.572-2.509c-0.706-0.635-1.592-1.094-2.661-1.376
		c-1.068-0.282-2.328-0.423-3.779-0.423h-5.987C522.742,16.616,522.54,16.676,522.359,16.797"/>
</g>
<metadata><?xpacket begin="?" id="W5M0MpCehiHzreSzNTczkc9d"?>
		<x:xmpmeta xmlns:x="adobe:ns:meta/" x:xmptk="Adobe XMP Core 9.1-c003 1.000000, 0000/00/00-00:00:00        ">
		   <rdf:RDF xmlns:rdf="http://www.w3.org/1999/02/22-rdf-syntax-ns#">
		      <rdf:Description rdf:about=""
		            xmlns:dc="http://purl.org/dc/elements/1.1/"
		            xmlns:xmp="http://ns.adobe.com/xap/1.0/"
		            xmlns:xmpMM="http://ns.adobe.com/xap/1.0/mm/"
		            xmlns:stRef="http://ns.adobe.com/xap/1.0/sType/ResourceRef#"
		            xmlns:stEvt="http://ns.adobe.com/xap/1.0/sType/ResourceEvent#"
		            xmlns:xmpRights="http://ns.adobe.com/xap/1.0/rights/"
		            xmlns:pdf="http://ns.adobe.com/pdf/1.3/">
		         <dc:format>application/pdf</dc:format>
		         <dc:creator>
		            <rdf:Seq>
		               <rdf:li>Deakin Automation v1.8</rdf:li>
		            </rdf:Seq>
		         </dc:creator>
		         <dc:title>
		            <rdf:Alt>
		               <rdf:li xml:lang="x-default">AHSJ Logo Stacked Reverse SVG</rdf:li>
		            </rdf:Alt>
		         </dc:title>
		         <dc:subject>
		            <rdf:Bag>
		               <rdf:li>ADVANCING HEALTH &amp; SOCIAL JUSTICE</rdf:li>
		               <rdf:li>AHSJ</rdf:li>
					   <rdf:li>Stacked Reverse, </rdf:li>
					<rdf:li>branding</rdf:li>
					<rdf:li>wordmark</rdf:li>
		            </rdf:Bag>
		         </dc:subject>
		         <dc:description>
		            <rdf:Alt>
		               <rdf:li xml:lang="x-default">This asset is part of the Masterbrand logo wordmark set for this area of Deakin. Refer to the related items below for alternate formats and file types.</rdf:li>
		            </rdf:Alt>
		         </dc:description>
		      </rdf:Description>
		   </rdf:RDF>
		</x:xmpmeta>
		<?xpacket end="w"?></metadata></svg>
