<?xml version="1.0" encoding="UTF-8"?>
<!-- Generator: Adobe Illustrator 30.1.0, SVG Export Plug-In . SVG Version: 9.03 Build 0)  -->
<svg version="1.1" id="Layer_1" xmlns="http://www.w3.org/2000/svg" xmlns:xlink="http://www.w3.org/1999/xlink" x="0px" y="0px"
	 viewBox="0 0 720 144" style="enable-background:new 0 0 720 144;" xml:space="preserve">
<g>
	<defs>
		<rect id="SVGID_1_" width="720" height="144"/>
	</defs>
	<clipPath id="SVGID_00000111909730811699800760000002302532664666191752_">
		<use xlink:href="#SVGID_1_"  style="overflow:visible;"/>
	</clipPath>
	<path style="clip-path:url(#SVGID_00000111909730811699800760000002302532664666191752_);" d="M72.921,1.3
		C33.757,1.3,2.008,32.959,2.008,72.012s31.749,70.712,70.913,70.712s70.912-31.659,70.912-70.712S112.085,1.3,72.921,1.3"/>
	<path style="clip-path:url(#SVGID_00000111909730811699800760000002302532664666191752_);fill:#FFFFFF;" d="M72.921,2.98
		c38.175,0,69.233,30.968,69.233,69.032s-31.058,69.032-69.233,69.032S3.688,110.076,3.688,72.012S34.746,2.98,72.921,2.98"/>
</g>
<rect x="191.456" y="16.617" width="2" height="111.776"/>
<g>
	<defs>
		<rect id="SVGID_00000031924620959132786760000002777821592606914192_" width="720" height="144"/>
	</defs>
	<clipPath id="SVGID_00000121958840818729401460000011254100671097971328_">
		<use xlink:href="#SVGID_00000031924620959132786760000002777821592606914192_"  style="overflow:visible;"/>
	</clipPath>
	<path style="clip-path:url(#SVGID_00000121958840818729401460000011254100671097971328_);" d="M114.152,102.346v4.129
		c0,0.138-0.046,0.246-0.154,0.323c-0.093,0.077-0.216,0.123-0.37,0.123c-0.092,0-0.231,0-0.385-0.015
		c-0.154-0.015-0.323-0.031-0.478-0.046c-0.154-0.015-0.292-0.062-0.416-0.108c-0.107-0.046-0.169-0.108-0.169-0.169v-4.222
		l-3.605-7.041c-0.123-0.246-0.139-0.416-0.046-0.523c0.092-0.108,0.262-0.17,0.508-0.17c0.154,0,0.308,0,0.478,0.015
		c0.154,0,0.308,0.016,0.446,0.047c0.139,0.015,0.262,0.046,0.355,0.077c0.092,0.031,0.169,0.077,0.2,0.154l2.65,5.408l2.65-5.393
		c0.031-0.061,0.092-0.123,0.2-0.154c0.093-0.031,0.216-0.061,0.355-0.092c0.138-0.016,0.292-0.031,0.446-0.047
		c0.154,0,0.324-0.015,0.478-0.015c0.246,0,0.416,0.046,0.508,0.154c0.077,0.108,0.062,0.277-0.061,0.539L114.152,102.346z
		 M103.615,96.584v9.891c0,0.138-0.046,0.246-0.154,0.323c-0.108,0.077-0.216,0.123-0.354,0.123c-0.093,0-0.231,0-0.401-0.015
		c-0.17-0.015-0.339-0.031-0.493-0.046s-0.293-0.062-0.401-0.108c-0.123-0.046-0.169-0.108-0.169-0.169v-9.984h-3.051
		c-0.123,0-0.215-0.046-0.308-0.139c-0.077-0.092-0.123-0.2-0.123-0.338c0-0.093,0-0.201,0.015-0.355
		c0.016-0.138,0.031-0.292,0.047-0.431c0.015-0.139,0.061-0.262,0.092-0.37c0.046-0.092,0.093-0.154,0.17-0.154h8.165
		c0.123,0,0.216,0.046,0.308,0.139c0.077,0.092,0.123,0.215,0.123,0.339c0,0.092,0,0.2-0.015,0.354s-0.031,0.293-0.046,0.431
		c-0.016,0.139-0.046,0.262-0.093,0.355c-0.046,0.092-0.092,0.154-0.169,0.154H103.615z M96.497,106.475
		c0,0.138-0.046,0.246-0.154,0.323c-0.092,0.077-0.216,0.123-0.37,0.123c-0.092,0-0.231,0-0.4-0.015
		c-0.17-0.015-0.324-0.031-0.493-0.046c-0.154-0.015-0.293-0.062-0.416-0.108c-0.108-0.046-0.17-0.108-0.17-0.169V94.981
		c0-0.061,0.062-0.123,0.17-0.169c0.123-0.046,0.262-0.092,0.416-0.108c0.154-0.015,0.323-0.046,0.493-0.046
		c0.169-0.016,0.292-0.016,0.4-0.016c0.139,0,0.262,0.047,0.37,0.139c0.092,0.093,0.154,0.2,0.154,0.324V106.475z M85.389,104.888
		c0.092,0.015,0.216,0.061,0.401,0.092c0.185,0.047,0.385,0.093,0.631,0.139c0.231,0.046,0.493,0.077,0.786,0.123
		c0.277,0.031,0.57,0.046,0.847,0.046c0.309,0,0.601-0.03,0.878-0.077c0.278-0.046,0.54-0.138,0.755-0.246
		c0.216-0.123,0.401-0.277,0.524-0.462c0.139-0.201,0.201-0.432,0.201-0.724c0-0.401-0.124-0.74-0.386-1.017
		c-0.261-0.278-0.585-0.539-0.97-0.786c-0.385-0.246-0.817-0.493-1.279-0.739c-0.462-0.247-0.878-0.54-1.279-0.863
		c-0.4-0.324-0.724-0.709-0.97-1.156c-0.262-0.447-0.385-0.986-0.385-1.633c0-0.539,0.092-1.001,0.292-1.371
		c0.2-0.37,0.463-0.678,0.801-0.924c0.339-0.232,0.755-0.416,1.218-0.524c0.477-0.108,1.001-0.17,1.571-0.17
		c0.123,0,0.308,0,0.555,0.016c0.246,0.015,0.508,0.03,0.785,0.061c0.278,0.031,0.555,0.062,0.817,0.108
		c0.277,0.046,0.493,0.108,0.647,0.185c0.154,0.062,0.247,0.139,0.277,0.216c0.031,0.077,0.031,0.2,0.016,0.385
		c-0.016,0.293-0.077,0.524-0.185,0.724c-0.093,0.2-0.231,0.277-0.416,0.246c-0.278-0.061-0.586-0.107-0.94-0.169
		c-0.354-0.046-0.755-0.077-1.186-0.077c-0.678,0-1.248,0.108-1.68,0.293c-0.431,0.2-0.647,0.523-0.647,0.986
		c0,0.369,0.124,0.678,0.386,0.939c0.261,0.263,0.585,0.509,0.97,0.74s0.817,0.478,1.279,0.724c0.462,0.247,0.878,0.539,1.279,0.878
		c0.385,0.339,0.724,0.74,0.97,1.202c0.262,0.462,0.385,1.048,0.385,1.71c0,0.632-0.123,1.156-0.354,1.556
		c-0.231,0.416-0.555,0.724-0.94,0.955c-0.385,0.232-0.847,0.386-1.356,0.478c-0.508,0.093-1.047,0.139-1.602,0.139
		c-0.246,0-0.524-0.016-0.801-0.031s-0.539-0.046-0.817-0.077c-0.261-0.031-0.508-0.077-0.754-0.123
		c-0.232-0.047-0.432-0.093-0.601-0.154c-0.17-0.062-0.262-0.124-0.293-0.185c-0.031-0.077-0.046-0.201-0.015-0.37
		c0.03-0.324,0.092-0.601,0.184-0.817C85.112,104.949,85.234,104.842,85.389,104.888 M79.057,96.568H76.76v3.991h2.296
		c0.447,0,0.816-0.031,1.078-0.077c0.278-0.047,0.478-0.139,0.632-0.278c0.154-0.138,0.247-0.308,0.293-0.539
		s0.077-0.539,0.077-0.909v-0.37c0-0.369-0.031-0.678-0.077-0.924c-0.046-0.231-0.154-0.416-0.293-0.555
		c-0.154-0.138-0.354-0.215-0.632-0.277C79.857,96.599,79.504,96.568,79.057,96.568 M74.773,106.567V95.228
		c0-0.123,0.046-0.216,0.154-0.308c0.108-0.077,0.216-0.123,0.37-0.123h3.651c0.755,0,1.402,0.061,1.941,0.169
		c0.539,0.108,0.971,0.308,1.31,0.585c0.339,0.278,0.585,0.648,0.739,1.11c0.155,0.462,0.231,1.032,0.231,1.741v0.37
		c0,0.523-0.046,0.97-0.123,1.355s-0.216,0.724-0.385,1.002c-0.169,0.277-0.416,0.493-0.709,0.662
		c-0.292,0.17-0.647,0.293-1.047,0.385l2.295,3.975c0.124,0.216,0.185,0.37,0.185,0.478c0,0.061-0.031,0.123-0.077,0.169
		c-0.061,0.047-0.123,0.077-0.185,0.093c-0.061,0.015-0.138,0.03-0.2,0.046c-0.077,0-0.123,0.015-0.154,0.015
		c-0.093,0-0.231,0-0.385-0.015c-0.154-0.016-0.308-0.031-0.462-0.062c-0.154-0.03-0.309-0.061-0.432-0.123
		c-0.123-0.062-0.216-0.139-0.277-0.231l-2.434-4.16h-2.034v4.16c0,0.139-0.046,0.231-0.154,0.308
		c-0.093,0.077-0.216,0.123-0.354,0.123c-0.093,0-0.232,0-0.401-0.015c-0.17-0.016-0.324-0.031-0.493-0.046
		c-0.154-0.016-0.293-0.062-0.416-0.108C74.836,106.69,74.773,106.644,74.773,106.567 M65.068,106.382V95.228
		c0-0.139,0.046-0.247,0.154-0.324c0.092-0.077,0.216-0.107,0.37-0.107h6.64c0.123,0,0.231,0.046,0.308,0.154
		c0.077,0.092,0.123,0.215,0.123,0.339c0,0.092,0,0.2-0.015,0.354c-0.016,0.154-0.031,0.293-0.046,0.431
		c-0.016,0.139-0.062,0.262-0.093,0.355c-0.046,0.092-0.108,0.154-0.169,0.154h-5.269v3.204h4.514c0.108,0,0.2,0.047,0.292,0.139
		c0.078,0.092,0.124,0.2,0.124,0.323c0,0.093,0,0.201-0.016,0.355c-0.015,0.154-0.03,0.292-0.046,0.431
		c-0.015,0.139-0.062,0.262-0.092,0.37c-0.047,0.092-0.093,0.154-0.17,0.154h-4.622v3.389h5.161c0.124,0,0.232,0.047,0.309,0.139
		c0.077,0.093,0.123,0.2,0.123,0.339c0,0.092,0,0.2-0.016,0.354c-0.015,0.139-0.03,0.293-0.046,0.432
		c-0.015,0.138-0.061,0.262-0.092,0.37c-0.046,0.107-0.108,0.154-0.17,0.154h-6.501c-0.154,0-0.324-0.031-0.493-0.108
		C65.145,106.536,65.068,106.459,65.068,106.382 M58.998,103.547l2.496-8.581c0.154-0.154,0.339-0.246,0.539-0.293
		c0.2-0.031,0.431-0.061,0.709-0.061c0.107,0,0.231,0,0.338,0.015c0.124,0.015,0.216,0.031,0.293,0.077
		c0.077,0.046,0.139,0.093,0.185,0.17c0.046,0.077,0.031,0.169,0,0.308l-3.836,11.478c-0.016,0.092-0.077,0.154-0.17,0.2
		c-0.092,0.046-0.185,0.061-0.292,0.061c-0.37,0-0.678-0.015-0.925-0.061c-0.246-0.046-0.4-0.108-0.462-0.185l-3.821-11.493
		c-0.031-0.108-0.031-0.201,0-0.278c0.031-0.077,0.077-0.123,0.154-0.169c0.062-0.046,0.139-0.077,0.231-0.093
		c0.077-0.015,0.154-0.03,0.201-0.03c0.169,0,0.339,0,0.508,0.015c0.17,0.015,0.324,0.031,0.478,0.062
		c0.138,0.031,0.262,0.077,0.369,0.123c0.093,0.062,0.17,0.123,0.201,0.216l2.557,8.504c0.046,0.139,0.077,0.277,0.093,0.416
		c0.015,0.154,0.031,0.277,0.061,0.401c0.016-0.124,0.031-0.262,0.046-0.401C58.921,103.809,58.951,103.671,58.998,103.547
		 M52.589,106.475c0,0.138-0.047,0.246-0.154,0.323c-0.093,0.077-0.216,0.123-0.37,0.123c-0.093,0-0.231,0-0.401-0.015
		c-0.169-0.015-0.323-0.031-0.493-0.046c-0.154-0.015-0.293-0.062-0.416-0.108s-0.169-0.108-0.169-0.169V94.981
		c0-0.061,0.061-0.123,0.169-0.169c0.123-0.046,0.247-0.092,0.416-0.108c0.154-0.015,0.324-0.046,0.493-0.046
		c0.17-0.016,0.293-0.016,0.401-0.016c0.138,0,0.262,0.047,0.37,0.139c0.092,0.093,0.154,0.2,0.154,0.324V106.475z M46.518,103.239
		V94.92c0-0.062,0.062-0.123,0.185-0.154c0.124-0.046,0.262-0.077,0.432-0.093c0.169-0.015,0.339-0.031,0.508-0.046
		c0.17-0.015,0.308-0.015,0.401-0.015c0.292,0,0.431,0.169,0.431,0.493v11.37c0,0.138-0.046,0.231-0.154,0.308
		c-0.108,0.077-0.216,0.123-0.339,0.123c-0.092,0-0.2,0-0.354-0.015c-0.154-0.016-0.293-0.016-0.447-0.046
		c-0.154-0.031-0.278-0.062-0.401-0.093c-0.123-0.046-0.2-0.092-0.246-0.154l-5.377-8.273v8.15c0,0.138-0.046,0.246-0.154,0.323
		c-0.092,0.077-0.216,0.123-0.355,0.123c-0.092,0-0.231,0-0.4-0.015c-0.17-0.015-0.339-0.031-0.493-0.046s-0.293-0.062-0.401-0.108
		c-0.123-0.046-0.169-0.108-0.169-0.169V94.981c0-0.061,0.061-0.123,0.169-0.169c0.124-0.046,0.247-0.092,0.401-0.108
		c0.154-0.015,0.308-0.031,0.477-0.046c0.17-0.016,0.293-0.016,0.401-0.016c0.123,0,0.231,0.031,0.308,0.108
		c0.077,0.077,0.154,0.154,0.201,0.247L46.518,103.239z M35.056,102.5v-7.488c0-0.061,0.062-0.123,0.169-0.169
		c0.124-0.046,0.262-0.093,0.416-0.123c0.17-0.031,0.339-0.062,0.493-0.078c0.17-0.015,0.293-0.03,0.401-0.03
		c0.139,0,0.262,0.046,0.354,0.154c0.093,0.108,0.139,0.215,0.139,0.339v7.487c0,0.817-0.092,1.495-0.277,2.049
		c-0.185,0.555-0.447,0.986-0.817,1.341c-0.37,0.339-0.832,0.585-1.386,0.724c-0.555,0.139-1.218,0.215-1.957,0.215h-0.139
		c-0.724,0-1.371-0.076-1.91-0.215c-0.555-0.139-1.002-0.385-1.371-0.724c-0.37-0.339-0.632-0.786-0.817-1.341
		c-0.185-0.539-0.277-1.232-0.277-2.049v-7.58c0-0.061,0.061-0.123,0.169-0.169c0.124-0.046,0.247-0.093,0.416-0.123
		c0.154-0.031,0.324-0.062,0.493-0.078c0.17-0.015,0.308-0.03,0.401-0.03c0.138,0,0.246,0.046,0.354,0.154
		c0.093,0.108,0.154,0.215,0.154,0.339v7.379c0,0.478,0.031,0.879,0.108,1.218c0.077,0.338,0.2,0.616,0.385,0.816
		c0.185,0.216,0.432,0.37,0.74,0.462c0.308,0.093,0.693,0.154,1.155,0.154h0.139c0.478,0,0.863-0.046,1.186-0.154
		c0.308-0.108,0.57-0.262,0.755-0.462c0.185-0.216,0.324-0.478,0.401-0.816C35.025,103.378,35.056,102.978,35.056,102.5
		 M106.742,75.538v14.313h-3.944V67.989h5.5l5.285,13.466V67.989h4.006v21.862h-5.023L106.742,75.538z M95.419,67.989h4.437v21.862
		h-4.437V67.989z M78.395,67.989h4.56v9.506l5.685-9.506h4.76L87.084,78.05L93.4,89.867h-5.284l-5.161-10.631v10.631h-4.56V67.989z
		 M70.967,84.998H64.62l-1.156,4.869h-4.575l6.162-21.878h5.824l6.07,21.878h-4.791L70.967,84.998z M70.06,81.193l-2.188-9.044
		l-2.296,9.044H70.06z M45.625,67.989h11.817v3.713h-7.195v4.668h6.625v3.806h-6.625v5.823h7.21v3.852H45.625V67.989z
		 M35.595,67.989c5.839,0,7.642,3.097,7.642,10.939s-1.818,10.939-7.657,10.939h-7.488V67.989H35.595z M32.683,86.092h2.08
		c3.405,0,3.836-2.003,3.836-7.241c0-5.223-0.431-7.226-3.836-7.226h-2.08V86.092z M81.507,51.366l-9.938-17.24l1.31-2.203
		l11.154,19.443H81.507z M76.808,51.366l-7.611-13.142l1.279-2.157l8.766,15.299H76.808z M72.032,51.366l-5.223-9.013l1.325-2.234
		l6.424,11.231h-2.526V51.366z M67.225,51.366l-2.804-4.869l1.325-2.234l4.052,7.103H67.225z M61.601,51.366l1.71-2.928l1.711,2.928
		H61.601z M59.429,29.889v18.365c0,7.41,6.009,13.419,13.419,13.419c7.411,0,13.419-6.009,13.419-13.419V29.889H59.429z"/>
	<path style="clip-path:url(#SVGID_00000121958840818729401460000011254100671097971328_);" d="M536.786,96.552v31.054h16.934
		v-4.851h-10.576v-8.986h9.445v-4.787h-9.445v-7.643h10.247v-4.787H536.786z M533.042,105.413c0-3.205-0.751-5.561-2.253-7.065
		c-1.502-1.505-3.701-2.258-6.595-2.258c-2.469,0-4.434,0.417-5.895,1.25c-1.461,0.833-2.504,1.956-3.128,3.37
		c-0.624,1.414-1.025,2.946-1.203,4.598c-0.179,1.652-0.268,3.926-0.268,6.823c0,3.682,0.168,6.369,0.504,8.063
		c0.336,1.694,0.851,3.086,1.543,4.178c0.693,1.092,1.698,1.96,3.015,2.604c1.317,0.643,3.025,0.965,5.123,0.965
		c3.224,0,5.611-0.825,7.161-2.477c1.55-1.652,2.325-4.122,2.325-7.412v-0.902h-6.276v0.356c0,2.002-0.278,3.462-0.833,4.378
		c-0.556,0.917-1.376,1.375-2.459,1.375c-1.29,0-2.209-0.598-2.757-1.795c-0.549-1.197-0.851-2.708-0.906-4.535
		c-0.055-1.827-0.082-3.286-0.082-4.378c0-3.247,0.082-5.564,0.247-6.949c0.165-1.386,0.504-2.53,1.019-3.433
		c0.514-0.903,1.327-1.354,2.438-1.354c0.974,0,1.725,0.388,2.253,1.165c0.528,0.777,0.792,2.04,0.792,3.79v0.588h6.235V105.413z
		 M503.218,127.606h6.358V96.553h-6.358V127.606z M479.821,96.552v5.039h6.996v26.015h6.461v-26.015h7.078v-5.039H479.821z
		 M475.074,125.936c1.715-1.49,2.572-3.726,2.572-6.708c0-1.945-0.37-3.482-1.111-4.609c-0.741-1.126-1.934-2.215-3.58-3.264
		l-6.152-4.011c-0.673-0.433-1.163-0.93-1.472-1.49c-0.308-0.56-0.463-1.162-0.463-1.806c0-1.05,0.278-1.886,0.834-2.509
		c0.555-0.623,1.306-0.934,2.253-0.934c2.044,0,3.066,1.343,3.066,4.031v0.735h6.234V104.3c0-2.995-0.751-5.12-2.253-6.372
		c-1.502-1.253-3.687-1.88-6.553-1.88c-3.21,0-5.69,0.718-7.439,2.153c-1.749,1.434-2.623,3.468-2.623,6.099
		c0,1.946,0.356,3.552,1.07,4.819c0.713,1.266,2.263,2.656,4.65,4.167l5.041,3.15c0.686,0.434,1.204,0.938,1.554,1.511
		c0.349,0.574,0.524,1.274,0.524,2.1c0,1.092-0.291,1.935-0.874,2.53c-0.583,0.595-1.417,0.892-2.5,0.892
		c-1.276,0-2.168-0.384-2.675-1.154c-0.508-0.77-0.761-1.932-0.761-3.486v-0.819h-6.461v1.932c0,2.729,0.782,4.784,2.345,6.162
		c1.564,1.379,3.862,2.068,6.893,2.068C470.733,128.172,473.359,127.427,475.074,125.936 M433.745,96.552v20.786
		c0,3.654,0.826,6.373,2.48,8.157c1.652,1.785,4.207,2.677,7.664,2.677c3.622,0,6.276-0.878,7.963-2.635
		c1.687-1.756,2.531-4.475,2.531-8.157V96.552h-6.193v20.954c0,2.002-0.343,3.51-1.029,4.525s-1.742,1.522-3.169,1.522
		c-1.331,0-2.311-0.5-2.942-1.501c-0.631-1.001-0.947-2.53-0.947-4.588V96.552H433.745z M423.143,96.552v22.928
		c0,1.456-0.216,2.485-0.648,3.086c-0.432,0.603-1.142,0.903-2.13,0.903c-0.905,0-1.54-0.336-1.903-1.007
		c-0.363-0.672-0.545-1.582-0.545-2.73v-2.457h-6.482v2.541c0,2.842,0.707,4.92,2.12,6.236c1.412,1.316,3.601,1.973,6.563,1.973
		c2.936,0,5.234-0.65,6.894-1.952c1.659-1.302,2.489-3.1,2.489-5.396V96.552H423.143z M386.397,96.552v31.054h15.885v-5.165h-9.444
		V96.552H386.397z M370.651,102.536l3.168,13.501h-6.152L370.651,102.536z M366.865,96.552l-8.437,31.054h6.297l1.728-6.887h8.663
		l1.687,6.887h6.708l-8.251-31.054H366.865z M349.185,127.606h6.358V96.553h-6.358V127.606z M345.444,105.413
		c0-3.205-0.751-5.561-2.253-7.065c-1.502-1.505-3.7-2.258-6.594-2.258c-2.469,0-4.434,0.417-5.895,1.25
		c-1.461,0.833-2.504,1.956-3.128,3.37s-1.026,2.946-1.204,4.598c-0.178,1.652-0.267,3.926-0.267,6.823
		c0,3.682,0.168,6.369,0.504,8.063s0.85,3.086,1.543,4.178c0.693,1.092,1.698,1.96,3.015,2.604c1.316,0.643,3.024,0.965,5.123,0.965
		c3.223,0,5.61-0.825,7.161-2.477c1.55-1.652,2.325-4.122,2.325-7.412v-0.902h-6.276v0.356c0,2.002-0.278,3.462-0.833,4.378
		c-0.556,0.917-1.376,1.375-2.459,1.375c-1.29,0-2.209-0.598-2.757-1.795c-0.549-1.197-0.851-2.708-0.906-4.535
		c-0.055-1.827-0.082-3.286-0.082-4.378c0-3.247,0.082-5.564,0.247-6.949c0.164-1.386,0.504-2.53,1.018-3.433
		c0.515-0.903,1.327-1.354,2.439-1.354c0.973,0,1.724,0.388,2.253,1.165c0.528,0.777,0.792,2.04,0.792,3.79v0.588h6.234V105.413z
		 M307.846,109.969c0-3.681,0.288-6.197,0.864-7.548c0.576-1.351,1.639-2.026,3.189-2.026c1.577,0,2.651,0.633,3.22,1.9
		s0.854,3.314,0.854,6.141v2.961c0,2.043-0.038,4.031-0.113,5.962c-0.076,1.932-0.391,3.447-0.947,4.546
		c-0.555,1.099-1.574,1.648-3.055,1.648c-1.057,0-1.869-0.322-2.438-0.966c-0.57-0.643-0.975-1.637-1.214-2.981
		c-0.241-1.344-0.36-3.681-0.36-7.013V109.969z M311.755,128.172c1.92,0,3.525-0.231,4.815-0.692
		c1.289-0.462,2.328-1.116,3.117-1.964c0.789-0.846,1.382-1.892,1.78-3.138c0.398-1.246,0.665-2.583,0.802-4.011
		c0.137-1.427,0.206-3.597,0.206-6.509c0-3.247-0.103-5.7-0.308-7.359c-0.206-1.658-0.635-3.156-1.286-4.493
		c-0.652-1.336-1.702-2.383-3.149-3.139c-1.447-0.756-3.405-1.134-5.874-1.134c-2.483,0-4.503,0.491-6.06,1.47
		c-1.557,0.98-2.685,2.527-3.385,4.64c-0.699,2.114-1.049,5.396-1.049,9.848c0,3.779,0.175,6.554,0.525,8.324
		c0.349,1.771,0.881,3.237,1.594,4.399c0.713,1.162,1.746,2.079,3.097,2.751C307.931,127.837,309.656,128.172,311.755,128.172
		 M295.47,125.936c1.715-1.49,2.573-3.726,2.573-6.708c0-1.945-0.371-3.482-1.112-4.609c-0.74-1.126-1.934-2.215-3.58-3.264
		l-6.152-4.011c-0.672-0.433-1.163-0.93-1.471-1.49c-0.309-0.56-0.463-1.162-0.463-1.806c0-1.05,0.277-1.886,0.833-2.509
		s1.307-0.934,2.253-0.934c2.044,0,3.066,1.343,3.066,4.031v0.735h6.235V104.3c0-2.995-0.751-5.12-2.254-6.372
		c-1.502-1.253-3.686-1.88-6.553-1.88c-3.21,0-5.689,0.718-7.438,2.153c-1.749,1.434-2.624,3.468-2.624,6.099
		c0,1.946,0.357,3.552,1.07,4.819c0.713,1.266,2.264,2.656,4.65,4.167l5.042,3.15c0.685,0.434,1.203,0.938,1.553,1.511
		c0.35,0.574,0.525,1.274,0.525,2.1c0,1.092-0.292,1.935-0.875,2.53c-0.583,0.595-1.416,0.892-2.5,0.892
		c-1.275,0-2.167-0.384-2.675-1.154c-0.507-0.77-0.761-1.932-0.761-3.486v-0.819h-6.461v1.932c0,2.729,0.782,4.784,2.346,6.162
		c1.564,1.379,3.861,2.068,6.893,2.068C291.129,128.172,293.756,127.427,295.47,125.936 M256.276,121.37
		c-0.741,0.812-1.471,1.403-2.191,1.774c-0.721,0.371-1.554,0.556-2.5,0.556c-1.345,0-2.439-0.448-3.282-1.343
		c-0.844-0.896-1.266-2.072-1.266-3.528c0-0.924,0.237-1.805,0.71-2.645c0.473-0.84,1.245-1.694,2.315-2.562L256.276,121.37z
		 M249.589,104.436c-0.357-0.693-0.535-1.34-0.535-1.942c0-0.742,0.243-1.371,0.73-1.889c0.487-0.518,1.101-0.777,1.842-0.777
		c0.823,0,1.478,0.238,1.965,0.714s0.73,1.112,0.73,1.91c0,0.84-0.236,1.596-0.71,2.268c-0.473,0.672-1.244,1.365-2.314,2.078
		C250.515,105.917,249.945,105.129,249.589,104.436 M258.704,106.431c0.768-1.197,1.152-2.481,1.152-3.853
		c0-2.057-0.72-3.667-2.16-4.829c-1.441-1.162-3.45-1.743-6.029-1.743c-2.442,0-4.407,0.627-5.895,1.88
		c-1.489,1.252-2.233,2.943-2.233,5.07c0,1.064,0.244,2.142,0.731,3.234c0.487,1.091,1.272,2.295,2.356,3.611
		c-2.072,1.442-3.56,2.845-4.465,4.21c-0.906,1.364-1.358,2.985-1.358,4.86c0,2.968,0.932,5.26,2.798,6.876
		c1.865,1.617,4.499,2.425,7.901,2.425c1.825,0,3.388-0.22,4.692-0.661c1.303-0.441,2.565-1.242,3.786-2.404l1.852,2.499h6.234
		l-4.588-6.404c0.754-1.316,1.286-2.712,1.594-4.189c0.309-1.477,0.463-3.363,0.463-5.658v-0.777h-5.144
		c0.028,0.196,0.041,0.392,0.041,0.588c0,0.994-0.065,2.005-0.195,3.034c-0.131,1.028-0.305,1.886-0.525,2.572l-4.753-6.362
		C256.688,108.954,257.936,107.628,258.704,106.431"/>
	<path style="clip-path:url(#SVGID_00000121958840818729401460000011254100671097971328_);" d="M570.994,53.252v31.053h6.42V70.637
		h7.202v13.668h6.399V53.252h-6.399v12.304h-7.202V53.252H570.994z M547.501,53.252v5.039h6.996v26.014h6.461V58.291h7.078v-5.039
		H547.501z M533.648,53.252v31.053h15.885V79.14h-9.444V53.252H533.648z M517.902,59.236l3.169,13.5h-6.153L517.902,59.236z
		 M514.116,53.252l-8.436,31.053h6.296l1.728-6.886h8.663l1.687,6.886h6.708l-8.251-31.053H514.116z M486.437,53.252v31.053h16.935
		v-4.85h-10.577v-8.986h9.445v-4.787h-9.445v-7.643h10.247v-4.787H486.437z M461.779,53.252v31.053h6.42V70.637h7.201v13.668h6.4
		V53.252h-6.4v12.304h-7.201V53.252H461.779z M447.749,61.818c0-2.995-0.851-5.301-2.551-6.918
		c-1.701-1.617-4.123-2.425-7.264-2.425c-2.524,0-4.575,0.49-6.152,1.47c-1.578,0.98-2.737,2.506-3.477,4.577
		c-0.741,2.072-1.112,5.291-1.112,9.658c0,4.703,0.295,8.101,0.885,10.194c0.59,2.093,1.76,3.667,3.509,4.724
		c1.748,1.057,4.2,1.585,7.355,1.585c0.947,0,1.969-0.056,3.066-0.168c1.098-0.112,3.011-0.427,5.741-0.945V67.844h-9.774v4.808
		h3.498v6.845c-0.521,0.196-1.042,0.343-1.563,0.441c-0.522,0.098-1.07,0.147-1.647,0.147c-1.659,0-2.822-0.591-3.487-1.774
		c-0.666-1.183-1.026-2.887-1.08-5.113l-0.062-4.808c0-1.036,0.027-2.565,0.082-4.587c0.055-2.023,0.388-3.647,0.998-4.872
		c0.61-1.224,1.643-1.837,3.097-1.837c1.097,0,1.975,0.371,2.634,1.113c0.658,0.742,0.987,1.701,0.987,2.877v1.511h6.317V61.818z
		 M400.456,53.252v31.053h5.905V61.608l8.333,22.697h8.354V53.252h-5.905v21.5l-8.128-21.5H400.456z M389.512,84.305h6.358V53.252
		h-6.358V84.305z M385.772,62.112c0-3.205-0.751-5.56-2.253-7.065c-1.502-1.504-3.7-2.257-6.595-2.257
		c-2.469,0-4.434,0.417-5.895,1.249c-1.461,0.833-2.503,1.957-3.127,3.37c-0.625,1.414-1.026,2.947-1.204,4.598
		c-0.178,1.652-0.267,3.927-0.267,6.824c0,3.682,0.167,6.369,0.504,8.063c0.336,1.693,0.85,3.086,1.543,4.178
		c0.692,1.092,1.697,1.96,3.014,2.603c1.317,0.644,3.025,0.966,5.124,0.966c3.223,0,5.61-0.826,7.16-2.477
		c1.55-1.652,2.325-4.123,2.325-7.412v-0.903h-6.275v0.357c0,2.002-0.278,3.461-0.834,4.378c-0.555,0.917-1.375,1.375-2.459,1.375
		c-1.289,0-2.208-0.598-2.757-1.795c-0.548-1.197-0.85-2.709-0.905-4.535c-0.055-1.827-0.082-3.286-0.082-4.378
		c0-3.247,0.082-5.564,0.247-6.95c0.164-1.385,0.504-2.53,1.018-3.433c0.514-0.902,1.327-1.354,2.438-1.354
		c0.974,0,1.725,0.389,2.253,1.165c0.528,0.777,0.793,2.041,0.793,3.79v0.588h6.234V62.112z M339.682,53.252v31.053h5.906V61.608
		l8.333,22.697h8.354V53.252h-5.905v21.5l-8.128-21.5H339.682z M323.895,59.236l3.169,13.5h-6.152L323.895,59.236z M320.109,53.252
		l-8.436,31.053h6.296l1.729-6.886h8.662l1.688,6.886h6.707l-8.251-31.053H320.109z M290.482,53.252l7.51,31.053h7.449l8.045-31.053
		h-6.276l-5.35,22.592l-4.753-22.592H290.482z M274.86,58.039h1.77c1.865,0,3.158,0.263,3.878,0.787
		c0.72,0.525,1.235,1.554,1.543,3.087c0.309,1.533,0.463,3.979,0.463,7.338c0,3.191-0.178,5.421-0.535,6.687
		c-0.356,1.267-0.888,2.17-1.594,2.709c-0.707,0.539-2.034,0.808-3.982,0.808h-1.543V58.039z M268.358,53.252v31.053h9.362
		c2.799,0,4.993-0.444,6.585-1.333c1.591-0.889,2.753-2.281,3.487-4.178c0.734-1.897,1.101-5.134,1.101-9.711
		c0-3.513-0.144-6.089-0.432-7.727c-0.288-1.637-0.782-3.054-1.482-4.251c-0.699-1.197-1.762-2.138-3.189-2.824
		s-3.313-1.029-5.658-1.029H268.358z M252.551,59.236l3.169,13.5h-6.153L252.551,59.236z M248.765,53.252l-8.436,31.053h6.296
		l1.728-6.886h8.663l1.687,6.886h6.708l-8.251-31.053H248.765z"/>
	<path style="clip-path:url(#SVGID_00000121958840818729401460000011254100671097971328_);" d="M327.66,16.797
		c-0.101-0.141-0.212-0.262-0.333-0.363c-0.121-0.1-0.262-0.151-0.423-0.151c-0.182,0-0.378,0.01-0.59,0.03
		c-0.212,0.021-0.419,0.056-0.62,0.106c-0.202,0.051-0.368,0.111-0.499,0.181c-0.131,0.071-0.196,0.147-0.196,0.227v21.408
		c0,0.101,0.07,0.181,0.211,0.242c0.141,0.06,0.313,0.111,0.514,0.151c0.202,0.04,0.413,0.071,0.635,0.091
		c0.222,0.02,0.413,0.03,0.575,0.03c0.222,0,0.398-0.081,0.529-0.242c0.131-0.161,0.197-0.352,0.197-0.574v-16.54l10.855,16.872
		c0.06,0.081,0.166,0.151,0.317,0.212c0.151,0.06,0.328,0.111,0.529,0.151c0.202,0.04,0.403,0.071,0.605,0.091
		c0.201,0.02,0.373,0.03,0.514,0.03c0.201,0,0.368-0.075,0.499-0.227c0.131-0.151,0.197-0.337,0.197-0.559V17.13
		c0-0.242-0.046-0.444-0.136-0.605c-0.091-0.161-0.248-0.242-0.469-0.242c-0.182,0-0.393,0.01-0.635,0.03
		c-0.242,0.021-0.469,0.051-0.68,0.091c-0.212,0.041-0.389,0.091-0.53,0.151c-0.141,0.061-0.211,0.131-0.211,0.212V33.7
		L327.66,16.797z M320.509,17.099c0-0.221-0.066-0.413-0.197-0.574c-0.131-0.161-0.307-0.242-0.529-0.242
		c-0.181,0-0.383,0.01-0.605,0.03c-0.222,0.021-0.438,0.056-0.65,0.106c-0.211,0.051-0.388,0.111-0.529,0.181
		c-0.141,0.071-0.211,0.147-0.211,0.227v21.408c0,0.101,0.07,0.181,0.211,0.242c0.141,0.06,0.318,0.111,0.529,0.151
		c0.212,0.04,0.428,0.071,0.65,0.091c0.222,0.02,0.424,0.03,0.605,0.03c0.222,0,0.398-0.081,0.529-0.242
		c0.131-0.161,0.197-0.352,0.197-0.574V17.099z M301.35,27.35l10.069,10.855c0.221,0.242,0.534,0.393,0.937,0.453
		c0.403,0.061,0.836,0.091,1.3,0.091c0.141,0,0.303-0.02,0.484-0.06c0.182-0.041,0.272-0.162,0.272-0.363
		c0-0.222-0.161-0.504-0.484-0.847l-9.706-10.432l8.86-9.494c0.342-0.363,0.514-0.645,0.514-0.847c0-0.201-0.091-0.322-0.272-0.363
		c-0.182-0.04-0.353-0.06-0.514-0.06c-0.444,0-0.873,0.03-1.285,0.091c-0.414,0.06-0.731,0.211-0.953,0.453l-9.222,9.948v-9.676
		c0-0.221-0.066-0.413-0.197-0.574c-0.131-0.161-0.307-0.242-0.529-0.242c-0.181,0-0.383,0.01-0.605,0.03
		c-0.222,0.021-0.438,0.056-0.65,0.106c-0.211,0.051-0.388,0.111-0.529,0.181c-0.141,0.071-0.212,0.147-0.212,0.227v21.408
		c0,0.101,0.071,0.181,0.212,0.242c0.141,0.06,0.318,0.111,0.529,0.151c0.212,0.04,0.428,0.071,0.65,0.091
		c0.222,0.02,0.424,0.03,0.605,0.03c0.222,0,0.398-0.081,0.529-0.242c0.131-0.161,0.197-0.352,0.197-0.574V27.35z M286.41,20.304
		c0.02-0.201,0.05-0.382,0.091-0.544c0,0.101,0.025,0.283,0.075,0.544c0.05,0.263,0.096,0.444,0.136,0.545l2.903,8.799h-6.259
		l2.933-8.799C286.35,20.688,286.391,20.506,286.41,20.304 M293.033,38.643c0.342,0.071,0.796,0.106,1.36,0.106
		c0.182,0,0.358-0.035,0.53-0.106c0.171-0.071,0.257-0.196,0.257-0.378c0-0.121-0.011-0.211-0.031-0.272l-7.257-21.136
		c-0.12-0.382-0.352-0.574-0.695-0.574c-0.383,0-0.801,0.035-1.255,0.106c-0.453,0.071-0.721,0.217-0.801,0.438l-7.287,21.166
		c-0.041,0.121-0.061,0.212-0.061,0.272c0,0.182,0.086,0.307,0.257,0.378c0.171,0.071,0.358,0.106,0.56,0.106
		c0.463,0,0.881-0.02,1.255-0.06c0.372-0.041,0.599-0.182,0.68-0.424l2.116-6.259h7.681l2.026,6.138
		C292.467,38.406,292.69,38.572,293.033,38.643 M262.031,38.235c0.282,0.101,0.554,0.151,0.816,0.151h11.4
		c0.08,0,0.151-0.06,0.211-0.181c0.061-0.121,0.111-0.272,0.151-0.454c0.041-0.181,0.071-0.372,0.091-0.574
		c0.02-0.201,0.03-0.383,0.03-0.544c0-0.202-0.07-0.363-0.211-0.484c-0.142-0.121-0.303-0.182-0.484-0.182h-9.706v-7.438h8.98
		c0.081,0,0.151-0.06,0.212-0.181c0.06-0.121,0.116-0.273,0.166-0.454c0.05-0.181,0.086-0.373,0.106-0.575
		c0.02-0.201,0.03-0.372,0.03-0.514c0-0.221-0.071-0.393-0.211-0.514c-0.142-0.121-0.313-0.181-0.514-0.181h-8.769v-7.045h9.918
		c0.08,0,0.151-0.061,0.211-0.182c0.061-0.121,0.111-0.272,0.151-0.453c0.041-0.182,0.071-0.373,0.091-0.575
		c0.02-0.201,0.03-0.382,0.03-0.544c0-0.222-0.07-0.388-0.211-0.499c-0.142-0.11-0.303-0.166-0.484-0.166h-11.702
		c-0.484,0-0.725,0.262-0.725,0.786v20.41C261.608,38.004,261.747,38.134,262.031,38.235 M251.672,19.352
		c0.726,0.212,1.315,0.559,1.769,1.043c0.453,0.484,0.776,1.114,0.967,1.89c0.192,0.776,0.288,1.719,0.288,2.827v4.778
		c0,1.108-0.096,2.051-0.288,2.827c-0.191,0.776-0.514,1.406-0.967,1.89c-0.454,0.483-1.043,0.831-1.769,1.043
		c-0.726,0.211-1.633,0.317-2.721,0.317h-4.143V19.035h4.143C250.038,19.035,250.946,19.14,251.672,19.352 M242.359,16.797
		c-0.181,0.121-0.272,0.323-0.272,0.605v20.44c0,0.162,0.136,0.292,0.408,0.393c0.272,0.101,0.549,0.151,0.832,0.151h5.624
		c1.451,0,2.711-0.136,3.779-0.408c1.069-0.272,1.955-0.726,2.661-1.361s1.23-1.471,1.572-2.509
		c0.343-1.038,0.515-2.323,0.515-3.856V24.78c0-1.532-0.172-2.817-0.515-3.856c-0.342-1.038-0.866-1.874-1.572-2.509
		c-0.706-0.635-1.592-1.094-2.661-1.376c-1.068-0.282-2.328-0.423-3.779-0.423h-5.987C242.742,16.616,242.54,16.676,242.359,16.797"
		/>
</g>
<metadata><?xpacket begin="?" id="W5M0MpCehiHzreSzNTczkc9d"?>
		<x:xmpmeta xmlns:x="adobe:ns:meta/" x:xmptk="Adobe XMP Core 9.1-c003 1.000000, 0000/00/00-00:00:00        ">
		   <rdf:RDF xmlns:rdf="http://www.w3.org/1999/02/22-rdf-syntax-ns#">
		      <rdf:Description rdf:about=""
		            xmlns:dc="http://purl.org/dc/elements/1.1/"
		            xmlns:xmp="http://ns.adobe.com/xap/1.0/"
		            xmlns:xmpMM="http://ns.adobe.com/xap/1.0/mm/"
		            xmlns:stRef="http://ns.adobe.com/xap/1.0/sType/ResourceRef#"
		            xmlns:stEvt="http://ns.adobe.com/xap/1.0/sType/ResourceEvent#"
		            xmlns:xmpRights="http://ns.adobe.com/xap/1.0/rights/"
		            xmlns:pdf="http://ns.adobe.com/pdf/1.3/">
		         <dc:format>application/pdf</dc:format>
		         <dc:creator>
		            <rdf:Seq>
		               <rdf:li>Deakin Automation v1.8</rdf:li>
		            </rdf:Seq>
		         </dc:creator>
		         <dc:title>
		            <rdf:Alt>
		               <rdf:li xml:lang="x-default">AHSJ Logo Roundel Keyline SVG</rdf:li>
		            </rdf:Alt>
		         </dc:title>
		         <dc:subject>
		            <rdf:Bag>
		               <rdf:li>ADVANCING HEALTH &amp; SOCIAL JUSTICE</rdf:li>
		               <rdf:li>AHSJ</rdf:li>
					   <rdf:li>Roundel Keyline, </rdf:li>
					<rdf:li>branding</rdf:li>
					<rdf:li>wordmark</rdf:li>
		            </rdf:Bag>
		         </dc:subject>
		         <dc:description>
		            <rdf:Alt>
		               <rdf:li xml:lang="x-default">This asset is part of the Masterbrand logo wordmark set for this area of Deakin. Refer to the related items below for alternate formats and file types.</rdf:li>
		            </rdf:Alt>
		         </dc:description>
		      </rdf:Description>
		   </rdf:RDF>
		</x:xmpmeta>
		<?xpacket end="w"?></metadata></svg>
