<?xml version="1.0" encoding="iso-8859-1"?>
<!-- Generator: Adobe Illustrator 29.5.1, SVG Export Plug-In . SVG Version: 9.03 Build 0)  -->
<svg version="1.1" id="Layer_1" xmlns="http://www.w3.org/2000/svg" xmlns:xlink="http://www.w3.org/1999/xlink" x="0px" y="0px"
	 viewBox="0 0 1000 144" style="enable-background:new 0 0 1000 144;" xml:space="preserve">
<g>
	<defs>
		<rect id="SVGID_1_" width="1000" height="144"/>
	</defs>
	<clipPath id="SVGID_00000000182310825799142320000011845897812731145637_">
		<use xlink:href="#SVGID_1_"  style="overflow:visible;"/>
	</clipPath>
	<path style="clip-path:url(#SVGID_00000000182310825799142320000011845897812731145637_);fill:#FFFFFF;" d="M414.759,115.025
		v11.825c0,0.397-0.133,0.706-0.443,0.927c-0.265,0.221-0.619,0.353-1.062,0.353c-0.265,0-0.664,0-1.106-0.044
		c-0.442-0.044-0.929-0.088-1.372-0.132c-0.442-0.045-0.841-0.177-1.195-0.309c-0.309-0.133-0.486-0.309-0.486-0.486v-12.09
		L398.74,94.903c-0.354-0.706-0.399-1.192-0.133-1.5c0.266-0.309,0.752-0.486,1.46-0.486c0.443,0,0.885,0,1.372,0.044
		c0.443,0,0.885,0.044,1.283,0.133c0.399,0.044,0.753,0.132,1.018,0.22c0.266,0.089,0.487,0.221,0.575,0.441l7.612,15.489
		l7.611-15.444c0.089-0.177,0.265-0.354,0.575-0.442c0.266-0.088,0.62-0.176,1.018-0.264c0.398-0.045,0.841-0.089,1.283-0.133
		c0.443,0,0.93-0.044,1.372-0.044c0.708,0,1.195,0.132,1.461,0.441c0.221,0.309,0.177,0.795-0.178,1.545L414.759,115.025z
		 M384.491,98.521v28.329c0,0.397-0.133,0.706-0.443,0.927c-0.31,0.221-0.619,0.353-1.018,0.353c-0.265,0-0.663,0-1.15-0.044
		c-0.487-0.044-0.974-0.088-1.416-0.132c-0.443-0.045-0.841-0.177-1.151-0.309c-0.354-0.133-0.486-0.309-0.486-0.486V98.565h-8.762
		c-0.354,0-0.62-0.132-0.885-0.397c-0.222-0.265-0.354-0.573-0.354-0.971c0-0.265,0-0.573,0.044-1.015
		c0.044-0.397,0.088-0.838,0.133-1.235c0.044-0.397,0.177-0.75,0.265-1.059c0.133-0.265,0.266-0.441,0.487-0.441h23.453
		c0.354,0,0.62,0.132,0.885,0.397c0.222,0.265,0.354,0.617,0.354,0.971c0,0.264,0,0.573-0.044,1.014
		c-0.044,0.442-0.088,0.839-0.133,1.236c-0.044,0.397-0.132,0.75-0.265,1.015s-0.266,0.441-0.487,0.441H384.491z M364.046,126.85
		c0,0.397-0.132,0.706-0.442,0.927c-0.266,0.221-0.62,0.353-1.062,0.353c-0.266,0-0.664,0-1.151-0.044
		c-0.486-0.044-0.929-0.088-1.416-0.132c-0.442-0.045-0.84-0.177-1.195-0.309c-0.309-0.133-0.486-0.309-0.486-0.486V93.932
		c0-0.177,0.177-0.353,0.486-0.486c0.355-0.132,0.753-0.264,1.195-0.308c0.443-0.044,0.93-0.133,1.416-0.133
		c0.487-0.044,0.841-0.044,1.151-0.044c0.398,0,0.752,0.133,1.062,0.397c0.265,0.265,0.442,0.574,0.442,0.927V126.85z
		 M332.141,122.305c0.265,0.044,0.62,0.177,1.151,0.265c0.531,0.132,1.106,0.265,1.814,0.397c0.664,0.133,1.416,0.221,2.257,0.353
		c0.796,0.088,1.637,0.133,2.434,0.133c0.885,0,1.725-0.089,2.522-0.221c0.796-0.132,1.549-0.397,2.168-0.706
		c0.62-0.353,1.151-0.794,1.505-1.324c0.398-0.574,0.575-1.235,0.575-2.074c0-1.147-0.354-2.118-1.106-2.912
		c-0.753-0.794-1.682-1.545-2.788-2.251c-1.106-0.706-2.345-1.412-3.673-2.118s-2.522-1.544-3.673-2.471
		c-1.15-0.926-2.08-2.03-2.788-3.309c-0.752-1.28-1.106-2.824-1.106-4.678c0-1.544,0.265-2.868,0.841-3.927
		c0.575-1.059,1.327-1.941,2.301-2.647c0.973-0.662,2.168-1.192,3.496-1.501c1.371-0.309,2.876-0.485,4.513-0.485
		c0.354,0,0.885,0,1.593,0.044s1.461,0.088,2.257,0.176c0.797,0.089,1.593,0.177,2.346,0.309c0.796,0.133,1.416,0.309,1.858,0.53
		c0.443,0.176,0.708,0.397,0.797,0.618c0.088,0.22,0.088,0.573,0.044,1.103c-0.044,0.838-0.221,1.5-0.531,2.074
		c-0.266,0.573-0.664,0.794-1.195,0.706c-0.796-0.177-1.681-0.309-2.699-0.486c-1.018-0.132-2.169-0.22-3.408-0.22
		c-1.947,0-3.584,0.309-4.823,0.838c-1.239,0.574-1.859,1.5-1.859,2.824c0,1.059,0.355,1.942,1.107,2.692
		c0.752,0.75,1.681,1.456,2.788,2.118c1.106,0.662,2.345,1.368,3.672,2.074c1.328,0.706,2.523,1.544,3.673,2.515
		c1.107,0.971,2.08,2.118,2.788,3.442c0.752,1.324,1.106,3.001,1.106,4.898c0,1.809-0.354,3.31-1.017,4.457
		c-0.664,1.191-1.593,2.074-2.7,2.736c-1.106,0.662-2.434,1.103-3.894,1.368c-1.46,0.264-3.009,0.397-4.602,0.397
		c-0.708,0-1.505-0.044-2.301-0.088c-0.797-0.045-1.549-0.133-2.345-0.221c-0.753-0.088-1.461-0.221-2.169-0.353
		c-0.664-0.133-1.239-0.265-1.726-0.441c-0.486-0.177-0.752-0.353-0.84-0.53c-0.089-0.221-0.133-0.574-0.045-1.059
		c0.089-0.927,0.266-1.721,0.531-2.339C331.344,122.482,331.698,122.173,332.141,122.305 M313.953,98.477h-6.593v11.429h6.593
		c1.284,0,2.346-0.089,3.098-0.221c0.797-0.132,1.372-0.397,1.814-0.794c0.443-0.397,0.709-0.883,0.841-1.545
		c0.133-0.661,0.221-1.544,0.221-2.603v-1.059c0-1.059-0.088-1.942-0.221-2.648c-0.132-0.661-0.442-1.191-0.841-1.588
		c-0.442-0.397-1.017-0.618-1.814-0.795C316.255,98.565,315.237,98.477,313.953,98.477 M301.652,127.115V94.638
		c0-0.353,0.132-0.618,0.442-0.883c0.31-0.22,0.62-0.352,1.062-0.352h10.488c2.168,0,4.027,0.176,5.575,0.485
		c1.549,0.309,2.788,0.882,3.762,1.677c0.973,0.794,1.681,1.853,2.124,3.177c0.443,1.324,0.664,2.956,0.664,4.986v1.059
		c0,1.5-0.133,2.78-0.354,3.883c-0.222,1.103-0.62,2.074-1.107,2.869c-0.486,0.794-1.194,1.412-2.035,1.897
		s-1.859,0.838-3.009,1.103l6.593,11.385c0.354,0.617,0.531,1.059,0.531,1.368c0,0.176-0.088,0.353-0.221,0.485
		c-0.177,0.132-0.354,0.221-0.531,0.265c-0.177,0.044-0.398,0.088-0.575,0.132c-0.222,0-0.354,0.044-0.443,0.044
		c-0.265,0-0.664,0-1.106-0.044c-0.443-0.044-0.885-0.088-1.328-0.176c-0.442-0.089-0.885-0.177-1.239-0.353
		c-0.354-0.177-0.619-0.398-0.796-0.662l-6.992-11.914h-5.841v11.914c0,0.397-0.133,0.662-0.443,0.882
		c-0.265,0.221-0.619,0.353-1.018,0.353c-0.265,0-0.663,0-1.15-0.044c-0.487-0.044-0.929-0.088-1.416-0.132
		c-0.443-0.044-0.841-0.177-1.195-0.309C301.829,127.468,301.652,127.336,301.652,127.115 M273.773,126.586V94.638
		c0-0.397,0.133-0.706,0.443-0.927c0.265-0.22,0.619-0.308,1.062-0.308h19.072c0.354,0,0.664,0.132,0.885,0.441
		c0.221,0.265,0.354,0.617,0.354,0.971c0,0.264,0,0.573-0.044,1.014c-0.044,0.442-0.089,0.839-0.133,1.236
		c-0.044,0.397-0.177,0.75-0.265,1.015c-0.133,0.265-0.31,0.441-0.487,0.441h-15.134v9.178h12.966c0.309,0,0.575,0.133,0.84,0.397
		c0.222,0.265,0.354,0.574,0.354,0.927c0,0.265,0,0.574-0.044,1.015c-0.044,0.441-0.088,0.838-0.133,1.236
		c-0.044,0.397-0.177,0.75-0.265,1.059c-0.133,0.264-0.266,0.441-0.487,0.441h-13.275v9.708h14.824c0.354,0,0.664,0.132,0.885,0.397
		c0.221,0.265,0.354,0.574,0.354,0.971c0,0.264,0,0.573-0.044,1.015c-0.045,0.397-0.089,0.838-0.133,1.235
		c-0.044,0.397-0.177,0.75-0.266,1.059c-0.132,0.309-0.309,0.441-0.486,0.441h-18.675c-0.442,0-0.929-0.088-1.416-0.309
		C273.994,127.027,273.773,126.806,273.773,126.586 M256.338,118.466l7.169-24.578c0.442-0.442,0.973-0.706,1.548-0.839
		c0.576-0.088,1.239-0.176,2.036-0.176c0.31,0,0.664,0,0.974,0.044c0.353,0.044,0.619,0.088,0.84,0.221
		c0.222,0.132,0.399,0.265,0.531,0.485c0.133,0.221,0.089,0.486,0,0.883l-11.018,32.874c-0.045,0.265-0.222,0.441-0.487,0.574
		c-0.266,0.132-0.531,0.176-0.841,0.176c-1.062,0-1.947-0.044-2.655-0.176c-0.708-0.133-1.151-0.309-1.328-0.53l-10.974-32.918
		c-0.088-0.309-0.088-0.574,0-0.795c0.089-0.22,0.221-0.353,0.442-0.485c0.178-0.132,0.399-0.221,0.664-0.265
		c0.222-0.044,0.443-0.088,0.576-0.088c0.486,0,0.973,0,1.46,0.044s0.929,0.088,1.372,0.177c0.398,0.088,0.752,0.22,1.062,0.352
		c0.265,0.177,0.487,0.354,0.575,0.618l7.346,24.358c0.133,0.397,0.221,0.794,0.265,1.192c0.045,0.441,0.089,0.794,0.177,1.147
		c0.045-0.353,0.089-0.75,0.133-1.147C256.117,119.216,256.205,118.819,256.338,118.466 M237.929,126.85
		c0,0.397-0.133,0.706-0.442,0.927c-0.266,0.221-0.62,0.353-1.062,0.353c-0.266,0-0.664,0-1.151-0.044
		c-0.487-0.044-0.929-0.088-1.416-0.132c-0.442-0.045-0.841-0.177-1.195-0.309c-0.354-0.133-0.487-0.309-0.487-0.486V93.932
		c0-0.177,0.177-0.353,0.487-0.486c0.354-0.132,0.708-0.264,1.195-0.308c0.442-0.044,0.929-0.133,1.416-0.133
		c0.487-0.044,0.841-0.044,1.151-0.044c0.398,0,0.752,0.133,1.062,0.397c0.265,0.265,0.442,0.574,0.442,0.927V126.85z
		 M220.494,117.584V93.755c0-0.176,0.177-0.352,0.531-0.441c0.354-0.132,0.752-0.22,1.239-0.265c0.487-0.044,0.974-0.088,1.46-0.132
		c0.487-0.044,0.885-0.044,1.151-0.044c0.841,0,1.239,0.485,1.239,1.412v32.565c0,0.397-0.133,0.662-0.442,0.883
		c-0.31,0.221-0.62,0.353-0.974,0.353c-0.266,0-0.575,0-1.018-0.044c-0.442-0.044-0.841-0.044-1.283-0.133
		c-0.443-0.088-0.797-0.176-1.151-0.264c-0.354-0.133-0.575-0.265-0.708-0.442l-15.444-23.696v23.343
		c0,0.397-0.132,0.706-0.442,0.927c-0.266,0.221-0.62,0.353-1.018,0.353c-0.265,0-0.664,0-1.15-0.044
		c-0.487-0.044-0.974-0.088-1.417-0.132c-0.442-0.045-0.84-0.177-1.15-0.309c-0.354-0.133-0.487-0.309-0.487-0.486V93.932
		c0-0.177,0.177-0.353,0.487-0.485c0.354-0.133,0.708-0.265,1.15-0.309c0.443-0.044,0.886-0.089,1.372-0.133
		c0.487-0.044,0.841-0.044,1.151-0.044c0.354,0,0.664,0.088,0.885,0.309c0.221,0.221,0.442,0.441,0.575,0.706L220.494,117.584z
		 M187.571,115.466V94.02c0-0.176,0.177-0.353,0.486-0.485c0.355-0.132,0.753-0.265,1.195-0.353
		c0.487-0.088,0.974-0.177,1.416-0.221c0.487-0.044,0.841-0.088,1.151-0.088c0.398,0,0.752,0.132,1.018,0.441
		c0.265,0.309,0.398,0.618,0.398,0.971v21.446c0,2.338-0.266,4.28-0.797,5.868c-0.531,1.589-1.283,2.824-2.345,3.839
		c-1.062,0.971-2.389,1.677-3.983,2.074c-1.593,0.397-3.495,0.618-5.62,0.618h-0.398c-2.08,0-3.938-0.221-5.487-0.618
		c-1.593-0.397-2.876-1.103-3.938-2.074c-1.062-0.97-1.815-2.25-2.346-3.839c-0.531-1.544-0.796-3.53-0.796-5.868V94.02
		c0-0.176,0.177-0.353,0.486-0.485c0.355-0.132,0.708-0.265,1.195-0.353c0.443-0.088,0.93-0.177,1.416-0.221
		c0.487-0.044,0.885-0.088,1.151-0.088c0.398,0,0.708,0.132,1.018,0.441c0.265,0.309,0.442,0.618,0.442,0.971v21.137
		c0,1.367,0.089,2.515,0.31,3.486c0.221,0.97,0.575,1.765,1.106,2.338c0.531,0.618,1.239,1.059,2.124,1.324s1.992,0.441,3.319,0.441
		h0.398c1.372,0,2.479-0.132,3.408-0.441c0.885-0.309,1.637-0.75,2.168-1.324c0.531-0.618,0.93-1.368,1.151-2.338
		C187.482,117.981,187.571,116.834,187.571,115.466 M393.474,38.244v40.994h-11.329V16.622h15.798l15.179,38.567V16.622h11.505
		v62.616h-14.426L393.474,38.244z M360.949,16.622h12.745v62.615h-12.745V16.622z M312.051,16.622h13.098v27.226l16.329-27.226
		h13.674l-18.143,28.815l18.143,33.845h-15.179l-14.824-30.447v30.447h-13.098V16.622z M290.721,65.338H272.49l-3.319,13.944
		h-13.143l17.701-62.66h16.727l17.435,62.66h-13.762L290.721,65.338z M288.11,54.439l-6.283-25.903l-6.594,25.903H288.11z
		 M217.928,16.622h33.94v10.635h-20.665v13.37h19.028v10.899h-19.028v16.68h20.71v11.032h-33.985V16.622z M189.12,16.622
		c16.771,0,21.948,8.87,21.948,31.33c0,22.461-5.221,31.33-21.993,31.33h-21.506v-62.66H189.12z M180.756,68.471h5.974
		c9.78,0,11.019-5.736,11.019-20.74c0-14.958-1.239-20.695-11.019-20.695h-5.974V68.471z"/>
	<path style="clip-path:url(#SVGID_00000000182310825799142320000011845897812731145637_);fill:#FFFFFF;" d="M71.713,1.288
		C32.549,1.288,0.799,32.947,0.799,72s31.749,70.712,70.913,70.712S142.625,111.053,142.625,72S110.877,1.288,71.713,1.288"/>
	<path style="clip-path:url(#SVGID_00000000182310825799142320000011845897812731145637_);fill:#FFFFFF;" d="M71.713,2.968
		c38.175,0,69.233,30.968,69.233,69.032s-31.058,69.032-69.233,69.032S2.479,110.064,2.479,72S33.538,2.968,71.713,2.968"/>
	<path style="clip-path:url(#SVGID_00000000182310825799142320000011845897812731145637_);" d="M95.076,94.204L68.262,47.816
		l3.533-5.928l30.099,52.316H95.076z M82.396,94.204L61.86,58.843l3.45-5.804l23.655,41.165H82.396z M69.509,94.204L55.416,69.953
		l3.575-6.011l17.336,30.22h-6.818V94.204z M56.539,94.204l-7.567-13.1l3.576-6.011l10.933,19.111H56.539z M41.365,94.204
		l4.614-7.877l4.615,7.877H41.365z M35.503,36.416V85.83c0,19.94,16.213,36.107,36.209,36.107c19.997,0,36.21-16.167,36.21-36.107
		V36.416H35.503z"/>
</g>
<rect x="471.959" y="16.622" style="fill:#FFFFFF;" width="2" height="110.978"/>
<g>
	<defs>
		<rect id="SVGID_00000114051155226682005730000009652415357982383235_" width="1000" height="144"/>
	</defs>
	<clipPath id="SVGID_00000101096547101479858380000007475669771043935903_">
		<use xlink:href="#SVGID_00000114051155226682005730000009652415357982383235_"  style="overflow:visible;"/>
	</clipPath>
	<path style="clip-path:url(#SVGID_00000101096547101479858380000007475669771043935903_);fill:#FFFFFF;" d="M634.609,109.178v-9.38
		h2.245c2.001,0,3.335,0.382,4.002,1.145c0.666,0.763,1,1.945,1,3.545c0,1.645-0.378,2.838-1.134,3.579
		c-0.756,0.741-1.867,1.111-3.334,1.111H634.609z M627.696,94.73v32.876h6.913v-13.382h4.691c3.289,0,5.697-0.781,7.224-2.345
		c1.526-1.563,2.289-3.982,2.289-7.258c0-3.482-0.759-6.001-2.278-7.557s-3.946-2.334-7.28-2.334H627.696z M600.59,94.73v22.006
		c0,3.868,0.892,6.746,2.678,8.636c1.786,1.889,4.546,2.834,8.28,2.834c3.912,0,6.78-0.93,8.602-2.79
		c1.823-1.86,2.735-4.738,2.735-8.636V94.73h-6.691v22.184c0,2.119-0.371,3.716-1.112,4.79c-0.741,1.075-1.882,1.611-3.423,1.611
		c-1.437,0-2.497-0.529-3.178-1.589c-0.682-1.059-1.023-2.678-1.023-4.857V94.73H600.59z M580.568,108.934
		c0-3.897,0.311-6.561,0.933-7.991c0.623-1.43,1.771-2.145,3.446-2.145c1.704,0,2.863,0.67,3.478,2.011
		c0.615,1.342,0.923,3.509,0.923,6.502v3.134c0,2.164-0.041,4.268-0.122,6.313c-0.082,2.045-0.423,3.649-1.023,4.813
		c-0.6,1.163-1.7,1.744-3.301,1.744c-1.141,0-2.019-0.34-2.634-1.022c-0.615-0.681-1.052-1.734-1.311-3.156
		c-0.26-1.423-0.389-3.898-0.389-7.425V108.934z M584.791,128.206c2.075,0,3.808-0.245,5.202-0.734
		c1.392-0.489,2.515-1.181,3.367-2.078c0.852-0.897,1.493-2.004,1.923-3.323c0.429-1.319,0.718-2.734,0.867-4.246
		c0.148-1.511,0.222-3.808,0.222-6.891c0-3.437-0.111-6.035-0.333-7.791c-0.223-1.756-0.686-3.341-1.39-4.757
		c-0.704-1.415-1.837-2.523-3.401-3.323c-1.563-0.8-3.678-1.2-6.346-1.2c-2.682,0-4.864,0.519-6.546,1.556s-2.901,2.675-3.657,4.912
		c-0.755,2.238-1.133,5.713-1.133,10.425c0,4.002,0.189,6.94,0.567,8.814c0.377,1.875,0.952,3.427,1.722,4.657
		c0.771,1.23,1.886,2.2,3.346,2.912C580.66,127.85,582.524,128.206,584.791,128.206 M556.453,99.798h1.467
		c2.089,0,3.453,0.333,4.09,1c0.637,0.667,0.956,1.816,0.956,3.446c0,1.644-0.323,2.838-0.967,3.578
		c-0.645,0.742-1.96,1.112-3.946,1.112h-1.6V99.798z M549.54,94.73v32.876h6.913v-13.604h1.334c2.059,0,3.459,0.352,4.201,1.056
		c0.74,0.704,1.111,2.004,1.111,3.901v5.046c0,0.889,0.052,1.544,0.156,1.967c0.103,0.422,0.296,0.967,0.578,1.634h6.735
		c-0.148-0.445-0.256-1.03-0.322-1.757c-0.067-0.725-0.123-1.489-0.167-2.289l-0.334-5.646c-0.133-2.119-0.604-3.653-1.411-4.601
		c-0.808-0.948-2.293-1.571-4.457-1.867c2.03-0.386,3.531-1.23,4.501-2.534c0.971-1.304,1.456-3.127,1.456-5.469
		c0-2.963-0.726-5.157-2.178-6.579c-1.453-1.423-3.683-2.134-6.691-2.134H549.54z M544.762,103.799c0-3.171-0.919-5.613-2.756-7.324
		c-1.838-1.712-4.454-2.568-7.847-2.568c-2.727,0-4.942,0.519-6.646,1.556c-1.704,1.038-2.957,2.653-3.757,4.846
		c-0.8,2.193-1.2,5.602-1.2,10.225c0,4.979,0.318,8.577,0.956,10.792c0.637,2.216,1.9,3.883,3.79,5.001
		c1.889,1.119,4.538,1.679,7.946,1.679c1.023,0,2.127-0.06,3.312-0.178c1.186-0.119,3.253-0.452,6.202-1v-16.649h-10.558v5.09h3.778
		v7.246c-0.563,0.208-1.126,0.364-1.689,0.467c-0.563,0.104-1.156,0.156-1.778,0.156c-1.793,0-3.049-0.626-3.768-1.879
		c-0.719-1.252-1.108-3.056-1.167-5.412l-0.067-5.091c0-1.096,0.03-2.715,0.089-4.856c0.059-2.142,0.419-3.861,1.078-5.157
		c0.66-1.297,1.775-1.945,3.346-1.945c1.185,0,2.134,0.392,2.845,1.178c0.711,0.785,1.067,1.8,1.067,3.045v1.6h6.824V103.799z"/>
	<path style="clip-path:url(#SVGID_00000101096547101479858380000007475669771043935903_);fill:#FFFFFF;" d="M815.254,82.538
		c1.852-1.578,2.779-3.945,2.779-7.102c0-2.059-0.4-3.686-1.201-4.879c-0.8-1.193-2.089-2.345-3.867-3.456l-6.647-4.246
		c-0.726-0.459-1.256-0.985-1.589-1.578c-0.333-0.593-0.5-1.23-0.5-1.912c0-1.111,0.3-1.997,0.9-2.656
		c0.6-0.659,1.412-0.989,2.434-0.989c2.208,0,3.312,1.422,3.312,4.268v0.778h6.735v-1.134c0-3.171-0.811-5.42-2.434-6.746
		c-1.622-1.326-3.982-1.99-7.079-1.99c-3.468,0-6.147,0.76-8.036,2.279c-1.889,1.519-2.834,3.671-2.834,6.457
		c0,2.06,0.385,3.76,1.156,5.101c0.77,1.342,2.445,2.812,5.023,4.413l5.446,3.334c0.741,0.459,1.301,0.993,1.679,1.6
		c0.377,0.608,0.566,1.349,0.566,2.223c0,1.156-0.315,2.049-0.944,2.679c-0.63,0.63-1.531,0.944-2.701,0.944
		c-1.378,0-2.342-0.407-2.89-1.222c-0.548-0.815-0.822-2.045-0.822-3.69v-0.867h-6.98v2.045c0,2.89,0.845,5.065,2.534,6.524
		c1.689,1.46,4.171,2.189,7.447,2.189C810.564,84.905,813.401,84.116,815.254,82.538 M770.643,51.43v22.006
		c0,3.867,0.893,6.746,2.679,8.635c1.785,1.89,4.545,2.834,8.28,2.834c3.912,0,6.779-0.929,8.602-2.789s2.734-4.738,2.734-8.636
		V51.43h-6.691v22.184c0,2.119-0.37,3.715-1.111,4.79c-0.741,1.074-1.882,1.611-3.423,1.611c-1.438,0-2.497-0.529-3.179-1.589
		c-0.682-1.059-1.022-2.679-1.022-4.857V51.43H770.643z M743.42,51.43l7.913,15.671l-8.513,17.204h7.113l5.046-11.336l5.046,11.336
		h7.78l-8.314-16.626l8.18-16.249h-7.135l-4.646,10.803l-4.645-10.803H743.42z M722.164,51.43v32.875h18.294v-5.134h-11.425v-9.514
		h10.202v-5.068h-10.202v-8.091h11.069V51.43H722.164z M692.809,51.43v32.875h6.379V60.277l9.003,24.028h9.024V51.43h-6.379v22.761
		l-8.78-22.761H692.809z M653.424,51.43v32.875h6.379V60.277l9.002,24.028h9.025V51.43h-6.379v22.761L662.67,51.43H653.424z
		 M633.166,65.634c0-3.898,0.311-6.561,0.933-7.992c0.623-1.429,1.771-2.145,3.446-2.145c1.704,0,2.863,0.671,3.478,2.012
		c0.615,1.341,0.923,3.509,0.923,6.502v3.134c0,2.164-0.041,4.268-0.122,6.313c-0.082,2.045-0.423,3.649-1.023,4.812
		c-0.6,1.164-1.7,1.745-3.301,1.745c-1.141,0-2.019-0.34-2.634-1.022c-0.615-0.682-1.052-1.734-1.311-3.157
		c-0.26-1.422-0.389-3.897-0.389-7.424V65.634z M637.389,84.905c2.075,0,3.808-0.244,5.201-0.733
		c1.393-0.489,2.516-1.182,3.368-2.078c0.852-0.897,1.493-2.004,1.923-3.324c0.429-1.318,0.718-2.734,0.867-4.245
		c0.148-1.512,0.222-3.808,0.222-6.891c0-3.438-0.111-6.035-0.333-7.791c-0.223-1.756-0.686-3.341-1.39-4.757
		c-0.704-1.415-1.837-2.523-3.401-3.323c-1.563-0.8-3.678-1.2-6.346-1.2c-2.682,0-4.864,0.519-6.546,1.556
		c-1.682,1.037-2.901,2.675-3.657,4.912c-0.755,2.238-1.133,5.713-1.133,10.425c0,4.001,0.189,6.939,0.567,8.814
		c0.377,1.875,0.952,3.427,1.722,4.657c0.771,1.23,1.886,2.2,3.346,2.912C633.258,84.55,635.122,84.905,637.389,84.905
		 M606.863,69.924h3.423c1.852,0,3.179,0.333,3.979,1c0.8,0.667,1.2,1.867,1.2,3.601c0,1.675-0.363,2.882-1.089,3.623
		c-0.726,0.741-2.304,1.111-4.734,1.111h-2.779V69.924z M606.863,64.878v-8.38h2.956c2.119,0,3.531,0.333,4.235,1
		c0.704,0.667,1.056,1.653,1.056,2.956c0,1.26-0.152,2.138-0.456,2.634c-0.304,0.497-0.76,0.919-1.367,1.267
		c-0.608,0.349-1.534,0.523-2.779,0.523H606.863z M600.039,51.43v32.875h12.248c3.482,0,6.031-0.714,7.646-2.145
		c1.615-1.43,2.423-3.686,2.423-6.768c0-2.549-0.5-4.472-1.5-5.768c-1.001-1.297-2.553-2.093-4.657-2.39
		c1.852-0.385,3.249-1.208,4.19-2.467c0.941-1.26,1.411-2.942,1.411-5.046c0-2.904-0.815-5.013-2.445-6.324
		c-1.63-1.312-4.216-1.967-7.757-1.967H600.039z M582.181,56.498h1.467c2.089,0,3.453,0.333,4.09,1
		c0.637,0.667,0.956,1.815,0.956,3.445c0,1.645-0.322,2.838-0.967,3.579c-0.645,0.741-1.96,1.112-3.946,1.112h-1.6V56.498z
		 M575.268,51.43v32.875h6.913V70.702h1.334c2.059,0,3.46,0.352,4.201,1.055c0.741,0.704,1.111,2.005,1.111,3.902v5.045
		c0,0.889,0.052,1.545,0.156,1.968c0.103,0.422,0.296,0.966,0.578,1.633h6.735c-0.148-0.444-0.256-1.029-0.322-1.756
		c-0.067-0.726-0.123-1.489-0.167-2.289l-0.333-5.646c-0.134-2.119-0.604-3.653-1.412-4.601c-0.808-0.949-2.293-1.571-4.457-1.868
		c2.03-0.385,3.531-1.23,4.501-2.534c0.971-1.304,1.456-3.126,1.456-5.468c0-2.964-0.726-5.157-2.178-6.579
		c-1.452-1.423-3.683-2.134-6.691-2.134H575.268z M558.372,57.765l3.423,14.293h-6.646L558.372,57.765z M554.282,51.43
		l-9.114,32.875h6.802l1.867-7.291h9.359l1.822,7.291h7.247l-8.914-32.875H554.282z M543.362,60.81c0-3.393-0.811-5.887-2.434-7.48
		c-1.623-1.593-3.998-2.389-7.124-2.389c-2.668,0-4.79,0.441-6.369,1.322c-1.578,0.882-2.704,2.071-3.378,3.568
		c-0.675,1.497-1.108,3.119-1.301,4.868c-0.192,1.749-0.289,4.157-0.289,7.224c0,3.898,0.182,6.743,0.545,8.536
		c0.363,1.793,0.919,3.267,1.667,4.423c0.748,1.156,1.834,2.075,3.257,2.756c1.422,0.682,3.267,1.023,5.534,1.023
		c3.483,0,6.061-0.874,7.736-2.623c1.674-1.748,2.512-4.364,2.512-7.847v-0.955h-6.78v0.378c0,2.119-0.3,3.664-0.9,4.634
		c-0.6,0.971-1.486,1.456-2.656,1.456c-1.394,0-2.387-0.633-2.979-1.9c-0.593-1.267-0.919-2.868-0.978-4.802
		c-0.06-1.934-0.089-3.478-0.089-4.634c0-3.438,0.089-5.891,0.267-7.358c0.178-1.467,0.544-2.678,1.1-3.634
		c0.556-0.956,1.434-1.434,2.634-1.434c1.052,0,1.863,0.411,2.434,1.234c0.57,0.822,0.856,2.16,0.856,4.012v0.622h6.735V60.81z"/>
	<path style="clip-path:url(#SVGID_00000101096547101479858380000007475669771043935903_);fill:#FFFFFF;" d="M607.66,16.797
		c-0.101-0.141-0.212-0.262-0.333-0.363c-0.121-0.1-0.262-0.151-0.423-0.151c-0.182,0-0.378,0.01-0.59,0.03
		c-0.212,0.021-0.419,0.056-0.62,0.106c-0.202,0.051-0.368,0.111-0.499,0.181c-0.131,0.071-0.196,0.147-0.196,0.227v21.408
		c0,0.101,0.07,0.181,0.211,0.242c0.141,0.06,0.313,0.111,0.514,0.151c0.202,0.04,0.413,0.071,0.635,0.091
		c0.222,0.02,0.413,0.03,0.575,0.03c0.222,0,0.398-0.081,0.529-0.242c0.131-0.161,0.197-0.352,0.197-0.574v-16.54l10.855,16.872
		c0.06,0.081,0.166,0.151,0.317,0.212c0.151,0.06,0.328,0.111,0.529,0.151c0.202,0.04,0.403,0.071,0.605,0.091
		c0.201,0.02,0.373,0.03,0.514,0.03c0.201,0,0.368-0.075,0.499-0.227c0.131-0.151,0.197-0.337,0.197-0.559V17.13
		c0-0.242-0.046-0.444-0.137-0.605c-0.09-0.161-0.247-0.242-0.468-0.242c-0.182,0-0.393,0.01-0.635,0.03
		c-0.242,0.021-0.469,0.051-0.681,0.091c-0.211,0.041-0.388,0.091-0.529,0.151c-0.141,0.061-0.211,0.131-0.211,0.212V33.7
		L607.66,16.797z M600.509,17.099c0-0.221-0.066-0.413-0.197-0.574c-0.131-0.161-0.307-0.242-0.529-0.242
		c-0.181,0-0.383,0.01-0.605,0.03c-0.222,0.021-0.438,0.056-0.65,0.106c-0.211,0.051-0.388,0.111-0.529,0.181
		c-0.141,0.071-0.211,0.147-0.211,0.227v21.408c0,0.101,0.07,0.181,0.211,0.242c0.141,0.06,0.318,0.111,0.529,0.151
		c0.212,0.04,0.428,0.071,0.65,0.091c0.222,0.02,0.424,0.03,0.605,0.03c0.222,0,0.398-0.081,0.529-0.242
		c0.131-0.161,0.197-0.352,0.197-0.574V17.099z M581.351,27.35l10.069,10.855c0.221,0.242,0.534,0.393,0.937,0.453
		c0.403,0.061,0.836,0.091,1.3,0.091c0.141,0,0.303-0.02,0.484-0.06c0.181-0.041,0.272-0.162,0.272-0.363
		c0-0.222-0.161-0.504-0.484-0.847l-9.706-10.432l8.86-9.494c0.342-0.363,0.514-0.645,0.514-0.847c0-0.201-0.091-0.322-0.272-0.363
		c-0.182-0.04-0.353-0.06-0.514-0.06c-0.444,0-0.873,0.03-1.285,0.091c-0.414,0.06-0.731,0.211-0.953,0.453l-9.222,9.948v-9.676
		c0-0.221-0.066-0.413-0.197-0.574c-0.131-0.161-0.307-0.242-0.529-0.242c-0.181,0-0.383,0.01-0.605,0.03
		c-0.222,0.021-0.438,0.056-0.65,0.106c-0.211,0.051-0.388,0.111-0.529,0.181c-0.141,0.071-0.212,0.147-0.212,0.227v21.408
		c0,0.101,0.071,0.181,0.212,0.242c0.141,0.06,0.318,0.111,0.529,0.151c0.212,0.04,0.428,0.071,0.65,0.091
		c0.222,0.02,0.424,0.03,0.605,0.03c0.222,0,0.398-0.081,0.529-0.242c0.131-0.161,0.197-0.352,0.197-0.574V27.35z M566.411,20.304
		c0.02-0.201,0.05-0.382,0.091-0.544c0,0.101,0.025,0.283,0.075,0.544c0.05,0.263,0.096,0.444,0.136,0.545l2.903,8.799h-6.259
		l2.933-8.799C566.35,20.688,566.39,20.506,566.411,20.304 M573.033,38.643c0.342,0.071,0.796,0.106,1.36,0.106
		c0.182,0,0.358-0.035,0.53-0.106c0.171-0.071,0.257-0.196,0.257-0.378c0-0.121-0.011-0.211-0.031-0.272l-7.257-21.136
		c-0.121-0.382-0.352-0.574-0.695-0.574c-0.383,0-0.801,0.035-1.255,0.106c-0.453,0.071-0.721,0.217-0.801,0.438l-7.287,21.166
		c-0.041,0.121-0.061,0.212-0.061,0.272c0,0.182,0.086,0.307,0.257,0.378c0.171,0.071,0.358,0.106,0.56,0.106
		c0.463,0,0.881-0.02,1.254-0.06c0.373-0.041,0.6-0.182,0.681-0.424l2.116-6.259h7.681l2.026,6.138
		C572.468,38.406,572.69,38.572,573.033,38.643 M542.031,38.235c0.282,0.101,0.554,0.151,0.816,0.151h11.4
		c0.08,0,0.151-0.06,0.211-0.181c0.061-0.121,0.111-0.272,0.151-0.454c0.041-0.181,0.071-0.372,0.091-0.574
		c0.02-0.201,0.03-0.383,0.03-0.544c0-0.202-0.07-0.363-0.211-0.484c-0.142-0.121-0.303-0.182-0.484-0.182h-9.706v-7.438h8.98
		c0.081,0,0.151-0.06,0.212-0.181c0.06-0.121,0.116-0.273,0.166-0.454s0.086-0.373,0.106-0.575c0.02-0.201,0.03-0.372,0.03-0.514
		c0-0.221-0.071-0.393-0.211-0.514c-0.142-0.121-0.313-0.181-0.514-0.181h-8.769v-7.045h9.918c0.08,0,0.151-0.061,0.211-0.182
		c0.061-0.121,0.111-0.272,0.151-0.453c0.041-0.182,0.071-0.373,0.091-0.575c0.02-0.201,0.03-0.382,0.03-0.544
		c0-0.222-0.07-0.388-0.211-0.499c-0.142-0.11-0.303-0.166-0.484-0.166h-11.702c-0.484,0-0.726,0.262-0.726,0.786v20.41
		C541.607,38.004,541.747,38.134,542.031,38.235 M531.672,19.352c0.726,0.212,1.315,0.559,1.769,1.043
		c0.453,0.484,0.776,1.114,0.967,1.89c0.192,0.776,0.288,1.719,0.288,2.827v4.778c0,1.108-0.096,2.051-0.288,2.827
		c-0.191,0.776-0.514,1.406-0.967,1.89c-0.454,0.483-1.043,0.831-1.769,1.043c-0.726,0.211-1.633,0.317-2.721,0.317h-4.143V19.035
		h4.143C530.039,19.035,530.945,19.14,531.672,19.352 M522.359,16.797c-0.181,0.121-0.272,0.323-0.272,0.605v20.44
		c0,0.162,0.136,0.292,0.408,0.393c0.272,0.101,0.549,0.151,0.832,0.151h5.624c1.451,0,2.711-0.136,3.779-0.408
		c1.069-0.272,1.955-0.726,2.661-1.361c0.705-0.635,1.229-1.471,1.572-2.509c0.343-1.038,0.515-2.323,0.515-3.856V24.78
		c0-1.532-0.172-2.817-0.515-3.856c-0.343-1.038-0.867-1.874-1.572-2.509c-0.706-0.635-1.592-1.094-2.661-1.376
		c-1.068-0.282-2.328-0.423-3.779-0.423h-5.987C522.742,16.616,522.54,16.676,522.359,16.797"/>
</g>
</svg>
