<?xml version="1.0" encoding="iso-8859-1"?>
<!-- Generator: Adobe Illustrator 29.5.1, SVG Export Plug-In . SVG Version: 9.03 Build 0)  -->
<svg version="1.1" id="Layer_1" xmlns="http://www.w3.org/2000/svg" xmlns:xlink="http://www.w3.org/1999/xlink" x="0px" y="0px"
	 viewBox="0 0 1000 144" style="enable-background:new 0 0 1000 144;" xml:space="preserve">
<g>
	<defs>
		<rect id="SVGID_1_" width="1000" height="144"/>
	</defs>
	<clipPath id="SVGID_00000051385940617242799930000005556856261836439438_">
		<use xlink:href="#SVGID_1_"  style="overflow:visible;"/>
	</clipPath>
	<path style="clip-path:url(#SVGID_00000051385940617242799930000005556856261836439438_);fill:#FFFFFF;" d="M414.759,115.025
		v11.825c0,0.397-0.133,0.706-0.443,0.927c-0.265,0.221-0.619,0.353-1.062,0.353c-0.265,0-0.664,0-1.106-0.044
		c-0.442-0.044-0.929-0.088-1.372-0.132c-0.442-0.045-0.841-0.177-1.195-0.309c-0.309-0.133-0.486-0.309-0.486-0.486v-12.09
		L398.74,94.903c-0.354-0.706-0.399-1.192-0.133-1.5c0.266-0.309,0.752-0.486,1.46-0.486c0.443,0,0.885,0,1.372,0.044
		c0.443,0,0.885,0.044,1.283,0.133c0.399,0.044,0.753,0.132,1.018,0.22c0.266,0.089,0.487,0.221,0.575,0.441l7.612,15.489
		l7.611-15.444c0.089-0.177,0.265-0.354,0.575-0.442c0.266-0.088,0.62-0.176,1.018-0.264c0.398-0.045,0.841-0.089,1.283-0.133
		c0.443,0,0.93-0.044,1.372-0.044c0.708,0,1.195,0.132,1.461,0.441c0.221,0.309,0.177,0.795-0.178,1.545L414.759,115.025z
		 M384.491,98.521v28.329c0,0.397-0.133,0.706-0.443,0.927c-0.31,0.221-0.619,0.353-1.018,0.353c-0.265,0-0.663,0-1.15-0.044
		c-0.487-0.044-0.974-0.088-1.416-0.132c-0.443-0.045-0.841-0.177-1.151-0.309c-0.354-0.133-0.486-0.309-0.486-0.486V98.565h-8.762
		c-0.354,0-0.62-0.132-0.885-0.397c-0.222-0.265-0.354-0.573-0.354-0.971c0-0.265,0-0.573,0.044-1.015
		c0.044-0.397,0.088-0.838,0.133-1.235c0.044-0.397,0.177-0.75,0.265-1.059c0.133-0.265,0.266-0.441,0.487-0.441h23.453
		c0.354,0,0.62,0.132,0.885,0.397c0.222,0.265,0.354,0.617,0.354,0.971c0,0.264,0,0.573-0.044,1.014
		c-0.044,0.442-0.088,0.839-0.133,1.236c-0.044,0.397-0.132,0.75-0.265,1.015s-0.266,0.441-0.487,0.441H384.491z M364.046,126.85
		c0,0.397-0.132,0.706-0.442,0.927c-0.266,0.221-0.62,0.353-1.062,0.353c-0.266,0-0.664,0-1.151-0.044
		c-0.486-0.044-0.929-0.088-1.416-0.132c-0.442-0.045-0.84-0.177-1.195-0.309c-0.309-0.133-0.486-0.309-0.486-0.486V93.932
		c0-0.177,0.177-0.353,0.486-0.486c0.355-0.132,0.753-0.264,1.195-0.308c0.443-0.044,0.93-0.133,1.416-0.133
		c0.487-0.044,0.841-0.044,1.151-0.044c0.398,0,0.752,0.133,1.062,0.397c0.265,0.265,0.442,0.574,0.442,0.927V126.85z
		 M332.141,122.305c0.265,0.044,0.62,0.177,1.151,0.265c0.531,0.132,1.106,0.265,1.814,0.397c0.664,0.133,1.416,0.221,2.257,0.353
		c0.796,0.088,1.637,0.133,2.434,0.133c0.885,0,1.725-0.089,2.522-0.221c0.796-0.132,1.549-0.397,2.168-0.706
		c0.62-0.353,1.151-0.794,1.505-1.324c0.398-0.574,0.575-1.235,0.575-2.074c0-1.147-0.354-2.118-1.106-2.912
		c-0.753-0.794-1.682-1.545-2.788-2.251c-1.106-0.706-2.345-1.412-3.673-2.118s-2.522-1.544-3.673-2.471
		c-1.15-0.926-2.08-2.03-2.788-3.309c-0.752-1.28-1.106-2.824-1.106-4.678c0-1.544,0.265-2.868,0.841-3.927
		c0.575-1.059,1.327-1.941,2.301-2.647c0.973-0.662,2.168-1.192,3.496-1.501c1.371-0.309,2.876-0.485,4.513-0.485
		c0.354,0,0.885,0,1.593,0.044s1.461,0.088,2.257,0.176c0.797,0.089,1.593,0.177,2.346,0.309c0.796,0.133,1.416,0.309,1.858,0.53
		c0.443,0.176,0.708,0.397,0.797,0.618c0.088,0.22,0.088,0.573,0.044,1.103c-0.044,0.838-0.221,1.5-0.531,2.074
		c-0.266,0.573-0.664,0.794-1.195,0.706c-0.796-0.177-1.681-0.309-2.699-0.486c-1.018-0.132-2.169-0.22-3.408-0.22
		c-1.947,0-3.584,0.309-4.823,0.838c-1.239,0.574-1.859,1.5-1.859,2.824c0,1.059,0.355,1.942,1.107,2.692
		c0.752,0.75,1.681,1.456,2.788,2.118c1.106,0.662,2.345,1.368,3.672,2.074c1.328,0.706,2.523,1.544,3.673,2.515
		c1.107,0.971,2.08,2.118,2.788,3.442c0.752,1.324,1.106,3.001,1.106,4.898c0,1.809-0.354,3.31-1.017,4.457
		c-0.664,1.191-1.593,2.074-2.7,2.736c-1.106,0.662-2.434,1.103-3.894,1.368c-1.46,0.264-3.009,0.397-4.602,0.397
		c-0.708,0-1.505-0.044-2.301-0.088c-0.797-0.045-1.549-0.133-2.345-0.221c-0.753-0.088-1.461-0.221-2.169-0.353
		c-0.664-0.133-1.239-0.265-1.726-0.441c-0.486-0.177-0.752-0.353-0.84-0.53c-0.089-0.221-0.133-0.574-0.045-1.059
		c0.089-0.927,0.266-1.721,0.531-2.339C331.344,122.482,331.698,122.173,332.141,122.305 M313.953,98.477h-6.593v11.429h6.593
		c1.284,0,2.346-0.089,3.098-0.221c0.797-0.132,1.372-0.397,1.814-0.794c0.443-0.397,0.709-0.883,0.841-1.545
		c0.133-0.661,0.221-1.544,0.221-2.603v-1.059c0-1.059-0.088-1.942-0.221-2.648c-0.132-0.661-0.442-1.191-0.841-1.588
		c-0.442-0.397-1.017-0.618-1.814-0.795C316.255,98.565,315.237,98.477,313.953,98.477 M301.652,127.115V94.638
		c0-0.353,0.132-0.618,0.442-0.883c0.31-0.22,0.62-0.352,1.062-0.352h10.488c2.168,0,4.027,0.176,5.575,0.485
		c1.549,0.309,2.788,0.882,3.762,1.677c0.973,0.794,1.681,1.853,2.124,3.177c0.443,1.324,0.664,2.956,0.664,4.986v1.059
		c0,1.5-0.133,2.78-0.354,3.883c-0.222,1.103-0.62,2.074-1.107,2.869c-0.486,0.794-1.194,1.412-2.035,1.897
		s-1.859,0.838-3.009,1.103l6.593,11.385c0.354,0.617,0.531,1.059,0.531,1.368c0,0.176-0.088,0.353-0.221,0.485
		c-0.177,0.132-0.354,0.221-0.531,0.265c-0.177,0.044-0.398,0.088-0.575,0.132c-0.222,0-0.354,0.044-0.443,0.044
		c-0.265,0-0.664,0-1.106-0.044c-0.443-0.044-0.885-0.088-1.328-0.176c-0.442-0.089-0.885-0.177-1.239-0.353
		c-0.354-0.177-0.619-0.398-0.796-0.662l-6.992-11.914h-5.841v11.914c0,0.397-0.133,0.662-0.443,0.882
		c-0.265,0.221-0.619,0.353-1.018,0.353c-0.265,0-0.663,0-1.15-0.044c-0.487-0.044-0.929-0.088-1.416-0.132
		c-0.443-0.044-0.841-0.177-1.195-0.309C301.829,127.468,301.652,127.336,301.652,127.115 M273.773,126.586V94.638
		c0-0.397,0.133-0.706,0.443-0.927c0.265-0.22,0.619-0.308,1.062-0.308h19.072c0.354,0,0.664,0.132,0.885,0.441
		c0.221,0.265,0.354,0.617,0.354,0.971c0,0.264,0,0.573-0.044,1.014c-0.044,0.442-0.089,0.839-0.133,1.236
		c-0.044,0.397-0.177,0.75-0.265,1.015c-0.133,0.265-0.31,0.441-0.487,0.441h-15.134v9.178h12.966c0.309,0,0.575,0.133,0.84,0.397
		c0.222,0.265,0.354,0.574,0.354,0.927c0,0.265,0,0.574-0.044,1.015c-0.044,0.441-0.088,0.838-0.133,1.236
		c-0.044,0.397-0.177,0.75-0.265,1.059c-0.133,0.264-0.266,0.441-0.487,0.441h-13.275v9.708h14.824c0.354,0,0.664,0.132,0.885,0.397
		c0.221,0.265,0.354,0.574,0.354,0.971c0,0.264,0,0.573-0.044,1.015c-0.045,0.397-0.089,0.838-0.133,1.235
		c-0.044,0.397-0.177,0.75-0.266,1.059c-0.132,0.309-0.309,0.441-0.486,0.441h-18.675c-0.442,0-0.929-0.088-1.416-0.309
		C273.994,127.027,273.773,126.806,273.773,126.586 M256.338,118.466l7.169-24.578c0.442-0.442,0.973-0.706,1.548-0.839
		c0.576-0.088,1.239-0.176,2.036-0.176c0.31,0,0.664,0,0.974,0.044c0.353,0.044,0.619,0.088,0.84,0.221
		c0.222,0.132,0.399,0.265,0.531,0.485c0.133,0.221,0.089,0.486,0,0.883l-11.018,32.874c-0.045,0.265-0.222,0.441-0.487,0.574
		c-0.266,0.132-0.531,0.176-0.841,0.176c-1.062,0-1.947-0.044-2.655-0.176c-0.708-0.133-1.151-0.309-1.328-0.53l-10.974-32.918
		c-0.088-0.309-0.088-0.574,0-0.795c0.089-0.22,0.221-0.353,0.442-0.485c0.178-0.132,0.399-0.221,0.664-0.265
		c0.222-0.044,0.443-0.088,0.576-0.088c0.486,0,0.973,0,1.46,0.044s0.929,0.088,1.372,0.177c0.398,0.088,0.752,0.22,1.062,0.352
		c0.265,0.177,0.487,0.354,0.575,0.618l7.346,24.358c0.133,0.397,0.221,0.794,0.265,1.192c0.045,0.441,0.089,0.794,0.177,1.147
		c0.045-0.353,0.089-0.75,0.133-1.147C256.117,119.216,256.205,118.819,256.338,118.466 M237.929,126.85
		c0,0.397-0.133,0.706-0.442,0.927c-0.266,0.221-0.62,0.353-1.062,0.353c-0.266,0-0.664,0-1.151-0.044
		c-0.487-0.044-0.929-0.088-1.416-0.132c-0.442-0.045-0.841-0.177-1.195-0.309c-0.354-0.133-0.487-0.309-0.487-0.486V93.932
		c0-0.177,0.177-0.353,0.487-0.486c0.354-0.132,0.708-0.264,1.195-0.308c0.442-0.044,0.929-0.133,1.416-0.133
		c0.487-0.044,0.841-0.044,1.151-0.044c0.398,0,0.752,0.133,1.062,0.397c0.265,0.265,0.442,0.574,0.442,0.927V126.85z
		 M220.494,117.584V93.755c0-0.176,0.177-0.352,0.531-0.441c0.354-0.132,0.752-0.22,1.239-0.265c0.487-0.044,0.974-0.088,1.46-0.132
		c0.487-0.044,0.885-0.044,1.151-0.044c0.841,0,1.239,0.485,1.239,1.412v32.565c0,0.397-0.133,0.662-0.442,0.883
		c-0.31,0.221-0.62,0.353-0.974,0.353c-0.266,0-0.575,0-1.018-0.044c-0.442-0.044-0.841-0.044-1.283-0.133
		c-0.443-0.088-0.797-0.176-1.151-0.264c-0.354-0.133-0.575-0.265-0.708-0.442l-15.444-23.696v23.343
		c0,0.397-0.132,0.706-0.442,0.927c-0.266,0.221-0.62,0.353-1.018,0.353c-0.265,0-0.664,0-1.15-0.044
		c-0.487-0.044-0.974-0.088-1.417-0.132c-0.442-0.045-0.84-0.177-1.15-0.309c-0.354-0.133-0.487-0.309-0.487-0.486V93.932
		c0-0.177,0.177-0.353,0.487-0.485c0.354-0.133,0.708-0.265,1.15-0.309c0.443-0.044,0.886-0.089,1.372-0.133
		c0.487-0.044,0.841-0.044,1.151-0.044c0.354,0,0.664,0.088,0.885,0.309c0.221,0.221,0.442,0.441,0.575,0.706L220.494,117.584z
		 M187.571,115.466V94.02c0-0.176,0.177-0.353,0.486-0.485c0.355-0.132,0.753-0.265,1.195-0.353
		c0.487-0.088,0.974-0.177,1.416-0.221c0.487-0.044,0.841-0.088,1.151-0.088c0.398,0,0.752,0.132,1.018,0.441
		c0.265,0.309,0.398,0.618,0.398,0.971v21.446c0,2.338-0.266,4.28-0.797,5.868c-0.531,1.589-1.283,2.824-2.345,3.839
		c-1.062,0.971-2.389,1.677-3.983,2.074c-1.593,0.397-3.495,0.618-5.62,0.618h-0.398c-2.08,0-3.938-0.221-5.487-0.618
		c-1.593-0.397-2.876-1.103-3.938-2.074c-1.062-0.97-1.815-2.25-2.346-3.839c-0.531-1.544-0.796-3.53-0.796-5.868V94.02
		c0-0.176,0.177-0.353,0.486-0.485c0.355-0.132,0.708-0.265,1.195-0.353c0.443-0.088,0.93-0.177,1.416-0.221
		c0.487-0.044,0.885-0.088,1.151-0.088c0.398,0,0.708,0.132,1.018,0.441c0.265,0.309,0.442,0.618,0.442,0.971v21.137
		c0,1.367,0.089,2.515,0.31,3.486c0.221,0.97,0.575,1.765,1.106,2.338c0.531,0.618,1.239,1.059,2.124,1.324s1.992,0.441,3.319,0.441
		h0.398c1.372,0,2.479-0.132,3.408-0.441c0.885-0.309,1.637-0.75,2.168-1.324c0.531-0.618,0.93-1.368,1.151-2.338
		C187.482,117.981,187.571,116.834,187.571,115.466 M393.474,38.244v40.994h-11.329V16.622h15.798l15.179,38.567V16.622h11.505
		v62.616h-14.426L393.474,38.244z M360.949,16.622h12.745v62.615h-12.745V16.622z M312.051,16.622h13.098v27.226l16.329-27.226
		h13.674l-18.143,28.815l18.143,33.845h-15.179l-14.824-30.447v30.447h-13.098V16.622z M290.721,65.338H272.49l-3.319,13.944
		h-13.143l17.701-62.66h16.727l17.435,62.66h-13.762L290.721,65.338z M288.11,54.439l-6.283-25.903l-6.594,25.903H288.11z
		 M217.928,16.622h33.94v10.635h-20.665v13.37h19.028v10.899h-19.028v16.68h20.71v11.032h-33.985V16.622z M189.12,16.622
		c16.771,0,21.948,8.87,21.948,31.33c0,22.461-5.221,31.33-21.993,31.33h-21.506v-62.66H189.12z M180.756,68.471h5.974
		c9.78,0,11.019-5.736,11.019-20.74c0-14.958-1.239-20.695-11.019-20.695h-5.974V68.471z"/>
	<path style="clip-path:url(#SVGID_00000051385940617242799930000005556856261836439438_);fill:#FFFFFF;" d="M71.713,1.288
		C32.549,1.288,0.799,32.947,0.799,72s31.749,70.712,70.913,70.712S142.625,111.053,142.625,72S110.877,1.288,71.713,1.288"/>
	<path style="clip-path:url(#SVGID_00000051385940617242799930000005556856261836439438_);fill:#FFFFFF;" d="M71.713,2.968
		c38.175,0,69.233,30.968,69.233,69.032s-31.058,69.032-69.233,69.032S2.479,110.064,2.479,72S33.538,2.968,71.713,2.968"/>
	<path style="clip-path:url(#SVGID_00000051385940617242799930000005556856261836439438_);" d="M95.076,94.204L68.262,47.816
		l3.533-5.928l30.099,52.316H95.076z M82.396,94.204L61.86,58.843l3.45-5.804l23.655,41.165H82.396z M69.509,94.204L55.416,69.953
		l3.575-6.011l17.336,30.22h-6.818V94.204z M56.539,94.204l-7.567-13.1l3.576-6.011l10.933,19.111H56.539z M41.365,94.204
		l4.614-7.877l4.615,7.877H41.365z M35.503,36.416V85.83c0,19.94,16.213,36.107,36.209,36.107c19.997,0,36.21-16.167,36.21-36.107
		V36.416H35.503z"/>
</g>
<rect x="471.959" y="16.622" style="fill:#FFFFFF;" width="2" height="110.978"/>
<g>
	<defs>
		<rect id="SVGID_00000064350469935251166260000005614285064113177238_" width="1000" height="144"/>
	</defs>
	<clipPath id="SVGID_00000154398468895737750830000017473841897529801660_">
		<use xlink:href="#SVGID_00000064350469935251166260000005614285064113177238_"  style="overflow:visible;"/>
	</clipPath>
	<path style="clip-path:url(#SVGID_00000154398468895737750830000017473841897529801660_);fill:#FFFFFF;" d="M910.043,108.842
		v18.948h2.422v-8.738h6.636v8.738h2.408v-18.948h-2.408v8.109h-6.636v-8.109H910.043z M904.995,109.886
		c-0.82-0.833-2.088-1.249-3.805-1.249c-2.152,0-3.703,0.57-4.651,1.71s-1.422,3-1.422,5.58v3.997c0,3.108,0.474,5.246,1.422,6.412
		c0.948,1.165,2.358,1.748,4.228,1.748c1.888,0,3.307-0.467,4.26-1.403c0.952-0.935,1.428-2.367,1.428-4.298v-0.346h-2.485
		c-0.017,1.333-0.291,2.328-0.82,2.985c-0.53,0.658-1.307,0.987-2.332,0.987c-1.144,0-1.968-0.412-2.472-1.236
		c-0.504-0.825-0.756-2.24-0.756-4.247v-4.599c0-2.119,0.282-3.521,0.846-4.209c0.563-0.687,1.409-1.031,2.536-1.031
		c0.991,0,1.693,0.258,2.107,0.775c0.415,0.517,0.622,1.343,0.622,2.479v0.282h2.524v-0.5
		C906.225,111.998,905.815,110.719,904.995,109.886 M886.565,110.943c0.871,0,1.544,0.241,2.018,0.724
		c0.474,0.482,0.711,1.215,0.711,2.197c0,1.008-0.261,1.787-0.781,2.338c-0.521,0.551-1.345,0.826-2.473,0.826h-2.946v-6.085
		H886.565z M880.659,108.842v18.948h2.435v-8.712h2.049c1.102,0,1.866,0.094,2.293,0.282c0.427,0.188,0.754,0.493,0.981,0.916
		c0.226,0.423,0.369,1.031,0.429,1.825l0.102,1.474l0.103,2.062c0.017,0.351,0.064,0.714,0.141,1.089
		c0.076,0.376,0.179,0.73,0.307,1.064h2.524c-0.402-1.691-0.613-3.327-0.634-4.907c-0.022-1.58-0.24-2.75-0.654-3.51
		s-1.228-1.243-2.44-1.448c1.11-0.213,1.964-0.705,2.562-1.473c0.598-0.769,0.897-1.738,0.897-2.908
		c0-1.435-0.408-2.577-1.224-3.427c-0.815-0.85-1.885-1.275-3.209-1.275H880.659z M872.965,121.23h-6.136l3.036-10.159
		L872.965,121.23z M868.405,108.842l-6.009,18.948h2.46l1.396-4.51h7.316l1.37,4.51h2.704l-6.175-18.948H868.405z M849.953,108.842
		v18.948h9.941v-2.101h-7.533v-6.585h6.828v-2.076h-6.828v-6.085h7.354v-2.101H849.953z M844.872,109.796
		c-0.875-0.858-2.163-1.287-3.862-1.287c-1.76,0-3.143,0.457-4.151,1.371c-1.008,0.914-1.512,2.135-1.512,3.664
		c0,0.973,0.231,1.832,0.692,2.575c0.462,0.743,1.17,1.405,2.127,1.985c0.956,0.581,1.975,1.136,3.055,1.666
		c1.081,0.53,1.792,1.063,2.133,1.601c0.342,0.538,0.513,1.076,0.513,1.614c0,0.914-0.308,1.647-0.923,2.198
		c-0.615,0.55-1.417,0.826-2.408,0.826c-0.965,0-1.749-0.303-2.351-0.91c-0.602-0.606-0.903-1.46-0.903-2.562v-0.551h-2.383v0.743
		c0,1.751,0.478,3.081,1.435,3.991c0.956,0.909,2.34,1.364,4.151,1.364c1.75,0,3.164-0.457,4.24-1.371
		c1.076-0.913,1.614-2.156,1.614-3.728c0-1.033-0.22-1.891-0.659-2.575c-0.44-0.683-1.079-1.326-1.916-1.928
		c-0.837-0.602-1.772-1.135-2.805-1.601c-1.034-0.465-1.817-0.995-2.351-1.589c-0.534-0.593-0.801-1.244-0.801-1.953
		c0-0.871,0.265-1.544,0.794-2.018c0.53-0.474,1.264-0.711,2.204-0.711c0.965,0,1.682,0.265,2.152,0.794
		c0.47,0.53,0.705,1.32,0.705,2.37v0.269h2.524v-0.422C846.186,111.929,845.748,110.655,844.872,109.796 M822.085,108.842v18.948
		h9.941v-2.101h-7.533v-6.585h6.829v-2.076h-6.829v-6.085h7.354v-2.101H822.085z M813.234,110.943c0.871,0,1.544,0.241,2.018,0.724
		c0.474,0.482,0.711,1.215,0.711,2.197c0,1.008-0.261,1.787-0.781,2.338c-0.522,0.551-1.346,0.826-2.473,0.826h-2.947v-6.085
		H813.234z M807.328,108.842v18.948h2.434v-8.712h2.05c1.102,0,1.866,0.094,2.293,0.282c0.427,0.188,0.754,0.493,0.98,0.916
		c0.227,0.423,0.37,1.031,0.43,1.825l0.102,1.474l0.103,2.062c0.017,0.351,0.064,0.714,0.14,1.089
		c0.077,0.376,0.18,0.73,0.308,1.064h2.524c-0.402-1.691-0.613-3.327-0.634-4.907c-0.022-1.58-0.24-2.75-0.654-3.51
		s-1.228-1.243-2.44-1.448c1.11-0.213,1.964-0.705,2.562-1.473c0.598-0.769,0.897-1.738,0.897-2.908
		c0-1.435-0.408-2.577-1.224-3.427c-0.815-0.85-1.885-1.275-3.209-1.275H807.328z M786.747,108.842l5.125,11.287v7.661h2.382v-7.61
		l5.202-11.338h-2.473l-3.805,9.16l-3.728-9.16H786.747z M783.096,109.745c-0.807-0.858-2.222-1.287-4.246-1.287
		c-1.495,0-2.699,0.243-3.613,0.73s-1.604,1.266-2.069,2.338c-0.466,1.072-0.698,2.838-0.698,5.297v2.652
		c0,3.348,0.497,5.633,1.492,6.854c0.995,1.222,2.607,1.832,4.836,1.832c1.93,0,3.741-0.465,5.432-1.396v-9.211h-5.906v2.152h3.459
		v5.611c-0.41,0.308-0.867,0.521-1.371,0.641c-0.504,0.119-1.007,0.179-1.511,0.179c-1.427,0-2.439-0.404-3.036-1.211
		c-0.598-0.807-0.897-2.256-0.897-4.349v-4.33c0-2.298,0.262-3.839,0.788-4.625c0.525-0.786,1.513-1.179,2.965-1.179
		c1.051,0,1.824,0.289,2.319,0.865c0.495,0.577,0.743,1.446,0.743,2.607h2.524v-0.269
		C784.307,111.904,783.903,110.604,783.096,109.745 M759.276,115.171c0-1.657,0.269-2.859,0.808-3.607
		c0.538-0.747,1.426-1.121,2.664-1.121c1.256,0,2.154,0.408,2.697,1.224c0.542,0.816,0.813,2.052,0.813,3.709v4.496
		c0,1.845-0.091,3.148-0.275,3.908c-0.184,0.76-0.527,1.33-1.031,1.71c-0.504,0.38-1.247,0.57-2.229,0.57
		c-1.247,0-2.133-0.391-2.659-1.172c-0.525-0.782-0.788-2.133-0.788-4.055V115.171z M767.29,110.149
		c-0.961-1.187-2.475-1.781-4.542-1.781s-3.572,0.562-4.516,1.685c-0.943,1.123-1.415,3.047-1.415,5.771v4.932
		c0,2.52,0.463,4.375,1.39,5.567c0.926,1.191,2.393,1.787,4.4,1.787c2.161,0,3.722-0.591,4.683-1.774s1.441-3.321,1.441-6.412
		v-3.549C768.731,113.411,768.251,111.336,767.29,110.149 M744.97,108.842v18.948h9.339v-2.101h-6.931v-16.847H744.97z
		 M731.563,115.171c0-1.657,0.269-2.859,0.807-3.607c0.538-0.747,1.426-1.121,2.664-1.121c1.256,0,2.155,0.408,2.697,1.224
		c0.542,0.816,0.814,2.052,0.814,3.709v4.496c0,1.845-0.092,3.148-0.276,3.908c-0.184,0.76-0.527,1.33-1.031,1.71
		c-0.504,0.38-1.247,0.57-2.229,0.57c-1.247,0-2.133-0.391-2.659-1.172c-0.525-0.782-0.787-2.133-0.787-4.055V115.171z
		 M739.576,110.149c-0.961-1.187-2.475-1.781-4.542-1.781s-3.572,0.562-4.516,1.685c-0.943,1.123-1.415,3.047-1.415,5.771v4.932
		c0,2.52,0.463,4.375,1.39,5.567c0.926,1.191,2.393,1.787,4.4,1.787c2.161,0,3.722-0.591,4.683-1.774s1.441-3.321,1.441-6.412
		v-3.549C741.017,113.411,740.537,111.336,739.576,110.149 M712.086,108.842v18.948h2.178v-16.424l7.533,16.424h3.279v-18.948
		h-2.152v16.219l-7.456-16.219H712.086z M696.201,108.842v13.259c0,1.939,0.506,3.434,1.518,4.484
		c1.012,1.051,2.458,1.576,4.337,1.576c1.989,0,3.465-0.553,4.426-1.659c0.961-1.106,1.441-2.756,1.441-4.951v-12.709h-2.357v12.914
		c0,1.452-0.276,2.536-0.827,3.254c-0.55,0.717-1.437,1.076-2.658,1.076c-1.144,0-2.009-0.348-2.594-1.044
		c-0.585-0.696-0.878-1.698-0.878-3.005v-13.195H696.201z M674.63,108.842v18.948h2.229v-16.821l5.278,16.821h2.255l5.355-16.821
		v16.821h2.306v-18.948h-3.856l-4.855,15.899l-4.805-15.899H674.63z M652.997,108.842v18.948h2.229v-16.821l5.279,16.821h2.254
		l5.355-16.821v16.821h2.306v-18.948h-3.856l-4.855,15.899l-4.804-15.899H652.997z M646.261,127.79h2.447v-18.948h-2.447V127.79z
		 M632.226,124.279c-0.435,0.641-0.965,1.128-1.588,1.461c-0.624,0.333-1.345,0.499-2.165,0.499c-1.196,0-2.159-0.341-2.889-1.024
		c-0.73-0.684-1.095-1.585-1.095-2.704c0-0.828,0.237-1.548,0.711-2.158c0.474-0.611,1.257-1.271,2.35-1.98L632.226,124.279z
		 M626.73,113.973c-0.358-0.594-0.538-1.13-0.538-1.608c0-0.598,0.19-1.067,0.57-1.409c0.38-0.342,0.891-0.513,1.531-0.513
		c0.658,0,1.164,0.167,1.519,0.5c0.354,0.333,0.531,0.79,0.531,1.371c0,0.563-0.179,1.144-0.538,1.742s-0.88,1.187-1.563,1.768
		C627.593,115.183,627.089,114.567,626.73,113.973 M632.028,114.703c0.465-0.798,0.698-1.612,0.698-2.44
		c0-1.196-0.382-2.103-1.147-2.723c-0.764-0.619-1.851-0.929-3.26-0.929c-1.435,0-2.556,0.31-3.363,0.929
		c-0.807,0.62-1.21,1.497-1.21,2.633c0,0.717,0.224,1.51,0.672,2.376c0.448,0.867,1.048,1.677,1.8,2.428
		c-1.46,0.829-2.517,1.67-3.171,2.524c-0.653,0.854-0.98,1.913-0.98,3.177c0,1.708,0.562,3.053,1.685,4.035
		c1.123,0.983,2.645,1.474,4.567,1.474c1.161,0,2.135-0.175,2.921-0.526c0.786-0.35,1.542-0.956,2.268-1.819l1.524,1.948h2.729
		l-3.036-4.062c0.358-0.623,0.621-1.383,0.787-2.28c0.167-0.897,0.25-1.87,0.25-2.921v-1.883h-1.985
		c0.017,0.077,0.025,0.184,0.025,0.32v0.987c0,0.717-0.036,1.439-0.109,2.165c-0.072,0.726-0.185,1.358-0.339,1.896l-3.703-4.689
		C630.77,116.375,631.562,115.502,632.028,114.703 M604.202,108.842v18.948h9.941v-2.101h-7.533v-6.585h6.829v-2.076h-6.829v-6.085
		h7.354v-2.101H604.202z M599.122,109.796c-0.876-0.858-2.163-1.287-3.863-1.287c-1.759,0-3.143,0.457-4.15,1.371
		c-1.008,0.914-1.512,2.135-1.512,3.664c0,0.973,0.23,1.832,0.692,2.575c0.461,0.743,1.17,1.405,2.126,1.985
		c0.957,0.581,1.975,1.136,3.056,1.666c1.08,0.53,1.791,1.063,2.133,1.601c0.341,0.538,0.512,1.076,0.512,1.614
		c0,0.914-0.307,1.647-0.922,2.198c-0.615,0.55-1.418,0.826-2.409,0.826c-0.965,0-1.748-0.303-2.35-0.91
		c-0.603-0.606-0.904-1.46-0.904-2.562v-0.551h-2.382v0.743c0,1.751,0.478,3.081,1.434,3.991c0.957,0.909,2.34,1.364,4.151,1.364
		c1.751,0,3.164-0.457,4.241-1.371c1.076-0.913,1.614-2.156,1.614-3.728c0-1.033-0.22-1.891-0.66-2.575
		c-0.44-0.683-1.078-1.326-1.915-1.928c-0.837-0.602-1.773-1.135-2.806-1.601c-1.033-0.465-1.817-0.995-2.351-1.589
		c-0.534-0.593-0.8-1.244-0.8-1.953c0-0.871,0.264-1.544,0.794-2.018c0.529-0.474,1.264-0.711,2.203-0.711
		c0.965,0,1.683,0.265,2.153,0.794c0.469,0.53,0.704,1.32,0.704,2.37v0.269h2.524v-0.422
		C600.435,111.929,599.997,110.655,599.122,109.796 M582.263,121.23h-6.136l3.036-10.159L582.263,121.23z M577.702,108.842
		l-6.008,18.948h2.46l1.396-4.51h7.315l1.371,4.51h2.703l-6.175-18.948H577.702z M559.25,108.842v18.948h9.942v-2.101h-7.533v-6.585
		h6.828v-2.076h-6.828v-6.085h7.353v-2.101H559.25z M554.17,109.796c-0.875-0.858-2.163-1.287-3.862-1.287
		c-1.76,0-3.143,0.457-4.151,1.371s-1.512,2.135-1.512,3.664c0,0.973,0.231,1.832,0.692,2.575c0.461,0.743,1.17,1.405,2.127,1.985
		c0.956,0.581,1.974,1.136,3.055,1.666c1.08,0.53,1.791,1.063,2.133,1.601c0.342,0.538,0.513,1.076,0.513,1.614
		c0,0.914-0.308,1.647-0.923,2.198c-0.615,0.55-1.418,0.826-2.408,0.826c-0.966,0-1.749-0.303-2.351-0.91
		c-0.602-0.606-0.903-1.46-0.903-2.562v-0.551h-2.383v0.743c0,1.751,0.478,3.081,1.435,3.991c0.956,0.909,2.34,1.364,4.15,1.364
		c1.751,0,3.165-0.457,4.241-1.371c1.076-0.913,1.614-2.156,1.614-3.728c0-1.033-0.22-1.891-0.66-2.575
		c-0.44-0.683-1.078-1.326-1.915-1.928c-0.837-0.602-1.772-1.135-2.806-1.601c-1.033-0.465-1.817-0.995-2.35-1.589
		c-0.534-0.593-0.801-1.244-0.801-1.953c0-0.871,0.264-1.544,0.794-2.018c0.53-0.474,1.264-0.711,2.204-0.711
		c0.965,0,1.682,0.265,2.152,0.794c0.47,0.53,0.704,1.32,0.704,2.37v0.269h2.524v-0.422
		C555.483,111.929,555.046,110.655,554.17,109.796 M537.999,127.79h2.447v-18.948h-2.447V127.79z M524.612,125.689v-14.746h2.703
		c1.162,0,2.041,0.203,2.639,0.609c0.598,0.405,1.008,1.078,1.23,2.017c0.222,0.94,0.333,2.434,0.333,4.484
		c0,2.451-0.13,4.132-0.39,5.041c-0.261,0.91-0.711,1.57-1.352,1.98s-1.73,0.615-3.267,0.615H524.612z M522.178,108.842v18.948h4.33
		c1.828,0,3.284-0.263,4.369-0.788c1.084-0.526,1.864-1.373,2.338-2.543c0.474-1.17,0.711-3.096,0.711-5.778
		c0-2.46-0.118-4.236-0.353-5.33c-0.235-1.093-0.582-1.957-1.044-2.594c-0.461-0.636-1.097-1.114-1.908-1.435
		c-0.812-0.32-1.773-0.48-2.883-0.48H522.178z"/>
	<path style="clip-path:url(#SVGID_00000154398468895737750830000017473841897529801660_);fill:#FFFFFF;" d="M964.143,80.296
		c-0.876-0.858-2.163-1.287-3.863-1.287c-1.759,0-3.143,0.457-4.15,1.371c-1.008,0.914-1.512,2.135-1.512,3.664
		c0,0.973,0.231,1.832,0.692,2.575c0.461,0.743,1.17,1.405,2.126,1.985c0.957,0.581,1.975,1.136,3.056,1.666
		c1.08,0.529,1.791,1.063,2.133,1.601c0.341,0.538,0.512,1.076,0.512,1.614c0,0.914-0.307,1.647-0.922,2.197
		c-0.615,0.551-1.418,0.827-2.409,0.827c-0.965,0-1.748-0.303-2.35-0.91c-0.603-0.606-0.904-1.46-0.904-2.562v-0.551h-2.382v0.743
		c0,1.751,0.478,3.081,1.434,3.991c0.957,0.909,2.34,1.364,4.151,1.364c1.751,0,3.165-0.457,4.241-1.371
		c1.076-0.913,1.614-2.156,1.614-3.728c0-1.033-0.22-1.891-0.66-2.575c-0.44-0.683-1.078-1.326-1.915-1.928
		s-1.772-1.136-2.806-1.601c-1.033-0.466-1.817-0.995-2.351-1.589c-0.533-0.593-0.8-1.244-0.8-1.953
		c0-0.872,0.264-1.544,0.794-2.018c0.529-0.474,1.264-0.711,2.204-0.711c0.964,0,1.682,0.265,2.152,0.794
		c0.469,0.53,0.704,1.32,0.704,2.37v0.269h2.524V84.12C965.456,82.429,965.018,81.155,964.143,80.296 M938.832,79.342v13.259
		c0,1.939,0.506,3.434,1.518,4.484c1.012,1.051,2.458,1.576,4.337,1.576c1.99,0,3.465-0.553,4.426-1.659
		c0.961-1.106,1.441-2.756,1.441-4.952V79.342h-2.357v12.913c0,1.453-0.275,2.537-0.826,3.254c-0.551,0.718-1.437,1.077-2.658,1.077
		c-1.145,0-2.01-0.348-2.595-1.045c-0.585-0.696-0.877-1.697-0.877-3.004V79.342H938.832z M925.483,85.671
		c0-1.657,0.269-2.859,0.807-3.607c0.538-0.747,1.426-1.121,2.665-1.121c1.255,0,2.154,0.408,2.696,1.224
		c0.543,0.815,0.814,2.052,0.814,3.709v4.496c0,1.845-0.092,3.148-0.275,3.908c-0.184,0.76-0.528,1.33-1.032,1.71
		c-0.504,0.38-1.247,0.57-2.229,0.57c-1.247,0-2.133-0.391-2.658-1.172c-0.525-0.782-0.788-2.133-0.788-4.055V85.671z
		 M933.496,80.649c-0.961-1.187-2.474-1.781-4.541-1.781c-2.067,0-3.573,0.562-4.516,1.685c-0.944,1.123-1.416,3.047-1.416,5.771
		v4.932c0,2.52,0.463,4.375,1.39,5.567c0.927,1.191,2.394,1.787,4.401,1.787c2.161,0,3.721-0.592,4.682-1.775
		c0.961-1.182,1.442-3.32,1.442-6.412v-3.548C934.938,83.911,934.457,81.836,933.496,80.649 M916.446,98.289h2.447V79.341h-2.447
		V98.289z M900.898,79.342v2.101h4.958v16.846h2.434V81.443h4.983v-2.101H900.898z M897.099,80.386
		c-0.82-0.833-2.088-1.249-3.805-1.249c-2.152,0-3.702,0.57-4.65,1.71s-1.422,3-1.422,5.579v3.997c0,3.109,0.474,5.247,1.422,6.412
		c0.948,1.166,2.357,1.749,4.228,1.749c1.887,0,3.307-0.468,4.259-1.403c0.953-0.935,1.429-2.368,1.429-4.298v-0.346h-2.486
		c-0.017,1.333-0.29,2.328-0.82,2.985c-0.529,0.658-1.306,0.987-2.331,0.987c-1.145,0-1.969-0.412-2.473-1.237
		c-0.504-0.824-0.756-2.239-0.756-4.246v-4.6c0-2.118,0.282-3.52,0.846-4.208c0.564-0.687,1.409-1.031,2.537-1.031
		c0.99,0,1.693,0.258,2.107,0.775c0.414,0.517,0.621,1.343,0.621,2.479v0.282h2.524v-0.5
		C898.329,82.498,897.919,81.219,897.099,80.386 M874.394,79.342v18.947h9.941v-2.101h-7.532v-6.584h6.828v-2.076h-6.828v-6.085
		h7.353v-2.101H874.394z M862.011,79.342v18.947h2.434v-8.685h6.585v-2.076h-6.585v-6.085h6.956v-2.101H862.011z M844.931,79.342
		v18.947h2.178V81.866l7.533,16.423h3.279V79.342h-2.152v16.219l-7.456-16.219H844.931z M838.17,98.289h2.447V79.341h-2.447V98.289z
		 M814.924,79.342v18.947h2.178V81.866l7.533,16.423h3.279V79.342h-2.152v16.219l-7.456-16.219H814.924z M808.163,98.289h2.447
		V79.341h-2.447V98.289z M784.917,79.342v18.947h2.178V81.866l7.533,16.423h3.279V79.342h-2.152v16.219l-7.456-16.219H784.917z
		 M771.447,85.671c0-1.657,0.269-2.859,0.807-3.607c0.538-0.747,1.426-1.121,2.664-1.121c1.256,0,2.155,0.408,2.697,1.224
		c0.542,0.815,0.814,2.052,0.814,3.709v4.496c0,1.845-0.092,3.148-0.276,3.908c-0.184,0.76-0.527,1.33-1.031,1.71
		c-0.504,0.38-1.247,0.57-2.229,0.57c-1.247,0-2.133-0.391-2.659-1.172c-0.525-0.782-0.787-2.133-0.787-4.055V85.671z
		 M779.46,80.649c-0.961-1.187-2.475-1.781-4.542-1.781s-3.572,0.562-4.516,1.685c-0.943,1.123-1.415,3.047-1.415,5.771v4.932
		c0,2.52,0.463,4.375,1.39,5.567c0.926,1.191,2.393,1.787,4.4,1.787c2.161,0,3.722-0.592,4.683-1.775
		c0.961-1.182,1.441-3.32,1.441-6.412v-3.548C780.901,83.911,780.421,81.836,779.46,80.649 M762.41,98.289h2.447V79.341h-2.447
		V98.289z M746.861,79.342v2.101h4.958v16.846h2.434V81.443h4.984v-2.101H746.861z M742.547,91.73h-6.136l3.036-10.159
		L742.547,91.73z M737.986,79.342l-6.008,18.947h2.46l1.396-4.509h7.315l1.371,4.509h2.703l-6.175-18.947H737.986z M718.537,79.342
		l5.483,18.947h2.882l5.535-18.947h-2.46l-4.471,16.667l-4.356-16.667H718.537z M706.76,85.671c0-1.657,0.269-2.859,0.807-3.607
		c0.538-0.747,1.426-1.121,2.665-1.121c1.255,0,2.154,0.408,2.697,1.224c0.542,0.815,0.813,2.052,0.813,3.709v4.496
		c0,1.845-0.092,3.148-0.275,3.908c-0.184,0.76-0.528,1.33-1.032,1.71c-0.504,0.38-1.247,0.57-2.229,0.57
		c-1.247,0-2.133-0.391-2.658-1.172c-0.525-0.782-0.788-2.133-0.788-4.055V85.671z M714.773,80.649
		c-0.96-1.187-2.474-1.781-4.541-1.781c-2.067,0-3.572,0.562-4.516,1.685c-0.944,1.123-1.416,3.047-1.416,5.771v4.932
		c0,2.52,0.464,4.375,1.39,5.567c0.927,1.191,2.394,1.787,4.401,1.787c2.161,0,3.722-0.592,4.682-1.775
		c0.961-1.182,1.442-3.32,1.442-6.412v-3.548C716.215,83.911,715.734,81.836,714.773,80.649 M687.284,79.342v18.947h2.177V81.866
		l7.533,16.423h3.28V79.342h-2.152v16.219l-7.456-16.219H687.284z M670.046,79.342v18.947h2.178V81.866l7.533,16.423h3.279V79.342
		h-2.152v16.219l-7.456-16.219H670.046z M663.285,98.289h2.447V79.341h-2.447V98.289z M648.699,81.443
		c0.871,0,1.544,0.241,2.018,0.724c0.474,0.482,0.711,1.215,0.711,2.197c0,1.008-0.261,1.787-0.782,2.338s-1.345,0.826-2.472,0.826
		h-2.947v-6.085H648.699z M642.793,79.342v18.947h2.434v-8.711h2.05c1.102,0,1.866,0.094,2.293,0.282s0.754,0.493,0.98,0.916
		c0.227,0.423,0.37,1.031,0.43,1.825l0.102,1.474l0.103,2.062c0.017,0.351,0.064,0.713,0.14,1.089
		c0.077,0.376,0.18,0.73,0.308,1.063h2.524c-0.402-1.691-0.613-3.326-0.634-4.906c-0.022-1.58-0.24-2.75-0.654-3.51
		c-0.414-0.76-1.228-1.243-2.44-1.448c1.11-0.213,1.964-0.705,2.562-1.473c0.598-0.769,0.897-1.738,0.897-2.908
		c0-1.435-0.408-2.577-1.224-3.427c-0.816-0.85-1.885-1.275-3.209-1.275H642.793z M629.411,85.671c0-1.657,0.269-2.859,0.807-3.607
		c0.538-0.747,1.427-1.121,2.665-1.121c1.256,0,2.154,0.408,2.697,1.224c0.542,0.815,0.813,2.052,0.813,3.709v4.496
		c0,1.845-0.092,3.148-0.275,3.908c-0.184,0.76-0.528,1.33-1.031,1.71c-0.504,0.38-1.248,0.57-2.23,0.57
		c-1.247,0-2.133-0.391-2.658-1.172c-0.525-0.782-0.788-2.133-0.788-4.055V85.671z M637.425,80.649
		c-0.961-1.187-2.475-1.781-4.542-1.781s-3.572,0.562-4.516,1.685c-0.944,1.123-1.416,3.047-1.416,5.771v4.932
		c0,2.52,0.464,4.375,1.391,5.567c0.926,1.191,2.393,1.787,4.4,1.787c2.161,0,3.722-0.592,4.683-1.775
		c0.96-1.182,1.441-3.32,1.441-6.412v-3.548C638.866,83.911,638.385,81.836,637.425,80.649 M614.805,79.342v18.947h2.434v-8.685
		h6.585v-2.076h-6.585v-6.085h6.957v-2.101H614.805z M596.299,79.342v18.947h9.942v-2.101h-7.533v-6.584h6.828v-2.076h-6.828v-6.085
		h7.353v-2.101H596.299z M587.449,81.443c0.871,0,1.543,0.241,2.017,0.724c0.474,0.482,0.711,1.215,0.711,2.197
		c0,1.008-0.26,1.787-0.781,2.338s-1.345,0.826-2.473,0.826h-2.946v-6.085H587.449z M581.543,79.342v18.947h2.434v-8.711h2.05
		c1.101,0,1.866,0.094,2.293,0.282s0.753,0.493,0.98,0.916c0.226,0.423,0.369,1.031,0.429,1.825l0.102,1.474l0.103,2.062
		c0.017,0.351,0.064,0.713,0.141,1.089c0.077,0.376,0.179,0.73,0.307,1.063h2.524c-0.401-1.691-0.613-3.326-0.634-4.906
		c-0.021-1.58-0.239-2.75-0.653-3.51c-0.415-0.76-1.228-1.243-2.441-1.448c1.11-0.213,1.964-0.705,2.562-1.473
		c0.598-0.769,0.897-1.738,0.897-2.908c0-1.435-0.408-2.577-1.223-3.427c-0.816-0.85-1.886-1.275-3.21-1.275H581.543z
		 M566.165,79.342v2.101h4.958v16.846h2.434V81.443h4.983v-2.101H566.165z M550.084,79.342v18.947h2.177V81.866l7.533,16.423h3.28
		V79.342h-2.152v16.219l-7.456-16.219H550.084z M536.724,79.342v18.947h9.941v-2.101h-7.532v-6.584h6.828v-2.076h-6.828v-6.085
		h7.353v-2.101H536.724z M531.761,80.386c-0.82-0.833-2.088-1.249-3.805-1.249c-2.152,0-3.702,0.57-4.65,1.71s-1.422,3-1.422,5.579
		v3.997c0,3.109,0.474,5.247,1.422,6.412c0.948,1.166,2.357,1.749,4.227,1.749c1.888,0,3.308-0.468,4.26-1.403
		c0.952-0.935,1.428-2.368,1.428-4.298v-0.346h-2.485c-0.017,1.333-0.29,2.328-0.82,2.985c-0.529,0.658-1.307,0.987-2.331,0.987
		c-1.145,0-1.969-0.412-2.473-1.237c-0.504-0.824-0.756-2.239-0.756-4.246v-4.6c0-2.118,0.282-3.52,0.846-4.208
		c0.563-0.687,1.409-1.031,2.536-1.031c0.991,0,1.693,0.258,2.108,0.775c0.414,0.517,0.621,1.343,0.621,2.479v0.282h2.524v-0.5
		C532.991,82.498,532.581,81.219,531.761,80.386"/>
	<path style="clip-path:url(#SVGID_00000154398468895737750830000017473841897529801660_);fill:#FFFFFF;" d="M647.466,23.055h1.885
		c2.685,0,4.437,0.429,5.256,1.286c0.818,0.857,1.228,2.333,1.228,4.427c0,2.114-0.414,3.647-1.243,4.599
		c-0.828,0.953-2.518,1.428-5.07,1.428h-2.056V23.055z M638.582,16.543V58.79h8.884V41.308h1.713c2.647,0,4.447,0.453,5.399,1.357
		c0.952,0.905,1.428,2.576,1.428,5.013v6.484c0,1.143,0.067,1.985,0.2,2.528c0.133,0.543,0.381,1.243,0.743,2.1h8.655
		c-0.191-0.572-0.328-1.324-0.414-2.257s-0.157-1.914-0.214-2.942l-0.429-7.255c-0.171-2.723-0.776-4.694-1.814-5.913
		c-1.038-1.219-2.947-2.019-5.727-2.4c2.609-0.495,4.537-1.58,5.784-3.256c1.247-1.676,1.871-4.018,1.871-7.027
		c0-3.808-0.933-6.627-2.799-8.455c-1.867-1.828-4.732-2.742-8.598-2.742H638.582z M622.799,58.79h8.826V16.543h-8.826V58.79z
		 M596.871,23.055h2.456c2.59,0,4.385,0.358,5.385,1.072c0.999,0.714,1.713,2.113,2.142,4.199c0.428,2.085,0.643,5.413,0.643,9.983
		c0,4.342-0.248,7.374-0.743,9.098c-0.496,1.723-1.233,2.952-2.214,3.685c-0.981,0.733-2.823,1.099-5.527,1.099h-2.142V23.055z
		 M587.844,16.543V58.79h12.997c3.885,0,6.931-0.605,9.141-1.814c2.208-1.209,3.822-3.104,4.841-5.685
		c1.019-2.58,1.529-6.984,1.529-13.211c0-4.779-0.2-8.283-0.6-10.511c-0.4-2.228-1.086-4.156-2.057-5.785
		c-0.971-1.628-2.447-2.908-4.427-3.842c-1.981-0.932-4.599-1.399-7.856-1.399H587.844z M571.876,58.79h8.826V16.543h-8.826V58.79z
		 M555.974,58.79h8.826V16.543h-8.826V58.79z M550.021,28.597c0-4.361-1.043-7.565-3.128-9.612
		c-2.085-2.047-5.137-3.071-9.155-3.071c-3.427,0-6.155,0.567-8.183,1.7c-2.029,1.133-3.476,2.661-4.342,4.585
		c-0.867,1.923-1.424,4.008-1.671,6.255c-0.248,2.247-0.372,5.342-0.372,9.284c0,5.008,0.233,8.664,0.7,10.968
		c0.467,2.305,1.181,4.199,2.143,5.685c0.961,1.485,2.356,2.666,4.184,3.542c1.828,0.875,4.199,1.314,7.113,1.314
		c4.475,0,7.788-1.124,9.94-3.371s3.228-5.608,3.228-10.083v-1.228h-8.712v0.485c0,2.724-0.386,4.709-1.157,5.956
		c-0.771,1.247-1.909,1.871-3.413,1.871c-1.791,0-3.067-0.814-3.828-2.442c-0.762-1.629-1.181-3.685-1.257-6.17
		c-0.076-2.486-0.114-4.471-0.114-5.956c0-4.418,0.114-7.57,0.343-9.455c0.228-1.885,0.699-3.442,1.414-4.67
		c0.714-1.228,1.842-1.843,3.384-1.843c1.352,0,2.395,0.529,3.128,1.586c0.733,1.057,1.1,2.775,1.1,5.156v0.799h8.655V28.597z"/>
</g>
</svg>
