<?xml version="1.0" encoding="iso-8859-1"?>
<!-- Generator: Adobe Illustrator 29.5.1, SVG Export Plug-In . SVG Version: 9.03 Build 0)  -->
<svg version="1.1" id="Layer_1" xmlns="http://www.w3.org/2000/svg" xmlns:xlink="http://www.w3.org/1999/xlink" x="0px" y="0px"
	 viewBox="0 0 1000 144" style="enable-background:new 0 0 1000 144;" xml:space="preserve">
<g>
	<defs>
		<rect id="SVGID_1_" width="1000" height="144"/>
	</defs>
	<clipPath id="SVGID_00000182517244238325183520000007592504922075791244_">
		<use xlink:href="#SVGID_1_"  style="overflow:visible;"/>
	</clipPath>
	<path style="clip-path:url(#SVGID_00000182517244238325183520000007592504922075791244_);fill:#FFFFFF;" d="M414.759,115.025
		v11.825c0,0.397-0.133,0.706-0.443,0.927c-0.265,0.221-0.619,0.353-1.062,0.353c-0.265,0-0.664,0-1.106-0.044
		c-0.442-0.044-0.929-0.088-1.372-0.132c-0.442-0.045-0.841-0.177-1.195-0.309c-0.309-0.133-0.486-0.309-0.486-0.486v-12.09
		L398.74,94.903c-0.354-0.706-0.399-1.192-0.133-1.5c0.266-0.309,0.752-0.486,1.46-0.486c0.443,0,0.885,0,1.372,0.044
		c0.443,0,0.885,0.044,1.283,0.133c0.399,0.044,0.753,0.132,1.018,0.22c0.266,0.089,0.487,0.221,0.575,0.441l7.612,15.489
		l7.611-15.444c0.089-0.177,0.265-0.354,0.575-0.442c0.266-0.088,0.62-0.176,1.018-0.264c0.398-0.045,0.841-0.089,1.283-0.133
		c0.443,0,0.93-0.044,1.372-0.044c0.708,0,1.195,0.132,1.461,0.441c0.221,0.309,0.177,0.795-0.178,1.545L414.759,115.025z
		 M384.491,98.521v28.329c0,0.397-0.133,0.706-0.443,0.927c-0.31,0.221-0.619,0.353-1.018,0.353c-0.265,0-0.663,0-1.15-0.044
		c-0.487-0.044-0.974-0.088-1.416-0.132c-0.443-0.045-0.841-0.177-1.151-0.309c-0.354-0.133-0.486-0.309-0.486-0.486V98.565h-8.762
		c-0.354,0-0.62-0.132-0.885-0.397c-0.222-0.265-0.354-0.573-0.354-0.971c0-0.265,0-0.573,0.044-1.015
		c0.044-0.397,0.088-0.838,0.133-1.235c0.044-0.397,0.177-0.75,0.265-1.059c0.133-0.265,0.266-0.441,0.487-0.441h23.453
		c0.354,0,0.62,0.132,0.885,0.397c0.222,0.265,0.354,0.617,0.354,0.971c0,0.264,0,0.573-0.044,1.014
		c-0.044,0.442-0.088,0.839-0.133,1.236c-0.044,0.397-0.132,0.75-0.265,1.015s-0.266,0.441-0.487,0.441H384.491z M364.046,126.85
		c0,0.397-0.132,0.706-0.442,0.927c-0.266,0.221-0.62,0.353-1.062,0.353c-0.266,0-0.664,0-1.151-0.044
		c-0.486-0.044-0.929-0.088-1.416-0.132c-0.442-0.045-0.84-0.177-1.195-0.309c-0.309-0.133-0.486-0.309-0.486-0.486V93.932
		c0-0.177,0.177-0.353,0.486-0.486c0.355-0.132,0.753-0.264,1.195-0.308c0.443-0.044,0.93-0.133,1.416-0.133
		c0.487-0.044,0.841-0.044,1.151-0.044c0.398,0,0.752,0.133,1.062,0.397c0.265,0.265,0.442,0.574,0.442,0.927V126.85z
		 M332.141,122.305c0.265,0.044,0.62,0.177,1.151,0.265c0.531,0.132,1.106,0.265,1.814,0.397c0.664,0.133,1.416,0.221,2.257,0.353
		c0.796,0.088,1.637,0.133,2.434,0.133c0.885,0,1.725-0.089,2.522-0.221c0.796-0.132,1.549-0.397,2.168-0.706
		c0.62-0.353,1.151-0.794,1.505-1.324c0.398-0.574,0.575-1.235,0.575-2.074c0-1.147-0.354-2.118-1.106-2.912
		c-0.753-0.794-1.682-1.545-2.788-2.251c-1.106-0.706-2.345-1.412-3.673-2.118s-2.522-1.544-3.673-2.471
		c-1.15-0.926-2.08-2.03-2.788-3.309c-0.752-1.28-1.106-2.824-1.106-4.678c0-1.544,0.265-2.868,0.841-3.927
		c0.575-1.059,1.327-1.941,2.301-2.647c0.973-0.662,2.168-1.192,3.496-1.501c1.371-0.309,2.876-0.485,4.513-0.485
		c0.354,0,0.885,0,1.593,0.044s1.461,0.088,2.257,0.176c0.797,0.089,1.593,0.177,2.346,0.309c0.796,0.133,1.416,0.309,1.858,0.53
		c0.443,0.176,0.708,0.397,0.797,0.618c0.088,0.22,0.088,0.573,0.044,1.103c-0.044,0.838-0.221,1.5-0.531,2.074
		c-0.266,0.573-0.664,0.794-1.195,0.706c-0.796-0.177-1.681-0.309-2.699-0.486c-1.018-0.132-2.169-0.22-3.408-0.22
		c-1.947,0-3.584,0.309-4.823,0.838c-1.239,0.574-1.859,1.5-1.859,2.824c0,1.059,0.355,1.942,1.107,2.692
		c0.752,0.75,1.681,1.456,2.788,2.118c1.106,0.662,2.345,1.368,3.672,2.074c1.328,0.706,2.523,1.544,3.673,2.515
		c1.107,0.971,2.08,2.118,2.788,3.442c0.752,1.324,1.106,3.001,1.106,4.898c0,1.809-0.354,3.31-1.017,4.457
		c-0.664,1.191-1.593,2.074-2.7,2.736c-1.106,0.662-2.434,1.103-3.894,1.368c-1.46,0.264-3.009,0.397-4.602,0.397
		c-0.708,0-1.505-0.044-2.301-0.088c-0.797-0.045-1.549-0.133-2.345-0.221c-0.753-0.088-1.461-0.221-2.169-0.353
		c-0.664-0.133-1.239-0.265-1.726-0.441c-0.486-0.177-0.752-0.353-0.84-0.53c-0.089-0.221-0.133-0.574-0.045-1.059
		c0.089-0.927,0.266-1.721,0.531-2.339C331.344,122.482,331.698,122.173,332.141,122.305 M313.953,98.477h-6.593v11.429h6.593
		c1.284,0,2.346-0.089,3.098-0.221c0.797-0.132,1.372-0.397,1.814-0.794c0.443-0.397,0.709-0.883,0.841-1.545
		c0.133-0.661,0.221-1.544,0.221-2.603v-1.059c0-1.059-0.088-1.942-0.221-2.648c-0.132-0.661-0.442-1.191-0.841-1.588
		c-0.442-0.397-1.017-0.618-1.814-0.795C316.255,98.565,315.237,98.477,313.953,98.477 M301.652,127.115V94.638
		c0-0.353,0.132-0.618,0.442-0.883c0.31-0.22,0.62-0.352,1.062-0.352h10.488c2.168,0,4.027,0.176,5.575,0.485
		c1.549,0.309,2.788,0.882,3.762,1.677c0.973,0.794,1.681,1.853,2.124,3.177c0.443,1.324,0.664,2.956,0.664,4.986v1.059
		c0,1.5-0.133,2.78-0.354,3.883c-0.222,1.103-0.62,2.074-1.107,2.869c-0.486,0.794-1.194,1.412-2.035,1.897
		s-1.859,0.838-3.009,1.103l6.593,11.385c0.354,0.617,0.531,1.059,0.531,1.368c0,0.176-0.088,0.353-0.221,0.485
		c-0.177,0.132-0.354,0.221-0.531,0.265c-0.177,0.044-0.398,0.088-0.575,0.132c-0.222,0-0.354,0.044-0.443,0.044
		c-0.265,0-0.664,0-1.106-0.044c-0.443-0.044-0.885-0.088-1.328-0.176c-0.442-0.089-0.885-0.177-1.239-0.353
		c-0.354-0.177-0.619-0.398-0.796-0.662l-6.992-11.914h-5.841v11.914c0,0.397-0.133,0.662-0.443,0.882
		c-0.265,0.221-0.619,0.353-1.018,0.353c-0.265,0-0.663,0-1.15-0.044c-0.487-0.044-0.929-0.088-1.416-0.132
		c-0.443-0.044-0.841-0.177-1.195-0.309C301.829,127.468,301.652,127.336,301.652,127.115 M273.773,126.586V94.638
		c0-0.397,0.133-0.706,0.443-0.927c0.265-0.22,0.619-0.308,1.062-0.308h19.072c0.354,0,0.664,0.132,0.885,0.441
		c0.221,0.265,0.354,0.617,0.354,0.971c0,0.264,0,0.573-0.044,1.014c-0.044,0.442-0.089,0.839-0.133,1.236
		c-0.044,0.397-0.177,0.75-0.265,1.015c-0.133,0.265-0.31,0.441-0.487,0.441h-15.134v9.178h12.966c0.309,0,0.575,0.133,0.84,0.397
		c0.222,0.265,0.354,0.574,0.354,0.927c0,0.265,0,0.574-0.044,1.015c-0.044,0.441-0.088,0.838-0.133,1.236
		c-0.044,0.397-0.177,0.75-0.265,1.059c-0.133,0.264-0.266,0.441-0.487,0.441h-13.275v9.708h14.824c0.354,0,0.664,0.132,0.885,0.397
		c0.221,0.265,0.354,0.574,0.354,0.971c0,0.264,0,0.573-0.044,1.015c-0.045,0.397-0.089,0.838-0.133,1.235
		c-0.044,0.397-0.177,0.75-0.266,1.059c-0.132,0.309-0.309,0.441-0.486,0.441h-18.675c-0.442,0-0.929-0.088-1.416-0.309
		C273.994,127.027,273.773,126.806,273.773,126.586 M256.338,118.466l7.169-24.578c0.442-0.442,0.973-0.706,1.548-0.839
		c0.576-0.088,1.239-0.176,2.036-0.176c0.31,0,0.664,0,0.974,0.044c0.353,0.044,0.619,0.088,0.84,0.221
		c0.222,0.132,0.399,0.265,0.531,0.485c0.133,0.221,0.089,0.486,0,0.883l-11.018,32.874c-0.045,0.265-0.222,0.441-0.487,0.574
		c-0.266,0.132-0.531,0.176-0.841,0.176c-1.062,0-1.947-0.044-2.655-0.176c-0.708-0.133-1.151-0.309-1.328-0.53l-10.974-32.918
		c-0.088-0.309-0.088-0.574,0-0.795c0.089-0.22,0.221-0.353,0.442-0.485c0.178-0.132,0.399-0.221,0.664-0.265
		c0.222-0.044,0.443-0.088,0.576-0.088c0.486,0,0.973,0,1.46,0.044s0.929,0.088,1.372,0.177c0.398,0.088,0.752,0.22,1.062,0.352
		c0.265,0.177,0.487,0.354,0.575,0.618l7.346,24.358c0.133,0.397,0.221,0.794,0.265,1.192c0.045,0.441,0.089,0.794,0.177,1.147
		c0.045-0.353,0.089-0.75,0.133-1.147C256.117,119.216,256.205,118.819,256.338,118.466 M237.929,126.85
		c0,0.397-0.133,0.706-0.442,0.927c-0.266,0.221-0.62,0.353-1.062,0.353c-0.266,0-0.664,0-1.151-0.044
		c-0.487-0.044-0.929-0.088-1.416-0.132c-0.442-0.045-0.841-0.177-1.195-0.309c-0.354-0.133-0.487-0.309-0.487-0.486V93.932
		c0-0.177,0.177-0.353,0.487-0.486c0.354-0.132,0.708-0.264,1.195-0.308c0.442-0.044,0.929-0.133,1.416-0.133
		c0.487-0.044,0.841-0.044,1.151-0.044c0.398,0,0.752,0.133,1.062,0.397c0.265,0.265,0.442,0.574,0.442,0.927V126.85z
		 M220.494,117.584V93.755c0-0.176,0.177-0.352,0.531-0.441c0.354-0.132,0.752-0.22,1.239-0.265c0.487-0.044,0.974-0.088,1.46-0.132
		c0.487-0.044,0.885-0.044,1.151-0.044c0.841,0,1.239,0.485,1.239,1.412v32.565c0,0.397-0.133,0.662-0.442,0.883
		c-0.31,0.221-0.62,0.353-0.974,0.353c-0.266,0-0.575,0-1.018-0.044c-0.442-0.044-0.841-0.044-1.283-0.133
		c-0.443-0.088-0.797-0.176-1.151-0.264c-0.354-0.133-0.575-0.265-0.708-0.442l-15.444-23.696v23.343
		c0,0.397-0.132,0.706-0.442,0.927c-0.266,0.221-0.62,0.353-1.018,0.353c-0.265,0-0.664,0-1.15-0.044
		c-0.487-0.044-0.974-0.088-1.417-0.132c-0.442-0.045-0.84-0.177-1.15-0.309c-0.354-0.133-0.487-0.309-0.487-0.486V93.932
		c0-0.177,0.177-0.353,0.487-0.485c0.354-0.133,0.708-0.265,1.15-0.309c0.443-0.044,0.886-0.089,1.372-0.133
		c0.487-0.044,0.841-0.044,1.151-0.044c0.354,0,0.664,0.088,0.885,0.309c0.221,0.221,0.442,0.441,0.575,0.706L220.494,117.584z
		 M187.571,115.466V94.02c0-0.176,0.177-0.353,0.486-0.485c0.355-0.132,0.753-0.265,1.195-0.353
		c0.487-0.088,0.974-0.177,1.416-0.221c0.487-0.044,0.841-0.088,1.151-0.088c0.398,0,0.752,0.132,1.018,0.441
		c0.265,0.309,0.398,0.618,0.398,0.971v21.446c0,2.338-0.266,4.28-0.797,5.868c-0.531,1.589-1.283,2.824-2.345,3.839
		c-1.062,0.971-2.389,1.677-3.983,2.074c-1.593,0.397-3.495,0.618-5.62,0.618h-0.398c-2.08,0-3.938-0.221-5.487-0.618
		c-1.593-0.397-2.876-1.103-3.938-2.074c-1.062-0.97-1.815-2.25-2.346-3.839c-0.531-1.544-0.796-3.53-0.796-5.868V94.02
		c0-0.176,0.177-0.353,0.486-0.485c0.355-0.132,0.708-0.265,1.195-0.353c0.443-0.088,0.93-0.177,1.416-0.221
		c0.487-0.044,0.885-0.088,1.151-0.088c0.398,0,0.708,0.132,1.018,0.441c0.265,0.309,0.442,0.618,0.442,0.971v21.137
		c0,1.367,0.089,2.515,0.31,3.486c0.221,0.97,0.575,1.765,1.106,2.338c0.531,0.618,1.239,1.059,2.124,1.324s1.992,0.441,3.319,0.441
		h0.398c1.372,0,2.479-0.132,3.408-0.441c0.885-0.309,1.637-0.75,2.168-1.324c0.531-0.618,0.93-1.368,1.151-2.338
		C187.482,117.981,187.571,116.834,187.571,115.466 M393.474,38.244v40.994h-11.329V16.622h15.798l15.179,38.567V16.622h11.505
		v62.616h-14.426L393.474,38.244z M360.949,16.622h12.745v62.615h-12.745V16.622z M312.051,16.622h13.098v27.226l16.329-27.226
		h13.674l-18.143,28.815l18.143,33.845h-15.179l-14.824-30.447v30.447h-13.098V16.622z M290.721,65.338H272.49l-3.319,13.944
		h-13.143l17.701-62.66h16.727l17.435,62.66h-13.762L290.721,65.338z M288.11,54.439l-6.283-25.903l-6.594,25.903H288.11z
		 M217.928,16.622h33.94v10.635h-20.665v13.37h19.028v10.899h-19.028v16.68h20.71v11.032h-33.985V16.622z M189.12,16.622
		c16.771,0,21.948,8.87,21.948,31.33c0,22.461-5.221,31.33-21.993,31.33h-21.506v-62.66H189.12z M180.756,68.471h5.974
		c9.78,0,11.019-5.736,11.019-20.74c0-14.958-1.239-20.695-11.019-20.695h-5.974V68.471z"/>
	<path style="clip-path:url(#SVGID_00000182517244238325183520000007592504922075791244_);fill:#FFFFFF;" d="M71.713,1.288
		C32.549,1.288,0.799,32.947,0.799,72s31.749,70.712,70.913,70.712S142.625,111.053,142.625,72S110.877,1.288,71.713,1.288"/>
	<path style="clip-path:url(#SVGID_00000182517244238325183520000007592504922075791244_);fill:#FFFFFF;" d="M71.713,2.968
		c38.175,0,69.233,30.968,69.233,69.032s-31.058,69.032-69.233,69.032S2.479,110.064,2.479,72S33.538,2.968,71.713,2.968"/>
	<path style="clip-path:url(#SVGID_00000182517244238325183520000007592504922075791244_);" d="M95.076,94.204L68.262,47.816
		l3.533-5.928l30.099,52.316H95.076z M82.396,94.204L61.86,58.843l3.45-5.804l23.655,41.165H82.396z M69.509,94.204L55.416,69.953
		l3.575-6.011l17.336,30.22h-6.818V94.204z M56.539,94.204l-7.567-13.1l3.576-6.011l10.933,19.111H56.539z M41.365,94.204
		l4.614-7.877l4.615,7.877H41.365z M35.503,36.416V85.83c0,19.94,16.213,36.107,36.209,36.107c19.997,0,36.21-16.167,36.21-36.107
		V36.416H35.503z"/>
</g>
<rect x="471.959" y="16.622" style="fill:#FFFFFF;" width="2" height="110.978"/>
<g>
	<defs>
		<rect id="SVGID_00000039118296588109858820000011698163293528443792_" width="1000" height="144"/>
	</defs>
	<clipPath id="SVGID_00000183941656245485607670000013699142119573608341_">
		<use xlink:href="#SVGID_00000039118296588109858820000011698163293528443792_"  style="overflow:visible;"/>
	</clipPath>
	<path style="clip-path:url(#SVGID_00000183941656245485607670000013699142119573608341_);fill:#FFFFFF;" d="M928.13,51.43
		l8.558,20.805v12.07h6.98v-12.07l9.135-20.805h-7.002l-5.245,13.892l-4.913-13.892H928.13z M926.207,60.499
		c0-3.171-0.919-5.613-2.756-7.324c-1.838-1.712-4.453-2.568-7.846-2.568c-2.727,0-4.943,0.519-6.647,1.556
		c-1.704,1.038-2.956,2.653-3.756,4.846c-0.801,2.193-1.201,5.601-1.201,10.225c0,4.979,0.319,8.577,0.956,10.792
		c0.637,2.215,1.901,3.882,3.79,5.001c1.89,1.119,4.538,1.678,7.947,1.678c1.022,0,2.126-0.059,3.312-0.177
		c1.185-0.119,3.252-0.452,6.201-1.001V66.878h-10.558v5.091h3.779v7.246c-0.564,0.208-1.127,0.363-1.69,0.467
		c-0.563,0.104-1.155,0.155-1.778,0.155c-1.793,0-3.049-0.625-3.767-1.878c-0.719-1.252-1.108-3.056-1.167-5.412l-0.067-5.091
		c0-1.096,0.029-2.715,0.089-4.857c0.059-2.141,0.418-3.86,1.078-5.157c0.659-1.296,1.774-1.945,3.345-1.945
		c1.186,0,2.134,0.393,2.845,1.179c0.712,0.785,1.067,1.8,1.067,3.045v1.6h6.824V60.499z M884.271,65.634
		c0-3.898,0.311-6.561,0.934-7.992c0.622-1.429,1.77-2.145,3.445-2.145c1.704,0,2.864,0.671,3.479,2.012
		c0.615,1.341,0.922,3.509,0.922,6.502v3.134c0,2.164-0.041,4.268-0.122,6.313c-0.082,2.045-0.422,3.649-1.022,4.812
		c-0.601,1.164-1.701,1.745-3.301,1.745c-1.142,0-2.02-0.34-2.634-1.022c-0.615-0.682-1.053-1.734-1.312-3.157
		c-0.259-1.422-0.389-3.897-0.389-7.424V65.634z M888.495,84.905c2.074,0,3.808-0.244,5.201-0.733
		c1.393-0.489,2.515-1.182,3.368-2.078c0.851-0.897,1.492-2.004,1.922-3.324c0.43-1.318,0.719-2.734,0.867-4.245
		c0.148-1.512,0.223-3.808,0.223-6.891c0-3.438-0.112-6.035-0.334-7.791c-0.222-1.756-0.686-3.341-1.389-4.757
		c-0.704-1.415-1.838-2.523-3.401-3.323c-1.564-0.8-3.679-1.2-6.346-1.2c-2.683,0-4.865,0.519-6.547,1.556
		c-1.682,1.037-2.9,2.675-3.656,4.912c-0.756,2.238-1.134,5.713-1.134,10.425c0,4.001,0.189,6.939,0.567,8.814
		s0.952,3.427,1.723,4.657c0.77,1.23,1.885,2.2,3.345,2.912C884.364,84.55,886.227,84.905,888.495,84.905 M857.82,51.43v32.875
		h17.16v-5.468h-10.203V51.43H857.82z M837.601,65.634c0-3.898,0.311-6.561,0.934-7.992c0.622-1.429,1.77-2.145,3.445-2.145
		c1.704,0,2.864,0.671,3.479,2.012c0.614,1.341,0.922,3.509,0.922,6.502v3.134c0,2.164-0.041,4.268-0.122,6.313
		c-0.082,2.045-0.422,3.649-1.023,4.812c-0.6,1.164-1.7,1.745-3.301,1.745c-1.141,0-2.019-0.34-2.634-1.022
		s-1.052-1.734-1.311-3.157c-0.259-1.422-0.389-3.897-0.389-7.424V65.634z M841.824,84.905c2.075,0,3.809-0.244,5.202-0.733
		s2.515-1.182,3.367-2.078c0.852-0.897,1.493-2.004,1.923-3.324c0.43-1.318,0.719-2.734,0.867-4.245
		c0.148-1.512,0.222-3.808,0.222-6.891c0-3.438-0.111-6.035-0.333-7.791c-0.222-1.756-0.686-3.341-1.389-4.757
		c-0.704-1.415-1.838-2.523-3.401-3.323c-1.564-0.8-3.679-1.2-6.347-1.2c-2.682,0-4.864,0.519-6.546,1.556
		c-1.682,1.037-2.901,2.675-3.656,4.912c-0.756,2.238-1.134,5.713-1.134,10.425c0,4.001,0.189,6.939,0.567,8.814
		c0.378,1.875,0.952,3.427,1.723,4.657c0.77,1.23,1.885,2.2,3.345,2.912C837.693,84.55,839.557,84.905,841.824,84.905
		 M801.722,51.43v32.875h6.38V60.277l9.002,24.028h9.025V51.43h-6.38v22.761l-8.78-22.761H801.722z M789.941,84.305h6.869V51.429
		h-6.869V84.305z M752.774,51.43v32.875h6.513V58.943l6.091,25.362h6.557l6.424-25.362v25.362h6.691V51.43h-10.692l-5.513,22.361
		l-5.201-22.361H752.774z M741.12,84.305h6.869V51.429h-6.869V84.305z M723.324,56.498h1.467c2.089,0,3.452,0.333,4.09,1
		c0.637,0.667,0.956,1.815,0.956,3.445c0,1.645-0.323,2.838-0.967,3.579c-0.645,0.741-1.96,1.112-3.946,1.112h-1.6V56.498z
		 M716.411,51.43v32.875h6.913V70.702h1.333c2.06,0,3.46,0.352,4.202,1.055c0.74,0.704,1.111,2.005,1.111,3.902v5.045
		c0,0.889,0.052,1.545,0.156,1.968c0.103,0.422,0.296,0.966,0.578,1.633h6.735c-0.149-0.444-0.256-1.029-0.323-1.756
		c-0.066-0.726-0.122-1.489-0.166-2.289l-0.334-5.646c-0.133-2.119-0.604-3.653-1.411-4.601c-0.808-0.949-2.294-1.571-4.457-1.868
		c2.03-0.385,3.531-1.23,4.501-2.534c0.971-1.304,1.456-3.126,1.456-5.468c0-2.964-0.726-5.157-2.178-6.579
		c-1.453-1.423-3.683-2.134-6.691-2.134H716.411z M712.49,60.81c0-3.393-0.811-5.887-2.434-7.48
		c-1.623-1.593-3.998-2.389-7.124-2.389c-2.668,0-4.79,0.441-6.369,1.322c-1.578,0.882-2.704,2.071-3.378,3.568
		c-0.675,1.497-1.108,3.119-1.301,4.868c-0.192,1.749-0.289,4.157-0.289,7.224c0,3.898,0.182,6.743,0.545,8.536
		c0.363,1.793,0.919,3.267,1.667,4.423c0.748,1.156,1.834,2.075,3.256,2.756c1.423,0.682,3.268,1.023,5.535,1.023
		c3.483,0,6.061-0.874,7.736-2.623c1.674-1.748,2.512-4.364,2.512-7.847v-0.955h-6.78v0.378c0,2.119-0.3,3.664-0.9,4.634
		c-0.601,0.971-1.486,1.456-2.657,1.456c-1.393,0-2.386-0.633-2.978-1.9c-0.593-1.267-0.919-2.868-0.978-4.802
		c-0.06-1.934-0.089-3.478-0.089-4.634c0-3.438,0.089-5.891,0.267-7.358c0.177-1.467,0.544-2.678,1.1-3.634s1.434-1.434,2.634-1.434
		c1.052,0,1.863,0.411,2.434,1.234c0.57,0.822,0.856,2.16,0.856,4.012v0.622h6.735V60.81z M667.325,77.704
		c-0.8,0.859-1.589,1.485-2.367,1.878c-0.778,0.393-1.678,0.589-2.701,0.589c-1.452,0-2.634-0.474-3.545-1.423
		c-0.911-0.948-1.367-2.193-1.367-3.734c0-0.978,0.256-1.912,0.767-2.801s1.345-1.793,2.5-2.712L667.325,77.704z M660.101,59.776
		c-0.385-0.733-0.578-1.418-0.578-2.056c0-0.785,0.263-1.452,0.789-2c0.526-0.548,1.19-0.823,1.99-0.823
		c0.889,0,1.596,0.252,2.123,0.756c0.525,0.504,0.789,1.178,0.789,2.023c0,0.889-0.256,1.689-0.767,2.4
		c-0.511,0.712-1.345,1.445-2.501,2.201C661.101,61.343,660.486,60.51,660.101,59.776 M669.948,61.888
		c0.83-1.267,1.245-2.626,1.245-4.079c0-2.178-0.778-3.882-2.334-5.112c-1.556-1.23-3.727-1.845-6.513-1.845
		c-2.638,0-4.76,0.663-6.368,1.989c-1.608,1.327-2.412,3.116-2.412,5.368c0,1.127,0.263,2.268,0.789,3.423
		c0.526,1.156,1.374,2.431,2.545,3.824c-2.237,1.526-3.845,3.012-4.823,4.456c-0.978,1.445-1.467,3.161-1.467,5.146
		c0,3.142,1.007,5.569,3.023,7.28c2.015,1.712,4.86,2.567,8.535,2.567c1.971,0,3.66-0.233,5.069-0.7
		c1.407-0.467,2.77-1.315,4.089-2.545l2.001,2.645h6.735l-4.957-6.779c0.815-1.393,1.39-2.871,1.723-4.435
		c0.333-1.563,0.5-3.56,0.5-5.99v-0.823h-5.557c0.03,0.208,0.044,0.415,0.044,0.623c0,1.052-0.07,2.122-0.211,3.212
		c-0.141,1.089-0.33,1.997-0.566,2.723l-5.135-6.736C667.77,64.559,669.118,63.155,669.948,61.888 M620.827,51.43v32.875h18.294
		v-5.134h-11.425v-9.514h10.202v-5.068h-10.202v-8.091h11.069V51.43H620.827z M583.646,51.43v32.875h6.513V58.943l6.091,25.362
		h6.557l6.424-25.362v25.362h6.691V51.43H605.23l-5.513,22.361l-5.201-22.361H583.646z M571.992,84.305h6.869V51.429h-6.869V84.305z
		 M554.196,56.498h1.467c2.089,0,3.453,0.333,4.09,1c0.637,0.667,0.956,1.815,0.956,3.445c0,1.645-0.323,2.838-0.967,3.579
		c-0.645,0.741-1.96,1.112-3.946,1.112h-1.6V56.498z M547.283,51.43v32.875h6.913V70.702h1.334c2.059,0,3.46,0.352,4.201,1.055
		c0.74,0.704,1.111,2.005,1.111,3.902v5.045c0,0.889,0.052,1.545,0.156,1.968c0.103,0.422,0.296,0.966,0.578,1.633h6.735
		c-0.148-0.444-0.256-1.029-0.322-1.756c-0.067-0.726-0.123-1.489-0.167-2.289l-0.334-5.646c-0.133-2.119-0.604-3.653-1.411-4.601
		c-0.808-0.949-2.293-1.571-4.457-1.868c2.03-0.385,3.531-1.23,4.501-2.534c0.971-1.304,1.456-3.126,1.456-5.468
		c0-2.964-0.726-5.157-2.178-6.579c-1.453-1.423-3.683-2.134-6.691-2.134H547.283z M543.362,60.81c0-3.393-0.811-5.887-2.434-7.48
		c-1.623-1.593-3.998-2.389-7.124-2.389c-2.668,0-4.79,0.441-6.369,1.322c-1.578,0.882-2.704,2.071-3.378,3.568
		c-0.675,1.497-1.108,3.119-1.301,4.868c-0.192,1.749-0.289,4.157-0.289,7.224c0,3.898,0.182,6.743,0.545,8.536
		c0.363,1.793,0.919,3.267,1.667,4.423c0.748,1.156,1.834,2.075,3.257,2.756c1.422,0.682,3.267,1.023,5.534,1.023
		c3.483,0,6.061-0.874,7.736-2.623c1.674-1.748,2.512-4.364,2.512-7.847v-0.955h-6.78v0.378c0,2.119-0.3,3.664-0.9,4.634
		c-0.6,0.971-1.486,1.456-2.656,1.456c-1.394,0-2.387-0.633-2.979-1.9c-0.593-1.267-0.919-2.868-0.978-4.802
		c-0.06-1.934-0.089-3.478-0.089-4.634c0-3.438,0.089-5.891,0.267-7.358c0.178-1.467,0.544-2.678,1.1-3.634
		c0.556-0.956,1.434-1.434,2.634-1.434c1.052,0,1.863,0.411,2.434,1.234c0.57,0.822,0.856,2.16,0.856,4.012v0.622h6.735V60.81z"/>
	<path style="clip-path:url(#SVGID_00000183941656245485607670000013699142119573608341_);fill:#FFFFFF;" d="M784.296,19.201
		c0.574,0.111,1.017,0.313,1.33,0.605c0.312,0.292,0.529,0.695,0.65,1.209s0.182,1.175,0.182,1.981v0.514
		c0,0.806-0.061,1.466-0.182,1.98s-0.338,0.912-0.65,1.195c-0.313,0.282-0.756,0.479-1.33,0.589
		c-0.575,0.111-1.316,0.166-2.223,0.166h-4.656v-8.405h4.656C782.979,19.035,783.721,19.09,784.296,19.201 M774.922,38.447
		c0.151,0.06,0.333,0.115,0.544,0.166c0.212,0.05,0.428,0.086,0.65,0.106c0.222,0.02,0.413,0.03,0.575,0.03
		c0.222,0,0.398-0.075,0.529-0.227c0.131-0.151,0.197-0.337,0.197-0.559v-8.104h4.535l4.596,8.074
		c0.081,0.161,0.212,0.297,0.393,0.408c0.182,0.11,0.378,0.196,0.59,0.257c0.212,0.06,0.428,0.101,0.65,0.121
		c0.222,0.02,0.413,0.03,0.575,0.03c0.14,0,0.317-0.03,0.529-0.091c0.211-0.06,0.317-0.191,0.317-0.393
		c0-0.201-0.091-0.443-0.272-0.725l-4.475-7.953c0.847-0.121,1.547-0.332,2.101-0.635c0.555-0.302,1.003-0.695,1.346-1.179
		s0.584-1.078,0.726-1.784c0.14-0.705,0.211-1.532,0.211-2.479v-0.514c0-1.21-0.121-2.223-0.362-3.039
		c-0.242-0.817-0.646-1.471-1.21-1.966c-0.565-0.493-1.315-0.846-2.253-1.058c-0.937-0.212-2.091-0.317-3.462-0.317h-6.501
		c-0.222,0-0.403,0.075-0.544,0.226c-0.141,0.152-0.212,0.338-0.212,0.56v20.803C774.695,38.306,774.771,38.386,774.922,38.447
		 M756.296,21.756c0.192-0.746,0.514-1.346,0.968-1.799c0.454-0.454,1.048-0.776,1.784-0.968c0.736-0.191,1.648-0.287,2.736-0.287
		h0.242c1.089,0,1.996,0.096,2.722,0.287c0.725,0.192,1.315,0.514,1.769,0.968c0.453,0.453,0.775,1.053,0.967,1.799
		c0.191,0.746,0.287,1.673,0.287,2.782v5.956c0,1.109-0.096,2.037-0.287,2.782c-0.192,0.746-0.514,1.346-0.967,1.799
		c-0.454,0.454-1.044,0.777-1.769,0.968c-0.726,0.192-1.633,0.287-2.722,0.287h-0.242c-1.088,0-2-0.095-2.736-0.287
		c-0.736-0.191-1.33-0.514-1.784-0.968c-0.454-0.453-0.776-1.053-0.968-1.799c-0.191-0.745-0.287-1.673-0.287-2.782v-5.956
		C756.009,23.429,756.104,22.502,756.296,21.756 M765.776,38.341c1.068-0.272,1.955-0.726,2.661-1.361
		c0.705-0.635,1.234-1.471,1.587-2.509c0.352-1.038,0.529-2.323,0.529-3.856v-6.198c0-1.532-0.177-2.817-0.529-3.855
		c-0.353-1.038-0.882-1.875-1.587-2.51c-0.706-0.635-1.593-1.089-2.661-1.361c-1.069-0.272-2.319-0.408-3.75-0.408h-0.242
		c-1.451,0-2.711,0.136-3.779,0.408c-1.069,0.272-1.956,0.726-2.661,1.361c-0.706,0.635-1.235,1.472-1.588,2.51
		c-0.352,1.038-0.529,2.323-0.529,3.855v6.198c0,1.533,0.177,2.818,0.529,3.856c0.353,1.038,0.882,1.874,1.588,2.509
		c0.705,0.635,1.592,1.089,2.661,1.361c1.068,0.272,2.328,0.408,3.779,0.408h0.242C763.457,38.749,764.707,38.613,765.776,38.341
		 M748.864,28.529c0.081,0,0.151-0.06,0.212-0.181c0.06-0.121,0.111-0.273,0.151-0.454c0.04-0.181,0.071-0.368,0.091-0.559
		c0.02-0.192,0.03-0.368,0.03-0.53c0-0.221-0.071-0.393-0.212-0.514c-0.141-0.121-0.302-0.181-0.483-0.181h-8.346v-7.045h9.918
		c0.08,0,0.151-0.061,0.212-0.182c0.06-0.121,0.11-0.272,0.151-0.453c0.04-0.182,0.07-0.373,0.091-0.575
		c0.019-0.201,0.03-0.382,0.03-0.544c0-0.222-0.071-0.388-0.212-0.499c-0.141-0.11-0.302-0.166-0.484-0.166h-11.429
		c-0.665,0-0.998,0.211-0.998,0.635v20.924c0,0.081,0.07,0.156,0.212,0.227c0.14,0.07,0.317,0.125,0.529,0.166
		c0.211,0.04,0.433,0.076,0.665,0.106c0.231,0.03,0.428,0.045,0.59,0.045c0.221,0,0.397-0.086,0.529-0.257
		c0.131-0.171,0.196-0.367,0.196-0.59v-9.373H748.864z M721.742,19.231c0.585,0.111,1.043,0.313,1.376,0.605
		c0.333,0.292,0.564,0.695,0.695,1.209c0.131,0.514,0.197,1.164,0.197,1.951v0.514c0,0.786-0.066,1.436-0.197,1.95
		c-0.131,0.514-0.362,0.917-0.695,1.209c-0.333,0.293-0.791,0.495-1.376,0.605c-0.585,0.111-1.33,0.166-2.237,0.166h-4.536v-8.375
		h4.536C720.411,19.065,721.156,19.121,721.742,19.231 M712.474,38.447c0.151,0.06,0.332,0.115,0.544,0.166
		c0.211,0.05,0.428,0.086,0.65,0.106c0.221,0.02,0.413,0.03,0.574,0.03c0.222,0,0.398-0.075,0.53-0.227
		c0.13-0.151,0.196-0.337,0.196-0.559v-8.104h4.536c1.35,0,2.489-0.095,3.416-0.287c0.927-0.191,1.679-0.529,2.253-1.013
		c0.575-0.484,0.988-1.134,1.24-1.95c0.252-0.816,0.378-1.849,0.378-3.099v-0.514c0-1.21-0.121-2.223-0.363-3.039
		c-0.242-0.817-0.645-1.467-1.21-1.951c-0.564-0.483-1.315-0.831-2.252-1.043c-0.938-0.211-2.092-0.317-3.462-0.317h-6.501
		c-0.222,0-0.404,0.045-0.545,0.136c-0.141,0.091-0.211,0.307-0.211,0.65v20.773C712.248,38.306,712.323,38.386,712.474,38.447
		 M704.819,33.352c-0.182,0.716-0.474,1.29-0.877,1.723c-0.403,0.434-0.927,0.752-1.572,0.953c-0.646,0.202-1.442,0.302-2.389,0.302
		h-0.242c-0.907,0-1.673-0.1-2.298-0.302c-0.625-0.201-1.134-0.519-1.527-0.953c-0.393-0.433-0.676-1.007-0.847-1.723
		s-0.257-1.588-0.257-2.616V17.16c0-0.222-0.065-0.423-0.196-0.605c-0.132-0.181-0.308-0.272-0.529-0.272
		c-0.162,0-0.358,0.015-0.59,0.045c-0.232,0.031-0.454,0.071-0.665,0.121c-0.212,0.051-0.388,0.116-0.529,0.197
		c-0.142,0.081-0.212,0.161-0.212,0.242v13.969c0,1.492,0.156,2.737,0.469,3.735c0.312,0.997,0.786,1.809,1.421,2.434
		s1.431,1.068,2.389,1.33c0.957,0.262,2.081,0.393,3.371,0.393h0.242c1.31,0,2.454-0.131,3.432-0.393
		c0.977-0.262,1.794-0.705,2.449-1.33c0.655-0.625,1.144-1.437,1.466-2.434c0.323-0.998,0.484-2.243,0.484-3.735V17.16
		c0-0.222-0.065-0.423-0.196-0.605c-0.132-0.181-0.308-0.272-0.529-0.272c-0.182,0-0.384,0.015-0.605,0.045
		c-0.222,0.031-0.439,0.071-0.65,0.121c-0.212,0.051-0.389,0.116-0.529,0.197c-0.142,0.081-0.212,0.161-0.212,0.242v13.848
		C705.091,31.764,705,32.636,704.819,33.352 M673.734,21.756c0.192-0.746,0.515-1.346,0.968-1.799
		c0.454-0.454,1.048-0.776,1.784-0.968c0.736-0.191,1.648-0.287,2.737-0.287h0.241c1.089,0,1.996,0.096,2.722,0.287
		c0.725,0.192,1.315,0.514,1.769,0.968c0.453,0.453,0.775,1.053,0.967,1.799c0.191,0.746,0.287,1.673,0.287,2.782v5.956
		c0,1.109-0.096,2.037-0.287,2.782c-0.192,0.746-0.514,1.346-0.967,1.799c-0.454,0.454-1.044,0.777-1.769,0.968
		c-0.726,0.192-1.633,0.287-2.722,0.287h-0.241c-1.089,0-2.001-0.095-2.737-0.287c-0.736-0.191-1.33-0.514-1.784-0.968
		c-0.453-0.453-0.776-1.053-0.968-1.799c-0.191-0.745-0.287-1.673-0.287-2.782v-5.956C673.448,23.429,673.544,22.502,673.734,21.756
		 M683.215,38.341c1.068-0.272,1.955-0.726,2.661-1.361c0.705-0.635,1.234-1.471,1.587-2.509c0.353-1.038,0.529-2.323,0.529-3.856
		v-6.198c0-1.532-0.176-2.817-0.529-3.855s-0.882-1.875-1.587-2.51c-0.706-0.635-1.593-1.089-2.661-1.361
		c-1.069-0.272-2.319-0.408-3.75-0.408h-0.241c-1.452,0-2.712,0.136-3.78,0.408c-1.069,0.272-1.956,0.726-2.661,1.361
		c-0.706,0.635-1.235,1.472-1.587,2.51c-0.353,1.038-0.53,2.323-0.53,3.855v6.198c0,1.533,0.177,2.818,0.53,3.856
		c0.352,1.038,0.881,1.874,1.587,2.509c0.705,0.635,1.592,1.089,2.661,1.361c1.068,0.272,2.328,0.408,3.78,0.408h0.241
		C680.896,38.749,682.146,38.613,683.215,38.341 M662.025,19.201c0.575,0.111,1.018,0.313,1.331,0.605
		c0.312,0.292,0.529,0.695,0.65,1.209c0.121,0.514,0.181,1.175,0.181,1.981v0.514c0,0.806-0.06,1.466-0.181,1.98
		c-0.121,0.514-0.338,0.912-0.65,1.195c-0.313,0.282-0.756,0.479-1.331,0.589c-0.574,0.111-1.315,0.166-2.222,0.166h-4.657v-8.405
		h4.657C660.71,19.035,661.451,19.09,662.025,19.201 M652.651,38.447c0.151,0.06,0.332,0.115,0.544,0.166
		c0.212,0.05,0.428,0.086,0.65,0.106c0.222,0.02,0.413,0.03,0.574,0.03c0.222,0,0.398-0.075,0.53-0.227
		c0.13-0.151,0.196-0.337,0.196-0.559v-8.104h4.536l4.596,8.074c0.08,0.161,0.211,0.297,0.393,0.408
		c0.181,0.11,0.378,0.196,0.589,0.257c0.212,0.06,0.428,0.101,0.651,0.121c0.221,0.02,0.412,0.03,0.574,0.03
		c0.141,0,0.318-0.03,0.529-0.091c0.212-0.06,0.318-0.191,0.318-0.393c0-0.201-0.091-0.443-0.272-0.725l-4.476-7.953
		c0.847-0.121,1.547-0.332,2.102-0.635c0.554-0.302,1.002-0.695,1.345-1.179s0.585-1.078,0.726-1.784
		c0.141-0.705,0.212-1.532,0.212-2.479v-0.514c0-1.21-0.121-2.223-0.363-3.039c-0.242-0.817-0.645-1.471-1.209-1.966
		c-0.565-0.493-1.316-0.846-2.253-1.058c-0.937-0.212-2.092-0.317-3.462-0.317h-6.501c-0.222,0-0.404,0.075-0.545,0.226
		c-0.141,0.152-0.211,0.338-0.211,0.56v20.803C652.424,38.306,652.5,38.386,652.651,38.447 M635.629,21.952
		c0.222-0.775,0.586-1.406,1.091-1.889c0.505-0.484,1.172-0.832,2.001-1.044c0.828-0.211,1.848-0.317,3.06-0.317h0.637
		c1.333,0,2.414,0.056,3.242,0.166c0.829,0.111,1.516,0.237,2.061,0.378c0.121,0,0.227-0.06,0.319-0.181
		c0.09-0.121,0.166-0.272,0.227-0.454c0.06-0.181,0.11-0.388,0.151-0.62c0.041-0.231,0.061-0.448,0.061-0.65
		c0-0.181-0.182-0.337-0.545-0.468c-0.364-0.131-0.849-0.242-1.454-0.333c-0.607-0.091-1.293-0.156-2.061-0.197
		c-0.767-0.04-1.555-0.06-2.362-0.06h-0.606c-1.495,0-2.803,0.136-3.923,0.408c-1.122,0.272-2.056,0.726-2.803,1.361
		c-0.747,0.635-1.303,1.472-1.666,2.51c-0.364,1.038-0.545,2.323-0.545,3.855v6.198c0,1.533,0.177,2.818,0.53,3.856
		c0.353,1.038,0.893,1.874,1.621,2.509c0.727,0.635,1.636,1.089,2.726,1.361c1.09,0.272,2.373,0.408,3.848,0.408h0.272
		c0.566,0,1.162-0.025,1.788-0.075c0.626-0.051,1.227-0.121,1.802-0.212s1.106-0.191,1.591-0.303
		c0.485-0.11,0.868-0.226,1.151-0.347c0.202-0.081,0.343-0.182,0.424-0.303s0.121-0.352,0.121-0.695V28.65
		c0-0.302-0.051-0.534-0.153-0.696c-0.102-0.161-0.295-0.241-0.58-0.241c-0.47,0-0.918,0.045-1.346,0.136
		c-0.428,0.09-0.642,0.216-0.642,0.378v7.71c-0.786,0.141-1.487,0.242-2.101,0.302c-0.616,0.061-1.306,0.091-2.072,0.091h-0.272
		c-1.109,0-2.041-0.106-2.797-0.317c-0.756-0.212-1.366-0.56-1.829-1.044c-0.464-0.483-0.797-1.108-0.998-1.874
		c-0.202-0.766-0.302-1.713-0.302-2.843V24.78C635.296,23.671,635.406,22.729,635.629,21.952 M607.66,16.797
		c-0.101-0.141-0.212-0.262-0.333-0.363c-0.121-0.1-0.262-0.151-0.423-0.151c-0.182,0-0.378,0.01-0.59,0.03
		c-0.212,0.021-0.419,0.056-0.62,0.106c-0.202,0.051-0.368,0.111-0.499,0.181c-0.131,0.071-0.196,0.147-0.196,0.227v21.408
		c0,0.101,0.07,0.181,0.211,0.242c0.141,0.06,0.313,0.111,0.514,0.151c0.202,0.04,0.413,0.071,0.635,0.091
		c0.222,0.02,0.413,0.03,0.575,0.03c0.222,0,0.398-0.081,0.529-0.242c0.131-0.161,0.197-0.352,0.197-0.574v-16.54l10.855,16.872
		c0.06,0.081,0.166,0.151,0.317,0.212c0.151,0.06,0.328,0.111,0.529,0.151c0.202,0.04,0.403,0.071,0.605,0.091
		c0.201,0.02,0.373,0.03,0.514,0.03c0.201,0,0.368-0.075,0.499-0.227c0.131-0.151,0.197-0.337,0.197-0.559V17.13
		c0-0.242-0.046-0.444-0.137-0.605c-0.09-0.161-0.247-0.242-0.468-0.242c-0.182,0-0.393,0.01-0.635,0.03
		c-0.242,0.021-0.469,0.051-0.681,0.091c-0.211,0.041-0.388,0.091-0.529,0.151c-0.141,0.061-0.211,0.131-0.211,0.212V33.7
		L607.66,16.797z M600.509,17.099c0-0.221-0.066-0.413-0.197-0.574c-0.131-0.161-0.307-0.242-0.529-0.242
		c-0.181,0-0.383,0.01-0.605,0.03c-0.222,0.021-0.438,0.056-0.65,0.106c-0.211,0.051-0.388,0.111-0.529,0.181
		c-0.141,0.071-0.211,0.147-0.211,0.227v21.408c0,0.101,0.07,0.181,0.211,0.242c0.141,0.06,0.318,0.111,0.529,0.151
		c0.212,0.04,0.428,0.071,0.65,0.091c0.222,0.02,0.424,0.03,0.605,0.03c0.222,0,0.398-0.081,0.529-0.242
		c0.131-0.161,0.197-0.352,0.197-0.574V17.099z M581.351,27.35l10.069,10.855c0.221,0.242,0.534,0.393,0.937,0.453
		c0.403,0.061,0.836,0.091,1.3,0.091c0.141,0,0.303-0.02,0.484-0.06c0.181-0.041,0.272-0.162,0.272-0.363
		c0-0.222-0.161-0.504-0.484-0.847l-9.706-10.432l8.86-9.494c0.342-0.363,0.514-0.645,0.514-0.847c0-0.201-0.091-0.322-0.272-0.363
		c-0.182-0.04-0.353-0.06-0.514-0.06c-0.444,0-0.873,0.03-1.285,0.091c-0.414,0.06-0.731,0.211-0.953,0.453l-9.222,9.948v-9.676
		c0-0.221-0.066-0.413-0.197-0.574c-0.131-0.161-0.307-0.242-0.529-0.242c-0.181,0-0.383,0.01-0.605,0.03
		c-0.222,0.021-0.438,0.056-0.65,0.106c-0.211,0.051-0.388,0.111-0.529,0.181c-0.141,0.071-0.212,0.147-0.212,0.227v21.408
		c0,0.101,0.071,0.181,0.212,0.242c0.141,0.06,0.318,0.111,0.529,0.151c0.212,0.04,0.428,0.071,0.65,0.091
		c0.222,0.02,0.424,0.03,0.605,0.03c0.222,0,0.398-0.081,0.529-0.242c0.131-0.161,0.197-0.352,0.197-0.574V27.35z M566.411,20.304
		c0.02-0.201,0.05-0.382,0.091-0.544c0,0.101,0.025,0.283,0.075,0.544c0.05,0.263,0.096,0.444,0.136,0.545l2.903,8.799h-6.259
		l2.933-8.799C566.35,20.688,566.39,20.506,566.411,20.304 M573.033,38.643c0.342,0.071,0.796,0.106,1.36,0.106
		c0.182,0,0.358-0.035,0.53-0.106c0.171-0.071,0.257-0.196,0.257-0.378c0-0.121-0.011-0.211-0.031-0.272l-7.257-21.136
		c-0.121-0.382-0.352-0.574-0.695-0.574c-0.383,0-0.801,0.035-1.255,0.106c-0.453,0.071-0.721,0.217-0.801,0.438l-7.287,21.166
		c-0.041,0.121-0.061,0.212-0.061,0.272c0,0.182,0.086,0.307,0.257,0.378c0.171,0.071,0.358,0.106,0.56,0.106
		c0.463,0,0.881-0.02,1.254-0.06c0.373-0.041,0.6-0.182,0.681-0.424l2.116-6.259h7.681l2.026,6.138
		C572.468,38.406,572.69,38.572,573.033,38.643 M542.031,38.235c0.282,0.101,0.554,0.151,0.816,0.151h11.4
		c0.08,0,0.151-0.06,0.211-0.181c0.061-0.121,0.111-0.272,0.151-0.454c0.041-0.181,0.071-0.372,0.091-0.574
		c0.02-0.201,0.03-0.383,0.03-0.544c0-0.202-0.07-0.363-0.211-0.484c-0.142-0.121-0.303-0.182-0.484-0.182h-9.706v-7.438h8.98
		c0.081,0,0.151-0.06,0.212-0.181c0.06-0.121,0.116-0.273,0.166-0.454s0.086-0.373,0.106-0.575c0.02-0.201,0.03-0.372,0.03-0.514
		c0-0.221-0.071-0.393-0.211-0.514c-0.142-0.121-0.313-0.181-0.514-0.181h-8.769v-7.045h9.918c0.08,0,0.151-0.061,0.211-0.182
		c0.061-0.121,0.111-0.272,0.151-0.453c0.041-0.182,0.071-0.373,0.091-0.575c0.02-0.201,0.03-0.382,0.03-0.544
		c0-0.222-0.07-0.388-0.211-0.499c-0.142-0.11-0.303-0.166-0.484-0.166h-11.702c-0.484,0-0.726,0.262-0.726,0.786v20.41
		C541.607,38.004,541.747,38.134,542.031,38.235 M531.672,19.352c0.726,0.212,1.315,0.559,1.769,1.043
		c0.453,0.484,0.776,1.114,0.967,1.89c0.192,0.776,0.288,1.719,0.288,2.827v4.778c0,1.108-0.096,2.051-0.288,2.827
		c-0.191,0.776-0.514,1.406-0.967,1.89c-0.454,0.483-1.043,0.831-1.769,1.043c-0.726,0.211-1.633,0.317-2.721,0.317h-4.143V19.035
		h4.143C530.039,19.035,530.945,19.14,531.672,19.352 M522.359,16.797c-0.181,0.121-0.272,0.323-0.272,0.605v20.44
		c0,0.162,0.136,0.292,0.408,0.393c0.272,0.101,0.549,0.151,0.832,0.151h5.624c1.451,0,2.711-0.136,3.779-0.408
		c1.069-0.272,1.955-0.726,2.661-1.361c0.705-0.635,1.229-1.471,1.572-2.509c0.343-1.038,0.515-2.323,0.515-3.856V24.78
		c0-1.532-0.172-2.817-0.515-3.856c-0.343-1.038-0.867-1.874-1.572-2.509c-0.706-0.635-1.592-1.094-2.661-1.376
		c-1.068-0.282-2.328-0.423-3.779-0.423h-5.987C522.742,16.616,522.54,16.676,522.359,16.797"/>
</g>
</svg>
