<?xml version="1.0" encoding="iso-8859-1"?>
<!-- Generator: Adobe Illustrator 29.5.1, SVG Export Plug-In . SVG Version: 9.03 Build 0)  -->
<svg version="1.1" id="Layer_1" xmlns="http://www.w3.org/2000/svg" xmlns:xlink="http://www.w3.org/1999/xlink" x="0px" y="0px"
	 viewBox="0 0 1000 144" style="enable-background:new 0 0 1000 144;" xml:space="preserve">
<g>
	<defs>
		<rect id="SVGID_1_" width="1000" height="144"/>
	</defs>
	<clipPath id="SVGID_00000116947033336236436880000012208870608003537305_">
		<use xlink:href="#SVGID_1_"  style="overflow:visible;"/>
	</clipPath>
	<path style="clip-path:url(#SVGID_00000116947033336236436880000012208870608003537305_);fill:#FFFFFF;" d="M414.759,115.025
		v11.825c0,0.397-0.133,0.706-0.443,0.927c-0.265,0.221-0.619,0.353-1.062,0.353c-0.265,0-0.664,0-1.106-0.044
		c-0.442-0.044-0.929-0.088-1.372-0.132c-0.442-0.045-0.841-0.177-1.195-0.309c-0.309-0.133-0.486-0.309-0.486-0.486v-12.09
		L398.74,94.903c-0.354-0.706-0.399-1.192-0.133-1.5c0.266-0.309,0.752-0.486,1.46-0.486c0.443,0,0.885,0,1.372,0.044
		c0.443,0,0.885,0.044,1.283,0.133c0.399,0.044,0.753,0.132,1.018,0.22c0.266,0.089,0.487,0.221,0.575,0.441l7.612,15.489
		l7.611-15.444c0.089-0.177,0.265-0.354,0.575-0.442c0.266-0.088,0.62-0.176,1.018-0.264c0.398-0.045,0.841-0.089,1.283-0.133
		c0.443,0,0.93-0.044,1.372-0.044c0.708,0,1.195,0.132,1.461,0.441c0.221,0.309,0.177,0.795-0.178,1.545L414.759,115.025z
		 M384.491,98.521v28.329c0,0.397-0.133,0.706-0.443,0.927c-0.31,0.221-0.619,0.353-1.018,0.353c-0.265,0-0.663,0-1.15-0.044
		c-0.487-0.044-0.974-0.088-1.416-0.132c-0.443-0.045-0.841-0.177-1.151-0.309c-0.354-0.133-0.486-0.309-0.486-0.486V98.565h-8.762
		c-0.354,0-0.62-0.132-0.885-0.397c-0.222-0.265-0.354-0.573-0.354-0.971c0-0.265,0-0.573,0.044-1.015
		c0.044-0.397,0.088-0.838,0.133-1.235c0.044-0.397,0.177-0.75,0.265-1.059c0.133-0.265,0.266-0.441,0.487-0.441h23.453
		c0.354,0,0.62,0.132,0.885,0.397c0.222,0.265,0.354,0.617,0.354,0.971c0,0.264,0,0.573-0.044,1.014
		c-0.044,0.442-0.088,0.839-0.133,1.236c-0.044,0.397-0.132,0.75-0.265,1.015s-0.266,0.441-0.487,0.441H384.491z M364.046,126.85
		c0,0.397-0.132,0.706-0.442,0.927c-0.266,0.221-0.62,0.353-1.062,0.353c-0.266,0-0.664,0-1.151-0.044
		c-0.486-0.044-0.929-0.088-1.416-0.132c-0.442-0.045-0.84-0.177-1.195-0.309c-0.309-0.133-0.486-0.309-0.486-0.486V93.932
		c0-0.177,0.177-0.353,0.486-0.486c0.355-0.132,0.753-0.264,1.195-0.308c0.443-0.044,0.93-0.133,1.416-0.133
		c0.487-0.044,0.841-0.044,1.151-0.044c0.398,0,0.752,0.133,1.062,0.397c0.265,0.265,0.442,0.574,0.442,0.927V126.85z
		 M332.141,122.305c0.265,0.044,0.62,0.177,1.151,0.265c0.531,0.132,1.106,0.265,1.814,0.397c0.664,0.133,1.416,0.221,2.257,0.353
		c0.796,0.088,1.637,0.133,2.434,0.133c0.885,0,1.725-0.089,2.522-0.221c0.796-0.132,1.549-0.397,2.168-0.706
		c0.62-0.353,1.151-0.794,1.505-1.324c0.398-0.574,0.575-1.235,0.575-2.074c0-1.147-0.354-2.118-1.106-2.912
		c-0.753-0.794-1.682-1.545-2.788-2.251c-1.106-0.706-2.345-1.412-3.673-2.118s-2.522-1.544-3.673-2.471
		c-1.15-0.926-2.08-2.03-2.788-3.309c-0.752-1.28-1.106-2.824-1.106-4.678c0-1.544,0.265-2.868,0.841-3.927
		c0.575-1.059,1.327-1.941,2.301-2.647c0.973-0.662,2.168-1.192,3.496-1.501c1.371-0.309,2.876-0.485,4.513-0.485
		c0.354,0,0.885,0,1.593,0.044s1.461,0.088,2.257,0.176c0.797,0.089,1.593,0.177,2.346,0.309c0.796,0.133,1.416,0.309,1.858,0.53
		c0.443,0.176,0.708,0.397,0.797,0.618c0.088,0.22,0.088,0.573,0.044,1.103c-0.044,0.838-0.221,1.5-0.531,2.074
		c-0.266,0.573-0.664,0.794-1.195,0.706c-0.796-0.177-1.681-0.309-2.699-0.486c-1.018-0.132-2.169-0.22-3.408-0.22
		c-1.947,0-3.584,0.309-4.823,0.838c-1.239,0.574-1.859,1.5-1.859,2.824c0,1.059,0.355,1.942,1.107,2.692
		c0.752,0.75,1.681,1.456,2.788,2.118c1.106,0.662,2.345,1.368,3.672,2.074c1.328,0.706,2.523,1.544,3.673,2.515
		c1.107,0.971,2.08,2.118,2.788,3.442c0.752,1.324,1.106,3.001,1.106,4.898c0,1.809-0.354,3.31-1.017,4.457
		c-0.664,1.191-1.593,2.074-2.7,2.736c-1.106,0.662-2.434,1.103-3.894,1.368c-1.46,0.264-3.009,0.397-4.602,0.397
		c-0.708,0-1.505-0.044-2.301-0.088c-0.797-0.045-1.549-0.133-2.345-0.221c-0.753-0.088-1.461-0.221-2.169-0.353
		c-0.664-0.133-1.239-0.265-1.726-0.441c-0.486-0.177-0.752-0.353-0.84-0.53c-0.089-0.221-0.133-0.574-0.045-1.059
		c0.089-0.927,0.266-1.721,0.531-2.339C331.344,122.482,331.698,122.173,332.141,122.305 M313.953,98.477h-6.593v11.429h6.593
		c1.284,0,2.346-0.089,3.098-0.221c0.797-0.132,1.372-0.397,1.814-0.794c0.443-0.397,0.709-0.883,0.841-1.545
		c0.133-0.661,0.221-1.544,0.221-2.603v-1.059c0-1.059-0.088-1.942-0.221-2.648c-0.132-0.661-0.442-1.191-0.841-1.588
		c-0.442-0.397-1.017-0.618-1.814-0.795C316.255,98.565,315.237,98.477,313.953,98.477 M301.652,127.115V94.638
		c0-0.353,0.132-0.618,0.442-0.883c0.31-0.22,0.62-0.352,1.062-0.352h10.488c2.168,0,4.027,0.176,5.575,0.485
		c1.549,0.309,2.788,0.882,3.762,1.677c0.973,0.794,1.681,1.853,2.124,3.177c0.443,1.324,0.664,2.956,0.664,4.986v1.059
		c0,1.5-0.133,2.78-0.354,3.883c-0.222,1.103-0.62,2.074-1.107,2.869c-0.486,0.794-1.194,1.412-2.035,1.897
		s-1.859,0.838-3.009,1.103l6.593,11.385c0.354,0.617,0.531,1.059,0.531,1.368c0,0.176-0.088,0.353-0.221,0.485
		c-0.177,0.132-0.354,0.221-0.531,0.265c-0.177,0.044-0.398,0.088-0.575,0.132c-0.222,0-0.354,0.044-0.443,0.044
		c-0.265,0-0.664,0-1.106-0.044c-0.443-0.044-0.885-0.088-1.328-0.176c-0.442-0.089-0.885-0.177-1.239-0.353
		c-0.354-0.177-0.619-0.398-0.796-0.662l-6.992-11.914h-5.841v11.914c0,0.397-0.133,0.662-0.443,0.882
		c-0.265,0.221-0.619,0.353-1.018,0.353c-0.265,0-0.663,0-1.15-0.044c-0.487-0.044-0.929-0.088-1.416-0.132
		c-0.443-0.044-0.841-0.177-1.195-0.309C301.829,127.468,301.652,127.336,301.652,127.115 M273.773,126.586V94.638
		c0-0.397,0.133-0.706,0.443-0.927c0.265-0.22,0.619-0.308,1.062-0.308h19.072c0.354,0,0.664,0.132,0.885,0.441
		c0.221,0.265,0.354,0.617,0.354,0.971c0,0.264,0,0.573-0.044,1.014c-0.044,0.442-0.089,0.839-0.133,1.236
		c-0.044,0.397-0.177,0.75-0.265,1.015c-0.133,0.265-0.31,0.441-0.487,0.441h-15.134v9.178h12.966c0.309,0,0.575,0.133,0.84,0.397
		c0.222,0.265,0.354,0.574,0.354,0.927c0,0.265,0,0.574-0.044,1.015c-0.044,0.441-0.088,0.838-0.133,1.236
		c-0.044,0.397-0.177,0.75-0.265,1.059c-0.133,0.264-0.266,0.441-0.487,0.441h-13.275v9.708h14.824c0.354,0,0.664,0.132,0.885,0.397
		c0.221,0.265,0.354,0.574,0.354,0.971c0,0.264,0,0.573-0.044,1.015c-0.045,0.397-0.089,0.838-0.133,1.235
		c-0.044,0.397-0.177,0.75-0.266,1.059c-0.132,0.309-0.309,0.441-0.486,0.441h-18.675c-0.442,0-0.929-0.088-1.416-0.309
		C273.994,127.027,273.773,126.806,273.773,126.586 M256.338,118.466l7.169-24.578c0.442-0.442,0.973-0.706,1.548-0.839
		c0.576-0.088,1.239-0.176,2.036-0.176c0.31,0,0.664,0,0.974,0.044c0.353,0.044,0.619,0.088,0.84,0.221
		c0.222,0.132,0.399,0.265,0.531,0.485c0.133,0.221,0.089,0.486,0,0.883l-11.018,32.874c-0.045,0.265-0.222,0.441-0.487,0.574
		c-0.266,0.132-0.531,0.176-0.841,0.176c-1.062,0-1.947-0.044-2.655-0.176c-0.708-0.133-1.151-0.309-1.328-0.53l-10.974-32.918
		c-0.088-0.309-0.088-0.574,0-0.795c0.089-0.22,0.221-0.353,0.442-0.485c0.178-0.132,0.399-0.221,0.664-0.265
		c0.222-0.044,0.443-0.088,0.576-0.088c0.486,0,0.973,0,1.46,0.044s0.929,0.088,1.372,0.177c0.398,0.088,0.752,0.22,1.062,0.352
		c0.265,0.177,0.487,0.354,0.575,0.618l7.346,24.358c0.133,0.397,0.221,0.794,0.265,1.192c0.045,0.441,0.089,0.794,0.177,1.147
		c0.045-0.353,0.089-0.75,0.133-1.147C256.117,119.216,256.205,118.819,256.338,118.466 M237.929,126.85
		c0,0.397-0.133,0.706-0.442,0.927c-0.266,0.221-0.62,0.353-1.062,0.353c-0.266,0-0.664,0-1.151-0.044
		c-0.487-0.044-0.929-0.088-1.416-0.132c-0.442-0.045-0.841-0.177-1.195-0.309c-0.354-0.133-0.487-0.309-0.487-0.486V93.932
		c0-0.177,0.177-0.353,0.487-0.486c0.354-0.132,0.708-0.264,1.195-0.308c0.442-0.044,0.929-0.133,1.416-0.133
		c0.487-0.044,0.841-0.044,1.151-0.044c0.398,0,0.752,0.133,1.062,0.397c0.265,0.265,0.442,0.574,0.442,0.927V126.85z
		 M220.494,117.584V93.755c0-0.176,0.177-0.352,0.531-0.441c0.354-0.132,0.752-0.22,1.239-0.265c0.487-0.044,0.974-0.088,1.46-0.132
		c0.487-0.044,0.885-0.044,1.151-0.044c0.841,0,1.239,0.485,1.239,1.412v32.565c0,0.397-0.133,0.662-0.442,0.883
		c-0.31,0.221-0.62,0.353-0.974,0.353c-0.266,0-0.575,0-1.018-0.044c-0.442-0.044-0.841-0.044-1.283-0.133
		c-0.443-0.088-0.797-0.176-1.151-0.264c-0.354-0.133-0.575-0.265-0.708-0.442l-15.444-23.696v23.343
		c0,0.397-0.132,0.706-0.442,0.927c-0.266,0.221-0.62,0.353-1.018,0.353c-0.265,0-0.664,0-1.15-0.044
		c-0.487-0.044-0.974-0.088-1.417-0.132c-0.442-0.045-0.84-0.177-1.15-0.309c-0.354-0.133-0.487-0.309-0.487-0.486V93.932
		c0-0.177,0.177-0.353,0.487-0.485c0.354-0.133,0.708-0.265,1.15-0.309c0.443-0.044,0.886-0.089,1.372-0.133
		c0.487-0.044,0.841-0.044,1.151-0.044c0.354,0,0.664,0.088,0.885,0.309c0.221,0.221,0.442,0.441,0.575,0.706L220.494,117.584z
		 M187.571,115.466V94.02c0-0.176,0.177-0.353,0.486-0.485c0.355-0.132,0.753-0.265,1.195-0.353
		c0.487-0.088,0.974-0.177,1.416-0.221c0.487-0.044,0.841-0.088,1.151-0.088c0.398,0,0.752,0.132,1.018,0.441
		c0.265,0.309,0.398,0.618,0.398,0.971v21.446c0,2.338-0.266,4.28-0.797,5.868c-0.531,1.589-1.283,2.824-2.345,3.839
		c-1.062,0.971-2.389,1.677-3.983,2.074c-1.593,0.397-3.495,0.618-5.62,0.618h-0.398c-2.08,0-3.938-0.221-5.487-0.618
		c-1.593-0.397-2.876-1.103-3.938-2.074c-1.062-0.97-1.815-2.25-2.346-3.839c-0.531-1.544-0.796-3.53-0.796-5.868V94.02
		c0-0.176,0.177-0.353,0.486-0.485c0.355-0.132,0.708-0.265,1.195-0.353c0.443-0.088,0.93-0.177,1.416-0.221
		c0.487-0.044,0.885-0.088,1.151-0.088c0.398,0,0.708,0.132,1.018,0.441c0.265,0.309,0.442,0.618,0.442,0.971v21.137
		c0,1.367,0.089,2.515,0.31,3.486c0.221,0.97,0.575,1.765,1.106,2.338c0.531,0.618,1.239,1.059,2.124,1.324s1.992,0.441,3.319,0.441
		h0.398c1.372,0,2.479-0.132,3.408-0.441c0.885-0.309,1.637-0.75,2.168-1.324c0.531-0.618,0.93-1.368,1.151-2.338
		C187.482,117.981,187.571,116.834,187.571,115.466 M393.474,38.244v40.994h-11.329V16.622h15.798l15.179,38.567V16.622h11.505
		v62.616h-14.426L393.474,38.244z M360.949,16.622h12.745v62.615h-12.745V16.622z M312.051,16.622h13.098v27.226l16.329-27.226
		h13.674l-18.143,28.815l18.143,33.845h-15.179l-14.824-30.447v30.447h-13.098V16.622z M290.721,65.338H272.49l-3.319,13.944
		h-13.143l17.701-62.66h16.727l17.435,62.66h-13.762L290.721,65.338z M288.11,54.439l-6.283-25.903l-6.594,25.903H288.11z
		 M217.928,16.622h33.94v10.635h-20.665v13.37h19.028v10.899h-19.028v16.68h20.71v11.032h-33.985V16.622z M189.12,16.622
		c16.771,0,21.948,8.87,21.948,31.33c0,22.461-5.221,31.33-21.993,31.33h-21.506v-62.66H189.12z M180.756,68.471h5.974
		c9.78,0,11.019-5.736,11.019-20.74c0-14.958-1.239-20.695-11.019-20.695h-5.974V68.471z"/>
	<path style="clip-path:url(#SVGID_00000116947033336236436880000012208870608003537305_);fill:#FFFFFF;" d="M71.713,1.288
		C32.549,1.288,0.799,32.947,0.799,72s31.749,70.712,70.913,70.712S142.625,111.053,142.625,72S110.877,1.288,71.713,1.288"/>
	<path style="clip-path:url(#SVGID_00000116947033336236436880000012208870608003537305_);fill:#FFFFFF;" d="M71.713,2.968
		c38.175,0,69.233,30.968,69.233,69.032s-31.058,69.032-69.233,69.032S2.479,110.064,2.479,72S33.538,2.968,71.713,2.968"/>
	<path style="clip-path:url(#SVGID_00000116947033336236436880000012208870608003537305_);" d="M95.076,94.204L68.262,47.816
		l3.533-5.928l30.099,52.316H95.076z M82.396,94.204L61.86,58.843l3.45-5.804l23.655,41.165H82.396z M69.509,94.204L55.416,69.953
		l3.575-6.011l17.336,30.22h-6.818V94.204z M56.539,94.204l-7.567-13.1l3.576-6.011l10.933,19.111H56.539z M41.365,94.204
		l4.614-7.877l4.615,7.877H41.365z M35.503,36.416V85.83c0,19.94,16.213,36.107,36.209,36.107c19.997,0,36.21-16.167,36.21-36.107
		V36.416H35.503z"/>
</g>
<rect x="471.959" y="16.622" style="fill:#FFFFFF;" width="2" height="110.978"/>
<g>
	<defs>
		<rect id="SVGID_00000074443587952823910820000001595691746014952337_" width="1000" height="144"/>
	</defs>
	<clipPath id="SVGID_00000175295501563927426790000011267897498736346753_">
		<use xlink:href="#SVGID_00000074443587952823910820000001595691746014952337_"  style="overflow:visible;"/>
	</clipPath>
	<path style="clip-path:url(#SVGID_00000175295501563927426790000011267897498736346753_);fill:#FFFFFF;" d="M712.111,125.839
		c1.852-1.579,2.778-3.946,2.778-7.102c0-2.06-0.4-3.687-1.2-4.88c-0.8-1.192-2.09-2.345-3.868-3.456l-6.646-4.246
		c-0.726-0.459-1.256-0.985-1.589-1.578c-0.334-0.592-0.501-1.23-0.501-1.911c0-1.112,0.3-1.997,0.901-2.657
		c0.6-0.659,1.411-0.989,2.434-0.989c2.208,0,3.312,1.423,3.312,4.268v0.778h6.735v-1.134c0-3.171-0.812-5.42-2.434-6.746
		c-1.623-1.326-3.983-1.989-7.08-1.989c-3.467,0-6.146,0.759-8.035,2.278c-1.89,1.519-2.835,3.671-2.835,6.457
		c0,2.06,0.386,3.761,1.156,5.102c0.771,1.341,2.445,2.812,5.024,4.412l5.446,3.334c0.741,0.46,1.3,0.993,1.678,1.601
		c0.378,0.607,0.567,1.348,0.567,2.222c0,1.156-0.315,2.049-0.945,2.679c-0.63,0.63-1.53,0.945-2.7,0.945
		c-1.379,0-2.342-0.408-2.89-1.223c-0.549-0.815-0.823-2.045-0.823-3.69v-0.867h-6.979v2.045c0,2.89,0.844,5.065,2.534,6.524
		c1.689,1.46,4.171,2.19,7.446,2.19C707.42,128.206,710.258,127.417,712.111,125.839 M672.178,94.73v32.876h18.294v-5.135h-11.425
		v-9.514h10.202v-5.068h-10.202v-8.091h11.069V94.73H672.178z M660.436,127.606h6.869V94.73h-6.869V127.606z M642.64,99.798h1.467
		c2.089,0,3.452,0.333,4.09,1c0.637,0.667,0.956,1.816,0.956,3.446c0,1.645-0.323,2.838-0.967,3.578
		c-0.645,0.742-1.96,1.112-3.946,1.112h-1.6V99.798z M635.727,94.73v32.876h6.913v-13.604h1.333c2.06,0,3.46,0.352,4.202,1.056
		c0.74,0.704,1.111,2.004,1.111,3.901v5.046c0,0.889,0.052,1.545,0.156,1.967c0.103,0.422,0.296,0.967,0.578,1.634h6.735
		c-0.149-0.445-0.256-1.03-0.323-1.756c-0.066-0.726-0.122-1.49-0.166-2.29l-0.334-5.646c-0.133-2.119-0.604-3.653-1.411-4.601
		c-0.808-0.948-2.294-1.571-4.457-1.867c2.03-0.385,3.531-1.23,4.501-2.534c0.971-1.304,1.456-3.127,1.456-5.469
		c0-2.963-0.726-5.156-2.178-6.579c-1.453-1.423-3.683-2.134-6.691-2.134H635.727z M615.591,108.934
		c0-3.897,0.311-6.561,0.934-7.991c0.622-1.43,1.77-2.145,3.445-2.145c1.704,0,2.864,0.67,3.479,2.011
		c0.615,1.342,0.922,3.509,0.922,6.502v3.134c0,2.164-0.041,4.268-0.122,6.313c-0.082,2.045-0.422,3.65-1.023,4.813
		c-0.6,1.163-1.7,1.745-3.3,1.745c-1.142,0-2.02-0.341-2.634-1.023c-0.616-0.681-1.053-1.734-1.312-3.156
		c-0.259-1.423-0.389-3.898-0.389-7.425V108.934z M619.814,128.206c2.075,0,3.809-0.245,5.202-0.734
		c1.393-0.489,2.515-1.181,3.367-2.078c0.852-0.896,1.493-2.004,1.923-3.323s0.719-2.734,0.867-4.246
		c0.148-1.511,0.222-3.808,0.222-6.891c0-3.437-0.111-6.035-0.333-7.791c-0.222-1.756-0.686-3.341-1.389-4.756
		c-0.704-1.415-1.838-2.523-3.401-3.324c-1.564-0.8-3.679-1.2-6.346-1.2c-2.683,0-4.865,0.519-6.547,1.556
		c-1.682,1.038-2.9,2.675-3.656,4.913c-0.756,2.237-1.134,5.712-1.134,10.425c0,4.001,0.189,6.939,0.567,8.813
		c0.378,1.875,0.952,3.427,1.723,4.657c0.77,1.23,1.885,2.201,3.345,2.912C615.683,127.85,617.547,128.206,619.814,128.206
		 M584.06,94.73v5.335h7.558v27.541h6.98v-27.541h7.646V94.73H584.06z M578.969,125.839c1.852-1.579,2.778-3.946,2.778-7.102
		c0-2.06-0.4-3.687-1.2-4.88c-0.8-1.192-2.089-2.345-3.868-3.456l-6.646-4.246c-0.726-0.459-1.256-0.985-1.589-1.578
		c-0.334-0.592-0.5-1.23-0.5-1.911c0-1.112,0.3-1.997,0.9-2.657c0.6-0.659,1.411-0.989,2.434-0.989c2.208,0,3.312,1.423,3.312,4.268
		v0.778h6.735v-1.134c0-3.171-0.811-5.42-2.434-6.746c-1.623-1.326-3.983-1.989-7.08-1.989c-3.467,0-6.146,0.759-8.035,2.278
		c-1.889,1.519-2.834,3.671-2.834,6.457c0,2.06,0.385,3.761,1.156,5.102c0.77,1.341,2.445,2.812,5.023,4.412l5.446,3.334
		c0.741,0.46,1.301,0.993,1.678,1.601c0.378,0.607,0.567,1.348,0.567,2.222c0,1.156-0.315,2.049-0.944,2.679
		c-0.63,0.63-1.531,0.945-2.701,0.945c-1.378,0-2.342-0.408-2.89-1.223c-0.548-0.815-0.822-2.045-0.822-3.69v-0.867h-6.98v2.045
		c0,2.89,0.845,5.065,2.534,6.524c1.689,1.46,4.171,2.19,7.446,2.19C574.279,128.206,577.116,127.417,578.969,125.839
		 M549.674,127.606h6.869V94.73h-6.869V127.606z M523.09,94.73v32.876h6.935v-14.471h7.78v14.471h6.913V94.73h-6.913v13.026h-7.78
		V94.73H523.09z"/>
	<path style="clip-path:url(#SVGID_00000175295501563927426790000011267897498736346753_);fill:#FFFFFF;" d="M813.22,51.43
		l8.558,20.805v12.07h6.98v-12.07l9.136-20.805h-7.002l-5.246,13.892l-4.913-13.892H813.22z M798.199,56.498h1.467
		c2.089,0,3.452,0.333,4.09,1c0.637,0.667,0.956,1.815,0.956,3.445c0,1.645-0.323,2.838-0.967,3.579
		c-0.645,0.741-1.96,1.112-3.946,1.112h-1.6V56.498z M791.286,51.43v32.875h6.913V70.702h1.333c2.06,0,3.46,0.352,4.202,1.055
		c0.74,0.704,1.111,2.005,1.111,3.902v5.045c0,0.889,0.052,1.545,0.156,1.968c0.103,0.422,0.296,0.966,0.577,1.633h6.736
		c-0.149-0.444-0.256-1.029-0.323-1.756c-0.066-0.726-0.122-1.489-0.166-2.289l-0.334-5.646c-0.133-2.119-0.604-3.653-1.411-4.601
		c-0.808-0.949-2.294-1.571-4.457-1.868c2.03-0.385,3.53-1.23,4.501-2.534c0.971-1.304,1.456-3.126,1.456-5.468
		c0-2.964-0.726-5.157-2.178-6.579c-1.453-1.423-3.683-2.134-6.691-2.134H791.286z M774.39,57.765l3.423,14.293h-6.646
		L774.39,57.765z M770.3,51.43l-9.114,32.875h6.802l1.867-7.291h9.358l1.823,7.291h7.246l-8.913-32.875H770.3z M744.631,56.498
		h1.468c2.089,0,3.452,0.333,4.09,1c0.637,0.667,0.955,1.815,0.955,3.445c0,1.645-0.322,2.838-0.967,3.579
		c-0.644,0.741-1.959,1.112-3.945,1.112h-1.601V56.498z M737.718,51.43v32.875h6.913V70.702h1.334c2.06,0,3.46,0.352,4.201,1.055
		c0.741,0.704,1.112,2.005,1.112,3.902v5.045c0,0.889,0.051,1.545,0.155,1.968c0.104,0.422,0.297,0.966,0.578,1.633h6.735
		c-0.148-0.444-0.255-1.029-0.322-1.756c-0.067-0.726-0.122-1.489-0.167-2.289l-0.333-5.646c-0.133-2.119-0.604-3.653-1.411-4.601
		c-0.808-0.949-2.294-1.571-4.457-1.868c2.03-0.385,3.53-1.23,4.501-2.534c0.97-1.304,1.456-3.126,1.456-5.468
		c0-2.964-0.726-5.157-2.178-6.579c-1.453-1.423-3.683-2.134-6.691-2.134H737.718z M717.583,65.634c0-3.898,0.311-6.561,0.933-7.992
		c0.623-1.429,1.771-2.145,3.446-2.145c1.704,0,2.863,0.671,3.478,2.012c0.615,1.341,0.923,3.509,0.923,6.502v3.134
		c0,2.164-0.041,4.268-0.122,6.313c-0.082,2.045-0.423,3.649-1.023,4.812c-0.6,1.164-1.7,1.745-3.301,1.745
		c-1.141,0-2.019-0.34-2.634-1.022c-0.615-0.682-1.052-1.734-1.311-3.157c-0.26-1.422-0.389-3.897-0.389-7.424V65.634z
		 M721.806,84.905c2.075,0,3.808-0.244,5.202-0.733c1.392-0.489,2.515-1.182,3.367-2.078c0.852-0.897,1.493-2.004,1.923-3.324
		c0.43-1.318,0.718-2.734,0.867-4.245c0.148-1.512,0.222-3.808,0.222-6.891c0-3.438-0.111-6.035-0.333-7.791
		c-0.223-1.756-0.686-3.341-1.39-4.757c-0.704-1.415-1.837-2.523-3.401-3.323c-1.563-0.8-3.678-1.2-6.346-1.2
		c-2.682,0-4.864,0.519-6.546,1.556c-1.682,1.037-2.901,2.675-3.657,4.912c-0.755,2.238-1.133,5.713-1.133,10.425
		c0,4.001,0.189,6.939,0.567,8.814s0.952,3.427,1.722,4.657c0.771,1.23,1.886,2.2,3.346,2.912
		C717.675,84.55,719.539,84.905,721.806,84.905 M693.104,65.878v-9.38h2.245c2.001,0,3.334,0.381,4.001,1.144
		c0.667,0.764,1,1.945,1,3.546c0,1.645-0.377,2.838-1.133,3.579c-0.756,0.741-1.867,1.111-3.334,1.111H693.104z M686.191,51.43
		v32.875h6.913V70.924h4.69c3.29,0,5.698-0.782,7.224-2.345c1.526-1.563,2.29-3.983,2.29-7.258c0-3.482-0.76-6.001-2.279-7.557
		s-3.945-2.334-7.279-2.334H686.191z M648.988,51.43v32.875h6.513V58.943l6.091,25.362h6.557l6.424-25.362v25.362h6.691V51.43
		h-10.692l-5.512,22.361l-5.202-22.361H648.988z M627.125,51.43v32.875h18.294v-5.134h-11.426v-9.514h10.203v-5.068h-10.203v-8.091
		h11.07V51.43H627.125z M601.881,51.43v5.334h7.557v27.541h6.98V56.764h7.647V51.43H601.881z M574.37,51.43v32.875h6.38V60.277
		l9.002,24.028h9.025V51.43h-6.379v22.761l-8.781-22.761H574.37z M554.113,65.634c0-3.898,0.311-6.561,0.933-7.992
		c0.623-1.429,1.771-2.145,3.446-2.145c1.703,0,2.863,0.671,3.478,2.012c0.615,1.341,0.923,3.509,0.923,6.502v3.134
		c0,2.164-0.041,4.268-0.123,6.313c-0.081,2.045-0.422,3.649-1.022,4.812c-0.6,1.164-1.701,1.745-3.301,1.745
		c-1.141,0-2.019-0.34-2.634-1.022s-1.052-1.734-1.311-3.157c-0.26-1.422-0.389-3.897-0.389-7.424V65.634z M558.336,84.905
		c2.074,0,3.808-0.244,5.201-0.733s2.516-1.182,3.368-2.078c0.852-0.897,1.493-2.004,1.923-3.324
		c0.429-1.318,0.718-2.734,0.867-4.245c0.148-1.512,0.222-3.808,0.222-6.891c0-3.438-0.111-6.035-0.334-7.791
		c-0.222-1.756-0.685-3.341-1.389-4.757c-0.704-1.415-1.837-2.523-3.401-3.323c-1.563-0.8-3.679-1.2-6.346-1.2
		c-2.682,0-4.864,0.519-6.546,1.556c-1.682,1.037-2.901,2.675-3.657,4.912c-0.755,2.238-1.133,5.713-1.133,10.425
		c0,4.001,0.189,6.939,0.566,8.814c0.378,1.875,0.952,3.427,1.723,4.657c0.77,1.23,1.886,2.2,3.345,2.912
		C554.205,84.55,556.069,84.905,558.336,84.905 M543.362,60.81c0-3.393-0.811-5.887-2.434-7.48
		c-1.623-1.593-3.998-2.389-7.124-2.389c-2.668,0-4.79,0.441-6.369,1.322c-1.578,0.882-2.704,2.071-3.378,3.568
		c-0.675,1.497-1.108,3.119-1.301,4.868c-0.192,1.749-0.289,4.157-0.289,7.224c0,3.898,0.182,6.743,0.545,8.536
		c0.363,1.793,0.919,3.267,1.667,4.423c0.748,1.156,1.834,2.075,3.257,2.756c1.422,0.682,3.267,1.023,5.534,1.023
		c3.483,0,6.061-0.874,7.736-2.623c1.674-1.748,2.512-4.364,2.512-7.847v-0.955h-6.78v0.378c0,2.119-0.3,3.664-0.9,4.634
		c-0.6,0.971-1.486,1.456-2.656,1.456c-1.394,0-2.387-0.633-2.979-1.9c-0.593-1.267-0.919-2.868-0.978-4.802
		c-0.06-1.934-0.089-3.478-0.089-4.634c0-3.438,0.089-5.891,0.267-7.358c0.178-1.467,0.544-2.678,1.1-3.634
		c0.556-0.956,1.434-1.434,2.634-1.434c1.052,0,1.863,0.411,2.434,1.234c0.57,0.822,0.856,2.16,0.856,4.012v0.622h6.735V60.81z"/>
	<path style="clip-path:url(#SVGID_00000175295501563927426790000011267897498736346753_);fill:#FFFFFF;" d="M794.901,19.201
		c0.575,0.111,1.018,0.313,1.331,0.605c0.312,0.292,0.529,0.695,0.65,1.209c0.121,0.514,0.181,1.175,0.181,1.981v0.514
		c0,0.806-0.06,1.466-0.181,1.98c-0.121,0.514-0.338,0.912-0.65,1.195c-0.313,0.282-0.756,0.479-1.331,0.589
		c-0.574,0.111-1.315,0.166-2.222,0.166h-4.656v-8.405h4.656C793.587,19.035,794.328,19.09,794.901,19.201 M785.529,38.447
		c0.151,0.06,0.333,0.115,0.544,0.166c0.212,0.05,0.428,0.086,0.65,0.106c0.222,0.02,0.413,0.03,0.575,0.03
		c0.221,0,0.398-0.075,0.529-0.227c0.131-0.151,0.197-0.337,0.197-0.559v-8.104h4.535l4.596,8.074
		c0.08,0.161,0.212,0.297,0.393,0.408c0.182,0.11,0.378,0.196,0.59,0.257c0.211,0.06,0.428,0.101,0.65,0.121
		c0.222,0.02,0.413,0.03,0.574,0.03c0.141,0,0.318-0.03,0.53-0.091c0.211-0.06,0.317-0.191,0.317-0.393
		c0-0.201-0.091-0.443-0.272-0.725l-4.475-7.953c0.846-0.121,1.547-0.332,2.101-0.635c0.555-0.302,1.003-0.695,1.346-1.179
		c0.342-0.484,0.584-1.078,0.726-1.784c0.14-0.705,0.211-1.532,0.211-2.479v-0.514c0-1.21-0.121-2.223-0.363-3.039
		c-0.242-0.817-0.645-1.471-1.209-1.966c-0.565-0.493-1.315-0.846-2.253-1.058c-0.937-0.212-2.091-0.317-3.462-0.317h-6.501
		c-0.222,0-0.403,0.075-0.544,0.226c-0.141,0.152-0.212,0.338-0.212,0.56v20.803C785.302,38.306,785.378,38.386,785.529,38.447
		 M766.903,21.756c0.192-0.746,0.514-1.346,0.968-1.799c0.453-0.454,1.048-0.776,1.784-0.968c0.735-0.191,1.648-0.287,2.736-0.287
		h0.242c1.089,0,1.996,0.096,2.721,0.287c0.726,0.192,1.316,0.514,1.769,0.968c0.454,0.453,0.776,1.053,0.968,1.799
		c0.191,0.746,0.287,1.673,0.287,2.782v5.956c0,1.109-0.096,2.037-0.287,2.782c-0.192,0.746-0.514,1.346-0.968,1.799
		c-0.453,0.454-1.043,0.777-1.769,0.968c-0.725,0.192-1.632,0.287-2.721,0.287h-0.242c-1.088,0-2.001-0.095-2.736-0.287
		c-0.736-0.191-1.331-0.514-1.784-0.968c-0.454-0.453-0.776-1.053-0.968-1.799c-0.192-0.745-0.287-1.673-0.287-2.782v-5.956
		C766.616,23.429,766.711,22.502,766.903,21.756 M776.383,38.341c1.068-0.272,1.955-0.726,2.66-1.361
		c0.706-0.635,1.235-1.471,1.588-2.509c0.352-1.038,0.529-2.323,0.529-3.856v-6.198c0-1.532-0.177-2.817-0.529-3.855
		c-0.353-1.038-0.882-1.875-1.588-2.51c-0.705-0.635-1.592-1.089-2.66-1.361c-1.069-0.272-2.319-0.408-3.75-0.408h-0.242
		c-1.451,0-2.711,0.136-3.779,0.408c-1.069,0.272-1.956,0.726-2.661,1.361c-0.706,0.635-1.235,1.472-1.588,2.51
		c-0.353,1.038-0.529,2.323-0.529,3.855v6.198c0,1.533,0.176,2.818,0.529,3.856c0.353,1.038,0.882,1.874,1.588,2.509
		c0.705,0.635,1.592,1.089,2.661,1.361c1.068,0.272,2.328,0.408,3.779,0.408h0.242C774.064,38.749,775.314,38.613,776.383,38.341
		 M759.471,28.529c0.081,0,0.151-0.06,0.212-0.181c0.06-0.121,0.11-0.273,0.151-0.454c0.04-0.181,0.07-0.368,0.091-0.559
		c0.02-0.192,0.03-0.368,0.03-0.53c0-0.221-0.071-0.393-0.212-0.514c-0.141-0.121-0.302-0.181-0.483-0.181h-8.346v-7.045h9.918
		c0.08,0,0.151-0.061,0.212-0.182c0.06-0.121,0.11-0.272,0.151-0.453c0.04-0.182,0.07-0.373,0.09-0.575
		c0.02-0.201,0.031-0.382,0.031-0.544c0-0.222-0.071-0.388-0.212-0.499c-0.141-0.11-0.302-0.166-0.484-0.166h-11.429
		c-0.666,0-0.998,0.211-0.998,0.635v20.924c0,0.081,0.07,0.156,0.211,0.227c0.141,0.07,0.318,0.125,0.53,0.166
		c0.211,0.04,0.433,0.076,0.665,0.106c0.231,0.03,0.428,0.045,0.589,0.045c0.222,0,0.398-0.086,0.53-0.257
		c0.131-0.171,0.196-0.367,0.196-0.59v-9.373H759.471z M724.427,38.235c0.282,0.101,0.554,0.151,0.816,0.151h11.4
		c0.08,0,0.151-0.06,0.211-0.181c0.061-0.121,0.111-0.272,0.152-0.454c0.04-0.181,0.07-0.372,0.09-0.574
		c0.02-0.201,0.031-0.383,0.031-0.544c0-0.202-0.071-0.363-0.212-0.484c-0.141-0.121-0.302-0.182-0.484-0.182h-9.706v-7.438h8.98
		c0.081,0,0.152-0.06,0.212-0.181c0.061-0.121,0.116-0.273,0.166-0.454c0.051-0.181,0.086-0.373,0.106-0.575
		c0.02-0.201,0.03-0.372,0.03-0.514c0-0.221-0.07-0.393-0.211-0.514c-0.141-0.121-0.313-0.181-0.514-0.181h-8.769v-7.045h9.918
		c0.08,0,0.151-0.061,0.211-0.182c0.061-0.121,0.111-0.272,0.152-0.453c0.04-0.182,0.07-0.373,0.09-0.575
		c0.02-0.201,0.031-0.382,0.031-0.544c0-0.222-0.071-0.388-0.212-0.499c-0.141-0.11-0.302-0.166-0.484-0.166h-11.702
		c-0.483,0-0.725,0.262-0.725,0.786v20.41C724.004,38.004,724.145,38.134,724.427,38.235 M714.953,19.201
		c0.575,0.111,1.018,0.313,1.331,0.605c0.312,0.292,0.529,0.695,0.65,1.209c0.121,0.514,0.181,1.175,0.181,1.981v0.514
		c0,0.806-0.06,1.466-0.181,1.98c-0.121,0.514-0.338,0.912-0.65,1.195c-0.313,0.282-0.756,0.479-1.331,0.589
		c-0.574,0.111-1.315,0.166-2.222,0.166h-4.657v-8.405h4.657C713.639,19.035,714.38,19.09,714.953,19.201 M705.581,38.447
		c0.151,0.06,0.332,0.115,0.544,0.166c0.212,0.05,0.428,0.086,0.65,0.106c0.222,0.02,0.413,0.03,0.575,0.03
		c0.221,0,0.397-0.075,0.529-0.227c0.131-0.151,0.196-0.337,0.196-0.559v-8.104h4.536l4.596,8.074
		c0.08,0.161,0.212,0.297,0.393,0.408c0.181,0.11,0.378,0.196,0.59,0.257c0.211,0.06,0.428,0.101,0.65,0.121
		c0.221,0.02,0.413,0.03,0.574,0.03c0.141,0,0.318-0.03,0.529-0.091c0.212-0.06,0.318-0.191,0.318-0.393
		c0-0.201-0.091-0.443-0.272-0.725l-4.475-7.953c0.846-0.121,1.546-0.332,2.101-0.635c0.554-0.302,1.003-0.695,1.346-1.179
		c0.342-0.484,0.584-1.078,0.725-1.784c0.141-0.705,0.212-1.532,0.212-2.479v-0.514c0-1.21-0.121-2.223-0.363-3.039
		c-0.242-0.817-0.645-1.471-1.209-1.966c-0.565-0.493-1.316-0.846-2.253-1.058s-2.092-0.317-3.462-0.317h-6.501
		c-0.222,0-0.404,0.075-0.544,0.226c-0.142,0.152-0.212,0.338-0.212,0.56v20.803C705.354,38.306,705.43,38.386,705.581,38.447
		 M701.596,19.065c0.08,0,0.151-0.061,0.211-0.182c0.061-0.121,0.116-0.272,0.167-0.453c0.05-0.182,0.085-0.373,0.106-0.575
		c0.019-0.201,0.03-0.382,0.03-0.544c0-0.201-0.076-0.363-0.227-0.484s-0.328-0.181-0.529-0.181h-14.665
		c-0.101,0-0.181,0.065-0.242,0.196c-0.06,0.132-0.111,0.288-0.151,0.469c-0.041,0.181-0.071,0.373-0.091,0.575
		c-0.02,0.201-0.03,0.373-0.03,0.514c0,0.201,0.07,0.362,0.212,0.483c0.14,0.121,0.322,0.182,0.544,0.182h5.836v19.17
		c0,0.101,0.07,0.181,0.211,0.242c0.141,0.06,0.318,0.111,0.529,0.151c0.212,0.04,0.434,0.071,0.666,0.091
		c0.231,0.02,0.428,0.03,0.589,0.03c0.222,0,0.398-0.081,0.529-0.242c0.131-0.161,0.197-0.352,0.197-0.574V19.065H701.596z
		 M669.4,16.797c-0.102-0.141-0.212-0.262-0.333-0.363c-0.121-0.1-0.262-0.151-0.423-0.151c-0.182,0-0.378,0.01-0.59,0.03
		c-0.212,0.021-0.419,0.056-0.62,0.106c-0.202,0.051-0.368,0.111-0.499,0.181c-0.131,0.071-0.196,0.147-0.196,0.227v21.408
		c0,0.101,0.07,0.181,0.211,0.242c0.141,0.06,0.313,0.111,0.514,0.151c0.202,0.04,0.413,0.071,0.635,0.091
		c0.222,0.02,0.413,0.03,0.575,0.03c0.221,0,0.398-0.081,0.529-0.242c0.131-0.161,0.197-0.352,0.197-0.574v-16.54l10.855,16.872
		c0.06,0.081,0.166,0.151,0.317,0.212c0.151,0.06,0.328,0.111,0.529,0.151c0.202,0.04,0.403,0.071,0.605,0.091
		c0.201,0.02,0.373,0.03,0.514,0.03c0.201,0,0.368-0.075,0.499-0.227c0.131-0.151,0.197-0.337,0.197-0.559V17.13
		c0-0.242-0.046-0.444-0.137-0.605c-0.09-0.161-0.247-0.242-0.468-0.242c-0.182,0-0.393,0.01-0.635,0.03
		c-0.242,0.021-0.469,0.051-0.681,0.091c-0.211,0.041-0.388,0.091-0.529,0.151c-0.141,0.061-0.211,0.131-0.211,0.212V33.7
		L669.4,16.797z M650.135,38.235c0.282,0.101,0.554,0.151,0.816,0.151h11.399c0.081,0,0.152-0.06,0.212-0.181
		c0.061-0.121,0.111-0.272,0.151-0.454c0.04-0.181,0.071-0.372,0.091-0.574c0.02-0.201,0.03-0.383,0.03-0.544
		c0-0.202-0.071-0.363-0.211-0.484c-0.142-0.121-0.303-0.182-0.484-0.182h-9.706v-7.438h8.98c0.08,0,0.151-0.06,0.212-0.181
		c0.06-0.121,0.116-0.273,0.166-0.454c0.05-0.181,0.086-0.373,0.106-0.575c0.02-0.201,0.03-0.372,0.03-0.514
		c0-0.221-0.071-0.393-0.212-0.514c-0.141-0.121-0.312-0.181-0.514-0.181h-8.768v-7.045h9.917c0.081,0,0.152-0.061,0.212-0.182
		c0.061-0.121,0.111-0.272,0.151-0.453c0.04-0.182,0.071-0.373,0.091-0.575c0.02-0.201,0.03-0.382,0.03-0.544
		c0-0.222-0.071-0.388-0.211-0.499c-0.142-0.11-0.303-0.166-0.484-0.166h-11.702c-0.484,0-0.726,0.262-0.726,0.786v20.41
		C649.712,38.004,649.853,38.134,650.135,38.235 M635.568,21.877c0.181-0.786,0.488-1.421,0.922-1.905
		c0.433-0.484,1.018-0.836,1.754-1.058c0.735-0.222,1.658-0.333,2.766-0.333h0.242c0.464,0,0.917,0.02,1.361,0.06
		c0.443,0.041,0.851,0.086,1.225,0.137c0.372,0.05,0.7,0.095,0.982,0.136c0.282,0.04,0.494,0.07,0.635,0.09
		c0.182,0.021,0.313-0.161,0.393-0.544c0.081-0.383,0.121-0.796,0.121-1.24c0-0.14-0.176-0.272-0.529-0.393
		c-0.353-0.121-0.786-0.221-1.3-0.302c-0.514-0.08-1.054-0.141-1.618-0.182c-0.564-0.04-1.068-0.06-1.512-0.06h-0.241
		c-1.391,0-2.606,0.136-3.644,0.408c-1.038,0.272-1.895,0.726-2.57,1.361c-0.676,0.635-1.185,1.472-1.527,2.51
		c-0.343,1.038-0.514,2.323-0.514,3.855v6.198c0,1.533,0.166,2.818,0.499,3.856c0.332,1.038,0.836,1.874,1.512,2.509
		c0.675,0.635,1.521,1.089,2.54,1.361c1.017,0.272,2.212,0.408,3.583,0.408h0.242c0.503,0,1.047-0.02,1.632-0.06
		c0.585-0.041,1.129-0.101,1.633-0.182c0.504-0.081,0.927-0.176,1.27-0.287c0.343-0.111,0.514-0.247,0.514-0.408
		c0-0.182-0.01-0.378-0.03-0.59c-0.02-0.212-0.056-0.413-0.106-0.605c-0.05-0.191-0.116-0.347-0.196-0.468
		c-0.081-0.121-0.182-0.171-0.303-0.151c-0.262,0.04-0.771,0.126-1.527,0.257c-0.756,0.131-1.638,0.196-2.646,0.196h-0.241
		c-1.089,0-1.991-0.11-2.707-0.333c-0.715-0.221-1.29-0.574-1.723-1.058c-0.434-0.484-0.736-1.119-0.907-1.905
		c-0.172-0.786-0.257-1.754-0.257-2.903V24.78C635.296,23.631,635.385,22.663,635.568,21.877 M607.66,16.797
		c-0.101-0.141-0.212-0.262-0.333-0.363c-0.121-0.1-0.262-0.151-0.423-0.151c-0.182,0-0.378,0.01-0.59,0.03
		c-0.212,0.021-0.419,0.056-0.62,0.106c-0.202,0.051-0.368,0.111-0.499,0.181c-0.131,0.071-0.196,0.147-0.196,0.227v21.408
		c0,0.101,0.07,0.181,0.211,0.242c0.141,0.06,0.313,0.111,0.514,0.151c0.202,0.04,0.413,0.071,0.635,0.091
		c0.222,0.02,0.413,0.03,0.575,0.03c0.222,0,0.398-0.081,0.529-0.242c0.131-0.161,0.197-0.352,0.197-0.574v-16.54l10.855,16.872
		c0.06,0.081,0.166,0.151,0.317,0.212c0.151,0.06,0.328,0.111,0.529,0.151c0.202,0.04,0.403,0.071,0.605,0.091
		c0.201,0.02,0.373,0.03,0.514,0.03c0.201,0,0.368-0.075,0.499-0.227c0.131-0.151,0.197-0.337,0.197-0.559V17.13
		c0-0.242-0.046-0.444-0.137-0.605c-0.09-0.161-0.247-0.242-0.468-0.242c-0.182,0-0.393,0.01-0.635,0.03
		c-0.242,0.021-0.469,0.051-0.681,0.091c-0.211,0.041-0.388,0.091-0.529,0.151c-0.141,0.061-0.211,0.131-0.211,0.212V33.7
		L607.66,16.797z M600.509,17.099c0-0.221-0.066-0.413-0.197-0.574c-0.131-0.161-0.307-0.242-0.529-0.242
		c-0.181,0-0.383,0.01-0.605,0.03c-0.222,0.021-0.438,0.056-0.65,0.106c-0.211,0.051-0.388,0.111-0.529,0.181
		c-0.141,0.071-0.211,0.147-0.211,0.227v21.408c0,0.101,0.07,0.181,0.211,0.242c0.141,0.06,0.318,0.111,0.529,0.151
		c0.212,0.04,0.428,0.071,0.65,0.091c0.222,0.02,0.424,0.03,0.605,0.03c0.222,0,0.398-0.081,0.529-0.242
		c0.131-0.161,0.197-0.352,0.197-0.574V17.099z M581.351,27.35l10.069,10.855c0.221,0.242,0.534,0.393,0.937,0.453
		c0.403,0.061,0.836,0.091,1.3,0.091c0.141,0,0.303-0.02,0.484-0.06c0.181-0.041,0.272-0.162,0.272-0.363
		c0-0.222-0.161-0.504-0.484-0.847l-9.706-10.432l8.86-9.494c0.342-0.363,0.514-0.645,0.514-0.847c0-0.201-0.091-0.322-0.272-0.363
		c-0.182-0.04-0.353-0.06-0.514-0.06c-0.444,0-0.873,0.03-1.285,0.091c-0.414,0.06-0.731,0.211-0.953,0.453l-9.222,9.948v-9.676
		c0-0.221-0.066-0.413-0.197-0.574c-0.131-0.161-0.307-0.242-0.529-0.242c-0.181,0-0.383,0.01-0.605,0.03
		c-0.222,0.021-0.438,0.056-0.65,0.106c-0.211,0.051-0.388,0.111-0.529,0.181c-0.141,0.071-0.212,0.147-0.212,0.227v21.408
		c0,0.101,0.071,0.181,0.212,0.242c0.141,0.06,0.318,0.111,0.529,0.151c0.212,0.04,0.428,0.071,0.65,0.091
		c0.222,0.02,0.424,0.03,0.605,0.03c0.222,0,0.398-0.081,0.529-0.242c0.131-0.161,0.197-0.352,0.197-0.574V27.35z M566.411,20.304
		c0.02-0.201,0.05-0.382,0.091-0.544c0,0.101,0.025,0.283,0.075,0.544c0.05,0.263,0.096,0.444,0.136,0.545l2.903,8.799h-6.259
		l2.933-8.799C566.35,20.688,566.39,20.506,566.411,20.304 M573.033,38.643c0.342,0.071,0.796,0.106,1.36,0.106
		c0.182,0,0.358-0.035,0.53-0.106c0.171-0.071,0.257-0.196,0.257-0.378c0-0.121-0.011-0.211-0.031-0.272l-7.257-21.136
		c-0.121-0.382-0.352-0.574-0.695-0.574c-0.383,0-0.801,0.035-1.255,0.106c-0.453,0.071-0.721,0.217-0.801,0.438l-7.287,21.166
		c-0.041,0.121-0.061,0.212-0.061,0.272c0,0.182,0.086,0.307,0.257,0.378c0.171,0.071,0.358,0.106,0.56,0.106
		c0.463,0,0.881-0.02,1.254-0.06c0.373-0.041,0.6-0.182,0.681-0.424l2.116-6.259h7.681l2.026,6.138
		C572.468,38.406,572.69,38.572,573.033,38.643 M542.031,38.235c0.282,0.101,0.554,0.151,0.816,0.151h11.4
		c0.08,0,0.151-0.06,0.211-0.181c0.061-0.121,0.111-0.272,0.151-0.454c0.041-0.181,0.071-0.372,0.091-0.574
		c0.02-0.201,0.03-0.383,0.03-0.544c0-0.202-0.07-0.363-0.211-0.484c-0.142-0.121-0.303-0.182-0.484-0.182h-9.706v-7.438h8.98
		c0.081,0,0.151-0.06,0.212-0.181c0.06-0.121,0.116-0.273,0.166-0.454s0.086-0.373,0.106-0.575c0.02-0.201,0.03-0.372,0.03-0.514
		c0-0.221-0.071-0.393-0.211-0.514c-0.142-0.121-0.313-0.181-0.514-0.181h-8.769v-7.045h9.918c0.08,0,0.151-0.061,0.211-0.182
		c0.061-0.121,0.111-0.272,0.151-0.453c0.041-0.182,0.071-0.373,0.091-0.575c0.02-0.201,0.03-0.382,0.03-0.544
		c0-0.222-0.07-0.388-0.211-0.499c-0.142-0.11-0.303-0.166-0.484-0.166h-11.702c-0.484,0-0.726,0.262-0.726,0.786v20.41
		C541.607,38.004,541.747,38.134,542.031,38.235 M531.672,19.352c0.726,0.212,1.315,0.559,1.769,1.043
		c0.453,0.484,0.776,1.114,0.967,1.89c0.192,0.776,0.288,1.719,0.288,2.827v4.778c0,1.108-0.096,2.051-0.288,2.827
		c-0.191,0.776-0.514,1.406-0.967,1.89c-0.454,0.483-1.043,0.831-1.769,1.043c-0.726,0.211-1.633,0.317-2.721,0.317h-4.143V19.035
		h4.143C530.039,19.035,530.945,19.14,531.672,19.352 M522.359,16.797c-0.181,0.121-0.272,0.323-0.272,0.605v20.44
		c0,0.162,0.136,0.292,0.408,0.393c0.272,0.101,0.549,0.151,0.832,0.151h5.624c1.451,0,2.711-0.136,3.779-0.408
		c1.069-0.272,1.955-0.726,2.661-1.361c0.705-0.635,1.229-1.471,1.572-2.509c0.343-1.038,0.515-2.323,0.515-3.856V24.78
		c0-1.532-0.172-2.817-0.515-3.856c-0.343-1.038-0.867-1.874-1.572-2.509c-0.706-0.635-1.592-1.094-2.661-1.376
		c-1.068-0.282-2.328-0.423-3.779-0.423h-5.987C522.742,16.616,522.54,16.676,522.359,16.797"/>
</g>
</svg>
