<?xml version="1.0" encoding="iso-8859-1"?>
<!-- Generator: Adobe Illustrator 29.5.1, SVG Export Plug-In . SVG Version: 9.03 Build 0)  -->
<svg version="1.1" id="Layer_1" xmlns="http://www.w3.org/2000/svg" xmlns:xlink="http://www.w3.org/1999/xlink" x="0px" y="0px"
	 viewBox="0 0 1000 144" style="enable-background:new 0 0 1000 144;" xml:space="preserve">
<g>
	<defs>
		<rect id="SVGID_1_" width="1000" height="144"/>
	</defs>
	<clipPath id="SVGID_00000089554437835933711460000015978930172097539718_">
		<use xlink:href="#SVGID_1_"  style="overflow:visible;"/>
	</clipPath>
	<path style="clip-path:url(#SVGID_00000089554437835933711460000015978930172097539718_);fill:#FFFFFF;" d="M414.759,115.025
		v11.825c0,0.397-0.133,0.706-0.443,0.927c-0.265,0.221-0.619,0.353-1.062,0.353c-0.265,0-0.664,0-1.106-0.044
		c-0.442-0.044-0.929-0.088-1.372-0.132c-0.442-0.045-0.841-0.177-1.195-0.309c-0.309-0.133-0.486-0.309-0.486-0.486v-12.09
		L398.74,94.903c-0.354-0.706-0.399-1.192-0.133-1.5c0.266-0.309,0.752-0.486,1.46-0.486c0.443,0,0.885,0,1.372,0.044
		c0.443,0,0.885,0.044,1.283,0.133c0.399,0.044,0.753,0.132,1.018,0.22c0.266,0.089,0.487,0.221,0.575,0.441l7.612,15.489
		l7.611-15.444c0.089-0.177,0.265-0.354,0.575-0.442c0.266-0.088,0.62-0.176,1.018-0.264c0.398-0.045,0.841-0.089,1.283-0.133
		c0.443,0,0.93-0.044,1.372-0.044c0.708,0,1.195,0.132,1.461,0.441c0.221,0.309,0.177,0.795-0.178,1.545L414.759,115.025z
		 M384.491,98.521v28.329c0,0.397-0.133,0.706-0.443,0.927c-0.31,0.221-0.619,0.353-1.018,0.353c-0.265,0-0.663,0-1.15-0.044
		c-0.487-0.044-0.974-0.088-1.416-0.132c-0.443-0.045-0.841-0.177-1.151-0.309c-0.354-0.133-0.486-0.309-0.486-0.486V98.565h-8.762
		c-0.354,0-0.62-0.132-0.885-0.397c-0.222-0.265-0.354-0.573-0.354-0.971c0-0.265,0-0.573,0.044-1.015
		c0.044-0.397,0.088-0.838,0.133-1.235c0.044-0.397,0.177-0.75,0.265-1.059c0.133-0.265,0.266-0.441,0.487-0.441h23.453
		c0.354,0,0.62,0.132,0.885,0.397c0.222,0.265,0.354,0.617,0.354,0.971c0,0.264,0,0.573-0.044,1.014
		c-0.044,0.442-0.088,0.839-0.133,1.236c-0.044,0.397-0.132,0.75-0.265,1.015s-0.266,0.441-0.487,0.441H384.491z M364.046,126.85
		c0,0.397-0.132,0.706-0.442,0.927c-0.266,0.221-0.62,0.353-1.062,0.353c-0.266,0-0.664,0-1.151-0.044
		c-0.486-0.044-0.929-0.088-1.416-0.132c-0.442-0.045-0.84-0.177-1.195-0.309c-0.309-0.133-0.486-0.309-0.486-0.486V93.932
		c0-0.177,0.177-0.353,0.486-0.486c0.355-0.132,0.753-0.264,1.195-0.308c0.443-0.044,0.93-0.133,1.416-0.133
		c0.487-0.044,0.841-0.044,1.151-0.044c0.398,0,0.752,0.133,1.062,0.397c0.265,0.265,0.442,0.574,0.442,0.927V126.85z
		 M332.141,122.305c0.265,0.044,0.62,0.177,1.151,0.265c0.531,0.132,1.106,0.265,1.814,0.397c0.664,0.133,1.416,0.221,2.257,0.353
		c0.796,0.088,1.637,0.133,2.434,0.133c0.885,0,1.725-0.089,2.522-0.221c0.796-0.132,1.549-0.397,2.168-0.706
		c0.62-0.353,1.151-0.794,1.505-1.324c0.398-0.574,0.575-1.235,0.575-2.074c0-1.147-0.354-2.118-1.106-2.912
		c-0.753-0.794-1.682-1.545-2.788-2.251c-1.106-0.706-2.345-1.412-3.673-2.118s-2.522-1.544-3.673-2.471
		c-1.15-0.926-2.08-2.03-2.788-3.309c-0.752-1.28-1.106-2.824-1.106-4.678c0-1.544,0.265-2.868,0.841-3.927
		c0.575-1.059,1.327-1.941,2.301-2.647c0.973-0.662,2.168-1.192,3.496-1.501c1.371-0.309,2.876-0.485,4.513-0.485
		c0.354,0,0.885,0,1.593,0.044s1.461,0.088,2.257,0.176c0.797,0.089,1.593,0.177,2.346,0.309c0.796,0.133,1.416,0.309,1.858,0.53
		c0.443,0.176,0.708,0.397,0.797,0.618c0.088,0.22,0.088,0.573,0.044,1.103c-0.044,0.838-0.221,1.5-0.531,2.074
		c-0.266,0.573-0.664,0.794-1.195,0.706c-0.796-0.177-1.681-0.309-2.699-0.486c-1.018-0.132-2.169-0.22-3.408-0.22
		c-1.947,0-3.584,0.309-4.823,0.838c-1.239,0.574-1.859,1.5-1.859,2.824c0,1.059,0.355,1.942,1.107,2.692
		c0.752,0.75,1.681,1.456,2.788,2.118c1.106,0.662,2.345,1.368,3.672,2.074c1.328,0.706,2.523,1.544,3.673,2.515
		c1.107,0.971,2.08,2.118,2.788,3.442c0.752,1.324,1.106,3.001,1.106,4.898c0,1.809-0.354,3.31-1.017,4.457
		c-0.664,1.191-1.593,2.074-2.7,2.736c-1.106,0.662-2.434,1.103-3.894,1.368c-1.46,0.264-3.009,0.397-4.602,0.397
		c-0.708,0-1.505-0.044-2.301-0.088c-0.797-0.045-1.549-0.133-2.345-0.221c-0.753-0.088-1.461-0.221-2.169-0.353
		c-0.664-0.133-1.239-0.265-1.726-0.441c-0.486-0.177-0.752-0.353-0.84-0.53c-0.089-0.221-0.133-0.574-0.045-1.059
		c0.089-0.927,0.266-1.721,0.531-2.339C331.344,122.482,331.698,122.173,332.141,122.305 M313.953,98.477h-6.593v11.429h6.593
		c1.284,0,2.346-0.089,3.098-0.221c0.797-0.132,1.372-0.397,1.814-0.794c0.443-0.397,0.709-0.883,0.841-1.545
		c0.133-0.661,0.221-1.544,0.221-2.603v-1.059c0-1.059-0.088-1.942-0.221-2.648c-0.132-0.661-0.442-1.191-0.841-1.588
		c-0.442-0.397-1.017-0.618-1.814-0.795C316.255,98.565,315.237,98.477,313.953,98.477 M301.652,127.115V94.638
		c0-0.353,0.132-0.618,0.442-0.883c0.31-0.22,0.62-0.352,1.062-0.352h10.488c2.168,0,4.027,0.176,5.575,0.485
		c1.549,0.309,2.788,0.882,3.762,1.677c0.973,0.794,1.681,1.853,2.124,3.177c0.443,1.324,0.664,2.956,0.664,4.986v1.059
		c0,1.5-0.133,2.78-0.354,3.883c-0.222,1.103-0.62,2.074-1.107,2.869c-0.486,0.794-1.194,1.412-2.035,1.897
		s-1.859,0.838-3.009,1.103l6.593,11.385c0.354,0.617,0.531,1.059,0.531,1.368c0,0.176-0.088,0.353-0.221,0.485
		c-0.177,0.132-0.354,0.221-0.531,0.265c-0.177,0.044-0.398,0.088-0.575,0.132c-0.222,0-0.354,0.044-0.443,0.044
		c-0.265,0-0.664,0-1.106-0.044c-0.443-0.044-0.885-0.088-1.328-0.176c-0.442-0.089-0.885-0.177-1.239-0.353
		c-0.354-0.177-0.619-0.398-0.796-0.662l-6.992-11.914h-5.841v11.914c0,0.397-0.133,0.662-0.443,0.882
		c-0.265,0.221-0.619,0.353-1.018,0.353c-0.265,0-0.663,0-1.15-0.044c-0.487-0.044-0.929-0.088-1.416-0.132
		c-0.443-0.044-0.841-0.177-1.195-0.309C301.829,127.468,301.652,127.336,301.652,127.115 M273.773,126.586V94.638
		c0-0.397,0.133-0.706,0.443-0.927c0.265-0.22,0.619-0.308,1.062-0.308h19.072c0.354,0,0.664,0.132,0.885,0.441
		c0.221,0.265,0.354,0.617,0.354,0.971c0,0.264,0,0.573-0.044,1.014c-0.044,0.442-0.089,0.839-0.133,1.236
		c-0.044,0.397-0.177,0.75-0.265,1.015c-0.133,0.265-0.31,0.441-0.487,0.441h-15.134v9.178h12.966c0.309,0,0.575,0.133,0.84,0.397
		c0.222,0.265,0.354,0.574,0.354,0.927c0,0.265,0,0.574-0.044,1.015c-0.044,0.441-0.088,0.838-0.133,1.236
		c-0.044,0.397-0.177,0.75-0.265,1.059c-0.133,0.264-0.266,0.441-0.487,0.441h-13.275v9.708h14.824c0.354,0,0.664,0.132,0.885,0.397
		c0.221,0.265,0.354,0.574,0.354,0.971c0,0.264,0,0.573-0.044,1.015c-0.045,0.397-0.089,0.838-0.133,1.235
		c-0.044,0.397-0.177,0.75-0.266,1.059c-0.132,0.309-0.309,0.441-0.486,0.441h-18.675c-0.442,0-0.929-0.088-1.416-0.309
		C273.994,127.027,273.773,126.806,273.773,126.586 M256.338,118.466l7.169-24.578c0.442-0.442,0.973-0.706,1.548-0.839
		c0.576-0.088,1.239-0.176,2.036-0.176c0.31,0,0.664,0,0.974,0.044c0.353,0.044,0.619,0.088,0.84,0.221
		c0.222,0.132,0.399,0.265,0.531,0.485c0.133,0.221,0.089,0.486,0,0.883l-11.018,32.874c-0.045,0.265-0.222,0.441-0.487,0.574
		c-0.266,0.132-0.531,0.176-0.841,0.176c-1.062,0-1.947-0.044-2.655-0.176c-0.708-0.133-1.151-0.309-1.328-0.53l-10.974-32.918
		c-0.088-0.309-0.088-0.574,0-0.795c0.089-0.22,0.221-0.353,0.442-0.485c0.178-0.132,0.399-0.221,0.664-0.265
		c0.222-0.044,0.443-0.088,0.576-0.088c0.486,0,0.973,0,1.46,0.044s0.929,0.088,1.372,0.177c0.398,0.088,0.752,0.22,1.062,0.352
		c0.265,0.177,0.487,0.354,0.575,0.618l7.346,24.358c0.133,0.397,0.221,0.794,0.265,1.192c0.045,0.441,0.089,0.794,0.177,1.147
		c0.045-0.353,0.089-0.75,0.133-1.147C256.117,119.216,256.205,118.819,256.338,118.466 M237.929,126.85
		c0,0.397-0.133,0.706-0.442,0.927c-0.266,0.221-0.62,0.353-1.062,0.353c-0.266,0-0.664,0-1.151-0.044
		c-0.487-0.044-0.929-0.088-1.416-0.132c-0.442-0.045-0.841-0.177-1.195-0.309c-0.354-0.133-0.487-0.309-0.487-0.486V93.932
		c0-0.177,0.177-0.353,0.487-0.486c0.354-0.132,0.708-0.264,1.195-0.308c0.442-0.044,0.929-0.133,1.416-0.133
		c0.487-0.044,0.841-0.044,1.151-0.044c0.398,0,0.752,0.133,1.062,0.397c0.265,0.265,0.442,0.574,0.442,0.927V126.85z
		 M220.494,117.584V93.755c0-0.176,0.177-0.352,0.531-0.441c0.354-0.132,0.752-0.22,1.239-0.265c0.487-0.044,0.974-0.088,1.46-0.132
		c0.487-0.044,0.885-0.044,1.151-0.044c0.841,0,1.239,0.485,1.239,1.412v32.565c0,0.397-0.133,0.662-0.442,0.883
		c-0.31,0.221-0.62,0.353-0.974,0.353c-0.266,0-0.575,0-1.018-0.044c-0.442-0.044-0.841-0.044-1.283-0.133
		c-0.443-0.088-0.797-0.176-1.151-0.264c-0.354-0.133-0.575-0.265-0.708-0.442l-15.444-23.696v23.343
		c0,0.397-0.132,0.706-0.442,0.927c-0.266,0.221-0.62,0.353-1.018,0.353c-0.265,0-0.664,0-1.15-0.044
		c-0.487-0.044-0.974-0.088-1.417-0.132c-0.442-0.045-0.84-0.177-1.15-0.309c-0.354-0.133-0.487-0.309-0.487-0.486V93.932
		c0-0.177,0.177-0.353,0.487-0.485c0.354-0.133,0.708-0.265,1.15-0.309c0.443-0.044,0.886-0.089,1.372-0.133
		c0.487-0.044,0.841-0.044,1.151-0.044c0.354,0,0.664,0.088,0.885,0.309c0.221,0.221,0.442,0.441,0.575,0.706L220.494,117.584z
		 M187.571,115.466V94.02c0-0.176,0.177-0.353,0.486-0.485c0.355-0.132,0.753-0.265,1.195-0.353
		c0.487-0.088,0.974-0.177,1.416-0.221c0.487-0.044,0.841-0.088,1.151-0.088c0.398,0,0.752,0.132,1.018,0.441
		c0.265,0.309,0.398,0.618,0.398,0.971v21.446c0,2.338-0.266,4.28-0.797,5.868c-0.531,1.589-1.283,2.824-2.345,3.839
		c-1.062,0.971-2.389,1.677-3.983,2.074c-1.593,0.397-3.495,0.618-5.62,0.618h-0.398c-2.08,0-3.938-0.221-5.487-0.618
		c-1.593-0.397-2.876-1.103-3.938-2.074c-1.062-0.97-1.815-2.25-2.346-3.839c-0.531-1.544-0.796-3.53-0.796-5.868V94.02
		c0-0.176,0.177-0.353,0.486-0.485c0.355-0.132,0.708-0.265,1.195-0.353c0.443-0.088,0.93-0.177,1.416-0.221
		c0.487-0.044,0.885-0.088,1.151-0.088c0.398,0,0.708,0.132,1.018,0.441c0.265,0.309,0.442,0.618,0.442,0.971v21.137
		c0,1.367,0.089,2.515,0.31,3.486c0.221,0.97,0.575,1.765,1.106,2.338c0.531,0.618,1.239,1.059,2.124,1.324s1.992,0.441,3.319,0.441
		h0.398c1.372,0,2.479-0.132,3.408-0.441c0.885-0.309,1.637-0.75,2.168-1.324c0.531-0.618,0.93-1.368,1.151-2.338
		C187.482,117.981,187.571,116.834,187.571,115.466 M393.474,38.244v40.994h-11.329V16.622h15.798l15.179,38.567V16.622h11.505
		v62.616h-14.426L393.474,38.244z M360.949,16.622h12.745v62.615h-12.745V16.622z M312.051,16.622h13.098v27.226l16.329-27.226
		h13.674l-18.143,28.815l18.143,33.845h-15.179l-14.824-30.447v30.447h-13.098V16.622z M290.721,65.338H272.49l-3.319,13.944
		h-13.143l17.701-62.66h16.727l17.435,62.66h-13.762L290.721,65.338z M288.11,54.439l-6.283-25.903l-6.594,25.903H288.11z
		 M217.928,16.622h33.94v10.635h-20.665v13.37h19.028v10.899h-19.028v16.68h20.71v11.032h-33.985V16.622z M189.12,16.622
		c16.771,0,21.948,8.87,21.948,31.33c0,22.461-5.221,31.33-21.993,31.33h-21.506v-62.66H189.12z M180.756,68.471h5.974
		c9.78,0,11.019-5.736,11.019-20.74c0-14.958-1.239-20.695-11.019-20.695h-5.974V68.471z"/>
	<path style="clip-path:url(#SVGID_00000089554437835933711460000015978930172097539718_);fill:#FFFFFF;" d="M71.713,1.288
		C32.549,1.288,0.799,32.947,0.799,72s31.749,70.712,70.913,70.712S142.625,111.053,142.625,72S110.877,1.288,71.713,1.288"/>
	<path style="clip-path:url(#SVGID_00000089554437835933711460000015978930172097539718_);fill:#FFFFFF;" d="M71.713,2.968
		c38.175,0,69.233,30.968,69.233,69.032s-31.058,69.032-69.233,69.032S2.479,110.064,2.479,72S33.538,2.968,71.713,2.968"/>
	<path style="clip-path:url(#SVGID_00000089554437835933711460000015978930172097539718_);" d="M95.076,94.204L68.262,47.816
		l3.533-5.928l30.099,52.316H95.076z M82.396,94.204L61.86,58.843l3.45-5.804l23.655,41.165H82.396z M69.509,94.204L55.416,69.953
		l3.575-6.011l17.336,30.22h-6.818V94.204z M56.539,94.204l-7.567-13.1l3.576-6.011l10.933,19.111H56.539z M41.365,94.204
		l4.614-7.877l4.615,7.877H41.365z M35.503,36.416V85.83c0,19.94,16.213,36.107,36.209,36.107c19.997,0,36.21-16.167,36.21-36.107
		V36.416H35.503z"/>
</g>
<rect x="471.959" y="16.622" style="fill:#FFFFFF;" width="2" height="110.978"/>
<g>
	<defs>
		<rect id="SVGID_00000091712543459051757160000010181604817276524452_" width="1000" height="144"/>
	</defs>
	<clipPath id="SVGID_00000080165945800760371160000007591248077811102374_">
		<use xlink:href="#SVGID_00000091712543459051757160000010181604817276524452_"  style="overflow:visible;"/>
	</clipPath>
	<path style="clip-path:url(#SVGID_00000080165945800760371160000007591248077811102374_);fill:#FFFFFF;" d="M782.149,94.729v32.876
		h18.294v-5.135h-11.425v-9.513h10.203v-5.068h-10.203v-8.091h11.069v-5.069H782.149z M764.33,99.798h1.467
		c2.09,0,3.453,0.333,4.09,1c0.637,0.667,0.956,1.815,0.956,3.445c0,1.645-0.322,2.838-0.967,3.579
		c-0.645,0.741-1.96,1.111-3.946,1.111h-1.6V99.798z M757.417,94.729v32.876h6.913v-13.604h1.334c2.059,0,3.46,0.353,4.201,1.056
		c0.741,0.704,1.111,2.005,1.111,3.901v5.046c0,0.889,0.052,1.545,0.156,1.967c0.103,0.423,0.296,0.967,0.578,1.634h6.735
		c-0.148-0.444-0.256-1.03-0.322-1.756c-0.067-0.726-0.123-1.489-0.167-2.289l-0.333-5.646c-0.134-2.119-0.604-3.653-1.412-4.602
		c-0.808-0.948-2.293-1.57-4.457-1.867c2.03-0.385,3.531-1.23,4.502-2.534c0.97-1.304,1.455-3.126,1.455-5.468
		c0-2.964-0.726-5.157-2.178-6.58c-1.452-1.422-3.682-2.134-6.691-2.134H757.417z M732.256,94.729v5.335h7.558v27.541h6.98v-27.541
		h7.646v-5.335H732.256z M704.746,94.729v32.876h6.379v-24.029l9.003,24.029h9.025V94.729h-6.38v22.762l-8.78-22.762H704.746z
		 M682.756,94.729v32.876h18.293v-5.135h-11.425v-9.513h10.203v-5.068h-10.203v-8.091h11.07v-5.069H682.756z M678.747,104.11
		c0-3.393-0.811-5.887-2.434-7.48c-1.623-1.593-3.998-2.39-7.124-2.39c-2.668,0-4.79,0.442-6.369,1.323
		c-1.578,0.882-2.704,2.071-3.378,3.568c-0.675,1.497-1.108,3.119-1.301,4.868c-0.192,1.748-0.289,4.156-0.289,7.224
		c0,3.897,0.182,6.743,0.545,8.536c0.363,1.793,0.919,3.267,1.667,4.423c0.748,1.156,1.834,2.075,3.256,2.756
		c1.423,0.682,3.268,1.023,5.535,1.023c3.483,0,6.061-0.874,7.736-2.623c1.674-1.749,2.512-4.364,2.512-7.847v-0.956h-6.78v0.378
		c0,2.12-0.3,3.665-0.9,4.635c-0.6,0.971-1.486,1.456-2.657,1.456c-1.393,0-2.386-0.634-2.978-1.901
		c-0.593-1.267-0.919-2.867-0.978-4.801c-0.06-1.934-0.089-3.479-0.089-4.635c0-3.437,0.089-5.89,0.267-7.357
		c0.177-1.467,0.544-2.679,1.1-3.634c0.556-0.956,1.434-1.434,2.634-1.434c1.052,0,1.863,0.411,2.434,1.234
		c0.57,0.822,0.856,2.159,0.856,4.012v0.622h6.735V104.11z M621.357,94.729l8.558,20.806v12.07h6.979v-12.07l9.136-20.806h-7.002
		l-5.246,13.893l-4.912-13.893H621.357z M604.961,99.798h1.912c2.015,0,3.412,0.277,4.19,0.833c0.778,0.556,1.333,1.645,1.667,3.268
		c0.333,1.622,0.5,4.212,0.5,7.768c0,3.379-0.193,5.739-0.578,7.08c-0.386,1.342-0.96,2.297-1.723,2.868
		c-0.763,0.57-2.197,0.855-4.301,0.855h-1.667V99.798z M597.937,94.729v32.876h10.114c3.023,0,5.394-0.47,7.113-1.411
		c1.719-0.941,2.975-2.416,3.768-4.424c0.792-2.008,1.189-5.435,1.189-10.28c0-3.72-0.156-6.447-0.467-8.18
		c-0.311-1.734-0.845-3.235-1.601-4.502c-0.755-1.267-1.904-2.263-3.445-2.989c-1.541-0.726-3.579-1.09-6.113-1.09H597.937z
		 M570.791,94.729v22.007c0,3.867,0.893,6.746,2.679,8.635c1.785,1.89,4.545,2.834,8.28,2.834c3.912,0,6.779-0.929,8.602-2.789
		c1.823-1.86,2.734-4.738,2.734-8.636V94.729h-6.691v22.184c0,2.12-0.37,3.716-1.111,4.791c-0.741,1.074-1.882,1.611-3.423,1.611
		c-1.438,0-2.497-0.53-3.179-1.589c-0.682-1.06-1.022-2.679-1.022-4.857v-22.14H570.791z M545.63,94.729v5.335h7.558v27.541h6.98
		v-27.541h7.646v-5.335H545.63z M540.539,125.838c1.852-1.578,2.779-3.946,2.779-7.102c0-2.06-0.401-3.686-1.201-4.879
		s-2.089-2.345-3.867-3.457l-6.647-4.245c-0.726-0.459-1.256-0.986-1.589-1.578c-0.334-0.593-0.5-1.23-0.5-1.912
		c0-1.111,0.3-1.997,0.9-2.656s1.411-0.989,2.434-0.989c2.208,0,3.312,1.422,3.312,4.267v0.778h6.735v-1.133
		c0-3.171-0.811-5.42-2.434-6.747c-1.622-1.326-3.982-1.989-7.079-1.989c-3.468,0-6.147,0.76-8.036,2.278
		c-1.889,1.52-2.834,3.672-2.834,6.458c0,2.06,0.385,3.76,1.156,5.101c0.77,1.341,2.445,2.812,5.023,4.412l5.446,3.335
		c0.741,0.459,1.301,0.993,1.678,1.6c0.378,0.608,0.567,1.349,0.567,2.223c0,1.156-0.315,2.049-0.944,2.678
		c-0.63,0.631-1.531,0.945-2.701,0.945c-1.378,0-2.342-0.407-2.89-1.222c-0.548-0.815-0.822-2.045-0.822-3.69v-0.867h-6.98v2.045
		c0,2.89,0.845,5.064,2.534,6.524c1.689,1.46,4.171,2.189,7.447,2.189C535.849,128.205,538.686,127.416,540.539,125.838"/>
	<path style="clip-path:url(#SVGID_00000080165945800760371160000007591248077811102374_);fill:#FFFFFF;" d="M792.101,51.43
		l8.558,20.805v12.07h6.98v-12.07l9.136-20.805h-7.002l-5.246,13.892l-4.913-13.892H792.101z M777.684,51.43v32.875h17.16v-5.468
		h-10.202V51.43H777.684z M765.942,84.305h6.869V51.429h-6.869V84.305z M728.775,51.43v32.875h6.513V58.943l6.09,25.362h6.558
		l6.424-25.362v25.362h6.69V51.43h-10.691l-5.513,22.361l-5.201-22.361H728.775z M711.879,57.765l3.423,14.293h-6.646
		L711.879,57.765z M707.789,51.43l-9.114,32.875h6.802l1.867-7.291h9.359l1.822,7.291h7.247l-8.914-32.875H707.789z M681.945,51.43
		v32.875h6.913V69.968h9.692v-5.046h-9.692v-8.424h10.159V51.43H681.945z M657.409,77.704c-0.8,0.859-1.589,1.485-2.367,1.878
		c-0.778,0.393-1.679,0.589-2.701,0.589c-1.453,0-2.634-0.474-3.546-1.423c-0.911-0.948-1.367-2.193-1.367-3.734
		c0-0.978,0.256-1.912,0.767-2.801s1.345-1.793,2.501-2.712L657.409,77.704z M650.185,59.776c-0.386-0.733-0.578-1.418-0.578-2.056
		c0-0.785,0.263-1.452,0.789-2c0.526-0.548,1.189-0.823,1.989-0.823c0.889,0,1.597,0.252,2.123,0.756
		c0.526,0.504,0.789,1.178,0.789,2.023c0,0.889-0.255,1.689-0.767,2.4c-0.511,0.712-1.345,1.445-2.5,2.201
		C651.185,61.343,650.57,60.51,650.185,59.776 M660.032,61.888c0.83-1.267,1.245-2.626,1.245-4.079c0-2.178-0.778-3.882-2.334-5.112
		c-1.556-1.23-3.727-1.845-6.513-1.845c-2.638,0-4.761,0.663-6.369,1.989c-1.608,1.327-2.411,3.116-2.411,5.368
		c0,1.127,0.262,2.268,0.789,3.423c0.525,1.156,1.374,2.431,2.545,3.824c-2.238,1.526-3.846,3.012-4.824,4.456
		c-0.978,1.445-1.467,3.161-1.467,5.146c0,3.142,1.008,5.569,3.023,7.28c2.015,1.712,4.861,2.567,8.536,2.567
		c1.971,0,3.66-0.233,5.068-0.7c1.408-0.467,2.771-1.315,4.09-2.545l2,2.645h6.736l-4.957-6.779
		c0.815-1.393,1.389-2.871,1.722-4.435c0.334-1.563,0.501-3.56,0.501-5.99v-0.823h-5.558c0.03,0.208,0.045,0.415,0.045,0.623
		c0,1.052-0.071,2.122-0.211,3.212c-0.141,1.089-0.33,1.997-0.567,2.723l-5.135-6.736C657.853,64.559,659.202,63.155,660.032,61.888
		 M613.022,56.498h1.912c2.015,0,3.412,0.278,4.19,0.833c0.778,0.556,1.334,1.645,1.667,3.268c0.334,1.622,0.5,4.212,0.5,7.769
		c0,3.378-0.193,5.738-0.578,7.079c-0.385,1.342-0.959,2.297-1.722,2.868c-0.764,0.57-2.198,0.856-4.302,0.856h-1.667V56.498z
		 M605.998,51.43v32.875h10.114c3.023,0,5.394-0.47,7.113-1.411s2.975-2.415,3.768-4.424c0.792-2.007,1.189-5.434,1.189-10.28
		c0-3.72-0.156-6.446-0.467-8.18c-0.311-1.734-0.844-3.234-1.6-4.501c-0.756-1.267-1.905-2.264-3.446-2.99s-3.578-1.089-6.112-1.089
		H605.998z M585.796,51.43v32.875h17.16v-5.468h-10.203V51.43H585.796z M574.054,84.305h6.869V51.429h-6.869V84.305z M547.47,51.43
		v32.875h6.935v-14.47h7.78v14.47h6.913V51.43h-6.913v13.025h-7.78V51.43H547.47z M543.362,60.81c0-3.393-0.811-5.887-2.434-7.48
		c-1.623-1.593-3.998-2.389-7.124-2.389c-2.668,0-4.79,0.441-6.369,1.322c-1.578,0.882-2.704,2.071-3.378,3.568
		c-0.675,1.497-1.108,3.119-1.301,4.868c-0.192,1.749-0.289,4.157-0.289,7.224c0,3.898,0.182,6.743,0.545,8.536
		c0.363,1.793,0.919,3.267,1.667,4.423c0.748,1.156,1.834,2.075,3.257,2.756c1.422,0.682,3.267,1.023,5.534,1.023
		c3.483,0,6.061-0.874,7.736-2.623c1.674-1.748,2.512-4.364,2.512-7.847v-0.955h-6.78v0.378c0,2.119-0.3,3.664-0.9,4.634
		c-0.6,0.971-1.486,1.456-2.656,1.456c-1.394,0-2.387-0.633-2.979-1.9c-0.593-1.267-0.919-2.868-0.978-4.802
		c-0.06-1.934-0.089-3.478-0.089-4.634c0-3.438,0.089-5.891,0.267-7.358c0.178-1.467,0.544-2.678,1.1-3.634
		c0.556-0.956,1.434-1.434,2.634-1.434c1.052,0,1.863,0.411,2.434,1.234c0.57,0.822,0.856,2.16,0.856,4.012v0.622h6.735V60.81z"/>
	<path style="clip-path:url(#SVGID_00000080165945800760371160000007591248077811102374_);fill:#FFFFFF;" d="M607.66,16.797
		c-0.101-0.141-0.212-0.262-0.333-0.363c-0.121-0.1-0.262-0.151-0.423-0.151c-0.182,0-0.378,0.01-0.59,0.03
		c-0.212,0.021-0.419,0.056-0.62,0.106c-0.202,0.051-0.368,0.111-0.499,0.181c-0.131,0.071-0.196,0.147-0.196,0.227v21.408
		c0,0.101,0.07,0.181,0.211,0.242c0.141,0.06,0.313,0.111,0.514,0.151c0.202,0.04,0.413,0.071,0.635,0.091
		c0.222,0.02,0.413,0.03,0.575,0.03c0.222,0,0.398-0.081,0.529-0.242c0.131-0.161,0.197-0.352,0.197-0.574v-16.54l10.855,16.872
		c0.06,0.081,0.166,0.151,0.317,0.212c0.151,0.06,0.328,0.111,0.529,0.151c0.202,0.04,0.403,0.071,0.605,0.091
		c0.201,0.02,0.373,0.03,0.514,0.03c0.201,0,0.368-0.075,0.499-0.227c0.131-0.151,0.197-0.337,0.197-0.559V17.13
		c0-0.242-0.046-0.444-0.137-0.605c-0.09-0.161-0.247-0.242-0.468-0.242c-0.182,0-0.393,0.01-0.635,0.03
		c-0.242,0.021-0.469,0.051-0.681,0.091c-0.211,0.041-0.388,0.091-0.529,0.151c-0.141,0.061-0.211,0.131-0.211,0.212V33.7
		L607.66,16.797z M600.509,17.099c0-0.221-0.066-0.413-0.197-0.574c-0.131-0.161-0.307-0.242-0.529-0.242
		c-0.181,0-0.383,0.01-0.605,0.03c-0.222,0.021-0.438,0.056-0.65,0.106c-0.211,0.051-0.388,0.111-0.529,0.181
		c-0.141,0.071-0.211,0.147-0.211,0.227v21.408c0,0.101,0.07,0.181,0.211,0.242c0.141,0.06,0.318,0.111,0.529,0.151
		c0.212,0.04,0.428,0.071,0.65,0.091c0.222,0.02,0.424,0.03,0.605,0.03c0.222,0,0.398-0.081,0.529-0.242
		c0.131-0.161,0.197-0.352,0.197-0.574V17.099z M581.351,27.35l10.069,10.855c0.221,0.242,0.534,0.393,0.937,0.453
		c0.403,0.061,0.836,0.091,1.3,0.091c0.141,0,0.303-0.02,0.484-0.06c0.181-0.041,0.272-0.162,0.272-0.363
		c0-0.222-0.161-0.504-0.484-0.847l-9.706-10.432l8.86-9.494c0.342-0.363,0.514-0.645,0.514-0.847c0-0.201-0.091-0.322-0.272-0.363
		c-0.182-0.04-0.353-0.06-0.514-0.06c-0.444,0-0.873,0.03-1.285,0.091c-0.414,0.06-0.731,0.211-0.953,0.453l-9.222,9.948v-9.676
		c0-0.221-0.066-0.413-0.197-0.574c-0.131-0.161-0.307-0.242-0.529-0.242c-0.181,0-0.383,0.01-0.605,0.03
		c-0.222,0.021-0.438,0.056-0.65,0.106c-0.211,0.051-0.388,0.111-0.529,0.181c-0.141,0.071-0.212,0.147-0.212,0.227v21.408
		c0,0.101,0.071,0.181,0.212,0.242c0.141,0.06,0.318,0.111,0.529,0.151c0.212,0.04,0.428,0.071,0.65,0.091
		c0.222,0.02,0.424,0.03,0.605,0.03c0.222,0,0.398-0.081,0.529-0.242c0.131-0.161,0.197-0.352,0.197-0.574V27.35z M566.411,20.304
		c0.02-0.201,0.05-0.382,0.091-0.544c0,0.101,0.025,0.283,0.075,0.544c0.05,0.263,0.096,0.444,0.136,0.545l2.903,8.799h-6.259
		l2.933-8.799C566.35,20.688,566.39,20.506,566.411,20.304 M573.033,38.643c0.342,0.071,0.796,0.106,1.36,0.106
		c0.182,0,0.358-0.035,0.53-0.106c0.171-0.071,0.257-0.196,0.257-0.378c0-0.121-0.011-0.211-0.031-0.272l-7.257-21.136
		c-0.121-0.382-0.352-0.574-0.695-0.574c-0.383,0-0.801,0.035-1.255,0.106c-0.453,0.071-0.721,0.217-0.801,0.438l-7.287,21.166
		c-0.041,0.121-0.061,0.212-0.061,0.272c0,0.182,0.086,0.307,0.257,0.378c0.171,0.071,0.358,0.106,0.56,0.106
		c0.463,0,0.881-0.02,1.254-0.06c0.373-0.041,0.6-0.182,0.681-0.424l2.116-6.259h7.681l2.026,6.138
		C572.468,38.406,572.69,38.572,573.033,38.643 M542.031,38.235c0.282,0.101,0.554,0.151,0.816,0.151h11.4
		c0.08,0,0.151-0.06,0.211-0.181c0.061-0.121,0.111-0.272,0.151-0.454c0.041-0.181,0.071-0.372,0.091-0.574
		c0.02-0.201,0.03-0.383,0.03-0.544c0-0.202-0.07-0.363-0.211-0.484c-0.142-0.121-0.303-0.182-0.484-0.182h-9.706v-7.438h8.98
		c0.081,0,0.151-0.06,0.212-0.181c0.06-0.121,0.116-0.273,0.166-0.454s0.086-0.373,0.106-0.575c0.02-0.201,0.03-0.372,0.03-0.514
		c0-0.221-0.071-0.393-0.211-0.514c-0.142-0.121-0.313-0.181-0.514-0.181h-8.769v-7.045h9.918c0.08,0,0.151-0.061,0.211-0.182
		c0.061-0.121,0.111-0.272,0.151-0.453c0.041-0.182,0.071-0.373,0.091-0.575c0.02-0.201,0.03-0.382,0.03-0.544
		c0-0.222-0.07-0.388-0.211-0.499c-0.142-0.11-0.303-0.166-0.484-0.166h-11.702c-0.484,0-0.726,0.262-0.726,0.786v20.41
		C541.607,38.004,541.747,38.134,542.031,38.235 M531.672,19.352c0.726,0.212,1.315,0.559,1.769,1.043
		c0.453,0.484,0.776,1.114,0.967,1.89c0.192,0.776,0.288,1.719,0.288,2.827v4.778c0,1.108-0.096,2.051-0.288,2.827
		c-0.191,0.776-0.514,1.406-0.967,1.89c-0.454,0.483-1.043,0.831-1.769,1.043c-0.726,0.211-1.633,0.317-2.721,0.317h-4.143V19.035
		h4.143C530.039,19.035,530.945,19.14,531.672,19.352 M522.359,16.797c-0.181,0.121-0.272,0.323-0.272,0.605v20.44
		c0,0.162,0.136,0.292,0.408,0.393c0.272,0.101,0.549,0.151,0.832,0.151h5.624c1.451,0,2.711-0.136,3.779-0.408
		c1.069-0.272,1.955-0.726,2.661-1.361c0.705-0.635,1.229-1.471,1.572-2.509c0.343-1.038,0.515-2.323,0.515-3.856V24.78
		c0-1.532-0.172-2.817-0.515-3.856c-0.343-1.038-0.867-1.874-1.572-2.509c-0.706-0.635-1.592-1.094-2.661-1.376
		c-1.068-0.282-2.328-0.423-3.779-0.423h-5.987C522.742,16.616,522.54,16.676,522.359,16.797"/>
</g>
</svg>
