<?xml version="1.0" encoding="iso-8859-1"?>
<!-- Generator: Adobe Illustrator 29.5.1, SVG Export Plug-In . SVG Version: 9.03 Build 0)  -->
<svg version="1.1" id="Layer_1" xmlns="http://www.w3.org/2000/svg" xmlns:xlink="http://www.w3.org/1999/xlink" x="0px" y="0px"
	 viewBox="0 0 1000 144" style="enable-background:new 0 0 1000 144;" xml:space="preserve">
<g>
	<defs>
		<rect id="SVGID_1_" width="1000" height="144"/>
	</defs>
	<clipPath id="SVGID_00000089543256031220637940000010314389991470911363_">
		<use xlink:href="#SVGID_1_"  style="overflow:visible;"/>
	</clipPath>
	<path style="clip-path:url(#SVGID_00000089543256031220637940000010314389991470911363_);fill:#FFFFFF;" d="M414.759,115.025
		v11.825c0,0.397-0.133,0.706-0.443,0.927c-0.265,0.221-0.619,0.353-1.062,0.353c-0.265,0-0.664,0-1.106-0.044
		c-0.442-0.044-0.929-0.088-1.372-0.132c-0.442-0.045-0.841-0.177-1.195-0.309c-0.309-0.133-0.486-0.309-0.486-0.486v-12.09
		L398.74,94.903c-0.354-0.706-0.399-1.192-0.133-1.5c0.266-0.309,0.752-0.486,1.46-0.486c0.443,0,0.885,0,1.372,0.044
		c0.443,0,0.885,0.044,1.283,0.133c0.399,0.044,0.753,0.132,1.018,0.22c0.266,0.089,0.487,0.221,0.575,0.441l7.612,15.489
		l7.611-15.444c0.089-0.177,0.265-0.354,0.575-0.442c0.266-0.088,0.62-0.176,1.018-0.264c0.398-0.045,0.841-0.089,1.283-0.133
		c0.443,0,0.93-0.044,1.372-0.044c0.708,0,1.195,0.132,1.461,0.441c0.221,0.309,0.177,0.795-0.178,1.545L414.759,115.025z
		 M384.491,98.521v28.329c0,0.397-0.133,0.706-0.443,0.927c-0.31,0.221-0.619,0.353-1.018,0.353c-0.265,0-0.663,0-1.15-0.044
		c-0.487-0.044-0.974-0.088-1.416-0.132c-0.443-0.045-0.841-0.177-1.151-0.309c-0.354-0.133-0.486-0.309-0.486-0.486V98.565h-8.762
		c-0.354,0-0.62-0.132-0.885-0.397c-0.222-0.265-0.354-0.573-0.354-0.971c0-0.265,0-0.573,0.044-1.015
		c0.044-0.397,0.088-0.838,0.133-1.235c0.044-0.397,0.177-0.75,0.265-1.059c0.133-0.265,0.266-0.441,0.487-0.441h23.453
		c0.354,0,0.62,0.132,0.885,0.397c0.222,0.265,0.354,0.617,0.354,0.971c0,0.264,0,0.573-0.044,1.014
		c-0.044,0.442-0.088,0.839-0.133,1.236c-0.044,0.397-0.132,0.75-0.265,1.015s-0.266,0.441-0.487,0.441H384.491z M364.046,126.85
		c0,0.397-0.132,0.706-0.442,0.927c-0.266,0.221-0.62,0.353-1.062,0.353c-0.266,0-0.664,0-1.151-0.044
		c-0.486-0.044-0.929-0.088-1.416-0.132c-0.442-0.045-0.84-0.177-1.195-0.309c-0.309-0.133-0.486-0.309-0.486-0.486V93.932
		c0-0.177,0.177-0.353,0.486-0.486c0.355-0.132,0.753-0.264,1.195-0.308c0.443-0.044,0.93-0.133,1.416-0.133
		c0.487-0.044,0.841-0.044,1.151-0.044c0.398,0,0.752,0.133,1.062,0.397c0.265,0.265,0.442,0.574,0.442,0.927V126.85z
		 M332.141,122.305c0.265,0.044,0.62,0.177,1.151,0.265c0.531,0.132,1.106,0.265,1.814,0.397c0.664,0.133,1.416,0.221,2.257,0.353
		c0.796,0.088,1.637,0.133,2.434,0.133c0.885,0,1.725-0.089,2.522-0.221c0.796-0.132,1.549-0.397,2.168-0.706
		c0.62-0.353,1.151-0.794,1.505-1.324c0.398-0.574,0.575-1.235,0.575-2.074c0-1.147-0.354-2.118-1.106-2.912
		c-0.753-0.794-1.682-1.545-2.788-2.251c-1.106-0.706-2.345-1.412-3.673-2.118s-2.522-1.544-3.673-2.471
		c-1.15-0.926-2.08-2.03-2.788-3.309c-0.752-1.28-1.106-2.824-1.106-4.678c0-1.544,0.265-2.868,0.841-3.927
		c0.575-1.059,1.327-1.941,2.301-2.647c0.973-0.662,2.168-1.192,3.496-1.501c1.371-0.309,2.876-0.485,4.513-0.485
		c0.354,0,0.885,0,1.593,0.044s1.461,0.088,2.257,0.176c0.797,0.089,1.593,0.177,2.346,0.309c0.796,0.133,1.416,0.309,1.858,0.53
		c0.443,0.176,0.708,0.397,0.797,0.618c0.088,0.22,0.088,0.573,0.044,1.103c-0.044,0.838-0.221,1.5-0.531,2.074
		c-0.266,0.573-0.664,0.794-1.195,0.706c-0.796-0.177-1.681-0.309-2.699-0.486c-1.018-0.132-2.169-0.22-3.408-0.22
		c-1.947,0-3.584,0.309-4.823,0.838c-1.239,0.574-1.859,1.5-1.859,2.824c0,1.059,0.355,1.942,1.107,2.692
		c0.752,0.75,1.681,1.456,2.788,2.118c1.106,0.662,2.345,1.368,3.672,2.074c1.328,0.706,2.523,1.544,3.673,2.515
		c1.107,0.971,2.08,2.118,2.788,3.442c0.752,1.324,1.106,3.001,1.106,4.898c0,1.809-0.354,3.31-1.017,4.457
		c-0.664,1.191-1.593,2.074-2.7,2.736c-1.106,0.662-2.434,1.103-3.894,1.368c-1.46,0.264-3.009,0.397-4.602,0.397
		c-0.708,0-1.505-0.044-2.301-0.088c-0.797-0.045-1.549-0.133-2.345-0.221c-0.753-0.088-1.461-0.221-2.169-0.353
		c-0.664-0.133-1.239-0.265-1.726-0.441c-0.486-0.177-0.752-0.353-0.84-0.53c-0.089-0.221-0.133-0.574-0.045-1.059
		c0.089-0.927,0.266-1.721,0.531-2.339C331.344,122.482,331.698,122.173,332.141,122.305 M313.953,98.477h-6.593v11.429h6.593
		c1.284,0,2.346-0.089,3.098-0.221c0.797-0.132,1.372-0.397,1.814-0.794c0.443-0.397,0.709-0.883,0.841-1.545
		c0.133-0.661,0.221-1.544,0.221-2.603v-1.059c0-1.059-0.088-1.942-0.221-2.648c-0.132-0.661-0.442-1.191-0.841-1.588
		c-0.442-0.397-1.017-0.618-1.814-0.795C316.255,98.565,315.237,98.477,313.953,98.477 M301.652,127.115V94.638
		c0-0.353,0.132-0.618,0.442-0.883c0.31-0.22,0.62-0.352,1.062-0.352h10.488c2.168,0,4.027,0.176,5.575,0.485
		c1.549,0.309,2.788,0.882,3.762,1.677c0.973,0.794,1.681,1.853,2.124,3.177c0.443,1.324,0.664,2.956,0.664,4.986v1.059
		c0,1.5-0.133,2.78-0.354,3.883c-0.222,1.103-0.62,2.074-1.107,2.869c-0.486,0.794-1.194,1.412-2.035,1.897
		s-1.859,0.838-3.009,1.103l6.593,11.385c0.354,0.617,0.531,1.059,0.531,1.368c0,0.176-0.088,0.353-0.221,0.485
		c-0.177,0.132-0.354,0.221-0.531,0.265c-0.177,0.044-0.398,0.088-0.575,0.132c-0.222,0-0.354,0.044-0.443,0.044
		c-0.265,0-0.664,0-1.106-0.044c-0.443-0.044-0.885-0.088-1.328-0.176c-0.442-0.089-0.885-0.177-1.239-0.353
		c-0.354-0.177-0.619-0.398-0.796-0.662l-6.992-11.914h-5.841v11.914c0,0.397-0.133,0.662-0.443,0.882
		c-0.265,0.221-0.619,0.353-1.018,0.353c-0.265,0-0.663,0-1.15-0.044c-0.487-0.044-0.929-0.088-1.416-0.132
		c-0.443-0.044-0.841-0.177-1.195-0.309C301.829,127.468,301.652,127.336,301.652,127.115 M273.773,126.586V94.638
		c0-0.397,0.133-0.706,0.443-0.927c0.265-0.22,0.619-0.308,1.062-0.308h19.072c0.354,0,0.664,0.132,0.885,0.441
		c0.221,0.265,0.354,0.617,0.354,0.971c0,0.264,0,0.573-0.044,1.014c-0.044,0.442-0.089,0.839-0.133,1.236
		c-0.044,0.397-0.177,0.75-0.265,1.015c-0.133,0.265-0.31,0.441-0.487,0.441h-15.134v9.178h12.966c0.309,0,0.575,0.133,0.84,0.397
		c0.222,0.265,0.354,0.574,0.354,0.927c0,0.265,0,0.574-0.044,1.015c-0.044,0.441-0.088,0.838-0.133,1.236
		c-0.044,0.397-0.177,0.75-0.265,1.059c-0.133,0.264-0.266,0.441-0.487,0.441h-13.275v9.708h14.824c0.354,0,0.664,0.132,0.885,0.397
		c0.221,0.265,0.354,0.574,0.354,0.971c0,0.264,0,0.573-0.044,1.015c-0.045,0.397-0.089,0.838-0.133,1.235
		c-0.044,0.397-0.177,0.75-0.266,1.059c-0.132,0.309-0.309,0.441-0.486,0.441h-18.675c-0.442,0-0.929-0.088-1.416-0.309
		C273.994,127.027,273.773,126.806,273.773,126.586 M256.338,118.466l7.169-24.578c0.442-0.442,0.973-0.706,1.548-0.839
		c0.576-0.088,1.239-0.176,2.036-0.176c0.31,0,0.664,0,0.974,0.044c0.353,0.044,0.619,0.088,0.84,0.221
		c0.222,0.132,0.399,0.265,0.531,0.485c0.133,0.221,0.089,0.486,0,0.883l-11.018,32.874c-0.045,0.265-0.222,0.441-0.487,0.574
		c-0.266,0.132-0.531,0.176-0.841,0.176c-1.062,0-1.947-0.044-2.655-0.176c-0.708-0.133-1.151-0.309-1.328-0.53l-10.974-32.918
		c-0.088-0.309-0.088-0.574,0-0.795c0.089-0.22,0.221-0.353,0.442-0.485c0.178-0.132,0.399-0.221,0.664-0.265
		c0.222-0.044,0.443-0.088,0.576-0.088c0.486,0,0.973,0,1.46,0.044s0.929,0.088,1.372,0.177c0.398,0.088,0.752,0.22,1.062,0.352
		c0.265,0.177,0.487,0.354,0.575,0.618l7.346,24.358c0.133,0.397,0.221,0.794,0.265,1.192c0.045,0.441,0.089,0.794,0.177,1.147
		c0.045-0.353,0.089-0.75,0.133-1.147C256.117,119.216,256.205,118.819,256.338,118.466 M237.929,126.85
		c0,0.397-0.133,0.706-0.442,0.927c-0.266,0.221-0.62,0.353-1.062,0.353c-0.266,0-0.664,0-1.151-0.044
		c-0.487-0.044-0.929-0.088-1.416-0.132c-0.442-0.045-0.841-0.177-1.195-0.309c-0.354-0.133-0.487-0.309-0.487-0.486V93.932
		c0-0.177,0.177-0.353,0.487-0.486c0.354-0.132,0.708-0.264,1.195-0.308c0.442-0.044,0.929-0.133,1.416-0.133
		c0.487-0.044,0.841-0.044,1.151-0.044c0.398,0,0.752,0.133,1.062,0.397c0.265,0.265,0.442,0.574,0.442,0.927V126.85z
		 M220.494,117.584V93.755c0-0.176,0.177-0.352,0.531-0.441c0.354-0.132,0.752-0.22,1.239-0.265c0.487-0.044,0.974-0.088,1.46-0.132
		c0.487-0.044,0.885-0.044,1.151-0.044c0.841,0,1.239,0.485,1.239,1.412v32.565c0,0.397-0.133,0.662-0.442,0.883
		c-0.31,0.221-0.62,0.353-0.974,0.353c-0.266,0-0.575,0-1.018-0.044c-0.442-0.044-0.841-0.044-1.283-0.133
		c-0.443-0.088-0.797-0.176-1.151-0.264c-0.354-0.133-0.575-0.265-0.708-0.442l-15.444-23.696v23.343
		c0,0.397-0.132,0.706-0.442,0.927c-0.266,0.221-0.62,0.353-1.018,0.353c-0.265,0-0.664,0-1.15-0.044
		c-0.487-0.044-0.974-0.088-1.417-0.132c-0.442-0.045-0.84-0.177-1.15-0.309c-0.354-0.133-0.487-0.309-0.487-0.486V93.932
		c0-0.177,0.177-0.353,0.487-0.485c0.354-0.133,0.708-0.265,1.15-0.309c0.443-0.044,0.886-0.089,1.372-0.133
		c0.487-0.044,0.841-0.044,1.151-0.044c0.354,0,0.664,0.088,0.885,0.309c0.221,0.221,0.442,0.441,0.575,0.706L220.494,117.584z
		 M187.571,115.466V94.02c0-0.176,0.177-0.353,0.486-0.485c0.355-0.132,0.753-0.265,1.195-0.353
		c0.487-0.088,0.974-0.177,1.416-0.221c0.487-0.044,0.841-0.088,1.151-0.088c0.398,0,0.752,0.132,1.018,0.441
		c0.265,0.309,0.398,0.618,0.398,0.971v21.446c0,2.338-0.266,4.28-0.797,5.868c-0.531,1.589-1.283,2.824-2.345,3.839
		c-1.062,0.971-2.389,1.677-3.983,2.074c-1.593,0.397-3.495,0.618-5.62,0.618h-0.398c-2.08,0-3.938-0.221-5.487-0.618
		c-1.593-0.397-2.876-1.103-3.938-2.074c-1.062-0.97-1.815-2.25-2.346-3.839c-0.531-1.544-0.796-3.53-0.796-5.868V94.02
		c0-0.176,0.177-0.353,0.486-0.485c0.355-0.132,0.708-0.265,1.195-0.353c0.443-0.088,0.93-0.177,1.416-0.221
		c0.487-0.044,0.885-0.088,1.151-0.088c0.398,0,0.708,0.132,1.018,0.441c0.265,0.309,0.442,0.618,0.442,0.971v21.137
		c0,1.367,0.089,2.515,0.31,3.486c0.221,0.97,0.575,1.765,1.106,2.338c0.531,0.618,1.239,1.059,2.124,1.324s1.992,0.441,3.319,0.441
		h0.398c1.372,0,2.479-0.132,3.408-0.441c0.885-0.309,1.637-0.75,2.168-1.324c0.531-0.618,0.93-1.368,1.151-2.338
		C187.482,117.981,187.571,116.834,187.571,115.466 M393.474,38.244v40.994h-11.329V16.622h15.798l15.179,38.567V16.622h11.505
		v62.616h-14.426L393.474,38.244z M360.949,16.622h12.745v62.615h-12.745V16.622z M312.051,16.622h13.098v27.226l16.329-27.226
		h13.674l-18.143,28.815l18.143,33.845h-15.179l-14.824-30.447v30.447h-13.098V16.622z M290.721,65.338H272.49l-3.319,13.944
		h-13.143l17.701-62.66h16.727l17.435,62.66h-13.762L290.721,65.338z M288.11,54.439l-6.283-25.903l-6.594,25.903H288.11z
		 M217.928,16.622h33.94v10.635h-20.665v13.37h19.028v10.899h-19.028v16.68h20.71v11.032h-33.985V16.622z M189.12,16.622
		c16.771,0,21.948,8.87,21.948,31.33c0,22.461-5.221,31.33-21.993,31.33h-21.506v-62.66H189.12z M180.756,68.471h5.974
		c9.78,0,11.019-5.736,11.019-20.74c0-14.958-1.239-20.695-11.019-20.695h-5.974V68.471z"/>
	<path style="clip-path:url(#SVGID_00000089543256031220637940000010314389991470911363_);fill:#FFFFFF;" d="M71.713,1.288
		C32.549,1.288,0.799,32.947,0.799,72s31.749,70.712,70.913,70.712S142.625,111.053,142.625,72S110.877,1.288,71.713,1.288"/>
	<path style="clip-path:url(#SVGID_00000089543256031220637940000010314389991470911363_);fill:#FFFFFF;" d="M71.713,2.968
		c38.175,0,69.233,30.968,69.233,69.032s-31.058,69.032-69.233,69.032S2.479,110.064,2.479,72S33.538,2.968,71.713,2.968"/>
	<path style="clip-path:url(#SVGID_00000089543256031220637940000010314389991470911363_);" d="M95.076,94.204L68.262,47.816
		l3.533-5.928l30.099,52.316H95.076z M82.396,94.204L61.86,58.843l3.45-5.804l23.655,41.165H82.396z M69.509,94.204L55.416,69.953
		l3.575-6.011l17.336,30.22h-6.818V94.204z M56.539,94.204l-7.567-13.1l3.576-6.011l10.933,19.111H56.539z M41.365,94.204
		l4.614-7.877l4.615,7.877H41.365z M35.503,36.416V85.83c0,19.94,16.213,36.107,36.209,36.107c19.997,0,36.21-16.167,36.21-36.107
		V36.416H35.503z"/>
</g>
<rect x="471.959" y="16.622" style="fill:#FFFFFF;" width="2" height="110.978"/>
<g>
	<defs>
		<rect id="SVGID_00000003805855673556157780000012188523760985755015_" width="1000" height="144"/>
	</defs>
	<clipPath id="SVGID_00000178198338890452174640000014474668927660276396_">
		<use xlink:href="#SVGID_00000003805855673556157780000012188523760985755015_"  style="overflow:visible;"/>
	</clipPath>
	<path style="clip-path:url(#SVGID_00000178198338890452174640000014474668927660276396_);fill:#FFFFFF;" d="M844.434,121.23h-6.136
		l3.036-10.159L844.434,121.23z M839.874,108.842l-6.009,18.948h2.46l1.396-4.51h7.315l1.371,4.51h2.703l-6.175-18.948H839.874z
		 M828.243,127.79h2.447v-18.948h-2.447V127.79z M815.838,108.842v18.948h9.339v-2.101h-6.93v-16.847H815.838z M808.119,121.23
		h-6.136l3.036-10.159L808.119,121.23z M803.558,108.842l-6.008,18.948h2.46l1.396-4.51h7.315l1.371,4.51h2.703l-6.175-18.948
		H803.558z M789.542,110.943c0.871,0,1.544,0.241,2.018,0.724c0.474,0.482,0.711,1.215,0.711,2.197c0,1.008-0.261,1.787-0.782,2.338
		c-0.521,0.551-1.345,0.826-2.472,0.826h-2.947v-6.085H789.542z M783.636,108.842v18.948h2.434v-8.712h2.05
		c1.102,0,1.866,0.094,2.293,0.282c0.427,0.188,0.754,0.493,0.98,0.916c0.226,0.423,0.37,1.031,0.429,1.825l0.103,1.474l0.102,2.062
		c0.017,0.351,0.064,0.714,0.141,1.089c0.077,0.376,0.18,0.73,0.308,1.064h2.523c-0.401-1.691-0.612-3.327-0.634-4.907
		c-0.021-1.58-0.239-2.75-0.653-3.51c-0.414-0.76-1.228-1.243-2.44-1.448c1.11-0.213,1.964-0.705,2.562-1.473
		c0.597-0.769,0.897-1.738,0.897-2.908c0-1.435-0.408-2.577-1.224-3.427c-0.816-0.85-1.885-1.275-3.209-1.275H783.636z
		 M768.258,108.842v2.101h4.958v16.847h2.434v-16.847h4.984v-2.101H768.258z M764.314,109.796c-0.876-0.858-2.163-1.287-3.863-1.287
		c-1.759,0-3.143,0.457-4.15,1.371c-1.008,0.914-1.512,2.135-1.512,3.664c0,0.973,0.231,1.832,0.692,2.575
		c0.461,0.743,1.17,1.405,2.126,1.985c0.957,0.581,1.975,1.136,3.056,1.666c1.08,0.53,1.791,1.063,2.133,1.601
		c0.341,0.538,0.512,1.076,0.512,1.614c0,0.914-0.307,1.647-0.922,2.198c-0.615,0.55-1.418,0.826-2.409,0.826
		c-0.965,0-1.748-0.303-2.35-0.91c-0.602-0.606-0.904-1.46-0.904-2.562v-0.551h-2.382v0.743c0,1.751,0.478,3.081,1.434,3.991
		c0.957,0.909,2.34,1.364,4.151,1.364c1.751,0,3.165-0.457,4.241-1.371c1.076-0.913,1.614-2.156,1.614-3.728
		c0-1.033-0.22-1.891-0.66-2.575c-0.44-0.683-1.078-1.326-1.915-1.928c-0.837-0.602-1.772-1.135-2.806-1.601
		c-1.033-0.465-1.817-0.995-2.351-1.589c-0.533-0.593-0.8-1.244-0.8-1.953c0-0.871,0.264-1.544,0.794-2.018
		c0.529-0.474,1.264-0.711,2.204-0.711c0.965,0,1.682,0.265,2.152,0.794c0.469,0.53,0.704,1.32,0.704,2.37v0.269h2.524v-0.422
		C765.627,111.929,765.189,110.655,764.314,109.796 M739.003,108.842v13.259c0,1.939,0.506,3.434,1.518,4.484
		c1.012,1.051,2.458,1.576,4.337,1.576c1.99,0,3.465-0.553,4.426-1.659c0.961-1.106,1.441-2.756,1.441-4.951v-12.709h-2.357v12.914
		c0,1.452-0.275,2.536-0.826,3.254c-0.551,0.717-1.437,1.076-2.658,1.076c-1.145,0-2.01-0.348-2.595-1.044s-0.877-1.698-0.877-3.005
		v-13.195H739.003z M731.901,121.23h-6.137l3.037-10.159L731.901,121.23z M727.34,108.842l-6.008,18.948h2.459l1.397-4.51h7.315
		l1.371,4.51h2.703l-6.175-18.948H727.34z M704.376,108.842v18.948h9.941v-2.101h-7.533v-6.585h6.829v-2.076h-6.829v-6.085h7.354
		v-2.101H704.376z M688.986,108.842v2.101h4.957v16.847h2.434v-16.847h4.984v-2.101H688.986z M676.942,115.171
		c0-1.657,0.269-2.859,0.807-3.607c0.538-0.747,1.426-1.121,2.665-1.121c1.255,0,2.154,0.408,2.697,1.224
		c0.542,0.816,0.813,2.052,0.813,3.709v4.496c0,1.845-0.092,3.148-0.275,3.908c-0.184,0.76-0.528,1.33-1.032,1.71
		c-0.504,0.38-1.247,0.57-2.229,0.57c-1.247,0-2.133-0.391-2.658-1.172c-0.525-0.782-0.788-2.133-0.788-4.055V115.171z
		 M684.955,110.149c-0.961-1.187-2.474-1.781-4.541-1.781c-2.067,0-3.572,0.562-4.516,1.685s-1.416,3.047-1.416,5.771v4.932
		c0,2.52,0.463,4.375,1.39,5.567c0.927,1.191,2.394,1.787,4.401,1.787c2.161,0,3.721-0.591,4.682-1.774s1.442-3.321,1.442-6.412
		v-3.549C686.397,113.411,685.916,111.336,684.955,110.149 M653.045,108.842v18.948h2.23v-16.821l5.278,16.821h2.254l5.355-16.821
		v16.821h2.306v-18.948h-3.856l-4.855,15.899l-4.804-15.899H653.045z M639.708,108.842v18.948h9.942v-2.101h-7.533v-6.585h6.828
		v-2.076h-6.828v-6.085h7.353v-2.101H639.708z M630.858,110.943c0.871,0,1.543,0.241,2.017,0.724
		c0.474,0.482,0.711,1.215,0.711,2.197c0,1.008-0.26,1.787-0.781,2.338c-0.521,0.551-1.345,0.826-2.473,0.826h-2.946v-6.085H630.858
		z M624.952,108.842v18.948h2.434v-8.712h2.05c1.101,0,1.866,0.094,2.293,0.282c0.427,0.188,0.754,0.493,0.98,0.916
		c0.226,0.423,0.369,1.031,0.429,1.825l0.103,1.474l0.102,2.062c0.017,0.351,0.064,0.714,0.141,1.089
		c0.077,0.376,0.179,0.73,0.307,1.064h2.524c-0.401-1.691-0.613-3.327-0.634-4.907c-0.021-1.58-0.239-2.75-0.653-3.51
		c-0.415-0.76-1.228-1.243-2.441-1.448c1.11-0.213,1.965-0.705,2.562-1.473c0.598-0.769,0.897-1.738,0.897-2.908
		c0-1.435-0.408-2.577-1.223-3.427c-0.816-0.85-1.886-1.275-3.209-1.275H624.952z M611.25,124.279
		c-0.435,0.641-0.965,1.128-1.588,1.461c-0.624,0.333-1.346,0.499-2.165,0.499c-1.196,0-2.159-0.341-2.889-1.024
		c-0.731-0.684-1.096-1.585-1.096-2.704c0-0.828,0.237-1.548,0.711-2.158c0.474-0.611,1.258-1.271,2.351-1.98L611.25,124.279z
		 M605.754,113.973c-0.359-0.594-0.538-1.13-0.538-1.608c0-0.598,0.19-1.067,0.57-1.409c0.38-0.342,0.891-0.513,1.531-0.513
		c0.658,0,1.164,0.167,1.518,0.5c0.355,0.333,0.532,0.79,0.532,1.371c0,0.563-0.179,1.144-0.538,1.742
		c-0.359,0.598-0.88,1.187-1.563,1.768C606.617,115.183,606.113,114.567,605.754,113.973 M611.052,114.703
		c0.465-0.798,0.698-1.612,0.698-2.44c0-1.196-0.383-2.103-1.147-2.723c-0.764-0.619-1.851-0.929-3.26-0.929
		c-1.435,0-2.556,0.31-3.363,0.929c-0.807,0.62-1.211,1.497-1.211,2.633c0,0.717,0.224,1.51,0.673,2.376
		c0.448,0.867,1.048,1.677,1.8,2.428c-1.461,0.829-2.518,1.67-3.171,2.524c-0.653,0.854-0.98,1.913-0.98,3.177
		c0,1.708,0.561,3.053,1.685,4.035c1.123,0.983,2.645,1.474,4.567,1.474c1.161,0,2.135-0.175,2.921-0.526
		c0.785-0.35,1.541-0.956,2.267-1.819l1.525,1.948h2.729l-3.037-4.062c0.359-0.623,0.622-1.383,0.788-2.28
		c0.167-0.897,0.25-1.87,0.25-2.921v-1.883H612.8c0.017,0.077,0.026,0.184,0.026,0.32v0.987c0,0.717-0.037,1.439-0.109,2.165
		c-0.073,0.726-0.186,1.358-0.34,1.896l-3.702-4.689C609.794,116.375,610.586,115.502,611.052,114.703 M584.725,108.842v18.948
		h9.339v-2.101h-6.931v-16.847H584.725z M577.006,121.23h-6.137l3.036-10.159L577.006,121.23z M572.445,108.842l-6.009,18.948h2.46
		l1.397-4.51h7.315l1.371,4.51h2.703l-6.175-18.948H572.445z M558.429,110.943c0.871,0,1.543,0.241,2.017,0.724
		c0.474,0.482,0.711,1.215,0.711,2.197c0,1.008-0.26,1.787-0.781,2.338c-0.521,0.551-1.345,0.826-2.473,0.826h-2.946v-6.085H558.429
		z M552.523,108.842v18.948h2.434v-8.712h2.05c1.101,0,1.866,0.094,2.293,0.282c0.427,0.188,0.753,0.493,0.98,0.916
		c0.226,0.423,0.369,1.031,0.429,1.825l0.102,1.474l0.103,2.062c0.017,0.351,0.064,0.714,0.141,1.089
		c0.077,0.376,0.179,0.73,0.307,1.064h2.524c-0.401-1.691-0.613-3.327-0.634-4.907c-0.021-1.58-0.239-2.75-0.653-3.51
		c-0.415-0.76-1.228-1.243-2.441-1.448c1.11-0.213,1.964-0.705,2.562-1.473c0.598-0.769,0.897-1.738,0.897-2.908
		c0-1.435-0.408-2.577-1.223-3.427c-0.816-0.85-1.886-1.275-3.21-1.275H552.523z M536.723,108.842v13.259
		c0,1.939,0.506,3.434,1.518,4.484c1.012,1.051,2.458,1.576,4.337,1.576c1.99,0,3.465-0.553,4.426-1.659
		c0.961-1.106,1.441-2.756,1.441-4.951v-12.709h-2.357v12.914c0,1.452-0.276,2.536-0.826,3.254
		c-0.551,0.717-1.437,1.076-2.659,1.076c-1.144,0-2.009-0.348-2.594-1.044c-0.585-0.696-0.877-1.698-0.877-3.005v-13.195H536.723z
		 M528.007,110.943c0.871,0,1.544,0.241,2.018,0.724c0.474,0.482,0.711,1.215,0.711,2.197c0,1.008-0.261,1.787-0.782,2.338
		c-0.521,0.551-1.345,0.826-2.472,0.826h-2.947v-6.085H528.007z M522.101,108.842v18.948h2.434v-8.712h2.05
		c1.102,0,1.866,0.094,2.293,0.282c0.427,0.188,0.754,0.493,0.98,0.916c0.226,0.423,0.369,1.031,0.429,1.825l0.103,1.474
		l0.102,2.062c0.017,0.351,0.064,0.714,0.141,1.089c0.077,0.376,0.18,0.73,0.308,1.064h2.523c-0.401-1.691-0.613-3.327-0.634-4.907
		c-0.021-1.58-0.239-2.75-0.653-3.51s-1.228-1.243-2.441-1.448c1.111-0.213,1.965-0.705,2.563-1.473
		c0.597-0.769,0.896-1.738,0.896-2.908c0-1.435-0.408-2.577-1.223-3.427c-0.816-0.85-1.886-1.275-3.209-1.275H522.101z"/>
	<path style="clip-path:url(#SVGID_00000178198338890452174640000014474668927660276396_);fill:#FFFFFF;" d="M963.107,80.296
		c-0.875-0.858-2.163-1.287-3.862-1.287c-1.76,0-3.144,0.457-4.151,1.371c-1.008,0.914-1.512,2.135-1.512,3.664
		c0,0.973,0.231,1.832,0.692,2.575c0.461,0.743,1.17,1.405,2.126,1.985c0.957,0.581,1.975,1.136,3.056,1.666
		c1.08,0.53,1.791,1.063,2.133,1.601c0.342,0.538,0.512,1.076,0.512,1.614c0,0.914-0.307,1.647-0.922,2.198
		c-0.615,0.55-1.418,0.826-2.408,0.826c-0.966,0-1.749-0.303-2.351-0.91c-0.602-0.606-0.903-1.46-0.903-2.562v-0.551h-2.383v0.743
		c0,1.751,0.478,3.081,1.435,3.991c0.956,0.909,2.34,1.364,4.15,1.364c1.751,0,3.165-0.457,4.241-1.371
		c1.076-0.913,1.614-2.156,1.614-3.728c0-1.033-0.22-1.891-0.66-2.575c-0.44-0.683-1.078-1.326-1.915-1.928
		c-0.837-0.602-1.772-1.135-2.806-1.601c-1.033-0.465-1.817-0.995-2.35-1.589c-0.534-0.593-0.801-1.244-0.801-1.953
		c0-0.871,0.264-1.544,0.794-2.018s1.264-0.711,2.204-0.711c0.965,0,1.682,0.265,2.152,0.794c0.469,0.53,0.704,1.32,0.704,2.37
		v0.269h2.524v-0.422C964.42,82.429,963.982,81.155,963.107,80.296 M948.324,80.296c-0.876-0.858-2.163-1.287-3.863-1.287
		c-1.759,0-3.143,0.457-4.15,1.371c-1.008,0.914-1.512,2.135-1.512,3.664c0,0.973,0.23,1.832,0.692,2.575
		c0.461,0.743,1.17,1.405,2.126,1.985c0.957,0.581,1.975,1.136,3.056,1.666c1.08,0.53,1.791,1.063,2.133,1.601
		c0.341,0.538,0.512,1.076,0.512,1.614c0,0.914-0.307,1.647-0.922,2.198c-0.615,0.55-1.418,0.826-2.409,0.826
		c-0.965,0-1.748-0.303-2.351-0.91c-0.602-0.606-0.903-1.46-0.903-2.562v-0.551h-2.383v0.743c0,1.751,0.479,3.081,1.435,3.991
		c0.957,0.909,2.34,1.364,4.151,1.364c1.751,0,3.164-0.457,4.24-1.371c1.077-0.913,1.615-2.156,1.615-3.728
		c0-1.033-0.22-1.891-0.66-2.575c-0.44-0.683-1.078-1.326-1.915-1.928c-0.837-0.602-1.773-1.135-2.806-1.601
		c-1.033-0.465-1.817-0.995-2.351-1.589c-0.534-0.593-0.8-1.244-0.8-1.953c0-0.871,0.264-1.544,0.794-2.018
		c0.529-0.474,1.264-0.711,2.203-0.711c0.965,0,1.683,0.265,2.153,0.794c0.469,0.53,0.704,1.32,0.704,2.37v0.269h2.524v-0.422
		C949.637,82.429,949.199,81.155,948.324,80.296 M925.341,85.671c0-1.657,0.269-2.859,0.807-3.607
		c0.539-0.747,1.427-1.121,2.665-1.121c1.256,0,2.154,0.408,2.697,1.224c0.542,0.816,0.813,2.052,0.813,3.709v4.496
		c0,1.845-0.091,3.148-0.275,3.908c-0.184,0.76-0.528,1.33-1.031,1.71c-0.504,0.38-1.247,0.57-2.229,0.57
		c-1.247,0-2.133-0.391-2.659-1.172c-0.525-0.782-0.788-2.133-0.788-4.055V85.671z M933.355,80.649
		c-0.961-1.187-2.475-1.781-4.542-1.781c-2.067,0-3.572,0.562-4.516,1.685c-0.943,1.123-1.415,3.047-1.415,5.771v4.932
		c0,2.52,0.463,4.375,1.39,5.567c0.926,1.191,2.393,1.787,4.4,1.787c2.161,0,3.722-0.591,4.683-1.774
		c0.961-1.183,1.441-3.321,1.441-6.412v-3.549C934.796,83.911,934.316,81.836,933.355,80.649 M914.229,81.443
		c0.871,0,1.543,0.241,2.017,0.724c0.474,0.482,0.711,1.215,0.711,2.197c0,1.008-0.26,1.787-0.781,2.338
		c-0.521,0.551-1.345,0.826-2.473,0.826h-2.946v-6.085H914.229z M908.323,79.342V98.29h2.434v-8.712h2.05
		c1.101,0,1.866,0.094,2.293,0.282c0.427,0.188,0.754,0.493,0.98,0.916c0.226,0.423,0.369,1.031,0.429,1.825l0.103,1.474
		l0.102,2.062c0.017,0.351,0.064,0.714,0.141,1.089c0.077,0.376,0.179,0.73,0.307,1.064h2.524c-0.401-1.691-0.613-3.327-0.634-4.907
		c-0.021-1.58-0.239-2.75-0.653-3.51c-0.415-0.76-1.228-1.243-2.441-1.448c1.11-0.213,1.964-0.705,2.562-1.473
		c0.598-0.769,0.897-1.738,0.897-2.908c0-1.435-0.408-2.577-1.223-3.427c-0.816-0.85-1.886-1.275-3.21-1.275H908.323z
		 M903.372,80.386c-0.82-0.833-2.088-1.249-3.805-1.249c-2.152,0-3.702,0.57-4.65,1.71c-0.948,1.14-1.422,3-1.422,5.58v3.997
		c0,3.108,0.474,5.246,1.422,6.412c0.948,1.165,2.357,1.748,4.228,1.748c1.887,0,3.307-0.467,4.259-1.403
		c0.952-0.935,1.429-2.367,1.429-4.298v-0.346h-2.486c-0.017,1.333-0.29,2.328-0.82,2.985c-0.529,0.658-1.306,0.987-2.331,0.987
		c-1.145,0-1.969-0.412-2.473-1.236c-0.504-0.825-0.756-2.24-0.756-4.247v-4.599c0-2.119,0.282-3.521,0.846-4.209
		c0.564-0.687,1.409-1.031,2.536-1.031c0.991,0,1.694,0.258,2.108,0.775c0.414,0.517,0.621,1.343,0.621,2.479v0.282h2.524v-0.5
		C904.602,82.498,904.192,81.219,903.372,80.386 M886.638,91.73h-6.137l3.037-10.159L886.638,91.73z M882.077,79.342l-6.008,18.948
		h2.459l1.397-4.51h7.315l1.371,4.51h2.703l-6.175-18.948H882.077z M867.062,80.296c-0.875-0.858-2.163-1.287-3.862-1.287
		c-1.76,0-3.143,0.457-4.151,1.371c-1.008,0.914-1.512,2.135-1.512,3.664c0,0.973,0.231,1.832,0.692,2.575s1.17,1.405,2.127,1.985
		c0.956,0.581,1.975,1.136,3.055,1.666c1.08,0.53,1.792,1.063,2.133,1.601c0.342,0.538,0.513,1.076,0.513,1.614
		c0,0.914-0.308,1.647-0.923,2.198c-0.615,0.55-1.418,0.826-2.408,0.826c-0.966,0-1.749-0.303-2.351-0.91
		c-0.602-0.606-0.903-1.46-0.903-2.562v-0.551h-2.383v0.743c0,1.751,0.478,3.081,1.435,3.991c0.956,0.909,2.34,1.364,4.15,1.364
		c1.751,0,3.165-0.457,4.241-1.371c1.076-0.913,1.614-2.156,1.614-3.728c0-1.033-0.22-1.891-0.66-2.575
		c-0.44-0.683-1.078-1.326-1.915-1.928c-0.837-0.602-1.772-1.135-2.805-1.601c-1.034-0.465-1.818-0.995-2.351-1.589
		c-0.534-0.593-0.801-1.244-0.801-1.953c0-0.871,0.265-1.544,0.794-2.018c0.53-0.474,1.264-0.711,2.204-0.711
		c0.965,0,1.682,0.265,2.152,0.794c0.47,0.53,0.705,1.32,0.705,2.37v0.269h2.523v-0.422
		C868.375,82.429,867.938,81.155,867.062,80.296 M844.275,79.342V98.29h9.941v-2.101h-7.533v-6.585h6.828v-2.076h-6.828v-6.085
		h7.354v-2.101H844.275z M822.69,79.342V98.29h2.229V81.469l5.278,16.821h2.255l5.355-16.821V98.29h2.306V79.342h-3.856
		l-4.856,15.899l-4.804-15.899H822.69z M809.245,85.671c0-1.657,0.269-2.859,0.807-3.607c0.538-0.747,1.426-1.121,2.665-1.121
		c1.255,0,2.154,0.408,2.696,1.224c0.543,0.816,0.814,2.052,0.814,3.709v4.496c0,1.845-0.092,3.148-0.276,3.908
		c-0.183,0.76-0.527,1.33-1.031,1.71c-0.504,0.38-1.247,0.57-2.229,0.57c-1.247,0-2.133-0.391-2.658-1.172
		c-0.526-0.782-0.788-2.133-0.788-4.055V85.671z M817.258,80.649c-0.961-1.187-2.475-1.781-4.541-1.781
		c-2.067,0-3.573,0.562-4.516,1.685c-0.944,1.123-1.416,3.047-1.416,5.771v4.932c0,2.52,0.463,4.375,1.39,5.567
		c0.927,1.191,2.393,1.787,4.401,1.787c2.16,0,3.721-0.591,4.682-1.774c0.961-1.183,1.441-3.321,1.441-6.412v-3.549
		C818.699,83.911,818.219,81.836,817.258,80.649 M801.873,80.386c-0.82-0.833-2.089-1.249-3.805-1.249
		c-2.153,0-3.703,0.57-4.651,1.71c-0.948,1.14-1.422,3-1.422,5.58v3.997c0,3.108,0.474,5.246,1.422,6.412
		c0.948,1.165,2.357,1.748,4.228,1.748c1.887,0,3.307-0.467,4.26-1.403c0.952-0.935,1.428-2.367,1.428-4.298v-0.346h-2.485
		c-0.018,1.333-0.291,2.328-0.82,2.985c-0.53,0.658-1.307,0.987-2.332,0.987c-1.145,0-1.969-0.412-2.472-1.236
		c-0.504-0.825-0.756-2.24-0.756-4.247v-4.599c0-2.119,0.282-3.521,0.845-4.209c0.564-0.687,1.409-1.031,2.537-1.031
		c0.991,0,1.693,0.258,2.107,0.775c0.414,0.517,0.622,1.343,0.622,2.479v0.282h2.523v-0.5
		C803.102,82.498,802.692,81.219,801.873,80.386 M777.145,79.342v2.101h4.957V98.29h2.435V81.443h4.983v-2.101H777.145z
		 M762.392,79.342v13.259c0,1.939,0.506,3.434,1.518,4.484c1.012,1.051,2.458,1.576,4.337,1.576c1.99,0,3.465-0.553,4.426-1.659
		c0.961-1.106,1.441-2.756,1.441-4.951V79.342h-2.357v12.914c0,1.452-0.275,2.536-0.826,3.254c-0.551,0.717-1.437,1.076-2.658,1.076
		c-1.145,0-2.01-0.348-2.595-1.044c-0.585-0.696-0.877-1.698-0.877-3.005V79.342H762.392z M749.043,85.671
		c0-1.657,0.269-2.859,0.807-3.607c0.538-0.747,1.426-1.121,2.665-1.121c1.255,0,2.154,0.408,2.697,1.224
		c0.542,0.816,0.813,2.052,0.813,3.709v4.496c0,1.845-0.092,3.148-0.275,3.908c-0.184,0.76-0.528,1.33-1.032,1.71
		c-0.504,0.38-1.247,0.57-2.229,0.57c-1.247,0-2.133-0.391-2.658-1.172c-0.525-0.782-0.788-2.133-0.788-4.055V85.671z
		 M757.056,80.649c-0.961-1.187-2.474-1.781-4.541-1.781s-3.573,0.562-4.516,1.685c-0.944,1.123-1.416,3.047-1.416,5.771v4.932
		c0,2.52,0.463,4.375,1.39,5.567c0.927,1.191,2.394,1.787,4.401,1.787c2.161,0,3.721-0.591,4.682-1.774s1.442-3.321,1.442-6.412
		v-3.549C758.498,83.911,758.017,81.836,757.056,80.649 M732.382,81.443c0.871,0,1.544,0.241,2.018,0.724
		c0.474,0.482,0.711,1.215,0.711,2.197c0,1.008-0.261,1.787-0.782,2.338c-0.521,0.551-1.345,0.826-2.472,0.826h-2.947v-6.085
		H732.382z M726.476,79.342V98.29h2.434v-8.712h2.05c1.102,0,1.866,0.094,2.293,0.282c0.427,0.188,0.754,0.493,0.98,0.916
		c0.226,0.423,0.369,1.031,0.429,1.825l0.103,1.474l0.102,2.062c0.017,0.351,0.064,0.714,0.141,1.089
		c0.077,0.376,0.18,0.73,0.308,1.064h2.523c-0.401-1.691-0.612-3.327-0.634-4.907c-0.021-1.58-0.239-2.75-0.653-3.51
		s-1.228-1.243-2.441-1.448c1.111-0.213,1.965-0.705,2.563-1.473c0.597-0.769,0.896-1.738,0.896-2.908
		c0-1.435-0.408-2.577-1.223-3.427c-0.816-0.85-1.885-1.275-3.209-1.275H726.476z M713.202,79.342V98.29h9.941v-2.101h-7.532v-6.585
		h6.828v-2.076h-6.828v-6.085h7.353v-2.101H713.202z M708.239,80.386c-0.82-0.833-2.088-1.249-3.805-1.249
		c-2.152,0-3.702,0.57-4.65,1.71c-0.948,1.14-1.422,3-1.422,5.58v3.997c0,3.108,0.474,5.246,1.422,6.412
		c0.948,1.165,2.357,1.748,4.227,1.748c1.888,0,3.308-0.467,4.26-1.403c0.952-0.935,1.428-2.367,1.428-4.298v-0.346h-2.485
		c-0.017,1.333-0.29,2.328-0.82,2.985c-0.529,0.658-1.307,0.987-2.331,0.987c-1.145,0-1.969-0.412-2.473-1.236
		c-0.504-0.825-0.756-2.24-0.756-4.247v-4.599c0-2.119,0.282-3.521,0.846-4.209c0.563-0.687,1.409-1.031,2.536-1.031
		c0.991,0,1.693,0.258,2.108,0.775c0.414,0.517,0.621,1.343,0.621,2.479v0.282h2.524v-0.5
		C709.469,82.498,709.059,81.219,708.239,80.386 M681.443,79.342V98.29h2.178V81.866l7.533,16.424h3.28V79.342h-2.153v16.219
		l-7.456-16.219H681.443z M673.664,91.73h-6.137l3.036-10.159L673.664,91.73z M669.103,79.342l-6.008,18.948h2.459l1.397-4.51h7.315
		l1.371,4.51h2.703l-6.175-18.948H669.103z M659.525,80.386c-0.82-0.833-2.088-1.249-3.805-1.249c-2.152,0-3.702,0.57-4.65,1.71
		c-0.948,1.14-1.422,3-1.422,5.58v3.997c0,3.108,0.474,5.246,1.422,6.412c0.948,1.165,2.357,1.748,4.227,1.748
		c1.888,0,3.308-0.467,4.26-1.403c0.952-0.935,1.429-2.367,1.429-4.298v-0.346H658.5c-0.017,1.333-0.29,2.328-0.82,2.985
		c-0.529,0.658-1.306,0.987-2.331,0.987c-1.145,0-1.969-0.412-2.473-1.236c-0.504-0.825-0.756-2.24-0.756-4.247v-4.599
		c0-2.119,0.282-3.521,0.846-4.209c0.563-0.687,1.409-1.031,2.536-1.031c0.991,0,1.693,0.258,2.108,0.775
		c0.414,0.517,0.621,1.343,0.621,2.479v0.282h2.524v-0.5C660.755,82.498,660.345,81.219,659.525,80.386 M631.206,79.342V98.29h9.941
		v-2.101h-7.533v-6.585h6.829v-2.076h-6.829v-6.085h7.354v-2.101H631.206z M618.959,79.342V98.29h9.34v-2.101h-6.931V79.342H618.959
		z M605.857,96.189v-6.765h2.691c1.007,0.018,1.785,0.124,2.331,0.321c0.547,0.196,0.987,0.561,1.32,1.095s0.499,1.189,0.499,1.966
		c0,1.179-0.331,2.037-0.992,2.575c-0.662,0.539-1.86,0.808-3.594,0.808H605.857z M605.857,87.349v-5.957h2.78
		c1.17,0,2.048,0.233,2.633,0.698c0.585,0.466,0.878,1.232,0.878,2.3c0,1.059-0.276,1.817-0.827,2.274
		c-0.551,0.457-1.402,0.685-2.556,0.685H605.857z M603.41,79.342V98.29h5.804c1.998,0,3.491-0.432,4.477-1.294
		c0.987-0.863,1.48-2.208,1.48-4.036c0-1.366-0.312-2.421-0.935-3.164c-0.624-0.743-1.597-1.2-2.921-1.371v-0.128
		c2.169-0.495,3.254-1.973,3.254-4.433c0-1.392-0.438-2.493-1.313-3.305c-0.876-0.811-2.065-1.217-3.568-1.217H603.41z
		 M595.581,91.73h-6.137l3.037-10.159L595.581,91.73z M591.02,79.342l-6.008,18.948h2.46l1.396-4.51h7.315l1.371,4.51h2.703
		l-6.175-18.948H591.02z M573.017,79.342v2.101h4.958V98.29h2.434V81.443h4.983v-2.101H573.017z M567.404,98.29h2.447V79.342h-2.447
		V98.29z M551.432,79.342v13.259c0,1.939,0.506,3.434,1.518,4.484c1.012,1.051,2.457,1.576,4.336,1.576
		c1.99,0,3.466-0.553,4.426-1.659c0.961-1.106,1.442-2.756,1.442-4.951V79.342h-2.358v12.914c0,1.452-0.275,2.536-0.826,3.254
		c-0.551,0.717-1.437,1.076-2.658,1.076c-1.145,0-2.009-0.348-2.594-1.044s-0.878-1.698-0.878-3.005V79.342H551.432z
		 M537.449,85.466c0-1.58,0.28-2.729,0.839-3.446c0.56-0.718,1.424-1.077,2.595-1.077c1.298,0,2.214,0.413,2.748,1.237
		c0.533,0.824,0.8,2.047,0.8,3.67v4.599c0,1.751-0.096,3.004-0.288,3.76c-0.192,0.756-0.545,1.301-1.057,1.634
		c-0.512,0.333-1.247,0.499-2.203,0.499c-1.256,0-2.142-0.388-2.659-1.166c-0.517-0.777-0.775-2.152-0.775-4.125V85.466z
		 M545.463,80.662c-0.953-1.196-2.471-1.794-4.555-1.794c-1.298,0-2.381,0.226-3.247,0.679c-0.867,0.453-1.529,1.2-1.986,2.242
		c-0.457,1.042-0.686,2.643-0.686,4.804v4.433c0,2.468,0.451,4.313,1.352,5.534c0.901,1.222,2.462,1.832,4.682,1.832
		c1.162,0,1.898-0.017,2.21-0.051c0.312-0.034,0.502-0.051,0.57-0.051h5.01v-2.076h-0.5c-0.863,0-1.48,0.028-1.851,0.083
		c-0.372,0.056-0.788,0.161-1.249,0.314c0.64-0.828,1.08-1.693,1.319-2.594c0.239-0.901,0.359-2.039,0.359-3.414v-3.702
		C546.891,83.937,546.415,81.857,545.463,80.662 M522.127,79.342V98.29h9.941v-2.101h-7.533v-6.585h6.829v-2.076h-6.829v-6.085
		h7.354v-2.101H522.127z"/>
	<path style="clip-path:url(#SVGID_00000178198338890452174640000014474668927660276396_);fill:#FFFFFF;" d="M700.306,24.684
		l4.399,18.367h-8.541L700.306,24.684z M695.05,16.543L683.339,58.79h8.74l2.4-9.369h12.025l2.343,9.369h9.312l-11.455-42.247
		H695.05z M661.223,23.056h1.885c2.685,0,4.437,0.428,5.256,1.285c0.818,0.857,1.228,2.333,1.228,4.428
		c0,2.113-0.414,3.646-1.243,4.598c-0.828,0.953-2.518,1.429-5.07,1.429h-2.056V23.056z M652.339,16.543V58.79h8.884V41.308h1.713
		c2.647,0,4.447,0.453,5.399,1.357c0.952,0.905,1.428,2.576,1.428,5.013v6.484c0,1.143,0.067,1.986,0.2,2.528
		c0.133,0.543,0.381,1.243,0.743,2.1h8.655c-0.191-0.571-0.328-1.324-0.414-2.257c-0.086-0.933-0.157-1.914-0.214-2.942
		l-0.429-7.255c-0.171-2.723-0.776-4.694-1.814-5.913c-1.038-1.219-2.947-2.018-5.727-2.4c2.609-0.494,4.537-1.58,5.784-3.256
		c1.247-1.675,1.871-4.018,1.871-7.027c0-3.808-0.933-6.627-2.799-8.455c-1.866-1.828-4.732-2.742-8.598-2.742H652.339z
		 M628.74,23.056h1.886c2.685,0,4.436,0.428,5.255,1.285c0.819,0.857,1.229,2.333,1.229,4.428c0,2.113-0.414,3.646-1.243,4.598
		c-0.828,0.953-2.518,1.429-5.07,1.429h-2.057V23.056z M619.857,16.543V58.79h8.883V41.308h1.714c2.647,0,4.446,0.453,5.399,1.357
		c0.952,0.905,1.428,2.576,1.428,5.013v6.484c0,1.143,0.067,1.986,0.2,2.528c0.133,0.543,0.381,1.243,0.743,2.1h8.655
		c-0.191-0.571-0.329-1.324-0.414-2.257c-0.086-0.933-0.158-1.914-0.215-2.942l-0.428-7.255c-0.171-2.723-0.776-4.694-1.814-5.913
		c-1.038-1.219-2.947-2.018-5.727-2.4c2.609-0.494,4.537-1.58,5.784-3.256c1.247-1.675,1.871-4.018,1.871-7.027
		c0-3.808-0.933-6.627-2.799-8.455c-1.867-1.828-4.733-2.742-8.598-2.742H619.857z M593.18,34.796c0-5.008,0.4-8.431,1.2-10.269
		s2.275-2.757,4.427-2.757c2.19,0,3.68,0.862,4.471,2.585c0.79,1.724,1.185,4.509,1.185,8.355v4.028
		c0,2.781-0.053,5.484-0.157,8.112c-0.105,2.628-0.543,4.69-1.314,6.185c-0.771,1.495-2.185,2.242-4.242,2.242
		c-1.467,0-2.595-0.438-3.385-1.314s-1.352-2.228-1.685-4.056c-0.334-1.828-0.5-5.008-0.5-9.541V34.796z M598.607,59.561
		c2.666,0,4.894-0.314,6.684-0.943c1.79-0.628,3.233-1.518,4.328-2.67c1.095-1.152,1.918-2.576,2.471-4.271
		c0.552-1.694,0.923-3.513,1.114-5.456c0.19-1.942,0.285-4.893,0.285-8.855c0-4.417-0.143-7.755-0.428-10.011
		c-0.286-2.257-0.881-4.294-1.785-6.113c-0.905-1.818-2.362-3.242-4.371-4.271c-2.009-1.028-4.727-1.542-8.155-1.542
		c-3.447,0-6.251,0.667-8.412,1.999c-2.162,1.334-3.728,3.438-4.699,6.313c-0.971,2.876-1.457,7.341-1.457,13.397
		c0,5.142,0.243,8.917,0.729,11.326c0.485,2.409,1.223,4.404,2.213,5.984c0.99,1.581,2.423,2.828,4.299,3.742
		C593.299,59.104,595.694,59.561,598.607,59.561 M578.558,28.597c0-4.36-1.043-7.564-3.128-9.612
		c-2.085-2.047-5.137-3.07-9.155-3.07c-3.428,0-6.156,0.566-8.184,1.699c-2.028,1.133-3.475,2.662-4.341,4.585
		c-0.867,1.923-1.424,4.009-1.672,6.255c-0.247,2.248-0.371,5.342-0.371,9.284c0,5.008,0.233,8.665,0.7,10.969
		c0.466,2.304,1.18,4.199,2.142,5.684c0.962,1.485,2.357,2.666,4.185,3.542s4.199,1.314,7.113,1.314c4.474,0,7.788-1.124,9.94-3.371
		c2.152-2.247,3.228-5.608,3.228-10.083v-1.228h-8.712v0.485c0,2.724-0.386,4.709-1.157,5.956c-0.771,1.247-1.91,1.871-3.414,1.871
		c-1.79,0-3.066-0.814-3.827-2.442c-0.762-1.628-1.181-3.685-1.257-6.17c-0.077-2.485-0.114-4.471-0.114-5.956
		c0-4.418,0.114-7.569,0.342-9.455c0.229-1.885,0.7-3.442,1.414-4.67c0.714-1.228,1.843-1.842,3.385-1.842
		c1.352,0,2.395,0.528,3.128,1.585c0.733,1.057,1.1,2.776,1.1,5.156v0.8h8.655V28.597z M523.685,16.543V58.79h23.509v-6.599h-14.683
		V39.966h13.111v-6.513h-13.111V23.056h14.226v-6.513H523.685z"/>
</g>
</svg>
