<?xml version="1.0" encoding="iso-8859-1"?>
<!-- Generator: Adobe Illustrator 29.5.1, SVG Export Plug-In . SVG Version: 9.03 Build 0)  -->
<svg version="1.1" id="Layer_1" xmlns="http://www.w3.org/2000/svg" xmlns:xlink="http://www.w3.org/1999/xlink" x="0px" y="0px"
	 viewBox="0 0 1000 144" style="enable-background:new 0 0 1000 144;" xml:space="preserve">
<g>
	<defs>
		<rect id="SVGID_1_" width="1000" height="144"/>
	</defs>
	<clipPath id="SVGID_00000089542682595428086350000008962815340963682981_">
		<use xlink:href="#SVGID_1_"  style="overflow:visible;"/>
	</clipPath>
	<path style="clip-path:url(#SVGID_00000089542682595428086350000008962815340963682981_);fill:#FFFFFF;" d="M414.759,115.025
		v11.825c0,0.397-0.133,0.706-0.443,0.927c-0.265,0.221-0.619,0.353-1.062,0.353c-0.265,0-0.664,0-1.106-0.044
		c-0.442-0.044-0.929-0.088-1.372-0.132c-0.442-0.045-0.841-0.177-1.195-0.309c-0.309-0.133-0.486-0.309-0.486-0.486v-12.09
		L398.74,94.903c-0.354-0.706-0.399-1.192-0.133-1.5c0.266-0.309,0.752-0.486,1.46-0.486c0.443,0,0.885,0,1.372,0.044
		c0.443,0,0.885,0.044,1.283,0.133c0.399,0.044,0.753,0.132,1.018,0.22c0.266,0.089,0.487,0.221,0.575,0.441l7.612,15.489
		l7.611-15.444c0.089-0.177,0.265-0.354,0.575-0.442c0.266-0.088,0.62-0.176,1.018-0.264c0.398-0.045,0.841-0.089,1.283-0.133
		c0.443,0,0.93-0.044,1.372-0.044c0.708,0,1.195,0.132,1.461,0.441c0.221,0.309,0.177,0.795-0.178,1.545L414.759,115.025z
		 M384.491,98.521v28.329c0,0.397-0.133,0.706-0.443,0.927c-0.31,0.221-0.619,0.353-1.018,0.353c-0.265,0-0.663,0-1.15-0.044
		c-0.487-0.044-0.974-0.088-1.416-0.132c-0.443-0.045-0.841-0.177-1.151-0.309c-0.354-0.133-0.486-0.309-0.486-0.486V98.565h-8.762
		c-0.354,0-0.62-0.132-0.885-0.397c-0.222-0.265-0.354-0.573-0.354-0.971c0-0.265,0-0.573,0.044-1.015
		c0.044-0.397,0.088-0.838,0.133-1.235c0.044-0.397,0.177-0.75,0.265-1.059c0.133-0.265,0.266-0.441,0.487-0.441h23.453
		c0.354,0,0.62,0.132,0.885,0.397c0.222,0.265,0.354,0.617,0.354,0.971c0,0.264,0,0.573-0.044,1.014
		c-0.044,0.442-0.088,0.839-0.133,1.236c-0.044,0.397-0.132,0.75-0.265,1.015s-0.266,0.441-0.487,0.441H384.491z M364.046,126.85
		c0,0.397-0.132,0.706-0.442,0.927c-0.266,0.221-0.62,0.353-1.062,0.353c-0.266,0-0.664,0-1.151-0.044
		c-0.486-0.044-0.929-0.088-1.416-0.132c-0.442-0.045-0.84-0.177-1.195-0.309c-0.309-0.133-0.486-0.309-0.486-0.486V93.932
		c0-0.177,0.177-0.353,0.486-0.486c0.355-0.132,0.753-0.264,1.195-0.308c0.443-0.044,0.93-0.133,1.416-0.133
		c0.487-0.044,0.841-0.044,1.151-0.044c0.398,0,0.752,0.133,1.062,0.397c0.265,0.265,0.442,0.574,0.442,0.927V126.85z
		 M332.141,122.305c0.265,0.044,0.62,0.177,1.151,0.265c0.531,0.132,1.106,0.265,1.814,0.397c0.664,0.133,1.416,0.221,2.257,0.353
		c0.796,0.088,1.637,0.133,2.434,0.133c0.885,0,1.725-0.089,2.522-0.221c0.796-0.132,1.549-0.397,2.168-0.706
		c0.62-0.353,1.151-0.794,1.505-1.324c0.398-0.574,0.575-1.235,0.575-2.074c0-1.147-0.354-2.118-1.106-2.912
		c-0.753-0.794-1.682-1.545-2.788-2.251c-1.106-0.706-2.345-1.412-3.673-2.118s-2.522-1.544-3.673-2.471
		c-1.15-0.926-2.08-2.03-2.788-3.309c-0.752-1.28-1.106-2.824-1.106-4.678c0-1.544,0.265-2.868,0.841-3.927
		c0.575-1.059,1.327-1.941,2.301-2.647c0.973-0.662,2.168-1.192,3.496-1.501c1.371-0.309,2.876-0.485,4.513-0.485
		c0.354,0,0.885,0,1.593,0.044s1.461,0.088,2.257,0.176c0.797,0.089,1.593,0.177,2.346,0.309c0.796,0.133,1.416,0.309,1.858,0.53
		c0.443,0.176,0.708,0.397,0.797,0.618c0.088,0.22,0.088,0.573,0.044,1.103c-0.044,0.838-0.221,1.5-0.531,2.074
		c-0.266,0.573-0.664,0.794-1.195,0.706c-0.796-0.177-1.681-0.309-2.699-0.486c-1.018-0.132-2.169-0.22-3.408-0.22
		c-1.947,0-3.584,0.309-4.823,0.838c-1.239,0.574-1.859,1.5-1.859,2.824c0,1.059,0.355,1.942,1.107,2.692
		c0.752,0.75,1.681,1.456,2.788,2.118c1.106,0.662,2.345,1.368,3.672,2.074c1.328,0.706,2.523,1.544,3.673,2.515
		c1.107,0.971,2.08,2.118,2.788,3.442c0.752,1.324,1.106,3.001,1.106,4.898c0,1.809-0.354,3.31-1.017,4.457
		c-0.664,1.191-1.593,2.074-2.7,2.736c-1.106,0.662-2.434,1.103-3.894,1.368c-1.46,0.264-3.009,0.397-4.602,0.397
		c-0.708,0-1.505-0.044-2.301-0.088c-0.797-0.045-1.549-0.133-2.345-0.221c-0.753-0.088-1.461-0.221-2.169-0.353
		c-0.664-0.133-1.239-0.265-1.726-0.441c-0.486-0.177-0.752-0.353-0.84-0.53c-0.089-0.221-0.133-0.574-0.045-1.059
		c0.089-0.927,0.266-1.721,0.531-2.339C331.344,122.482,331.698,122.173,332.141,122.305 M313.953,98.477h-6.593v11.429h6.593
		c1.284,0,2.346-0.089,3.098-0.221c0.797-0.132,1.372-0.397,1.814-0.794c0.443-0.397,0.709-0.883,0.841-1.545
		c0.133-0.661,0.221-1.544,0.221-2.603v-1.059c0-1.059-0.088-1.942-0.221-2.648c-0.132-0.661-0.442-1.191-0.841-1.588
		c-0.442-0.397-1.017-0.618-1.814-0.795C316.255,98.565,315.237,98.477,313.953,98.477 M301.652,127.115V94.638
		c0-0.353,0.132-0.618,0.442-0.883c0.31-0.22,0.62-0.352,1.062-0.352h10.488c2.168,0,4.027,0.176,5.575,0.485
		c1.549,0.309,2.788,0.882,3.762,1.677c0.973,0.794,1.681,1.853,2.124,3.177c0.443,1.324,0.664,2.956,0.664,4.986v1.059
		c0,1.5-0.133,2.78-0.354,3.883c-0.222,1.103-0.62,2.074-1.107,2.869c-0.486,0.794-1.194,1.412-2.035,1.897
		s-1.859,0.838-3.009,1.103l6.593,11.385c0.354,0.617,0.531,1.059,0.531,1.368c0,0.176-0.088,0.353-0.221,0.485
		c-0.177,0.132-0.354,0.221-0.531,0.265c-0.177,0.044-0.398,0.088-0.575,0.132c-0.222,0-0.354,0.044-0.443,0.044
		c-0.265,0-0.664,0-1.106-0.044c-0.443-0.044-0.885-0.088-1.328-0.176c-0.442-0.089-0.885-0.177-1.239-0.353
		c-0.354-0.177-0.619-0.398-0.796-0.662l-6.992-11.914h-5.841v11.914c0,0.397-0.133,0.662-0.443,0.882
		c-0.265,0.221-0.619,0.353-1.018,0.353c-0.265,0-0.663,0-1.15-0.044c-0.487-0.044-0.929-0.088-1.416-0.132
		c-0.443-0.044-0.841-0.177-1.195-0.309C301.829,127.468,301.652,127.336,301.652,127.115 M273.773,126.586V94.638
		c0-0.397,0.133-0.706,0.443-0.927c0.265-0.22,0.619-0.308,1.062-0.308h19.072c0.354,0,0.664,0.132,0.885,0.441
		c0.221,0.265,0.354,0.617,0.354,0.971c0,0.264,0,0.573-0.044,1.014c-0.044,0.442-0.089,0.839-0.133,1.236
		c-0.044,0.397-0.177,0.75-0.265,1.015c-0.133,0.265-0.31,0.441-0.487,0.441h-15.134v9.178h12.966c0.309,0,0.575,0.133,0.84,0.397
		c0.222,0.265,0.354,0.574,0.354,0.927c0,0.265,0,0.574-0.044,1.015c-0.044,0.441-0.088,0.838-0.133,1.236
		c-0.044,0.397-0.177,0.75-0.265,1.059c-0.133,0.264-0.266,0.441-0.487,0.441h-13.275v9.708h14.824c0.354,0,0.664,0.132,0.885,0.397
		c0.221,0.265,0.354,0.574,0.354,0.971c0,0.264,0,0.573-0.044,1.015c-0.045,0.397-0.089,0.838-0.133,1.235
		c-0.044,0.397-0.177,0.75-0.266,1.059c-0.132,0.309-0.309,0.441-0.486,0.441h-18.675c-0.442,0-0.929-0.088-1.416-0.309
		C273.994,127.027,273.773,126.806,273.773,126.586 M256.338,118.466l7.169-24.578c0.442-0.442,0.973-0.706,1.548-0.839
		c0.576-0.088,1.239-0.176,2.036-0.176c0.31,0,0.664,0,0.974,0.044c0.353,0.044,0.619,0.088,0.84,0.221
		c0.222,0.132,0.399,0.265,0.531,0.485c0.133,0.221,0.089,0.486,0,0.883l-11.018,32.874c-0.045,0.265-0.222,0.441-0.487,0.574
		c-0.266,0.132-0.531,0.176-0.841,0.176c-1.062,0-1.947-0.044-2.655-0.176c-0.708-0.133-1.151-0.309-1.328-0.53l-10.974-32.918
		c-0.088-0.309-0.088-0.574,0-0.795c0.089-0.22,0.221-0.353,0.442-0.485c0.178-0.132,0.399-0.221,0.664-0.265
		c0.222-0.044,0.443-0.088,0.576-0.088c0.486,0,0.973,0,1.46,0.044s0.929,0.088,1.372,0.177c0.398,0.088,0.752,0.22,1.062,0.352
		c0.265,0.177,0.487,0.354,0.575,0.618l7.346,24.358c0.133,0.397,0.221,0.794,0.265,1.192c0.045,0.441,0.089,0.794,0.177,1.147
		c0.045-0.353,0.089-0.75,0.133-1.147C256.117,119.216,256.205,118.819,256.338,118.466 M237.929,126.85
		c0,0.397-0.133,0.706-0.442,0.927c-0.266,0.221-0.62,0.353-1.062,0.353c-0.266,0-0.664,0-1.151-0.044
		c-0.487-0.044-0.929-0.088-1.416-0.132c-0.442-0.045-0.841-0.177-1.195-0.309c-0.354-0.133-0.487-0.309-0.487-0.486V93.932
		c0-0.177,0.177-0.353,0.487-0.486c0.354-0.132,0.708-0.264,1.195-0.308c0.442-0.044,0.929-0.133,1.416-0.133
		c0.487-0.044,0.841-0.044,1.151-0.044c0.398,0,0.752,0.133,1.062,0.397c0.265,0.265,0.442,0.574,0.442,0.927V126.85z
		 M220.494,117.584V93.755c0-0.176,0.177-0.352,0.531-0.441c0.354-0.132,0.752-0.22,1.239-0.265c0.487-0.044,0.974-0.088,1.46-0.132
		c0.487-0.044,0.885-0.044,1.151-0.044c0.841,0,1.239,0.485,1.239,1.412v32.565c0,0.397-0.133,0.662-0.442,0.883
		c-0.31,0.221-0.62,0.353-0.974,0.353c-0.266,0-0.575,0-1.018-0.044c-0.442-0.044-0.841-0.044-1.283-0.133
		c-0.443-0.088-0.797-0.176-1.151-0.264c-0.354-0.133-0.575-0.265-0.708-0.442l-15.444-23.696v23.343
		c0,0.397-0.132,0.706-0.442,0.927c-0.266,0.221-0.62,0.353-1.018,0.353c-0.265,0-0.664,0-1.15-0.044
		c-0.487-0.044-0.974-0.088-1.417-0.132c-0.442-0.045-0.84-0.177-1.15-0.309c-0.354-0.133-0.487-0.309-0.487-0.486V93.932
		c0-0.177,0.177-0.353,0.487-0.485c0.354-0.133,0.708-0.265,1.15-0.309c0.443-0.044,0.886-0.089,1.372-0.133
		c0.487-0.044,0.841-0.044,1.151-0.044c0.354,0,0.664,0.088,0.885,0.309c0.221,0.221,0.442,0.441,0.575,0.706L220.494,117.584z
		 M187.571,115.466V94.02c0-0.176,0.177-0.353,0.486-0.485c0.355-0.132,0.753-0.265,1.195-0.353
		c0.487-0.088,0.974-0.177,1.416-0.221c0.487-0.044,0.841-0.088,1.151-0.088c0.398,0,0.752,0.132,1.018,0.441
		c0.265,0.309,0.398,0.618,0.398,0.971v21.446c0,2.338-0.266,4.28-0.797,5.868c-0.531,1.589-1.283,2.824-2.345,3.839
		c-1.062,0.971-2.389,1.677-3.983,2.074c-1.593,0.397-3.495,0.618-5.62,0.618h-0.398c-2.08,0-3.938-0.221-5.487-0.618
		c-1.593-0.397-2.876-1.103-3.938-2.074c-1.062-0.97-1.815-2.25-2.346-3.839c-0.531-1.544-0.796-3.53-0.796-5.868V94.02
		c0-0.176,0.177-0.353,0.486-0.485c0.355-0.132,0.708-0.265,1.195-0.353c0.443-0.088,0.93-0.177,1.416-0.221
		c0.487-0.044,0.885-0.088,1.151-0.088c0.398,0,0.708,0.132,1.018,0.441c0.265,0.309,0.442,0.618,0.442,0.971v21.137
		c0,1.367,0.089,2.515,0.31,3.486c0.221,0.97,0.575,1.765,1.106,2.338c0.531,0.618,1.239,1.059,2.124,1.324s1.992,0.441,3.319,0.441
		h0.398c1.372,0,2.479-0.132,3.408-0.441c0.885-0.309,1.637-0.75,2.168-1.324c0.531-0.618,0.93-1.368,1.151-2.338
		C187.482,117.981,187.571,116.834,187.571,115.466 M393.474,38.244v40.994h-11.329V16.622h15.798l15.179,38.567V16.622h11.505
		v62.616h-14.426L393.474,38.244z M360.949,16.622h12.745v62.615h-12.745V16.622z M312.051,16.622h13.098v27.226l16.329-27.226
		h13.674l-18.143,28.815l18.143,33.845h-15.179l-14.824-30.447v30.447h-13.098V16.622z M290.721,65.338H272.49l-3.319,13.944
		h-13.143l17.701-62.66h16.727l17.435,62.66h-13.762L290.721,65.338z M288.11,54.439l-6.283-25.903l-6.594,25.903H288.11z
		 M217.928,16.622h33.94v10.635h-20.665v13.37h19.028v10.899h-19.028v16.68h20.71v11.032h-33.985V16.622z M189.12,16.622
		c16.771,0,21.948,8.87,21.948,31.33c0,22.461-5.221,31.33-21.993,31.33h-21.506v-62.66H189.12z M180.756,68.471h5.974
		c9.78,0,11.019-5.736,11.019-20.74c0-14.958-1.239-20.695-11.019-20.695h-5.974V68.471z"/>
	<path style="clip-path:url(#SVGID_00000089542682595428086350000008962815340963682981_);fill:#FFFFFF;" d="M71.713,1.288
		C32.549,1.288,0.799,32.947,0.799,72s31.749,70.712,70.913,70.712S142.625,111.053,142.625,72S110.877,1.288,71.713,1.288"/>
	<path style="clip-path:url(#SVGID_00000089542682595428086350000008962815340963682981_);fill:#FFFFFF;" d="M71.713,2.968
		c38.175,0,69.233,30.968,69.233,69.032s-31.058,69.032-69.233,69.032S2.479,110.064,2.479,72S33.538,2.968,71.713,2.968"/>
	<path style="clip-path:url(#SVGID_00000089542682595428086350000008962815340963682981_);" d="M95.076,94.204L68.262,47.816
		l3.533-5.928l30.099,52.316H95.076z M82.396,94.204L61.86,58.843l3.45-5.804l23.655,41.165H82.396z M69.509,94.204L55.416,69.953
		l3.575-6.011l17.336,30.22h-6.818V94.204z M56.539,94.204l-7.567-13.1l3.576-6.011l10.933,19.111H56.539z M41.365,94.204
		l4.614-7.877l4.615,7.877H41.365z M35.503,36.416V85.83c0,19.94,16.213,36.107,36.209,36.107c19.997,0,36.21-16.167,36.21-36.107
		V36.416H35.503z"/>
</g>
<rect x="471.959" y="16.622" style="fill:#FFFFFF;" width="2" height="110.978"/>
<g>
	<defs>
		<rect id="SVGID_00000088832181975961043930000012829401987311348138_" width="1000" height="144"/>
	</defs>
	<clipPath id="SVGID_00000018939320711067458300000002635925162655835069_">
		<use xlink:href="#SVGID_00000088832181975961043930000012829401987311348138_"  style="overflow:visible;"/>
	</clipPath>
	<path style="clip-path:url(#SVGID_00000018939320711067458300000002635925162655835069_);fill:#FFFFFF;" d="M977.544,121.23h-6.136
		l3.036-10.159L977.544,121.23z M972.984,108.842l-6.009,18.947h2.46l1.396-4.509h7.316l1.37,4.509h2.703l-6.175-18.947H972.984z
		 M961.353,127.789h2.447v-18.948h-2.447V127.789z M944.036,108.842v18.947h2.177v-16.423l7.533,16.423h3.28v-18.947h-2.152v16.219
		l-7.456-16.219H944.036z M930.676,108.842v18.947h9.942v-2.101h-7.533v-6.584h6.828v-2.076h-6.828v-6.085h7.353v-2.101H930.676z
		 M918.782,110.943h2.831c1.084,0,1.885,0.263,2.402,0.788c0.517,0.525,0.775,1.296,0.775,2.312c0,1.204-0.31,2.056-0.929,2.556
		s-1.569,0.749-2.85,0.749h-2.229V110.943z M916.36,108.842v18.947h2.422v-8.34h2.831c1.802,0,3.183-0.433,4.144-1.3
		c0.961-0.867,1.441-2.193,1.441-3.978c0-1.836-0.437-3.183-1.313-4.042c-0.875-0.858-2.24-1.287-4.093-1.287H916.36z
		 M902.805,115.171c0-1.657,0.269-2.859,0.807-3.607c0.538-0.747,1.427-1.121,2.665-1.121c1.256,0,2.154,0.408,2.697,1.224
		c0.542,0.815,0.813,2.052,0.813,3.709v4.496c0,1.845-0.092,3.148-0.275,3.908c-0.184,0.76-0.528,1.33-1.031,1.71
		c-0.504,0.38-1.248,0.57-2.23,0.57c-1.247,0-2.133-0.391-2.658-1.172c-0.525-0.782-0.788-2.133-0.788-4.055V115.171z
		 M910.819,110.149c-0.961-1.187-2.475-1.781-4.542-1.781s-3.572,0.562-4.516,1.685s-1.415,3.047-1.415,5.771v4.932
		c0,2.52,0.463,4.375,1.39,5.567c0.926,1.191,2.393,1.787,4.4,1.787c2.161,0,3.722-0.592,4.683-1.775
		c0.96-1.182,1.441-3.32,1.441-6.412v-3.548C912.26,113.411,911.779,111.336,910.819,110.149 M895.433,109.886
		c-0.82-0.833-2.088-1.249-3.805-1.249c-2.152,0-3.702,0.57-4.65,1.71s-1.422,3-1.422,5.579v3.997c0,3.109,0.474,5.247,1.422,6.412
		c0.948,1.166,2.357,1.749,4.227,1.749c1.888,0,3.308-0.468,4.26-1.403c0.952-0.935,1.429-2.368,1.429-4.298v-0.346h-2.486
		c-0.017,1.333-0.29,2.328-0.82,2.985c-0.529,0.658-1.306,0.987-2.331,0.987c-1.145,0-1.969-0.412-2.473-1.237
		c-0.504-0.824-0.756-2.239-0.756-4.246v-4.6c0-2.118,0.282-3.52,0.846-4.208c0.563-0.687,1.409-1.031,2.536-1.031
		c0.991,0,1.693,0.258,2.108,0.775c0.414,0.517,0.621,1.343,0.621,2.479v0.282h2.524v-0.5
		C896.663,111.998,896.253,110.719,895.433,109.886 M877.004,110.943c0.871,0,1.543,0.241,2.017,0.724
		c0.474,0.482,0.711,1.215,0.711,2.197c0,1.008-0.26,1.787-0.781,2.338s-1.345,0.826-2.473,0.826h-2.946v-6.085H877.004z
		 M871.098,108.842v18.947h2.434v-8.711h2.05c1.101,0,1.866,0.094,2.293,0.282s0.753,0.493,0.98,0.916
		c0.226,0.423,0.369,1.031,0.429,1.825l0.102,1.474l0.103,2.062c0.017,0.351,0.064,0.713,0.141,1.089
		c0.077,0.376,0.179,0.73,0.307,1.063h2.524c-0.401-1.691-0.613-3.326-0.634-4.906c-0.021-1.58-0.239-2.75-0.653-3.51
		c-0.415-0.76-1.228-1.243-2.441-1.448c1.11-0.213,1.964-0.705,2.562-1.473c0.598-0.769,0.897-1.738,0.897-2.908
		c0-1.435-0.408-2.577-1.223-3.427c-0.816-0.85-1.886-1.275-3.21-1.275H871.098z M863.404,121.23h-6.137l3.036-10.159
		L863.404,121.23z M858.843,108.842l-6.008,18.947h2.459l1.397-4.509h7.315l1.371,4.509h2.703l-6.175-18.947H858.843z
		 M849.135,109.796c-0.875-0.858-2.163-1.287-3.862-1.287c-1.76,0-3.144,0.457-4.151,1.371c-1.008,0.914-1.512,2.135-1.512,3.664
		c0,0.973,0.231,1.832,0.692,2.575c0.461,0.743,1.17,1.405,2.127,1.985c0.956,0.581,1.974,1.136,3.055,1.666
		c1.08,0.529,1.791,1.063,2.133,1.601c0.341,0.538,0.512,1.076,0.512,1.614c0,0.914-0.307,1.647-0.922,2.197
		c-0.615,0.551-1.418,0.827-2.408,0.827c-0.966,0-1.749-0.303-2.351-0.91c-0.602-0.606-0.903-1.46-0.903-2.562v-0.551h-2.383v0.743
		c0,1.751,0.478,3.081,1.435,3.991c0.956,0.909,2.34,1.364,4.15,1.364c1.751,0,3.165-0.457,4.241-1.371
		c1.076-0.913,1.614-2.156,1.614-3.728c0-1.033-0.22-1.891-0.66-2.575c-0.44-0.683-1.078-1.326-1.915-1.928
		s-1.772-1.136-2.806-1.601c-1.033-0.466-1.817-0.995-2.351-1.589c-0.533-0.593-0.8-1.244-0.8-1.953
		c0-0.872,0.264-1.544,0.794-2.018c0.53-0.474,1.264-0.711,2.204-0.711c0.965,0,1.682,0.265,2.152,0.794
		c0.469,0.53,0.704,1.32,0.704,2.37v0.269h2.524v-0.423C850.448,111.929,850.01,110.655,849.135,109.796 M820.605,125.688v-14.745
		h2.703c1.161,0,2.041,0.203,2.639,0.608c0.598,0.406,1.007,1.079,1.23,2.018c0.222,0.94,0.333,2.434,0.333,4.484
		c0,2.451-0.131,4.132-0.391,5.041c-0.261,0.91-0.711,1.57-1.352,1.98c-0.64,0.409-1.729,0.614-3.266,0.614H820.605z
		 M818.17,108.842v18.947h4.331c1.827,0,3.283-0.262,4.368-0.787c1.085-0.526,1.864-1.373,2.338-2.543
		c0.474-1.17,0.711-3.096,0.711-5.778c0-2.46-0.117-4.236-0.352-5.33c-0.235-1.093-0.583-1.958-1.044-2.594
		s-1.098-1.114-1.909-1.435c-0.812-0.32-1.772-0.48-2.882-0.48H818.17z M804.859,108.842v18.947h9.941v-2.101h-7.532v-6.584h6.828
		v-2.076h-6.828v-6.085h7.353v-2.101H804.859z M789.469,108.842v2.101h4.957v16.846h2.435v-16.846h4.983v-2.101H789.469z
		 M785.154,121.23h-6.136l3.036-10.159L785.154,121.23z M780.594,108.842l-6.009,18.947h2.46l1.396-4.509h7.315l1.371,4.509h2.703
		l-6.175-18.947H780.594z M763.181,108.842v18.947h9.339v-2.101h-6.93v-16.846H763.181z M749.882,108.842v18.947h9.942v-2.101
		h-7.533v-6.584h6.828v-2.076h-6.828v-6.085h7.353v-2.101H749.882z M741.032,110.943c0.871,0,1.543,0.241,2.017,0.724
		c0.474,0.482,0.711,1.215,0.711,2.197c0,1.008-0.26,1.787-0.781,2.338s-1.345,0.826-2.473,0.826h-2.946v-6.085H741.032z
		 M735.126,108.842v18.947h2.434v-8.711h2.05c1.101,0,1.866,0.094,2.293,0.282s0.753,0.493,0.98,0.916
		c0.226,0.423,0.369,1.031,0.429,1.825l0.103,1.474l0.102,2.062c0.017,0.351,0.064,0.713,0.141,1.089
		c0.077,0.376,0.179,0.73,0.307,1.063h2.524c-0.401-1.691-0.613-3.326-0.634-4.906c-0.021-1.58-0.239-2.75-0.653-3.51
		c-0.415-0.76-1.228-1.243-2.441-1.448c1.11-0.213,1.964-0.705,2.562-1.473c0.598-0.769,0.897-1.738,0.897-2.908
		c0-1.435-0.408-2.577-1.223-3.427c-0.816-0.85-1.886-1.275-3.209-1.275H735.126z M725.716,121.653h5.765v-1.947h-5.765V121.653z
		 M717.519,110.943c0.871,0,1.544,0.241,2.018,0.724c0.474,0.482,0.711,1.215,0.711,2.197c0,1.008-0.261,1.787-0.782,2.338
		s-1.345,0.826-2.472,0.826h-2.947v-6.085H717.519z M711.613,108.842v18.947h2.434v-8.711h2.05c1.102,0,1.866,0.094,2.293,0.282
		s0.754,0.493,0.98,0.916s0.37,1.031,0.429,1.825l0.103,1.474l0.102,2.062c0.017,0.351,0.064,0.713,0.141,1.089
		c0.077,0.376,0.18,0.73,0.308,1.063h2.524c-0.402-1.691-0.613-3.326-0.635-4.906c-0.021-1.58-0.239-2.75-0.653-3.51
		c-0.414-0.76-1.228-1.243-2.44-1.448c1.11-0.213,1.964-0.705,2.562-1.473c0.598-0.769,0.897-1.738,0.897-2.908
		c0-1.435-0.408-2.577-1.224-3.427c-0.816-0.85-1.885-1.275-3.209-1.275H711.613z M698.339,108.842v18.947h9.942v-2.101h-7.533
		v-6.584h6.828v-2.076h-6.828v-6.085h7.353v-2.101H698.339z M693.376,109.886c-0.82-0.833-2.088-1.249-3.805-1.249
		c-2.152,0-3.702,0.57-4.65,1.71s-1.422,3-1.422,5.579v3.997c0,3.109,0.474,5.247,1.422,6.412c0.948,1.166,2.357,1.749,4.227,1.749
		c1.888,0,3.308-0.468,4.26-1.403c0.952-0.935,1.429-2.368,1.429-4.298v-0.346h-2.486c-0.017,1.333-0.29,2.328-0.82,2.985
		c-0.529,0.658-1.306,0.987-2.331,0.987c-1.145,0-1.969-0.412-2.473-1.237c-0.504-0.824-0.756-2.239-0.756-4.246v-4.6
		c0-2.118,0.282-3.52,0.846-4.208c0.564-0.687,1.409-1.031,2.536-1.031c0.991,0,1.693,0.258,2.108,0.775
		c0.414,0.517,0.621,1.343,0.621,2.479v0.282h2.524v-0.5C694.606,111.998,694.196,110.719,693.376,109.886 M666.58,108.842v18.947
		h2.178v-16.423l7.533,16.423h3.28v-18.947h-2.153v16.219l-7.456-16.219H666.58z M658.801,121.23h-6.137l3.037-10.159
		L658.801,121.23z M654.24,108.842l-6.008,18.947h2.459l1.397-4.509h7.315l1.371,4.509h2.703l-6.175-18.947H654.24z
		 M644.662,109.886c-0.82-0.833-2.088-1.249-3.805-1.249c-2.152,0-3.702,0.57-4.65,1.71s-1.422,3-1.422,5.579v3.997
		c0,3.109,0.474,5.247,1.422,6.412c0.948,1.166,2.357,1.749,4.228,1.749c1.887,0,3.307-0.468,4.259-1.403
		c0.952-0.935,1.429-2.368,1.429-4.298v-0.346h-2.486c-0.017,1.333-0.29,2.328-0.82,2.985c-0.529,0.658-1.306,0.987-2.331,0.987
		c-1.145,0-1.969-0.412-2.473-1.237c-0.504-0.824-0.756-2.239-0.756-4.246v-4.6c0-2.118,0.282-3.52,0.846-4.208
		c0.564-0.687,1.409-1.031,2.536-1.031c0.991,0,1.694,0.258,2.108,0.775c0.414,0.517,0.621,1.343,0.621,2.479v0.282h2.524v-0.5
		C645.892,111.998,645.482,110.719,644.662,109.886 M620.75,110.943c0.871,0,1.544,0.241,2.018,0.724
		c0.474,0.482,0.711,1.215,0.711,2.197c0,1.008-0.261,1.787-0.782,2.338c-0.521,0.551-1.345,0.826-2.472,0.826h-2.947v-6.085H620.75
		z M614.844,108.842v18.947h2.434v-8.711h2.05c1.102,0,1.866,0.094,2.293,0.282s0.754,0.493,0.98,0.916
		c0.226,0.423,0.37,1.031,0.429,1.825l0.103,1.474l0.102,2.062c0.017,0.351,0.065,0.713,0.141,1.089
		c0.077,0.376,0.18,0.73,0.308,1.063h2.524c-0.402-1.691-0.613-3.326-0.635-4.906c-0.021-1.58-0.239-2.75-0.653-3.51
		c-0.414-0.76-1.228-1.243-2.44-1.448c1.11-0.213,1.964-0.705,2.562-1.473c0.597-0.769,0.897-1.738,0.897-2.908
		c0-1.435-0.408-2.577-1.224-3.427c-0.816-0.85-1.885-1.275-3.209-1.275H614.844z M601.462,115.171c0-1.657,0.269-2.859,0.807-3.607
		c0.538-0.747,1.427-1.121,2.665-1.121c1.255,0,2.154,0.408,2.697,1.224c0.542,0.815,0.813,2.052,0.813,3.709v4.496
		c0,1.845-0.092,3.148-0.275,3.908c-0.184,0.76-0.528,1.33-1.032,1.71c-0.504,0.38-1.247,0.57-2.229,0.57
		c-1.247,0-2.133-0.391-2.658-1.172c-0.525-0.782-0.788-2.133-0.788-4.055V115.171z M609.475,110.149
		c-0.96-1.187-2.474-1.781-4.541-1.781c-2.067,0-3.572,0.562-4.516,1.685c-0.944,1.123-1.416,3.047-1.416,5.771v4.932
		c0,2.52,0.464,4.375,1.39,5.567c0.927,1.191,2.394,1.787,4.401,1.787c2.161,0,3.722-0.592,4.682-1.775
		c0.961-1.182,1.442-3.32,1.442-6.412v-3.548C610.917,113.411,610.436,111.336,609.475,110.149 M586.856,108.842v18.947h2.434
		v-8.685h6.585v-2.076h-6.585v-6.085h6.956v-2.101H586.856z M568.35,108.842v18.947h9.941v-2.101h-7.532v-6.584h6.828v-2.076h-6.828
		v-6.085h7.353v-2.101H568.35z M559.499,110.943c0.872,0,1.544,0.241,2.018,0.724c0.474,0.482,0.711,1.215,0.711,2.197
		c0,1.008-0.26,1.787-0.781,2.338c-0.521,0.551-1.345,0.826-2.473,0.826h-2.946v-6.085H559.499z M553.594,108.842v18.947h2.434
		v-8.711h2.049c1.102,0,1.866,0.094,2.294,0.282c0.427,0.188,0.753,0.493,0.98,0.916c0.226,0.423,0.369,1.031,0.429,1.825
		l0.102,1.474l0.103,2.062c0.017,0.351,0.064,0.713,0.141,1.089c0.077,0.376,0.179,0.73,0.307,1.063h2.524
		c-0.402-1.691-0.613-3.326-0.634-4.906c-0.022-1.58-0.239-2.75-0.653-3.51c-0.415-0.76-1.228-1.243-2.441-1.448
		c1.11-0.213,1.964-0.705,2.562-1.473c0.598-0.769,0.897-1.738,0.897-2.908c0-1.435-0.408-2.577-1.224-3.427
		c-0.815-0.85-1.885-1.275-3.209-1.275H553.594z M545.9,121.23h-6.137l3.036-10.159L545.9,121.23z M541.339,108.842l-6.009,18.947
		h2.46l1.397-4.509h7.315l1.371,4.509h2.703l-6.175-18.947H541.339z M531.761,109.886c-0.82-0.833-2.088-1.249-3.805-1.249
		c-2.152,0-3.702,0.57-4.65,1.71s-1.422,3-1.422,5.579v3.997c0,3.109,0.474,5.247,1.422,6.412c0.948,1.166,2.357,1.749,4.227,1.749
		c1.888,0,3.308-0.468,4.26-1.403c0.952-0.935,1.428-2.368,1.428-4.298v-0.346h-2.485c-0.017,1.333-0.29,2.328-0.82,2.985
		c-0.529,0.658-1.307,0.987-2.331,0.987c-1.145,0-1.969-0.412-2.473-1.237c-0.504-0.824-0.756-2.239-0.756-4.246v-4.6
		c0-2.118,0.282-3.52,0.846-4.208c0.563-0.687,1.409-1.031,2.536-1.031c0.991,0,1.693,0.258,2.108,0.775
		c0.414,0.517,0.621,1.343,0.621,2.479v0.282h2.524v-0.5C532.991,111.998,532.581,110.719,531.761,109.886"/>
	<path style="clip-path:url(#SVGID_00000018939320711067458300000002635925162655835069_);fill:#FFFFFF;" d="M958.456,96.189V81.443
		h2.703c1.162,0,2.041,0.203,2.639,0.609c0.598,0.405,1.008,1.078,1.23,2.017c0.222,0.94,0.333,2.434,0.333,4.484
		c0,2.451-0.13,4.132-0.391,5.041c-0.26,0.91-0.711,1.57-1.351,1.98c-0.641,0.41-1.73,0.615-3.267,0.615H958.456z M956.022,79.342
		V98.29h4.33c1.828,0,3.284-0.263,4.369-0.788c1.084-0.526,1.864-1.373,2.338-2.543c0.474-1.17,0.711-3.096,0.711-5.778
		c0-2.46-0.118-4.236-0.353-5.33c-0.235-1.093-0.583-1.957-1.044-2.594c-0.461-0.636-1.097-1.114-1.909-1.435
		c-0.811-0.32-1.772-0.48-2.882-0.48H956.022z M942.71,79.342V98.29h9.942v-2.101h-7.533v-6.585h6.828v-2.076h-6.828v-6.085h7.354
		v-2.101H942.71z M925.811,79.342l5.483,18.948h2.882l5.535-18.948h-2.46l-4.471,16.667l-4.356-16.667H925.811z M914.034,85.671
		c0-1.657,0.269-2.859,0.807-3.607c0.538-0.747,1.426-1.121,2.665-1.121c1.255,0,2.154,0.408,2.697,1.224
		c0.542,0.816,0.813,2.052,0.813,3.709v4.496c0,1.845-0.092,3.148-0.275,3.908c-0.184,0.76-0.528,1.33-1.032,1.71
		c-0.504,0.38-1.247,0.57-2.229,0.57c-1.247,0-2.133-0.391-2.658-1.172c-0.525-0.782-0.788-2.133-0.788-4.055V85.671z
		 M922.047,80.649c-0.96-1.187-2.474-1.781-4.541-1.781s-3.572,0.562-4.516,1.685c-0.944,1.123-1.416,3.047-1.416,5.771v4.932
		c0,2.52,0.464,4.375,1.39,5.567c0.927,1.191,2.394,1.787,4.401,1.787c2.161,0,3.722-0.591,4.682-1.774
		c0.961-1.183,1.442-3.321,1.442-6.412v-3.549C923.489,83.911,923.008,81.836,922.047,80.649 M902.921,81.443
		c0.871,0,1.544,0.241,2.018,0.724c0.474,0.482,0.711,1.215,0.711,2.197c0,1.008-0.261,1.787-0.781,2.338
		c-0.521,0.551-1.346,0.826-2.473,0.826h-2.946v-6.085H902.921z M897.015,79.342V98.29h2.435v-8.712h2.049
		c1.102,0,1.866,0.094,2.293,0.282c0.427,0.188,0.754,0.493,0.981,0.916c0.226,0.423,0.369,1.031,0.429,1.825l0.102,1.474
		l0.103,2.062c0.017,0.351,0.064,0.714,0.141,1.089c0.076,0.376,0.179,0.73,0.307,1.064h2.524c-0.402-1.691-0.613-3.327-0.634-4.907
		c-0.022-1.58-0.24-2.75-0.654-3.51s-1.227-1.243-2.44-1.448c1.11-0.213,1.964-0.705,2.562-1.473
		c0.598-0.769,0.897-1.738,0.897-2.908c0-1.435-0.408-2.577-1.224-3.427c-0.815-0.85-1.885-1.275-3.209-1.275H897.015z
		 M885.133,81.443h2.832c1.084,0,1.885,0.263,2.402,0.788c0.516,0.525,0.775,1.296,0.775,2.312c0,1.205-0.31,2.056-0.929,2.556
		s-1.569,0.75-2.85,0.75h-2.23V81.443z M882.712,79.342V98.29h2.421v-8.34h2.832c1.802,0,3.183-0.434,4.144-1.301
		s1.441-2.192,1.441-3.978c0-1.836-0.437-3.183-1.313-4.041c-0.875-0.859-2.24-1.288-4.093-1.288H882.712z M860.97,79.342V98.29
		h2.229V81.469l5.278,16.821h2.255l5.355-16.821V98.29h2.306V79.342h-3.857l-4.855,15.899l-4.804-15.899H860.97z M854.233,98.29
		h2.447V79.342h-2.447V98.29z M834.715,85.671c0-1.657,0.269-2.859,0.808-3.607c0.538-0.747,1.426-1.121,2.664-1.121
		c1.256,0,2.155,0.408,2.697,1.224c0.542,0.816,0.813,2.052,0.813,3.709v4.496c0,1.845-0.091,3.148-0.275,3.908
		c-0.184,0.76-0.527,1.33-1.031,1.71c-0.504,0.38-1.247,0.57-2.229,0.57c-1.247,0-2.133-0.391-2.659-1.172
		c-0.525-0.782-0.788-2.133-0.788-4.055V85.671z M842.729,80.649c-0.961-1.187-2.475-1.781-4.542-1.781
		c-2.067,0-3.572,0.562-4.516,1.685c-0.943,1.123-1.415,3.047-1.415,5.771v4.932c0,2.52,0.463,4.375,1.39,5.567
		c0.926,1.191,2.393,1.787,4.4,1.787c2.161,0,3.722-0.591,4.683-1.774s1.441-3.321,1.441-6.412v-3.549
		C844.17,83.911,843.69,81.836,842.729,80.649 M817.252,79.342v2.101h4.958V98.29h2.434V81.443h4.983v-2.101H817.252z
		 M808.271,80.296c-0.876-0.858-2.163-1.287-3.863-1.287c-1.759,0-3.143,0.457-4.15,1.371c-1.008,0.914-1.512,2.135-1.512,3.664
		c0,0.973,0.23,1.832,0.692,2.575c0.461,0.743,1.17,1.405,2.126,1.985c0.957,0.581,1.975,1.136,3.056,1.666
		c1.08,0.53,1.791,1.063,2.133,1.601c0.341,0.538,0.512,1.076,0.512,1.614c0,0.914-0.307,1.647-0.922,2.198
		c-0.615,0.55-1.418,0.826-2.409,0.826c-0.965,0-1.748-0.303-2.351-0.91c-0.602-0.606-0.903-1.46-0.903-2.562v-0.551h-2.383v0.743
		c0,1.751,0.479,3.081,1.435,3.991c0.957,0.909,2.34,1.364,4.151,1.364c1.751,0,3.164-0.457,4.241-1.371
		c1.076-0.913,1.614-2.156,1.614-3.728c0-1.033-0.22-1.891-0.66-2.575c-0.44-0.683-1.078-1.326-1.915-1.928
		c-0.837-0.602-1.773-1.135-2.806-1.601c-1.033-0.465-1.817-0.995-2.351-1.589c-0.534-0.593-0.8-1.244-0.8-1.953
		c0-0.871,0.264-1.544,0.794-2.018c0.529-0.474,1.264-0.711,2.203-0.711c0.965,0,1.683,0.265,2.153,0.794
		c0.469,0.53,0.704,1.32,0.704,2.37v0.269h2.524v-0.422C809.584,82.429,809.146,81.155,808.271,80.296 M783.829,79.342l5.125,11.287
		v7.661h2.382v-7.61l5.202-11.338h-2.473l-3.805,9.16l-3.728-9.16H783.829z M779.682,91.73h-6.137l3.036-10.159L779.682,91.73z
		 M775.121,79.342l-6.009,18.948h2.46l1.396-4.51h7.316l1.37,4.51h2.704l-6.175-18.948H775.121z M746.529,79.342l4.625,18.948h2.934
		l3.856-16.424l3.625,16.424h2.934l5.009-18.948h-2.511l-3.882,16.424l-3.471-16.424h-3.113l-3.831,16.424l-3.6-16.424H746.529z
		 M732.07,79.342V98.29h2.422v-8.738h6.636v8.738h2.408V79.342h-2.408v8.109h-6.636v-8.109H732.07z M716.594,79.342v2.101h4.958
		V98.29h2.434V81.443h4.984v-2.101H716.594z M712.28,91.73h-6.136l3.036-10.159L712.28,91.73z M707.719,79.342l-6.008,18.948h2.46
		l1.396-4.51h7.315l1.371,4.51h2.703l-6.175-18.948H707.719z M692.58,81.443h2.831c1.084,0,1.885,0.263,2.402,0.788
		c0.517,0.525,0.775,1.296,0.775,2.312c0,1.205-0.31,2.056-0.929,2.556s-1.569,0.75-2.85,0.75h-2.229V81.443z M690.158,79.342V98.29
		h2.422v-8.34h2.831c1.802,0,3.183-0.434,4.144-1.301c0.961-0.867,1.442-2.192,1.442-3.978c0-1.836-0.438-3.183-1.314-4.041
		c-0.875-0.859-2.24-1.288-4.093-1.288H690.158z M678.641,80.245c-0.807-0.858-2.223-1.287-4.247-1.287
		c-1.495,0-2.699,0.243-3.613,0.73s-1.603,1.266-2.069,2.338c-0.465,1.072-0.698,2.838-0.698,5.297v2.652
		c0,3.348,0.498,5.633,1.493,6.854c0.995,1.222,2.607,1.832,4.836,1.832c1.93,0,3.741-0.465,5.432-1.396v-9.211h-5.906v2.152h3.459
		v5.611c-0.41,0.308-0.867,0.521-1.371,0.641c-0.504,0.119-1.008,0.179-1.512,0.179c-1.426,0-2.438-0.404-3.036-1.211
		c-0.598-0.807-0.897-2.256-0.897-4.349v-4.33c0-2.298,0.263-3.839,0.788-4.625c0.525-0.786,1.514-1.179,2.966-1.179
		c1.051,0,1.823,0.289,2.319,0.865c0.495,0.577,0.743,1.446,0.743,2.607h2.524v-0.269C679.852,82.404,679.448,81.104,678.641,80.245
		 M651.096,79.342V98.29h2.178V81.866l7.533,16.424h3.279V79.342h-2.152v16.219l-7.456-16.219H651.096z M644.335,98.29h2.447V79.342
		h-2.447V98.29z M628.542,79.342V98.29h2.422v-8.738h6.636v8.738h2.408V79.342H637.6v8.109h-6.636v-8.109H628.542z M623.377,80.296
		c-0.876-0.858-2.163-1.287-3.863-1.287c-1.759,0-3.143,0.457-4.15,1.371c-1.008,0.914-1.512,2.135-1.512,3.664
		c0,0.973,0.231,1.832,0.692,2.575s1.17,1.405,2.126,1.985c0.957,0.581,1.975,1.136,3.056,1.666c1.08,0.53,1.791,1.063,2.133,1.601
		c0.341,0.538,0.512,1.076,0.512,1.614c0,0.914-0.307,1.647-0.922,2.198c-0.615,0.55-1.418,0.826-2.409,0.826
		c-0.965,0-1.748-0.303-2.35-0.91c-0.603-0.606-0.904-1.46-0.904-2.562v-0.551h-2.383v0.743c0,1.751,0.479,3.081,1.435,3.991
		c0.957,0.909,2.34,1.364,4.151,1.364c1.751,0,3.164-0.457,4.241-1.371c1.076-0.913,1.614-2.156,1.614-3.728
		c0-1.033-0.22-1.891-0.66-2.575c-0.44-0.683-1.078-1.326-1.915-1.928c-0.837-0.602-1.773-1.135-2.806-1.601
		c-1.033-0.465-1.817-0.995-2.351-1.589c-0.534-0.593-0.8-1.244-0.8-1.953c0-0.871,0.264-1.544,0.794-2.018
		c0.529-0.474,1.264-0.711,2.203-0.711c0.965,0,1.683,0.265,2.153,0.794c0.469,0.53,0.704,1.32,0.704,2.37v0.269h2.524v-0.422
		C624.69,82.429,624.252,81.155,623.377,80.296 M607.206,98.29h2.447V79.342h-2.447V98.29z M594.801,79.342V98.29h9.339v-2.101
		h-6.93V79.342H594.801z M581.699,96.189v-6.765h2.691c1.007,0.018,1.785,0.124,2.331,0.321c0.547,0.196,0.987,0.561,1.32,1.095
		s0.499,1.189,0.499,1.966c0,1.179-0.331,2.037-0.992,2.575c-0.662,0.539-1.86,0.808-3.594,0.808H581.699z M581.699,87.349v-5.957
		h2.78c1.17,0,2.048,0.233,2.633,0.698c0.585,0.466,0.878,1.232,0.878,2.3c0,1.059-0.276,1.817-0.827,2.274
		c-0.551,0.457-1.403,0.685-2.556,0.685H581.699z M579.252,79.342V98.29h5.804c1.998,0,3.491-0.432,4.477-1.294
		c0.987-0.863,1.48-2.208,1.48-4.036c0-1.366-0.312-2.421-0.935-3.164c-0.624-0.743-1.597-1.2-2.921-1.371v-0.128
		c2.169-0.495,3.254-1.973,3.254-4.433c0-1.392-0.438-2.493-1.313-3.305c-0.876-0.811-2.065-1.217-3.568-1.217H579.252z
		 M571.423,91.73h-6.137l3.037-10.159L571.423,91.73z M566.862,79.342l-6.008,18.948h2.46l1.396-4.51h7.315l1.371,4.51h2.703
		l-6.175-18.948H566.862z M548.859,79.342v2.101h4.958V98.29h2.434V81.443h4.983v-2.101H548.859z M544.915,80.296
		c-0.876-0.858-2.163-1.287-3.863-1.287c-1.759,0-3.143,0.457-4.151,1.371c-1.008,0.914-1.511,2.135-1.511,3.664
		c0,0.973,0.23,1.832,0.691,2.575c0.462,0.743,1.17,1.405,2.127,1.985c0.957,0.581,1.975,1.136,3.056,1.666
		c1.08,0.53,1.791,1.063,2.133,1.601c0.341,0.538,0.512,1.076,0.512,1.614c0,0.914-0.307,1.647-0.922,2.198
		c-0.615,0.55-1.418,0.826-2.409,0.826c-0.965,0-1.749-0.303-2.351-0.91c-0.602-0.606-0.903-1.46-0.903-2.562v-0.551h-2.383v0.743
		c0,1.751,0.478,3.081,1.435,3.991c0.957,0.909,2.34,1.364,4.151,1.364c1.751,0,3.164-0.457,4.24-1.371
		c1.076-0.913,1.615-2.156,1.615-3.728c0-1.033-0.22-1.891-0.66-2.575c-0.44-0.683-1.079-1.326-1.915-1.928
		c-0.838-0.602-1.773-1.135-2.806-1.601c-1.034-0.465-1.817-0.995-2.351-1.589c-0.534-0.593-0.801-1.244-0.801-1.953
		c0-0.871,0.265-1.544,0.795-2.018c0.529-0.474,1.264-0.711,2.203-0.711c0.965,0,1.683,0.265,2.152,0.794
		c0.47,0.53,0.705,1.32,0.705,2.37v0.269h2.524v-0.422C546.228,82.429,545.79,81.155,544.915,80.296 M522.127,79.342V98.29h9.941
		v-2.101h-7.533v-6.585h6.829v-2.076h-6.829v-6.085h7.354v-2.101H522.127z"/>
	<path style="clip-path:url(#SVGID_00000018939320711067458300000002635925162655835069_);fill:#FFFFFF;" d="M689.028,56.519
		c2.38-2.028,3.57-5.07,3.57-9.126c0-2.647-0.514-4.737-1.542-6.27c-1.028-1.533-2.685-3.014-4.97-4.442l-8.541-5.456
		c-0.933-0.59-1.614-1.266-2.042-2.028c-0.429-0.761-0.643-1.58-0.643-2.456c0-1.429,0.385-2.566,1.157-3.414
		c0.771-0.847,1.814-1.271,3.127-1.271c2.838,0,4.257,1.828,4.257,5.484v1h8.655v-1.457c0-4.075-1.043-6.965-3.128-8.669
		c-2.085-1.704-5.118-2.557-9.098-2.557c-4.456,0-7.898,0.977-10.326,2.928c-2.428,1.953-3.642,4.718-3.642,8.298
		c0,2.647,0.495,4.833,1.485,6.556c0.99,1.724,3.142,3.613,6.456,5.67l6.998,4.285c0.952,0.59,1.671,1.276,2.157,2.056
		c0.485,0.781,0.728,1.733,0.728,2.857c0,1.485-0.405,2.632-1.214,3.442c-0.809,0.809-1.966,1.214-3.47,1.214
		c-1.771,0-3.009-0.524-3.714-1.571c-0.704-1.047-1.057-2.628-1.057-4.742v-1.114h-8.969v2.628c0,3.713,1.086,6.508,3.256,8.383
		c2.171,1.876,5.361,2.814,9.57,2.814C683.001,59.561,686.647,58.547,689.028,56.519 M659.799,28.597
		c0-4.36-1.043-7.564-3.128-9.612c-2.085-2.047-5.137-3.07-9.155-3.07c-3.428,0-6.156,0.566-8.184,1.699
		c-2.028,1.133-3.475,2.662-4.341,4.585c-0.867,1.923-1.424,4.009-1.671,6.255c-0.248,2.248-0.372,5.342-0.372,9.284
		c0,5.008,0.233,8.665,0.7,10.969c0.466,2.304,1.181,4.199,2.142,5.684c0.962,1.485,2.357,2.666,4.185,3.542
		s4.199,1.314,7.113,1.314c4.474,0,7.788-1.124,9.94-3.371c2.152-2.247,3.228-5.608,3.228-10.083v-1.228h-8.712v0.485
		c0,2.724-0.386,4.709-1.157,5.956c-0.771,1.247-1.91,1.871-3.414,1.871c-1.79,0-3.066-0.814-3.827-2.442
		c-0.762-1.628-1.181-3.685-1.257-6.17c-0.076-2.485-0.114-4.471-0.114-5.956c0-4.418,0.114-7.569,0.342-9.455
		c0.229-1.885,0.7-3.442,1.414-4.67c0.714-1.228,1.843-1.842,3.385-1.842c1.352,0,2.395,0.528,3.128,1.585
		c0.733,1.057,1.1,2.776,1.1,5.156v0.8h8.655V28.597z M627.322,28.597c0-4.36-1.042-7.564-3.127-9.612
		c-2.086-2.047-5.138-3.07-9.155-3.07c-3.428,0-6.156,0.566-8.184,1.699c-2.028,1.133-3.476,2.662-4.342,4.585
		c-0.867,1.923-1.424,4.009-1.671,6.255c-0.248,2.248-0.371,5.342-0.371,9.284c0,5.008,0.233,8.665,0.7,10.969
		c0.466,2.304,1.18,4.199,2.142,5.684c0.961,1.485,2.357,2.666,4.185,3.542c1.828,0.876,4.199,1.314,7.112,1.314
		c4.475,0,7.788-1.124,9.941-3.371c2.151-2.247,3.227-5.608,3.227-10.083v-1.228h-8.712v0.485c0,2.724-0.385,4.709-1.157,5.956
		c-0.771,1.247-1.909,1.871-3.413,1.871c-1.79,0-3.066-0.814-3.828-2.442c-0.762-1.628-1.181-3.685-1.257-6.17
		s-0.114-4.471-0.114-5.956c0-4.418,0.114-7.569,0.343-9.455c0.229-1.885,0.7-3.442,1.414-4.67c0.714-1.228,1.842-1.842,3.385-1.842
		c1.352,0,2.394,0.528,3.128,1.585c0.732,1.057,1.099,2.776,1.099,5.156v0.8h8.655V28.597z M585.172,58.79h8.826V16.543h-8.826
		V58.79z M561.601,35.11V23.056h2.885c2.571,0,4.284,0.49,5.141,1.471s1.286,2.499,1.286,4.556c0,2.114-0.486,3.647-1.457,4.599
		s-2.399,1.428-4.285,1.428H561.601z M552.717,16.543V58.79h8.884V41.594h6.027c4.227,0,7.322-1.004,9.283-3.014
		c1.961-2.008,2.942-5.117,2.942-9.326c0-4.475-0.976-7.712-2.927-9.712c-1.953-1.999-5.071-2.999-9.355-2.999H552.717z
		 M523.685,16.543V58.79h23.509v-6.599h-14.683V39.966h13.111v-6.513h-13.111V23.056h14.226v-6.513H523.685z"/>
</g>
</svg>
