<?xml version="1.0" encoding="iso-8859-1"?>
<!-- Generator: Adobe Illustrator 29.5.1, SVG Export Plug-In . SVG Version: 9.03 Build 0)  -->
<svg version="1.1" id="Layer_1" xmlns="http://www.w3.org/2000/svg" xmlns:xlink="http://www.w3.org/1999/xlink" x="0px" y="0px"
	 viewBox="0 0 1000 144" style="enable-background:new 0 0 1000 144;" xml:space="preserve">
<g>
	<defs>
		<rect id="SVGID_1_" width="1000" height="144"/>
	</defs>
	<clipPath id="SVGID_00000162319495800620917710000013552968246148350595_">
		<use xlink:href="#SVGID_1_"  style="overflow:visible;"/>
	</clipPath>
	<path style="clip-path:url(#SVGID_00000162319495800620917710000013552968246148350595_);fill:#FFFFFF;" d="M414.759,115.025
		v11.825c0,0.397-0.133,0.706-0.443,0.927c-0.265,0.221-0.619,0.353-1.062,0.353c-0.265,0-0.664,0-1.106-0.044
		c-0.442-0.044-0.929-0.088-1.372-0.132c-0.442-0.045-0.841-0.177-1.195-0.309c-0.309-0.133-0.486-0.309-0.486-0.486v-12.09
		L398.74,94.903c-0.354-0.706-0.399-1.192-0.133-1.5c0.266-0.309,0.752-0.486,1.46-0.486c0.443,0,0.885,0,1.372,0.044
		c0.443,0,0.885,0.044,1.283,0.133c0.399,0.044,0.753,0.132,1.018,0.22c0.266,0.089,0.487,0.221,0.575,0.441l7.612,15.489
		l7.611-15.444c0.089-0.177,0.265-0.354,0.575-0.442c0.266-0.088,0.62-0.176,1.018-0.264c0.398-0.045,0.841-0.089,1.283-0.133
		c0.443,0,0.93-0.044,1.372-0.044c0.708,0,1.195,0.132,1.461,0.441c0.221,0.309,0.177,0.795-0.178,1.545L414.759,115.025z
		 M384.491,98.521v28.329c0,0.397-0.133,0.706-0.443,0.927c-0.31,0.221-0.619,0.353-1.018,0.353c-0.265,0-0.663,0-1.15-0.044
		c-0.487-0.044-0.974-0.088-1.416-0.132c-0.443-0.045-0.841-0.177-1.151-0.309c-0.354-0.133-0.486-0.309-0.486-0.486V98.565h-8.762
		c-0.354,0-0.62-0.132-0.885-0.397c-0.222-0.265-0.354-0.573-0.354-0.971c0-0.265,0-0.573,0.044-1.015
		c0.044-0.397,0.088-0.838,0.133-1.235c0.044-0.397,0.177-0.75,0.265-1.059c0.133-0.265,0.266-0.441,0.487-0.441h23.453
		c0.354,0,0.62,0.132,0.885,0.397c0.222,0.265,0.354,0.617,0.354,0.971c0,0.264,0,0.573-0.044,1.014
		c-0.044,0.442-0.088,0.839-0.133,1.236c-0.044,0.397-0.132,0.75-0.265,1.015s-0.266,0.441-0.487,0.441H384.491z M364.046,126.85
		c0,0.397-0.132,0.706-0.442,0.927c-0.266,0.221-0.62,0.353-1.062,0.353c-0.266,0-0.664,0-1.151-0.044
		c-0.486-0.044-0.929-0.088-1.416-0.132c-0.442-0.045-0.84-0.177-1.195-0.309c-0.309-0.133-0.486-0.309-0.486-0.486V93.932
		c0-0.177,0.177-0.353,0.486-0.486c0.355-0.132,0.753-0.264,1.195-0.308c0.443-0.044,0.93-0.133,1.416-0.133
		c0.487-0.044,0.841-0.044,1.151-0.044c0.398,0,0.752,0.133,1.062,0.397c0.265,0.265,0.442,0.574,0.442,0.927V126.85z
		 M332.141,122.305c0.265,0.044,0.62,0.177,1.151,0.265c0.531,0.132,1.106,0.265,1.814,0.397c0.664,0.133,1.416,0.221,2.257,0.353
		c0.796,0.088,1.637,0.133,2.434,0.133c0.885,0,1.725-0.089,2.522-0.221c0.796-0.132,1.549-0.397,2.168-0.706
		c0.62-0.353,1.151-0.794,1.505-1.324c0.398-0.574,0.575-1.235,0.575-2.074c0-1.147-0.354-2.118-1.106-2.912
		c-0.753-0.794-1.682-1.545-2.788-2.251c-1.106-0.706-2.345-1.412-3.673-2.118s-2.522-1.544-3.673-2.471
		c-1.15-0.926-2.08-2.03-2.788-3.309c-0.752-1.28-1.106-2.824-1.106-4.678c0-1.544,0.265-2.868,0.841-3.927
		c0.575-1.059,1.327-1.941,2.301-2.647c0.973-0.662,2.168-1.192,3.496-1.501c1.371-0.309,2.876-0.485,4.513-0.485
		c0.354,0,0.885,0,1.593,0.044s1.461,0.088,2.257,0.176c0.797,0.089,1.593,0.177,2.346,0.309c0.796,0.133,1.416,0.309,1.858,0.53
		c0.443,0.176,0.708,0.397,0.797,0.618c0.088,0.22,0.088,0.573,0.044,1.103c-0.044,0.838-0.221,1.5-0.531,2.074
		c-0.266,0.573-0.664,0.794-1.195,0.706c-0.796-0.177-1.681-0.309-2.699-0.486c-1.018-0.132-2.169-0.22-3.408-0.22
		c-1.947,0-3.584,0.309-4.823,0.838c-1.239,0.574-1.859,1.5-1.859,2.824c0,1.059,0.355,1.942,1.107,2.692
		c0.752,0.75,1.681,1.456,2.788,2.118c1.106,0.662,2.345,1.368,3.672,2.074c1.328,0.706,2.523,1.544,3.673,2.515
		c1.107,0.971,2.08,2.118,2.788,3.442c0.752,1.324,1.106,3.001,1.106,4.898c0,1.809-0.354,3.31-1.017,4.457
		c-0.664,1.191-1.593,2.074-2.7,2.736c-1.106,0.662-2.434,1.103-3.894,1.368c-1.46,0.264-3.009,0.397-4.602,0.397
		c-0.708,0-1.505-0.044-2.301-0.088c-0.797-0.045-1.549-0.133-2.345-0.221c-0.753-0.088-1.461-0.221-2.169-0.353
		c-0.664-0.133-1.239-0.265-1.726-0.441c-0.486-0.177-0.752-0.353-0.84-0.53c-0.089-0.221-0.133-0.574-0.045-1.059
		c0.089-0.927,0.266-1.721,0.531-2.339C331.344,122.482,331.698,122.173,332.141,122.305 M313.953,98.477h-6.593v11.429h6.593
		c1.284,0,2.346-0.089,3.098-0.221c0.797-0.132,1.372-0.397,1.814-0.794c0.443-0.397,0.709-0.883,0.841-1.545
		c0.133-0.661,0.221-1.544,0.221-2.603v-1.059c0-1.059-0.088-1.942-0.221-2.648c-0.132-0.661-0.442-1.191-0.841-1.588
		c-0.442-0.397-1.017-0.618-1.814-0.795C316.255,98.565,315.237,98.477,313.953,98.477 M301.652,127.115V94.638
		c0-0.353,0.132-0.618,0.442-0.883c0.31-0.22,0.62-0.352,1.062-0.352h10.488c2.168,0,4.027,0.176,5.575,0.485
		c1.549,0.309,2.788,0.882,3.762,1.677c0.973,0.794,1.681,1.853,2.124,3.177c0.443,1.324,0.664,2.956,0.664,4.986v1.059
		c0,1.5-0.133,2.78-0.354,3.883c-0.222,1.103-0.62,2.074-1.107,2.869c-0.486,0.794-1.194,1.412-2.035,1.897
		s-1.859,0.838-3.009,1.103l6.593,11.385c0.354,0.617,0.531,1.059,0.531,1.368c0,0.176-0.088,0.353-0.221,0.485
		c-0.177,0.132-0.354,0.221-0.531,0.265c-0.177,0.044-0.398,0.088-0.575,0.132c-0.222,0-0.354,0.044-0.443,0.044
		c-0.265,0-0.664,0-1.106-0.044c-0.443-0.044-0.885-0.088-1.328-0.176c-0.442-0.089-0.885-0.177-1.239-0.353
		c-0.354-0.177-0.619-0.398-0.796-0.662l-6.992-11.914h-5.841v11.914c0,0.397-0.133,0.662-0.443,0.882
		c-0.265,0.221-0.619,0.353-1.018,0.353c-0.265,0-0.663,0-1.15-0.044c-0.487-0.044-0.929-0.088-1.416-0.132
		c-0.443-0.044-0.841-0.177-1.195-0.309C301.829,127.468,301.652,127.336,301.652,127.115 M273.773,126.586V94.638
		c0-0.397,0.133-0.706,0.443-0.927c0.265-0.22,0.619-0.308,1.062-0.308h19.072c0.354,0,0.664,0.132,0.885,0.441
		c0.221,0.265,0.354,0.617,0.354,0.971c0,0.264,0,0.573-0.044,1.014c-0.044,0.442-0.089,0.839-0.133,1.236
		c-0.044,0.397-0.177,0.75-0.265,1.015c-0.133,0.265-0.31,0.441-0.487,0.441h-15.134v9.178h12.966c0.309,0,0.575,0.133,0.84,0.397
		c0.222,0.265,0.354,0.574,0.354,0.927c0,0.265,0,0.574-0.044,1.015c-0.044,0.441-0.088,0.838-0.133,1.236
		c-0.044,0.397-0.177,0.75-0.265,1.059c-0.133,0.264-0.266,0.441-0.487,0.441h-13.275v9.708h14.824c0.354,0,0.664,0.132,0.885,0.397
		c0.221,0.265,0.354,0.574,0.354,0.971c0,0.264,0,0.573-0.044,1.015c-0.045,0.397-0.089,0.838-0.133,1.235
		c-0.044,0.397-0.177,0.75-0.266,1.059c-0.132,0.309-0.309,0.441-0.486,0.441h-18.675c-0.442,0-0.929-0.088-1.416-0.309
		C273.994,127.027,273.773,126.806,273.773,126.586 M256.338,118.466l7.169-24.578c0.442-0.442,0.973-0.706,1.548-0.839
		c0.576-0.088,1.239-0.176,2.036-0.176c0.31,0,0.664,0,0.974,0.044c0.353,0.044,0.619,0.088,0.84,0.221
		c0.222,0.132,0.399,0.265,0.531,0.485c0.133,0.221,0.089,0.486,0,0.883l-11.018,32.874c-0.045,0.265-0.222,0.441-0.487,0.574
		c-0.266,0.132-0.531,0.176-0.841,0.176c-1.062,0-1.947-0.044-2.655-0.176c-0.708-0.133-1.151-0.309-1.328-0.53l-10.974-32.918
		c-0.088-0.309-0.088-0.574,0-0.795c0.089-0.22,0.221-0.353,0.442-0.485c0.178-0.132,0.399-0.221,0.664-0.265
		c0.222-0.044,0.443-0.088,0.576-0.088c0.486,0,0.973,0,1.46,0.044s0.929,0.088,1.372,0.177c0.398,0.088,0.752,0.22,1.062,0.352
		c0.265,0.177,0.487,0.354,0.575,0.618l7.346,24.358c0.133,0.397,0.221,0.794,0.265,1.192c0.045,0.441,0.089,0.794,0.177,1.147
		c0.045-0.353,0.089-0.75,0.133-1.147C256.117,119.216,256.205,118.819,256.338,118.466 M237.929,126.85
		c0,0.397-0.133,0.706-0.442,0.927c-0.266,0.221-0.62,0.353-1.062,0.353c-0.266,0-0.664,0-1.151-0.044
		c-0.487-0.044-0.929-0.088-1.416-0.132c-0.442-0.045-0.841-0.177-1.195-0.309c-0.354-0.133-0.487-0.309-0.487-0.486V93.932
		c0-0.177,0.177-0.353,0.487-0.486c0.354-0.132,0.708-0.264,1.195-0.308c0.442-0.044,0.929-0.133,1.416-0.133
		c0.487-0.044,0.841-0.044,1.151-0.044c0.398,0,0.752,0.133,1.062,0.397c0.265,0.265,0.442,0.574,0.442,0.927V126.85z
		 M220.494,117.584V93.755c0-0.176,0.177-0.352,0.531-0.441c0.354-0.132,0.752-0.22,1.239-0.265c0.487-0.044,0.974-0.088,1.46-0.132
		c0.487-0.044,0.885-0.044,1.151-0.044c0.841,0,1.239,0.485,1.239,1.412v32.565c0,0.397-0.133,0.662-0.442,0.883
		c-0.31,0.221-0.62,0.353-0.974,0.353c-0.266,0-0.575,0-1.018-0.044c-0.442-0.044-0.841-0.044-1.283-0.133
		c-0.443-0.088-0.797-0.176-1.151-0.264c-0.354-0.133-0.575-0.265-0.708-0.442l-15.444-23.696v23.343
		c0,0.397-0.132,0.706-0.442,0.927c-0.266,0.221-0.62,0.353-1.018,0.353c-0.265,0-0.664,0-1.15-0.044
		c-0.487-0.044-0.974-0.088-1.417-0.132c-0.442-0.045-0.84-0.177-1.15-0.309c-0.354-0.133-0.487-0.309-0.487-0.486V93.932
		c0-0.177,0.177-0.353,0.487-0.485c0.354-0.133,0.708-0.265,1.15-0.309c0.443-0.044,0.886-0.089,1.372-0.133
		c0.487-0.044,0.841-0.044,1.151-0.044c0.354,0,0.664,0.088,0.885,0.309c0.221,0.221,0.442,0.441,0.575,0.706L220.494,117.584z
		 M187.571,115.466V94.02c0-0.176,0.177-0.353,0.486-0.485c0.355-0.132,0.753-0.265,1.195-0.353
		c0.487-0.088,0.974-0.177,1.416-0.221c0.487-0.044,0.841-0.088,1.151-0.088c0.398,0,0.752,0.132,1.018,0.441
		c0.265,0.309,0.398,0.618,0.398,0.971v21.446c0,2.338-0.266,4.28-0.797,5.868c-0.531,1.589-1.283,2.824-2.345,3.839
		c-1.062,0.971-2.389,1.677-3.983,2.074c-1.593,0.397-3.495,0.618-5.62,0.618h-0.398c-2.08,0-3.938-0.221-5.487-0.618
		c-1.593-0.397-2.876-1.103-3.938-2.074c-1.062-0.97-1.815-2.25-2.346-3.839c-0.531-1.544-0.796-3.53-0.796-5.868V94.02
		c0-0.176,0.177-0.353,0.486-0.485c0.355-0.132,0.708-0.265,1.195-0.353c0.443-0.088,0.93-0.177,1.416-0.221
		c0.487-0.044,0.885-0.088,1.151-0.088c0.398,0,0.708,0.132,1.018,0.441c0.265,0.309,0.442,0.618,0.442,0.971v21.137
		c0,1.367,0.089,2.515,0.31,3.486c0.221,0.97,0.575,1.765,1.106,2.338c0.531,0.618,1.239,1.059,2.124,1.324s1.992,0.441,3.319,0.441
		h0.398c1.372,0,2.479-0.132,3.408-0.441c0.885-0.309,1.637-0.75,2.168-1.324c0.531-0.618,0.93-1.368,1.151-2.338
		C187.482,117.981,187.571,116.834,187.571,115.466 M393.474,38.244v40.994h-11.329V16.622h15.798l15.179,38.567V16.622h11.505
		v62.616h-14.426L393.474,38.244z M360.949,16.622h12.745v62.615h-12.745V16.622z M312.051,16.622h13.098v27.226l16.329-27.226
		h13.674l-18.143,28.815l18.143,33.845h-15.179l-14.824-30.447v30.447h-13.098V16.622z M290.721,65.338H272.49l-3.319,13.944
		h-13.143l17.701-62.66h16.727l17.435,62.66h-13.762L290.721,65.338z M288.11,54.439l-6.283-25.903l-6.594,25.903H288.11z
		 M217.928,16.622h33.94v10.635h-20.665v13.37h19.028v10.899h-19.028v16.68h20.71v11.032h-33.985V16.622z M189.12,16.622
		c16.771,0,21.948,8.87,21.948,31.33c0,22.461-5.221,31.33-21.993,31.33h-21.506v-62.66H189.12z M180.756,68.471h5.974
		c9.78,0,11.019-5.736,11.019-20.74c0-14.958-1.239-20.695-11.019-20.695h-5.974V68.471z"/>
	<path style="clip-path:url(#SVGID_00000162319495800620917710000013552968246148350595_);fill:#FFFFFF;" d="M71.713,1.288
		C32.549,1.288,0.799,32.947,0.799,72s31.749,70.712,70.913,70.712S142.625,111.053,142.625,72S110.877,1.288,71.713,1.288"/>
	<path style="clip-path:url(#SVGID_00000162319495800620917710000013552968246148350595_);fill:#FFFFFF;" d="M71.713,2.968
		c38.175,0,69.233,30.968,69.233,69.032s-31.058,69.032-69.233,69.032S2.479,110.064,2.479,72S33.538,2.968,71.713,2.968"/>
	<path style="clip-path:url(#SVGID_00000162319495800620917710000013552968246148350595_);" d="M95.076,94.204L68.262,47.816
		l3.533-5.928l30.099,52.316H95.076z M82.396,94.204L61.86,58.843l3.45-5.804l23.655,41.165H82.396z M69.509,94.204L55.416,69.953
		l3.575-6.011l17.336,30.22h-6.818V94.204z M56.539,94.204l-7.567-13.1l3.576-6.011l10.933,19.111H56.539z M41.365,94.204
		l4.614-7.877l4.615,7.877H41.365z M35.503,36.416V85.83c0,19.94,16.213,36.107,36.209,36.107c19.997,0,36.21-16.167,36.21-36.107
		V36.416H35.503z"/>
</g>
<rect x="471.959" y="16.622" style="fill:#FFFFFF;" width="2" height="110.978"/>
<g>
	<defs>
		<rect id="SVGID_00000023274107627865384410000006177312429598809478_" width="1000" height="144"/>
	</defs>
	<clipPath id="SVGID_00000124872700547110387100000010099956130159921827_">
		<use xlink:href="#SVGID_00000023274107627865384410000006177312429598809478_"  style="overflow:visible;"/>
	</clipPath>
	<path style="clip-path:url(#SVGID_00000124872700547110387100000010099956130159921827_);fill:#FFFFFF;" d="M806.766,51.43
		l7.291,32.876h7.469l5.735-24.029l5.179,24.029h7.602l7.291-32.876h-6.735l-4.157,23.095l-4.957-23.095h-8.113l-5.224,23.095
		l-4.334-23.095H806.766z M794.611,57.765l3.423,14.293h-6.646L794.611,57.765z M790.521,51.43l-9.114,32.876h6.802l1.867-7.291
		h9.358l1.823,7.291h7.247L799.59,51.43H790.521z M762.457,51.43v32.876h17.16v-5.468h-10.202V51.43H762.457z M737.787,77.704
		c-0.8,0.859-1.589,1.486-2.367,1.878c-0.778,0.393-1.678,0.589-2.701,0.589c-1.452,0-2.634-0.474-3.545-1.422
		c-0.912-0.949-1.367-2.193-1.367-3.735c0-0.978,0.255-1.911,0.766-2.801c0.512-0.889,1.345-1.792,2.501-2.711L737.787,77.704z
		 M730.563,59.777c-0.386-0.734-0.578-1.419-0.578-2.056c0-0.786,0.263-1.453,0.789-2.001c0.526-0.548,1.189-0.822,1.989-0.822
		c0.89,0,1.597,0.252,2.123,0.755c0.526,0.504,0.789,1.178,0.789,2.023c0,0.889-0.255,1.69-0.766,2.401
		c-0.512,0.711-1.345,1.445-2.501,2.2C731.563,61.344,730.948,60.51,730.563,59.777 M740.41,61.888
		c0.83-1.267,1.245-2.626,1.245-4.078c0-2.179-0.778-3.883-2.334-5.113c-1.556-1.23-3.727-1.845-6.513-1.845
		c-2.638,0-4.761,0.663-6.368,1.989c-1.609,1.327-2.412,3.116-2.412,5.369c0,1.126,0.263,2.267,0.789,3.423
		c0.526,1.156,1.374,2.43,2.545,3.823c-2.238,1.527-3.846,3.012-4.824,4.457c-0.978,1.445-1.467,3.16-1.467,5.146
		c0,3.142,1.008,5.568,3.023,7.279c2.016,1.712,4.861,2.568,8.536,2.568c1.971,0,3.66-0.234,5.068-0.7
		c1.408-0.467,2.771-1.315,4.09-2.546l2.001,2.646h6.735l-4.957-6.78c0.815-1.393,1.389-2.871,1.723-4.435
		c0.333-1.563,0.5-3.56,0.5-5.99v-0.822h-5.557c0.029,0.207,0.044,0.415,0.044,0.622c0,1.052-0.07,2.123-0.211,3.212
		c-0.141,1.089-0.33,1.997-0.567,2.723l-5.135-6.735C738.232,64.56,739.58,63.155,740.41,61.888 M706.404,82.539
		c1.852-1.579,2.779-3.946,2.779-7.102c0-2.06-0.4-3.687-1.201-4.88c-0.8-1.192-2.089-2.345-3.867-3.456l-6.647-4.246
		c-0.726-0.459-1.256-0.985-1.589-1.578c-0.333-0.592-0.5-1.23-0.5-1.911c0-1.112,0.3-1.997,0.9-2.657
		c0.6-0.659,1.412-0.989,2.434-0.989c2.208,0,3.312,1.423,3.312,4.268v0.778h6.735v-1.134c0-3.171-0.811-5.42-2.434-6.746
		c-1.622-1.326-3.982-1.989-7.079-1.989c-3.468,0-6.147,0.759-8.036,2.278c-1.889,1.519-2.834,3.671-2.834,6.457
		c0,2.06,0.385,3.761,1.156,5.102c0.77,1.341,2.445,2.812,5.023,4.412l5.446,3.334c0.741,0.46,1.301,0.993,1.679,1.601
		c0.377,0.607,0.566,1.348,0.566,2.222c0,1.156-0.315,2.049-0.944,2.679c-0.63,0.63-1.531,0.945-2.701,0.945
		c-1.378,0-2.342-0.408-2.89-1.223c-0.548-0.815-0.822-2.045-0.822-3.69v-0.867h-6.98v2.045c0,2.89,0.845,5.065,2.534,6.524
		c1.69,1.46,4.171,2.19,7.447,2.19C701.714,84.906,704.552,84.117,706.404,82.539 M681.664,82.539
		c1.852-1.579,2.779-3.946,2.779-7.102c0-2.06-0.4-3.687-1.201-4.88c-0.8-1.192-2.089-2.345-3.867-3.456l-6.647-4.246
		c-0.726-0.459-1.255-0.985-1.589-1.578c-0.333-0.592-0.5-1.23-0.5-1.911c0-1.112,0.3-1.997,0.9-2.657
		c0.6-0.659,1.412-0.989,2.434-0.989c2.208,0,3.312,1.423,3.312,4.268v0.778h6.735v-1.134c0-3.171-0.811-5.42-2.434-6.746
		c-1.622-1.326-3.982-1.989-7.079-1.989c-3.468,0-6.146,0.759-8.036,2.278c-1.889,1.519-2.834,3.671-2.834,6.457
		c0,2.06,0.385,3.761,1.156,5.102c0.77,1.341,2.445,2.812,5.024,4.412l5.445,3.334c0.741,0.46,1.301,0.993,1.679,1.601
		c0.378,0.607,0.567,1.348,0.567,2.222c0,1.156-0.315,2.049-0.945,2.679c-0.63,0.63-1.531,0.945-2.701,0.945
		c-1.378,0-2.342-0.408-2.89-1.223s-0.822-2.045-0.822-3.69v-0.867h-6.98v2.045c0,2.89,0.845,5.065,2.534,6.524
		c1.69,1.46,4.172,2.19,7.447,2.19C676.974,84.906,679.812,84.117,681.664,82.539 M641.732,51.43v32.876h18.294v-5.135H648.6v-9.514
		h10.203v-5.068H648.6v-8.091h11.07V51.43H641.732z M612.376,51.43v32.876h6.38V60.277l9.002,24.029h9.025V51.43h-6.38v22.762
		l-8.78-22.762H612.376z M600.595,84.306h6.869V51.43h-6.869V84.306z M593.909,82.539c1.853-1.579,2.779-3.946,2.779-7.102
		c0-2.06-0.4-3.687-1.2-4.88c-0.8-1.192-2.09-2.345-3.868-3.456l-6.646-4.246c-0.727-0.459-1.256-0.985-1.59-1.578
		c-0.333-0.592-0.5-1.23-0.5-1.911c0-1.112,0.3-1.997,0.9-2.657c0.601-0.659,1.412-0.989,2.435-0.989
		c2.207,0,3.312,1.423,3.312,4.268v0.778h6.735v-1.134c0-3.171-0.812-5.42-2.434-6.746c-1.623-1.326-3.983-1.989-7.08-1.989
		c-3.468,0-6.146,0.759-8.036,2.278c-1.889,1.519-2.834,3.671-2.834,6.457c0,2.06,0.386,3.761,1.156,5.102
		c0.771,1.341,2.445,2.812,5.024,4.412l5.446,3.334c0.741,0.46,1.3,0.993,1.678,1.601c0.378,0.607,0.567,1.348,0.567,2.222
		c0,1.156-0.315,2.049-0.945,2.679c-0.63,0.63-1.53,0.945-2.701,0.945c-1.378,0-2.341-0.408-2.889-1.223
		c-0.549-0.815-0.823-2.045-0.823-3.69v-0.867h-6.979v2.045c0,2.89,0.844,5.065,2.534,6.524c1.689,1.46,4.171,2.19,7.446,2.19
		C589.219,84.906,592.057,84.117,593.909,82.539 M549.299,51.43v22.006c0,3.868,0.892,6.746,2.678,8.636
		c1.786,1.889,4.546,2.834,8.28,2.834c3.912,0,6.78-0.93,8.602-2.79c1.823-1.859,2.735-4.738,2.735-8.636V51.43h-6.691v22.184
		c0,2.119-0.371,3.716-1.112,4.79c-0.741,1.075-1.882,1.612-3.423,1.612c-1.437,0-2.497-0.53-3.178-1.59
		c-0.682-1.059-1.023-2.678-1.023-4.857V51.43H549.299z M529.78,69.924h3.423c1.852,0,3.179,0.333,3.979,1
		c0.8,0.667,1.2,1.867,1.2,3.601c0,1.675-0.363,2.883-1.089,3.623c-0.726,0.742-2.304,1.112-4.734,1.112h-2.779V69.924z
		 M529.78,64.878v-8.38h2.956c2.119,0,3.531,0.333,4.235,1c0.704,0.667,1.056,1.653,1.056,2.957c0,1.259-0.152,2.137-0.456,2.634
		c-0.304,0.496-0.759,0.919-1.367,1.267c-0.608,0.348-1.534,0.522-2.778,0.522H529.78z M522.956,51.43v32.876h12.248
		c3.482,0,6.031-0.715,7.646-2.145c1.615-1.43,2.423-3.686,2.423-6.769c0-2.549-0.5-4.471-1.5-5.768s-2.553-2.093-4.657-2.39
		c1.852-0.385,3.249-1.207,4.19-2.467c0.941-1.259,1.412-2.941,1.412-5.046c0-2.904-0.816-5.012-2.446-6.324
		c-1.63-1.311-4.216-1.967-7.757-1.967H522.956z"/>
	<path style="clip-path:url(#SVGID_00000124872700547110387100000010099956130159921827_);fill:#FFFFFF;" d="M792.042,28.529
		c0.08,0,0.151-0.06,0.212-0.181c0.06-0.121,0.11-0.273,0.151-0.454c0.04-0.181,0.07-0.368,0.091-0.559
		c0.019-0.192,0.03-0.368,0.03-0.53c0-0.221-0.071-0.393-0.212-0.514c-0.141-0.121-0.302-0.181-0.484-0.181h-8.345v-7.045h9.918
		c0.08,0,0.151-0.061,0.211-0.182c0.061-0.121,0.111-0.272,0.151-0.453c0.041-0.182,0.071-0.373,0.091-0.575
		c0.02-0.201,0.03-0.382,0.03-0.544c0-0.222-0.07-0.388-0.211-0.499c-0.141-0.11-0.303-0.166-0.484-0.166h-11.43
		c-0.665,0-0.997,0.211-0.997,0.635v20.924c0,0.081,0.07,0.156,0.211,0.227c0.141,0.07,0.318,0.125,0.529,0.166
		c0.212,0.04,0.434,0.076,0.666,0.106c0.231,0.03,0.428,0.045,0.589,0.045c0.222,0,0.398-0.086,0.529-0.257
		c0.131-0.171,0.197-0.367,0.197-0.59v-9.373H792.042z M762.349,21.756c0.192-0.746,0.515-1.346,0.968-1.799
		c0.454-0.454,1.048-0.776,1.784-0.968c0.736-0.191,1.648-0.287,2.737-0.287h0.241c1.089,0,1.996,0.096,2.722,0.287
		c0.725,0.192,1.315,0.514,1.769,0.968c0.453,0.453,0.775,1.053,0.967,1.799s0.287,1.673,0.287,2.782v5.956
		c0,1.109-0.095,2.037-0.287,2.782c-0.192,0.746-0.514,1.346-0.967,1.799c-0.454,0.454-1.044,0.777-1.769,0.968
		c-0.726,0.192-1.633,0.287-2.722,0.287h-0.241c-1.089,0-2.001-0.095-2.737-0.287c-0.736-0.191-1.33-0.514-1.784-0.968
		c-0.453-0.453-0.776-1.053-0.968-1.799c-0.191-0.745-0.287-1.673-0.287-2.782v-5.956C762.062,23.429,762.158,22.502,762.349,21.756
		 M771.828,38.341c1.068-0.272,1.955-0.726,2.661-1.361c0.705-0.635,1.234-1.471,1.587-2.509c0.353-1.038,0.529-2.323,0.529-3.856
		v-6.198c0-1.532-0.176-2.817-0.529-3.855c-0.353-1.038-0.882-1.875-1.587-2.51c-0.706-0.635-1.593-1.089-2.661-1.361
		c-1.069-0.272-2.319-0.408-3.75-0.408h-0.241c-1.452,0-2.712,0.136-3.78,0.408c-1.069,0.272-1.956,0.726-2.661,1.361
		c-0.706,0.635-1.235,1.472-1.587,2.51c-0.353,1.038-0.53,2.323-0.53,3.855v6.198c0,1.533,0.177,2.818,0.53,3.856
		c0.352,1.038,0.881,1.874,1.587,2.509c0.705,0.635,1.592,1.089,2.661,1.361c1.068,0.272,2.328,0.408,3.78,0.408h0.241
		C769.51,38.749,770.76,38.613,771.828,38.341 M749.333,17.251c0.161-0.343,0.181-0.59,0.06-0.741s-0.352-0.227-0.695-0.227
		c-0.464,0-0.897,0.025-1.3,0.076c-0.404,0.05-0.656,0.176-0.756,0.378l-5.246,10.613l-5.216-10.613
		c-0.101-0.202-0.348-0.328-0.741-0.378c-0.393-0.051-0.832-0.076-1.315-0.076c-0.767,0-0.978,0.323-0.635,0.968l6.561,12.881v8.103
		c0,0.101,0.072,0.181,0.214,0.242c0.143,0.06,0.321,0.111,0.535,0.151s0.433,0.071,0.658,0.091c0.224,0.02,0.428,0.03,0.611,0.03
		c0.224,0,0.397-0.081,0.52-0.242c0.122-0.161,0.183-0.352,0.183-0.574v-7.801L749.333,17.251z M730.299,19.065
		c0.08,0,0.151-0.061,0.212-0.182c0.06-0.121,0.115-0.272,0.166-0.453c0.05-0.182,0.086-0.373,0.106-0.575
		c0.02-0.201,0.03-0.382,0.03-0.544c0-0.201-0.076-0.363-0.227-0.484s-0.328-0.181-0.529-0.181h-14.665
		c-0.101,0-0.181,0.065-0.242,0.196c-0.06,0.132-0.111,0.288-0.151,0.469c-0.041,0.181-0.071,0.373-0.091,0.575
		c-0.02,0.201-0.03,0.373-0.03,0.514c0,0.201,0.071,0.362,0.212,0.483c0.141,0.121,0.322,0.182,0.544,0.182h5.836v19.17
		c0,0.101,0.07,0.181,0.212,0.242c0.14,0.06,0.317,0.111,0.529,0.151c0.211,0.04,0.433,0.071,0.665,0.091
		c0.231,0.02,0.428,0.03,0.589,0.03c0.222,0,0.398-0.081,0.53-0.242c0.13-0.161,0.196-0.352,0.196-0.574V19.065H730.299z
		 M715.52,38.205c0.06-0.121,0.11-0.272,0.151-0.454c0.04-0.181,0.07-0.372,0.09-0.574c0.02-0.201,0.031-0.383,0.031-0.544
		c0-0.202-0.071-0.363-0.212-0.484c-0.141-0.121-0.313-0.182-0.514-0.182h-8.89V17.099c0-0.221-0.065-0.413-0.194-0.574
		c-0.13-0.161-0.304-0.242-0.523-0.242c-0.18,0-0.384,0.01-0.614,0.03c-0.229,0.021-0.448,0.056-0.658,0.106
		c-0.209,0.051-0.383,0.111-0.523,0.181c-0.14,0.071-0.209,0.147-0.209,0.227v21.075c0,0.162,0.129,0.283,0.389,0.363
		c0.259,0.081,0.558,0.121,0.897,0.121h10.567C715.388,38.386,715.458,38.326,715.52,38.205 M696.01,33.352
		c-0.182,0.716-0.474,1.29-0.877,1.723c-0.403,0.434-0.927,0.752-1.572,0.953c-0.646,0.202-1.442,0.302-2.389,0.302h-0.242
		c-0.907,0-1.673-0.1-2.298-0.302c-0.625-0.201-1.134-0.519-1.527-0.953c-0.393-0.433-0.676-1.007-0.847-1.723
		c-0.171-0.716-0.257-1.588-0.257-2.616V17.16c0-0.222-0.065-0.423-0.196-0.605c-0.131-0.181-0.308-0.272-0.529-0.272
		c-0.162,0-0.358,0.015-0.59,0.045c-0.232,0.031-0.453,0.071-0.665,0.121c-0.212,0.051-0.388,0.116-0.529,0.197
		c-0.142,0.081-0.212,0.161-0.212,0.242v13.969c0,1.492,0.156,2.737,0.469,3.735c0.312,0.997,0.786,1.809,1.421,2.434
		s1.431,1.068,2.389,1.33c0.957,0.262,2.081,0.393,3.371,0.393h0.242c1.31,0,2.454-0.131,3.432-0.393
		c0.977-0.262,1.794-0.705,2.449-1.33c0.655-0.625,1.144-1.437,1.467-2.434c0.322-0.998,0.483-2.243,0.483-3.735V17.16
		c0-0.222-0.065-0.423-0.196-0.605c-0.131-0.181-0.308-0.272-0.529-0.272c-0.182,0-0.384,0.015-0.605,0.045
		c-0.222,0.031-0.439,0.071-0.65,0.121c-0.212,0.051-0.389,0.116-0.529,0.197c-0.142,0.081-0.212,0.161-0.212,0.242v13.848
		C696.283,31.764,696.192,32.636,696.01,33.352 M669.137,21.877c0.181-0.786,0.488-1.421,0.922-1.905
		c0.433-0.484,1.017-0.836,1.754-1.058c0.735-0.222,1.657-0.333,2.766-0.333h0.242c0.464,0,0.917,0.02,1.361,0.06
		c0.443,0.041,0.851,0.086,1.224,0.137c0.373,0.05,0.701,0.095,0.983,0.136c0.282,0.04,0.494,0.07,0.635,0.09
		c0.182,0.021,0.312-0.161,0.393-0.544c0.08-0.383,0.121-0.796,0.121-1.24c0-0.14-0.177-0.272-0.529-0.393
		c-0.353-0.121-0.786-0.221-1.3-0.302c-0.514-0.08-1.054-0.141-1.618-0.182c-0.564-0.04-1.069-0.06-1.512-0.06h-0.242
		c-1.391,0-2.605,0.136-3.643,0.408c-1.039,0.272-1.895,0.726-2.57,1.361c-0.676,0.635-1.185,1.472-1.527,2.51
		c-0.343,1.038-0.514,2.323-0.514,3.855v6.198c0,1.533,0.166,2.818,0.499,3.856c0.332,1.038,0.836,1.874,1.511,2.509
		c0.676,0.635,1.522,1.089,2.54,1.361s2.212,0.408,3.583,0.408h0.242c0.504,0,1.048-0.02,1.633-0.06
		c0.585-0.041,1.129-0.101,1.633-0.182s0.927-0.176,1.27-0.287c0.342-0.111,0.514-0.247,0.514-0.408c0-0.182-0.011-0.378-0.03-0.59
		c-0.021-0.212-0.056-0.413-0.106-0.605c-0.051-0.191-0.116-0.347-0.197-0.468c-0.081-0.121-0.181-0.171-0.302-0.151
		c-0.262,0.04-0.771,0.126-1.527,0.257s-1.638,0.196-2.646,0.196h-0.242c-1.088,0-1.991-0.11-2.706-0.333
		c-0.716-0.221-1.29-0.574-1.723-1.058c-0.434-0.484-0.737-1.119-0.908-1.905c-0.171-0.786-0.257-1.754-0.257-2.903V24.78
		C668.864,23.631,668.955,22.663,669.137,21.877 M654.832,20.304c0.019-0.201,0.05-0.382,0.09-0.544
		c0,0.101,0.025,0.283,0.076,0.544c0.05,0.263,0.095,0.444,0.136,0.545l2.903,8.799h-6.259l2.933-8.799
		C654.771,20.688,654.811,20.506,654.832,20.304 M661.453,38.643c0.342,0.071,0.796,0.106,1.36,0.106
		c0.182,0,0.358-0.035,0.529-0.106s0.257-0.196,0.257-0.378c0-0.121-0.01-0.211-0.03-0.272l-7.257-21.136
		c-0.121-0.382-0.353-0.574-0.695-0.574c-0.383,0-0.801,0.035-1.255,0.106c-0.454,0.071-0.721,0.217-0.801,0.438l-7.287,21.166
		c-0.041,0.121-0.061,0.212-0.061,0.272c0,0.182,0.086,0.307,0.257,0.378s0.358,0.106,0.559,0.106c0.464,0,0.882-0.02,1.255-0.06
		c0.373-0.041,0.6-0.182,0.681-0.424l2.116-6.259h7.68l2.026,6.138C660.889,38.406,661.111,38.572,661.453,38.643 M644.216,28.529
		c0.08,0,0.151-0.06,0.211-0.181c0.061-0.121,0.111-0.273,0.151-0.454c0.041-0.181,0.071-0.368,0.091-0.559
		c0.02-0.192,0.03-0.368,0.03-0.53c0-0.221-0.07-0.393-0.211-0.514c-0.142-0.121-0.303-0.181-0.484-0.181h-8.345v-7.045h9.917
		c0.081,0,0.151-0.061,0.212-0.182c0.06-0.121,0.111-0.272,0.151-0.453c0.04-0.182,0.071-0.373,0.091-0.575
		c0.02-0.201,0.03-0.382,0.03-0.544c0-0.222-0.071-0.388-0.212-0.499c-0.141-0.11-0.302-0.166-0.483-0.166h-11.43
		c-0.665,0-0.998,0.211-0.998,0.635v20.924c0,0.081,0.071,0.156,0.212,0.227c0.141,0.07,0.317,0.125,0.529,0.166
		c0.212,0.04,0.433,0.076,0.665,0.106c0.232,0.03,0.428,0.045,0.59,0.045c0.221,0,0.398-0.086,0.529-0.257
		c0.131-0.171,0.197-0.367,0.197-0.59v-9.373H644.216z M607.66,16.797c-0.101-0.141-0.212-0.262-0.333-0.363
		c-0.121-0.1-0.262-0.151-0.423-0.151c-0.182,0-0.378,0.01-0.59,0.03c-0.212,0.021-0.419,0.056-0.62,0.106
		c-0.202,0.051-0.368,0.111-0.499,0.181c-0.131,0.071-0.196,0.147-0.196,0.227v21.408c0,0.101,0.07,0.181,0.211,0.242
		c0.141,0.06,0.313,0.111,0.514,0.151c0.202,0.04,0.413,0.071,0.635,0.091c0.222,0.02,0.413,0.03,0.575,0.03
		c0.222,0,0.398-0.081,0.529-0.242c0.131-0.161,0.197-0.352,0.197-0.574v-16.54l10.855,16.872c0.06,0.081,0.166,0.151,0.317,0.212
		c0.151,0.06,0.328,0.111,0.529,0.151c0.202,0.04,0.403,0.071,0.605,0.091c0.201,0.02,0.373,0.03,0.514,0.03
		c0.201,0,0.368-0.075,0.499-0.227c0.131-0.151,0.197-0.337,0.197-0.559V17.13c0-0.242-0.046-0.444-0.137-0.605
		c-0.09-0.161-0.247-0.242-0.468-0.242c-0.182,0-0.393,0.01-0.635,0.03c-0.242,0.021-0.469,0.051-0.681,0.091
		c-0.211,0.041-0.388,0.091-0.529,0.151c-0.141,0.061-0.211,0.131-0.211,0.212V33.7L607.66,16.797z M600.509,17.099
		c0-0.221-0.066-0.413-0.197-0.574c-0.131-0.161-0.307-0.242-0.529-0.242c-0.181,0-0.383,0.01-0.605,0.03
		c-0.222,0.021-0.438,0.056-0.65,0.106c-0.211,0.051-0.388,0.111-0.529,0.181c-0.141,0.071-0.211,0.147-0.211,0.227v21.408
		c0,0.101,0.07,0.181,0.211,0.242c0.141,0.06,0.318,0.111,0.529,0.151c0.212,0.04,0.428,0.071,0.65,0.091
		c0.222,0.02,0.424,0.03,0.605,0.03c0.222,0,0.398-0.081,0.529-0.242c0.131-0.161,0.197-0.352,0.197-0.574V17.099z M581.351,27.35
		l10.069,10.855c0.221,0.242,0.534,0.393,0.937,0.453c0.403,0.061,0.836,0.091,1.3,0.091c0.141,0,0.303-0.02,0.484-0.06
		c0.181-0.041,0.272-0.162,0.272-0.363c0-0.222-0.161-0.504-0.484-0.847l-9.706-10.432l8.86-9.494
		c0.342-0.363,0.514-0.645,0.514-0.847c0-0.201-0.091-0.322-0.272-0.363c-0.182-0.04-0.353-0.06-0.514-0.06
		c-0.444,0-0.873,0.03-1.285,0.091c-0.414,0.06-0.731,0.211-0.953,0.453l-9.222,9.948v-9.676c0-0.221-0.066-0.413-0.197-0.574
		c-0.131-0.161-0.307-0.242-0.529-0.242c-0.181,0-0.383,0.01-0.605,0.03c-0.222,0.021-0.438,0.056-0.65,0.106
		c-0.211,0.051-0.388,0.111-0.529,0.181c-0.141,0.071-0.212,0.147-0.212,0.227v21.408c0,0.101,0.071,0.181,0.212,0.242
		c0.141,0.06,0.318,0.111,0.529,0.151c0.212,0.04,0.428,0.071,0.65,0.091c0.222,0.02,0.424,0.03,0.605,0.03
		c0.222,0,0.398-0.081,0.529-0.242c0.131-0.161,0.197-0.352,0.197-0.574V27.35z M566.411,20.304c0.02-0.201,0.05-0.382,0.091-0.544
		c0,0.101,0.025,0.283,0.075,0.544c0.05,0.263,0.096,0.444,0.136,0.545l2.903,8.799h-6.259l2.933-8.799
		C566.35,20.688,566.39,20.506,566.411,20.304 M573.033,38.643c0.342,0.071,0.796,0.106,1.36,0.106c0.182,0,0.358-0.035,0.53-0.106
		c0.171-0.071,0.257-0.196,0.257-0.378c0-0.121-0.011-0.211-0.031-0.272l-7.257-21.136c-0.121-0.382-0.352-0.574-0.695-0.574
		c-0.383,0-0.801,0.035-1.255,0.106c-0.453,0.071-0.721,0.217-0.801,0.438l-7.287,21.166c-0.041,0.121-0.061,0.212-0.061,0.272
		c0,0.182,0.086,0.307,0.257,0.378c0.171,0.071,0.358,0.106,0.56,0.106c0.463,0,0.881-0.02,1.254-0.06
		c0.373-0.041,0.6-0.182,0.681-0.424l2.116-6.259h7.681l2.026,6.138C572.468,38.406,572.69,38.572,573.033,38.643 M542.031,38.235
		c0.282,0.101,0.554,0.151,0.816,0.151h11.4c0.08,0,0.151-0.06,0.211-0.181c0.061-0.121,0.111-0.272,0.151-0.454
		c0.041-0.181,0.071-0.372,0.091-0.574c0.02-0.201,0.03-0.383,0.03-0.544c0-0.202-0.07-0.363-0.211-0.484
		c-0.142-0.121-0.303-0.182-0.484-0.182h-9.706v-7.438h8.98c0.081,0,0.151-0.06,0.212-0.181c0.06-0.121,0.116-0.273,0.166-0.454
		s0.086-0.373,0.106-0.575c0.02-0.201,0.03-0.372,0.03-0.514c0-0.221-0.071-0.393-0.211-0.514c-0.142-0.121-0.313-0.181-0.514-0.181
		h-8.769v-7.045h9.918c0.08,0,0.151-0.061,0.211-0.182c0.061-0.121,0.111-0.272,0.151-0.453c0.041-0.182,0.071-0.373,0.091-0.575
		c0.02-0.201,0.03-0.382,0.03-0.544c0-0.222-0.07-0.388-0.211-0.499c-0.142-0.11-0.303-0.166-0.484-0.166h-11.702
		c-0.484,0-0.726,0.262-0.726,0.786v20.41C541.607,38.004,541.747,38.134,542.031,38.235 M531.672,19.352
		c0.726,0.212,1.315,0.559,1.769,1.043c0.453,0.484,0.776,1.114,0.967,1.89c0.192,0.776,0.288,1.719,0.288,2.827v4.778
		c0,1.108-0.096,2.051-0.288,2.827c-0.191,0.776-0.514,1.406-0.967,1.89c-0.454,0.483-1.043,0.831-1.769,1.043
		c-0.726,0.211-1.633,0.317-2.721,0.317h-4.143V19.035h4.143C530.039,19.035,530.945,19.14,531.672,19.352 M522.359,16.797
		c-0.181,0.121-0.272,0.323-0.272,0.605v20.44c0,0.162,0.136,0.292,0.408,0.393c0.272,0.101,0.549,0.151,0.832,0.151h5.624
		c1.451,0,2.711-0.136,3.779-0.408c1.069-0.272,1.955-0.726,2.661-1.361c0.705-0.635,1.229-1.471,1.572-2.509
		c0.343-1.038,0.515-2.323,0.515-3.856V24.78c0-1.532-0.172-2.817-0.515-3.856c-0.343-1.038-0.867-1.874-1.572-2.509
		c-0.706-0.635-1.592-1.094-2.661-1.376c-1.068-0.282-2.328-0.423-3.779-0.423h-5.987C522.742,16.616,522.54,16.676,522.359,16.797"
		/>
</g>
</svg>
