<?xml version="1.0" encoding="UTF-8"?>
<!-- Generator: Adobe Illustrator 29.6.1, SVG Export Plug-In . SVG Version: 9.03 Build 0)  -->
<svg version="1.1" id="Layer_1" xmlns="http://www.w3.org/2000/svg" xmlns:xlink="http://www.w3.org/1999/xlink" x="0px" y="0px"
	 viewBox="0 0 720 144" style="enable-background:new 0 0 720 144;" xml:space="preserve">
<g>
	<defs>
		<rect id="SVGID_1_" width="720" height="144"/>
	</defs>
	<clipPath id="SVGID_00000069375315518085842960000008771530440854514072_">
		<use xlink:href="#SVGID_1_"  style="overflow:visible;"/>
	</clipPath>
	<path style="clip-path:url(#SVGID_00000069375315518085842960000008771530440854514072_);fill:#FFFFFF;" d="M72.921,1.3
		C33.757,1.3,2.008,32.959,2.008,72.012s31.749,70.712,70.913,70.712s70.912-31.659,70.912-70.712S112.085,1.3,72.921,1.3"/>
	<path style="clip-path:url(#SVGID_00000069375315518085842960000008771530440854514072_);fill:#FFFFFF;" d="M72.921,2.98
		c38.175,0,69.233,30.968,69.233,69.032s-31.058,69.032-69.233,69.032S3.688,110.076,3.688,72.012S34.746,2.98,72.921,2.98"/>
</g>
<rect x="191.456" y="16.617" style="fill:#FFFFFF;" width="2" height="111.776"/>
<g>
	<defs>
		<rect id="SVGID_00000033370763315495215880000006747577397410923167_" width="720" height="144"/>
	</defs>
	<clipPath id="SVGID_00000048462190176962675610000013682347430088468913_">
		<use xlink:href="#SVGID_00000033370763315495215880000006747577397410923167_"  style="overflow:visible;"/>
	</clipPath>
	<path style="clip-path:url(#SVGID_00000048462190176962675610000013682347430088468913_);" d="M114.152,102.346v4.129
		c0,0.138-0.046,0.246-0.154,0.323c-0.093,0.077-0.216,0.123-0.37,0.123c-0.092,0-0.231,0-0.385-0.015
		c-0.154-0.015-0.323-0.031-0.478-0.046c-0.154-0.015-0.292-0.062-0.416-0.108c-0.107-0.046-0.169-0.108-0.169-0.169v-4.222
		l-3.605-7.041c-0.123-0.246-0.139-0.416-0.046-0.523c0.092-0.108,0.262-0.17,0.508-0.17c0.154,0,0.308,0,0.478,0.015
		c0.154,0,0.308,0.016,0.446,0.047c0.139,0.015,0.262,0.046,0.355,0.077c0.092,0.031,0.169,0.077,0.2,0.154l2.65,5.408l2.65-5.393
		c0.031-0.061,0.092-0.123,0.2-0.154c0.093-0.031,0.216-0.061,0.355-0.092c0.138-0.016,0.292-0.031,0.446-0.047
		c0.154,0,0.324-0.015,0.478-0.015c0.246,0,0.416,0.046,0.508,0.154c0.077,0.108,0.062,0.277-0.061,0.539L114.152,102.346z
		 M103.615,96.584v9.891c0,0.138-0.046,0.246-0.154,0.323c-0.108,0.077-0.216,0.123-0.354,0.123c-0.093,0-0.231,0-0.401-0.015
		c-0.17-0.015-0.339-0.031-0.493-0.046s-0.293-0.062-0.401-0.108c-0.123-0.046-0.169-0.108-0.169-0.169v-9.984h-3.051
		c-0.123,0-0.215-0.046-0.308-0.139c-0.077-0.092-0.123-0.2-0.123-0.338c0-0.093,0-0.201,0.015-0.355
		c0.016-0.138,0.031-0.292,0.047-0.431c0.015-0.139,0.061-0.262,0.092-0.37c0.046-0.092,0.093-0.154,0.17-0.154h8.165
		c0.123,0,0.216,0.046,0.308,0.139c0.077,0.092,0.123,0.215,0.123,0.339c0,0.092,0,0.2-0.015,0.354s-0.031,0.293-0.046,0.431
		c-0.016,0.139-0.046,0.262-0.093,0.355c-0.046,0.092-0.092,0.154-0.169,0.154H103.615z M96.497,106.475
		c0,0.138-0.046,0.246-0.154,0.323c-0.092,0.077-0.216,0.123-0.37,0.123c-0.092,0-0.231,0-0.4-0.015
		c-0.17-0.015-0.324-0.031-0.493-0.046c-0.154-0.015-0.293-0.062-0.416-0.108c-0.108-0.046-0.17-0.108-0.17-0.169V94.981
		c0-0.061,0.062-0.123,0.17-0.169c0.123-0.046,0.262-0.092,0.416-0.108c0.154-0.015,0.323-0.046,0.493-0.046
		c0.169-0.016,0.292-0.016,0.4-0.016c0.139,0,0.262,0.047,0.37,0.139c0.092,0.093,0.154,0.2,0.154,0.324V106.475z M85.389,104.888
		c0.092,0.015,0.216,0.061,0.401,0.092c0.185,0.047,0.385,0.093,0.631,0.139c0.231,0.046,0.493,0.077,0.786,0.123
		c0.277,0.031,0.57,0.046,0.847,0.046c0.309,0,0.601-0.03,0.878-0.077c0.278-0.046,0.54-0.138,0.755-0.246
		c0.216-0.123,0.401-0.277,0.524-0.462c0.139-0.201,0.201-0.432,0.201-0.724c0-0.401-0.124-0.74-0.386-1.017
		c-0.261-0.278-0.585-0.539-0.97-0.786c-0.385-0.246-0.817-0.493-1.279-0.739c-0.462-0.247-0.878-0.54-1.279-0.863
		c-0.4-0.324-0.724-0.709-0.97-1.156c-0.262-0.447-0.385-0.986-0.385-1.633c0-0.539,0.092-1.001,0.292-1.371
		c0.2-0.37,0.463-0.678,0.801-0.924c0.339-0.232,0.755-0.416,1.218-0.524c0.477-0.108,1.001-0.17,1.571-0.17
		c0.123,0,0.308,0,0.555,0.016c0.246,0.015,0.508,0.03,0.785,0.061c0.278,0.031,0.555,0.062,0.817,0.108
		c0.277,0.046,0.493,0.108,0.647,0.185c0.154,0.062,0.247,0.139,0.277,0.216c0.031,0.077,0.031,0.2,0.016,0.385
		c-0.016,0.293-0.077,0.524-0.185,0.724c-0.093,0.2-0.231,0.277-0.416,0.246c-0.278-0.061-0.586-0.107-0.94-0.169
		c-0.354-0.046-0.755-0.077-1.186-0.077c-0.678,0-1.248,0.108-1.68,0.293c-0.431,0.2-0.647,0.523-0.647,0.986
		c0,0.369,0.124,0.678,0.386,0.939c0.261,0.263,0.585,0.509,0.97,0.74s0.817,0.478,1.279,0.724c0.462,0.247,0.878,0.539,1.279,0.878
		c0.385,0.339,0.724,0.74,0.97,1.202c0.262,0.462,0.385,1.048,0.385,1.71c0,0.632-0.123,1.156-0.354,1.556
		c-0.231,0.416-0.555,0.724-0.94,0.955c-0.385,0.232-0.847,0.386-1.356,0.478c-0.508,0.093-1.047,0.139-1.602,0.139
		c-0.246,0-0.524-0.016-0.801-0.031s-0.539-0.046-0.817-0.077c-0.261-0.031-0.508-0.077-0.754-0.123
		c-0.232-0.047-0.432-0.093-0.601-0.154c-0.17-0.062-0.262-0.124-0.293-0.185c-0.031-0.077-0.046-0.201-0.015-0.37
		c0.03-0.324,0.092-0.601,0.184-0.817C85.112,104.949,85.234,104.842,85.389,104.888 M79.057,96.568H76.76v3.991h2.296
		c0.447,0,0.816-0.031,1.078-0.077c0.278-0.047,0.478-0.139,0.632-0.278c0.154-0.138,0.247-0.308,0.293-0.539
		s0.077-0.539,0.077-0.909v-0.37c0-0.369-0.031-0.678-0.077-0.924c-0.046-0.231-0.154-0.416-0.293-0.555
		c-0.154-0.138-0.354-0.215-0.632-0.277C79.857,96.599,79.504,96.568,79.057,96.568 M74.773,106.567V95.228
		c0-0.123,0.046-0.216,0.154-0.308c0.108-0.077,0.216-0.123,0.37-0.123h3.651c0.755,0,1.402,0.061,1.941,0.169
		c0.539,0.108,0.971,0.308,1.31,0.585c0.339,0.278,0.585,0.648,0.739,1.11c0.155,0.462,0.231,1.032,0.231,1.741v0.37
		c0,0.523-0.046,0.97-0.123,1.355s-0.216,0.724-0.385,1.002c-0.169,0.277-0.416,0.493-0.709,0.662
		c-0.292,0.17-0.647,0.293-1.047,0.385l2.295,3.975c0.124,0.216,0.185,0.37,0.185,0.478c0,0.061-0.031,0.123-0.077,0.169
		c-0.061,0.047-0.123,0.077-0.185,0.093c-0.061,0.015-0.138,0.03-0.2,0.046c-0.077,0-0.123,0.015-0.154,0.015
		c-0.093,0-0.231,0-0.385-0.015c-0.154-0.016-0.308-0.031-0.462-0.062c-0.154-0.03-0.309-0.061-0.432-0.123
		c-0.123-0.062-0.216-0.139-0.277-0.231l-2.434-4.16h-2.034v4.16c0,0.139-0.046,0.231-0.154,0.308
		c-0.093,0.077-0.216,0.123-0.354,0.123c-0.093,0-0.232,0-0.401-0.015c-0.17-0.016-0.324-0.031-0.493-0.046
		c-0.154-0.016-0.293-0.062-0.416-0.108C74.836,106.69,74.773,106.644,74.773,106.567 M65.068,106.382V95.228
		c0-0.139,0.046-0.247,0.154-0.324c0.092-0.077,0.216-0.107,0.37-0.107h6.64c0.123,0,0.231,0.046,0.308,0.154
		c0.077,0.092,0.123,0.215,0.123,0.339c0,0.092,0,0.2-0.015,0.354c-0.016,0.154-0.031,0.293-0.046,0.431
		c-0.016,0.139-0.062,0.262-0.093,0.355c-0.046,0.092-0.108,0.154-0.169,0.154h-5.269v3.204h4.514c0.108,0,0.2,0.047,0.292,0.139
		c0.078,0.092,0.124,0.2,0.124,0.323c0,0.093,0,0.201-0.016,0.355c-0.015,0.154-0.03,0.292-0.046,0.431
		c-0.015,0.139-0.062,0.262-0.092,0.37c-0.047,0.092-0.093,0.154-0.17,0.154h-4.622v3.389h5.161c0.124,0,0.232,0.047,0.309,0.139
		c0.077,0.093,0.123,0.2,0.123,0.339c0,0.092,0,0.2-0.016,0.354c-0.015,0.139-0.03,0.293-0.046,0.432
		c-0.015,0.138-0.061,0.262-0.092,0.37c-0.046,0.107-0.108,0.154-0.17,0.154h-6.501c-0.154,0-0.324-0.031-0.493-0.108
		C65.145,106.536,65.068,106.459,65.068,106.382 M58.998,103.547l2.496-8.581c0.154-0.154,0.339-0.246,0.539-0.293
		c0.2-0.031,0.431-0.061,0.709-0.061c0.107,0,0.231,0,0.338,0.015c0.124,0.015,0.216,0.031,0.293,0.077
		c0.077,0.046,0.139,0.093,0.185,0.17c0.046,0.077,0.031,0.169,0,0.308l-3.836,11.478c-0.016,0.092-0.077,0.154-0.17,0.2
		c-0.092,0.046-0.185,0.061-0.292,0.061c-0.37,0-0.678-0.015-0.925-0.061c-0.246-0.046-0.4-0.108-0.462-0.185l-3.821-11.493
		c-0.031-0.108-0.031-0.201,0-0.278c0.031-0.077,0.077-0.123,0.154-0.169c0.062-0.046,0.139-0.077,0.231-0.093
		c0.077-0.015,0.154-0.03,0.201-0.03c0.169,0,0.339,0,0.508,0.015c0.17,0.015,0.324,0.031,0.478,0.062
		c0.138,0.031,0.262,0.077,0.369,0.123c0.093,0.062,0.17,0.123,0.201,0.216l2.557,8.504c0.046,0.139,0.077,0.277,0.093,0.416
		c0.015,0.154,0.031,0.277,0.061,0.401c0.016-0.124,0.031-0.262,0.046-0.401C58.921,103.809,58.951,103.671,58.998,103.547
		 M52.589,106.475c0,0.138-0.047,0.246-0.154,0.323c-0.093,0.077-0.216,0.123-0.37,0.123c-0.093,0-0.231,0-0.401-0.015
		c-0.169-0.015-0.323-0.031-0.493-0.046c-0.154-0.015-0.293-0.062-0.416-0.108s-0.169-0.108-0.169-0.169V94.981
		c0-0.061,0.061-0.123,0.169-0.169c0.123-0.046,0.247-0.092,0.416-0.108c0.154-0.015,0.324-0.046,0.493-0.046
		c0.17-0.016,0.293-0.016,0.401-0.016c0.138,0,0.262,0.047,0.37,0.139c0.092,0.093,0.154,0.2,0.154,0.324V106.475z M46.518,103.239
		V94.92c0-0.062,0.062-0.123,0.185-0.154c0.124-0.046,0.262-0.077,0.432-0.093c0.169-0.015,0.339-0.031,0.508-0.046
		c0.17-0.015,0.308-0.015,0.401-0.015c0.292,0,0.431,0.169,0.431,0.493v11.37c0,0.138-0.046,0.231-0.154,0.308
		c-0.108,0.077-0.216,0.123-0.339,0.123c-0.092,0-0.2,0-0.354-0.015c-0.154-0.016-0.293-0.016-0.447-0.046
		c-0.154-0.031-0.278-0.062-0.401-0.093c-0.123-0.046-0.2-0.092-0.246-0.154l-5.377-8.273v8.15c0,0.138-0.046,0.246-0.154,0.323
		c-0.092,0.077-0.216,0.123-0.355,0.123c-0.092,0-0.231,0-0.4-0.015c-0.17-0.015-0.339-0.031-0.493-0.046s-0.293-0.062-0.401-0.108
		c-0.123-0.046-0.169-0.108-0.169-0.169V94.981c0-0.061,0.061-0.123,0.169-0.169c0.124-0.046,0.247-0.092,0.401-0.108
		c0.154-0.015,0.308-0.031,0.477-0.046c0.17-0.016,0.293-0.016,0.401-0.016c0.123,0,0.231,0.031,0.308,0.108
		c0.077,0.077,0.154,0.154,0.201,0.247L46.518,103.239z M35.056,102.5v-7.488c0-0.061,0.062-0.123,0.169-0.169
		c0.124-0.046,0.262-0.093,0.416-0.123c0.17-0.031,0.339-0.062,0.493-0.078c0.17-0.015,0.293-0.03,0.401-0.03
		c0.139,0,0.262,0.046,0.354,0.154c0.093,0.108,0.139,0.215,0.139,0.339v7.487c0,0.817-0.092,1.495-0.277,2.049
		c-0.185,0.555-0.447,0.986-0.817,1.341c-0.37,0.339-0.832,0.585-1.386,0.724c-0.555,0.139-1.218,0.215-1.957,0.215h-0.139
		c-0.724,0-1.371-0.076-1.91-0.215c-0.555-0.139-1.002-0.385-1.371-0.724c-0.37-0.339-0.632-0.786-0.817-1.341
		c-0.185-0.539-0.277-1.232-0.277-2.049v-7.58c0-0.061,0.061-0.123,0.169-0.169c0.124-0.046,0.247-0.093,0.416-0.123
		c0.154-0.031,0.324-0.062,0.493-0.078c0.17-0.015,0.308-0.03,0.401-0.03c0.138,0,0.246,0.046,0.354,0.154
		c0.093,0.108,0.154,0.215,0.154,0.339v7.379c0,0.478,0.031,0.879,0.108,1.218c0.077,0.338,0.2,0.616,0.385,0.816
		c0.185,0.216,0.432,0.37,0.74,0.462c0.308,0.093,0.693,0.154,1.155,0.154h0.139c0.478,0,0.863-0.046,1.186-0.154
		c0.308-0.108,0.57-0.262,0.755-0.462c0.185-0.216,0.324-0.478,0.401-0.816C35.025,103.378,35.056,102.978,35.056,102.5
		 M106.742,75.538v14.313h-3.944V67.989h5.5l5.285,13.466V67.989h4.006v21.862h-5.023L106.742,75.538z M95.419,67.989h4.437v21.862
		h-4.437V67.989z M78.395,67.989h4.56v9.506l5.685-9.506h4.76L87.084,78.05L93.4,89.867h-5.284l-5.161-10.631v10.631h-4.56V67.989z
		 M70.967,84.998H64.62l-1.156,4.869h-4.575l6.162-21.878h5.824l6.07,21.878h-4.791L70.967,84.998z M70.06,81.193l-2.188-9.044
		l-2.296,9.044H70.06z M45.625,67.989h11.817v3.713h-7.195v4.668h6.625v3.806h-6.625v5.823h7.21v3.852H45.625V67.989z
		 M35.595,67.989c5.839,0,7.642,3.097,7.642,10.939s-1.818,10.939-7.657,10.939h-7.488V67.989H35.595z M32.683,86.092h2.08
		c3.405,0,3.836-2.003,3.836-7.241c0-5.223-0.431-7.226-3.836-7.226h-2.08V86.092z M81.507,51.366l-9.938-17.24l1.31-2.203
		l11.154,19.443H81.507z M76.808,51.366l-7.611-13.142l1.279-2.157l8.766,15.299H76.808z M72.032,51.366l-5.223-9.013l1.325-2.234
		l6.424,11.231h-2.526V51.366z M67.225,51.366l-2.804-4.869l1.325-2.234l4.052,7.103H67.225z M61.601,51.366l1.71-2.928l1.711,2.928
		H61.601z M59.429,29.889v18.365c0,7.41,6.009,13.419,13.419,13.419c7.411,0,13.419-6.009,13.419-13.419V29.889H59.429z"/>
	<path style="clip-path:url(#SVGID_00000048462190176962675610000013682347430088468913_);fill:#FFFFFF;" d="M680.763,125.839
		c1.852-1.579,2.778-3.946,2.778-7.102c0-2.06-0.4-3.686-1.2-4.879c-0.8-1.193-2.089-2.345-3.868-3.457l-6.646-4.245
		c-0.726-0.46-1.256-0.986-1.589-1.579c-0.334-0.592-0.5-1.23-0.5-1.911c0-1.112,0.3-1.997,0.9-2.657
		c0.6-0.659,1.411-0.989,2.434-0.989c2.208,0,3.312,1.423,3.312,4.268v0.778h6.735v-1.134c0-3.171-0.811-5.419-2.434-6.746
		c-1.623-1.326-3.983-1.989-7.08-1.989c-3.467,0-6.146,0.759-8.035,2.278c-1.89,1.519-2.834,3.672-2.834,6.457
		c0,2.06,0.385,3.761,1.156,5.102c0.77,1.341,2.445,2.812,5.023,4.412l5.446,3.334c0.741,0.46,1.3,0.993,1.678,1.601
		s0.567,1.348,0.567,2.223c0,1.156-0.315,2.048-0.945,2.678c-0.63,0.63-1.53,0.945-2.7,0.945c-1.378,0-2.342-0.408-2.89-1.223
		s-0.822-2.045-0.822-3.69v-0.866h-6.98v2.044c0,2.89,0.845,5.065,2.534,6.525c1.689,1.459,4.171,2.189,7.446,2.189
		C676.073,128.206,678.91,127.417,680.763,125.839 M640.83,94.73v32.876h18.294v-5.135h-11.425v-9.514h10.203v-5.068h-10.203v-8.091
		h11.07V94.73H640.83z M611.475,94.73v32.876h6.38v-24.029l9.002,24.029h9.025V94.73h-6.38v22.762l-8.78-22.762H611.475z
		 M599.694,127.606h6.869V94.73h-6.869V127.606z M579.552,94.73v32.876h17.161v-5.468H586.51V94.73H579.552z M549.37,108.934
		c0-3.897,0.311-6.561,0.933-7.991c0.623-1.43,1.771-2.145,3.446-2.145c1.704,0,2.863,0.671,3.478,2.012s0.923,3.508,0.923,6.501
		v3.135c0,2.163-0.041,4.267-0.122,6.312c-0.082,2.045-0.423,3.65-1.023,4.813c-0.6,1.163-1.7,1.745-3.301,1.745
		c-1.141,0-2.019-0.341-2.634-1.023c-0.615-0.681-1.052-1.734-1.311-3.156c-0.26-1.423-0.389-3.897-0.389-7.424V108.934z
		 M553.593,128.206c2.075,0,3.808-0.245,5.201-0.734c1.393-0.489,2.516-1.181,3.368-2.078c0.852-0.896,1.493-2.004,1.923-3.323
		c0.429-1.319,0.718-2.734,0.867-4.246c0.148-1.511,0.222-3.808,0.222-6.89c0-3.438-0.111-6.035-0.333-7.791
		c-0.223-1.756-0.686-3.342-1.39-4.757c-0.704-1.415-1.837-2.523-3.401-3.323c-1.563-0.801-3.678-1.201-6.346-1.201
		c-2.682,0-4.864,0.519-6.546,1.556c-1.682,1.038-2.901,2.675-3.657,4.913c-0.755,2.237-1.133,5.712-1.133,10.425
		c0,4.001,0.189,6.939,0.567,8.813c0.378,1.875,0.952,3.427,1.722,4.657c0.771,1.23,1.886,2.201,3.346,2.912
		C549.462,127.85,551.326,128.206,553.593,128.206 M500.199,94.73l7.291,32.876h7.468l5.735-24.029l5.179,24.029h7.603l7.29-32.876
		h-6.735l-4.156,23.095l-4.957-23.095h-8.114l-5.223,23.095l-4.335-23.095H500.199z M476.351,94.73v5.335h7.557v27.541h6.98v-27.541
		h7.646V94.73H476.351z M447.168,94.73v32.876h18.294v-5.135h-11.425v-9.514h10.203v-5.068h-10.203v-8.091h11.069V94.73H447.168z
		 M440.532,125.839c1.853-1.579,2.779-3.946,2.779-7.102c0-2.06-0.4-3.686-1.2-4.879c-0.801-1.193-2.09-2.345-3.868-3.457
		l-6.646-4.245c-0.727-0.46-1.256-0.986-1.59-1.579c-0.333-0.592-0.5-1.23-0.5-1.911c0-1.112,0.3-1.997,0.9-2.657
		c0.6-0.659,1.412-0.989,2.434-0.989c2.208,0,3.312,1.423,3.312,4.268v0.778h6.735v-1.134c0-3.171-0.811-5.419-2.434-6.746
		c-1.622-1.326-3.982-1.989-7.079-1.989c-3.468,0-6.146,0.759-8.036,2.278c-1.889,1.519-2.834,3.672-2.834,6.457
		c0,2.06,0.385,3.761,1.156,5.102c0.77,1.341,2.445,2.812,5.024,4.412l5.446,3.334c0.74,0.46,1.3,0.993,1.678,1.601
		c0.378,0.608,0.567,1.348,0.567,2.223c0,1.156-0.315,2.048-0.945,2.678c-0.63,0.63-1.53,0.945-2.701,0.945
		c-1.378,0-2.341-0.408-2.89-1.223c-0.548-0.815-0.822-2.045-0.822-3.69v-0.866h-6.98v2.044c0,2.89,0.845,5.065,2.534,6.525
		c1.69,1.459,4.172,2.189,7.447,2.189C435.842,128.206,438.68,127.417,440.532,125.839 M400.6,94.73v32.876h18.294v-5.135h-11.426
		v-9.514h10.203v-5.068h-10.203v-8.091h11.07V94.73H400.6z M374.002,94.73v32.876h6.936v-14.471h7.779v14.471h6.913V94.73h-6.913
		v13.026h-7.779V94.73H374.002z M348.654,94.73v5.335h7.558v27.541h6.98v-27.541h7.646V94.73H348.654z M323.695,99.798h1.467
		c2.09,0,3.453,0.334,4.09,1c0.637,0.667,0.956,1.816,0.956,3.446c0,1.645-0.322,2.838-0.967,3.579
		c-0.644,0.741-1.96,1.111-3.945,1.111h-1.601V99.798z M316.782,94.73v32.876h6.913v-13.604h1.334c2.06,0,3.46,0.352,4.201,1.056
		c0.741,0.704,1.112,2.004,1.112,3.901v5.046c0,0.889,0.051,1.545,0.155,1.967c0.104,0.422,0.296,0.967,0.578,1.634h6.735
		c-0.148-0.445-0.255-1.03-0.322-1.756c-0.067-0.726-0.122-1.49-0.167-2.29l-0.333-5.646c-0.134-2.119-0.604-3.652-1.412-4.601
		c-0.808-0.948-2.293-1.571-4.456-1.867c2.03-0.385,3.53-1.23,4.501-2.534c0.97-1.304,1.456-3.127,1.456-5.468
		c0-2.964-0.727-5.157-2.179-6.58c-1.452-1.423-3.682-2.134-6.69-2.134H316.782z M294.919,94.73v32.876h18.294v-5.135h-11.426
		v-9.514h10.203v-5.068h-10.203v-8.091h11.07V94.73H294.919z M267.051,94.73l8.113,32.876h8.047l8.691-32.876h-6.779l-5.78,23.918
		l-5.134-23.918H267.051z M249.514,108.934c0-3.897,0.311-6.561,0.933-7.991c0.623-1.43,1.771-2.145,3.446-2.145
		c1.704,0,2.863,0.671,3.478,2.012c0.615,1.341,0.923,3.508,0.923,6.501v3.135c0,2.163-0.041,4.267-0.122,6.312
		c-0.082,2.045-0.423,3.65-1.023,4.813c-0.6,1.163-1.7,1.745-3.301,1.745c-1.141,0-2.019-0.341-2.634-1.023
		c-0.615-0.681-1.052-1.734-1.311-3.156c-0.26-1.423-0.389-3.897-0.389-7.424V108.934z M253.737,128.206
		c2.075,0,3.808-0.245,5.201-0.734c1.393-0.489,2.516-1.181,3.368-2.078c0.852-0.896,1.493-2.004,1.923-3.323
		c0.429-1.319,0.718-2.734,0.867-4.246c0.148-1.511,0.222-3.808,0.222-6.89c0-3.438-0.111-6.035-0.333-7.791
		c-0.223-1.756-0.686-3.342-1.39-4.757c-0.704-1.415-1.837-2.523-3.401-3.323c-1.563-0.801-3.678-1.201-6.346-1.201
		c-2.682,0-4.864,0.519-6.546,1.556c-1.682,1.038-2.901,2.675-3.657,4.913c-0.755,2.237-1.133,5.712-1.133,10.425
		c0,4.001,0.189,6.939,0.567,8.813c0.377,1.875,0.952,3.427,1.722,4.657c0.771,1.23,1.886,2.201,3.346,2.912
		C249.606,127.85,251.47,128.206,253.737,128.206"/>
	<path style="clip-path:url(#SVGID_00000048462190176962675610000013682347430088468913_);fill:#FFFFFF;" d="M613.407,82.539
		c1.852-1.579,2.779-3.946,2.779-7.102c0-2.06-0.401-3.687-1.201-4.88c-0.8-1.192-2.089-2.345-3.868-3.456l-6.646-4.246
		c-0.726-0.459-1.256-0.985-1.589-1.578c-0.334-0.592-0.5-1.23-0.5-1.911c0-1.112,0.3-1.997,0.9-2.657
		c0.6-0.659,1.412-0.989,2.434-0.989c2.208,0,3.312,1.423,3.312,4.268v0.778h6.735v-1.134c0-3.171-0.811-5.42-2.434-6.746
		c-1.622-1.326-3.983-1.989-7.08-1.989c-3.467,0-6.146,0.759-8.035,2.278c-1.889,1.519-2.834,3.671-2.834,6.457
		c0,2.06,0.385,3.761,1.156,5.102c0.77,1.341,2.445,2.812,5.023,4.412l5.446,3.334c0.741,0.46,1.301,0.993,1.678,1.601
		c0.378,0.607,0.567,1.348,0.567,2.222c0,1.156-0.315,2.049-0.944,2.679c-0.63,0.63-1.531,0.945-2.701,0.945
		c-1.378,0-2.342-0.408-2.89-1.223s-0.822-2.045-0.822-3.69v-0.867h-6.98v2.045c0,2.89,0.845,5.065,2.534,6.524
		c1.689,1.46,4.171,2.19,7.447,2.19C608.717,84.906,611.554,84.117,613.407,82.539 M566.562,51.43v32.876h6.38V60.277l9.002,24.029
		h9.025V51.43h-6.38v22.762l-8.78-22.762H566.562z M539.438,51.43v22.006c0,3.868,0.893,6.746,2.679,8.636
		c1.785,1.889,4.545,2.834,8.28,2.834c3.912,0,6.779-0.93,8.602-2.79c1.823-1.859,2.734-4.738,2.734-8.636V51.43h-6.69v22.184
		c0,2.119-0.371,3.716-1.112,4.79c-0.741,1.075-1.882,1.612-3.423,1.612c-1.438,0-2.497-0.53-3.179-1.59
		c-0.681-1.059-1.022-2.678-1.022-4.857V51.43H539.438z M521.939,56.498h1.467c2.09,0,3.453,0.333,4.09,1s0.956,1.816,0.956,3.446
		c0,1.645-0.322,2.838-0.967,3.578c-0.644,0.742-1.96,1.112-3.945,1.112h-1.601V56.498z M515.026,51.43v32.876h6.913V70.702h1.334
		c2.059,0,3.46,0.352,4.201,1.056c0.741,0.704,1.111,2.004,1.111,3.901v5.046c0,0.889,0.052,1.545,0.156,1.967
		c0.104,0.422,0.296,0.967,0.578,1.634h6.735c-0.148-0.445-0.255-1.03-0.322-1.756c-0.067-0.726-0.122-1.49-0.167-2.29l-0.333-5.646
		c-0.134-2.119-0.604-3.653-1.412-4.601c-0.808-0.948-2.293-1.571-4.457-1.867c2.03-0.385,3.531-1.23,4.502-2.534
		c0.97-1.304,1.456-3.127,1.456-5.468c0-2.964-0.727-5.157-2.179-6.58c-1.452-1.423-3.682-2.134-6.691-2.134H515.026z
		 M483.376,51.43v32.876h18.294v-5.135h-11.425v-9.514h10.203v-5.068h-10.203v-8.091h11.07V51.43H483.376z M446.196,51.43v32.876
		h6.512V58.943l6.091,25.363h6.557l6.424-25.363v25.363h6.691V51.43h-10.692l-5.512,22.362l-5.202-22.362H446.196z M429.3,57.765
		l3.423,14.293h-6.646L429.3,57.765z M425.21,51.43l-9.114,32.876h6.802l1.867-7.291h9.358l1.823,7.291h7.246l-8.913-32.876H425.21z
		 M388.542,51.43v32.876h6.38V60.277l9.002,24.029h9.025V51.43h-6.38v22.762l-8.78-22.762H388.542z M351.558,51.43l8.558,20.806
		v12.07h6.979v-12.07l9.136-20.806h-7.002l-5.246,13.893l-4.912-13.893H351.558z M327.522,51.43v5.335h7.558v27.541h6.98V56.765
		h7.646V51.43H327.522z M317.612,84.306h6.869V51.43h-6.869V84.306z M292.368,51.43v5.335h7.557v27.541h6.98V56.765h7.646V51.43
		H292.368z M264.857,51.43v32.876h6.38V60.277l9.002,24.029h9.025V51.43h-6.38v22.762l-8.78-22.762H264.857z M242.867,51.43v32.876
		h18.294v-5.135h-11.425v-9.514h10.202v-5.068h-10.202v-8.091h11.069V51.43H242.867z"/>
	<path style="clip-path:url(#SVGID_00000048462190176962675610000013682347430088468913_);fill:#FFFFFF;" d="M552.211,19.201
		c0.574,0.111,1.017,0.313,1.33,0.605c0.312,0.292,0.529,0.695,0.65,1.209c0.121,0.514,0.182,1.175,0.182,1.981v0.514
		c0,0.806-0.061,1.466-0.182,1.98c-0.121,0.514-0.338,0.912-0.65,1.195c-0.313,0.282-0.756,0.479-1.33,0.589
		c-0.575,0.111-1.316,0.166-2.223,0.166h-4.656v-8.405h4.656C550.896,19.035,551.637,19.09,552.211,19.201 M542.838,38.447
		c0.151,0.06,0.333,0.115,0.544,0.166c0.212,0.05,0.428,0.086,0.65,0.106c0.222,0.02,0.413,0.03,0.575,0.03
		c0.222,0,0.398-0.075,0.529-0.227c0.131-0.151,0.197-0.337,0.197-0.559v-8.104h4.535l4.596,8.074
		c0.081,0.161,0.212,0.297,0.393,0.408c0.182,0.11,0.378,0.196,0.59,0.257c0.212,0.06,0.428,0.101,0.65,0.121
		c0.222,0.02,0.413,0.03,0.575,0.03c0.14,0,0.317-0.03,0.529-0.091c0.211-0.06,0.317-0.191,0.317-0.393
		c0-0.201-0.09-0.443-0.272-0.725l-4.475-7.953c0.847-0.121,1.547-0.332,2.101-0.635c0.555-0.302,1.003-0.695,1.346-1.179
		c0.343-0.484,0.584-1.078,0.726-1.784c0.14-0.705,0.211-1.532,0.211-2.479v-0.514c0-1.21-0.121-2.223-0.362-3.039
		c-0.242-0.817-0.646-1.471-1.21-1.966c-0.565-0.493-1.315-0.846-2.253-1.058c-0.937-0.212-2.091-0.317-3.462-0.317h-6.501
		c-0.222,0-0.403,0.075-0.544,0.226c-0.141,0.152-0.212,0.338-0.212,0.56v20.803C542.611,38.306,542.687,38.386,542.838,38.447
		 M524.211,21.756c0.192-0.746,0.514-1.346,0.968-1.799c0.453-0.454,1.048-0.776,1.784-0.968c0.735-0.191,1.648-0.287,2.736-0.287
		h0.242c1.089,0,1.996,0.096,2.722,0.287c0.725,0.192,1.315,0.514,1.769,0.968c0.453,0.453,0.775,1.053,0.967,1.799
		c0.191,0.746,0.287,1.673,0.287,2.782v5.956c0,1.109-0.096,2.037-0.287,2.782c-0.192,0.746-0.514,1.346-0.967,1.799
		c-0.454,0.454-1.044,0.777-1.769,0.968c-0.726,0.192-1.633,0.287-2.722,0.287H529.7c-1.088,0-2.001-0.095-2.736-0.287
		c-0.736-0.191-1.331-0.514-1.784-0.968c-0.454-0.453-0.776-1.053-0.968-1.799c-0.191-0.745-0.287-1.673-0.287-2.782v-5.956
		C523.924,23.429,524.021,22.502,524.211,21.756 M533.692,38.341c1.068-0.272,1.955-0.726,2.661-1.361
		c0.705-0.635,1.234-1.471,1.587-2.509c0.352-1.038,0.529-2.323,0.529-3.856v-6.198c0-1.532-0.177-2.817-0.529-3.855
		c-0.353-1.038-0.882-1.875-1.587-2.51c-0.706-0.635-1.593-1.089-2.661-1.361c-1.069-0.272-2.319-0.408-3.75-0.408H529.7
		c-1.451,0-2.711,0.136-3.779,0.408c-1.069,0.272-1.956,0.726-2.661,1.361c-0.706,0.635-1.235,1.472-1.588,2.51
		c-0.353,1.038-0.529,2.323-0.529,3.855v6.198c0,1.533,0.176,2.818,0.529,3.856c0.353,1.038,0.882,1.874,1.588,2.509
		c0.705,0.635,1.592,1.089,2.661,1.361c1.068,0.272,2.328,0.408,3.779,0.408h0.242C531.372,38.749,532.622,38.613,533.692,38.341
		 M516.779,28.529c0.081,0,0.151-0.06,0.212-0.181c0.06-0.121,0.11-0.273,0.151-0.454c0.04-0.181,0.071-0.368,0.091-0.559
		c0.02-0.192,0.03-0.368,0.03-0.53c0-0.221-0.071-0.393-0.212-0.514c-0.141-0.121-0.302-0.181-0.483-0.181h-8.346v-7.045h9.918
		c0.08,0,0.151-0.061,0.212-0.182c0.06-0.121,0.11-0.272,0.151-0.453c0.04-0.182,0.07-0.373,0.091-0.575
		c0.019-0.201,0.03-0.382,0.03-0.544c0-0.222-0.071-0.388-0.212-0.499c-0.141-0.11-0.302-0.166-0.484-0.166H506.5
		c-0.666,0-0.998,0.211-0.998,0.635v20.924c0,0.081,0.07,0.156,0.212,0.227c0.14,0.07,0.317,0.125,0.529,0.166
		c0.211,0.04,0.433,0.076,0.665,0.106c0.231,0.03,0.428,0.045,0.59,0.045c0.221,0,0.397-0.086,0.529-0.257
		c0.131-0.171,0.196-0.367,0.196-0.59v-9.373H516.779z M495.13,17.251c0.161-0.343,0.181-0.59,0.061-0.741
		c-0.121-0.151-0.353-0.227-0.696-0.227c-0.464,0-0.897,0.025-1.3,0.076c-0.404,0.05-0.655,0.176-0.756,0.378l-5.246,10.613
		l-5.216-10.613c-0.101-0.202-0.348-0.328-0.741-0.378c-0.393-0.051-0.831-0.076-1.315-0.076c-0.767,0-0.978,0.323-0.635,0.968
		l6.561,12.881v8.103c0,0.101,0.072,0.181,0.214,0.242c0.143,0.06,0.321,0.111,0.535,0.151s0.433,0.071,0.658,0.091
		c0.224,0.02,0.428,0.03,0.611,0.03c0.224,0,0.397-0.081,0.52-0.242c0.122-0.161,0.184-0.352,0.184-0.574v-7.801L495.13,17.251z
		 M471.767,19.201c0.575,0.111,1.018,0.313,1.331,0.605c0.312,0.292,0.529,0.695,0.65,1.209c0.121,0.514,0.181,1.175,0.181,1.981
		v0.514c0,0.806-0.06,1.466-0.181,1.98c-0.121,0.514-0.338,0.912-0.65,1.195c-0.313,0.282-0.756,0.479-1.331,0.589
		c-0.574,0.111-1.315,0.166-2.222,0.166h-4.657v-8.405h4.657C470.452,19.035,471.193,19.09,471.767,19.201 M462.393,38.447
		c0.151,0.06,0.332,0.115,0.544,0.166c0.212,0.05,0.428,0.086,0.65,0.106c0.222,0.02,0.413,0.03,0.575,0.03
		c0.221,0,0.398-0.075,0.529-0.227c0.131-0.151,0.196-0.337,0.196-0.559v-8.104h4.536l4.596,8.074
		c0.08,0.161,0.212,0.297,0.393,0.408c0.182,0.11,0.378,0.196,0.59,0.257c0.211,0.06,0.428,0.101,0.65,0.121
		c0.221,0.02,0.413,0.03,0.574,0.03c0.141,0,0.318-0.03,0.529-0.091c0.212-0.06,0.318-0.191,0.318-0.393
		c0-0.201-0.091-0.443-0.272-0.725l-4.475-7.953c0.846-0.121,1.547-0.332,2.101-0.635c0.554-0.302,1.003-0.695,1.346-1.179
		c0.342-0.484,0.584-1.078,0.725-1.784c0.141-0.705,0.212-1.532,0.212-2.479v-0.514c0-1.21-0.121-2.223-0.363-3.039
		c-0.242-0.817-0.645-1.471-1.209-1.966c-0.565-0.493-1.316-0.846-2.253-1.058s-2.091-0.317-3.462-0.317h-6.501
		c-0.222,0-0.403,0.075-0.544,0.226c-0.142,0.152-0.212,0.338-0.212,0.56v20.803C462.167,38.306,462.242,38.386,462.393,38.447
		 M443.768,21.756c0.191-0.746,0.514-1.346,0.968-1.799c0.453-0.454,1.048-0.776,1.784-0.968c0.735-0.191,1.648-0.287,2.736-0.287
		h0.242c1.089,0,1.996,0.096,2.721,0.287c0.726,0.192,1.316,0.514,1.769,0.968c0.454,0.453,0.776,1.053,0.968,1.799
		c0.191,0.746,0.287,1.673,0.287,2.782v5.956c0,1.109-0.096,2.037-0.287,2.782c-0.192,0.746-0.514,1.346-0.968,1.799
		c-0.453,0.454-1.043,0.777-1.769,0.968c-0.725,0.192-1.632,0.287-2.721,0.287h-0.242c-1.088,0-2.001-0.095-2.736-0.287
		c-0.736-0.191-1.331-0.514-1.784-0.968c-0.454-0.453-0.777-1.053-0.968-1.799c-0.192-0.745-0.287-1.673-0.287-2.782v-5.956
		C443.48,23.429,443.576,22.502,443.768,21.756 M453.247,38.341c1.069-0.272,1.955-0.726,2.661-1.361
		c0.706-0.635,1.235-1.471,1.588-2.509c0.352-1.038,0.529-2.323,0.529-3.856v-6.198c0-1.532-0.177-2.817-0.529-3.855
		c-0.353-1.038-0.882-1.875-1.588-2.51c-0.706-0.635-1.592-1.089-2.661-1.361c-1.068-0.272-2.318-0.408-3.749-0.408h-0.242
		c-1.451,0-2.711,0.136-3.779,0.408c-1.069,0.272-1.956,0.726-2.661,1.361c-0.706,0.635-1.235,1.472-1.588,2.51
		s-0.529,2.323-0.529,3.855v6.198c0,1.533,0.176,2.818,0.529,3.856c0.353,1.038,0.882,1.874,1.588,2.509
		c0.705,0.635,1.592,1.089,2.661,1.361c1.068,0.272,2.328,0.408,3.779,0.408h0.242C450.929,38.749,452.179,38.613,453.247,38.341
		 M424.124,21.952c0.222-0.775,0.586-1.406,1.091-1.889c0.505-0.484,1.172-0.832,2.001-1.044c0.828-0.211,1.848-0.317,3.06-0.317
		h0.637c1.333,0,2.414,0.056,3.242,0.166c0.829,0.111,1.516,0.237,2.061,0.378c0.121,0,0.227-0.06,0.319-0.181
		c0.09-0.121,0.166-0.272,0.227-0.454c0.06-0.181,0.11-0.388,0.151-0.62c0.041-0.231,0.061-0.448,0.061-0.65
		c0-0.181-0.182-0.337-0.545-0.468c-0.364-0.131-0.849-0.242-1.454-0.333c-0.607-0.091-1.293-0.156-2.061-0.197
		c-0.767-0.04-1.555-0.06-2.363-0.06h-0.605c-1.495,0-2.803,0.136-3.923,0.408c-1.122,0.272-2.056,0.726-2.803,1.361
		c-0.747,0.635-1.303,1.472-1.666,2.51c-0.364,1.038-0.545,2.323-0.545,3.855v6.198c0,1.533,0.177,2.818,0.53,3.856
		c0.353,1.038,0.893,1.874,1.62,2.509c0.728,0.635,1.637,1.089,2.727,1.361c1.09,0.272,2.373,0.408,3.848,0.408h0.272
		c0.566,0,1.162-0.025,1.788-0.075c0.626-0.051,1.227-0.121,1.802-0.212c0.575-0.091,1.106-0.191,1.591-0.303
		c0.484-0.11,0.868-0.226,1.151-0.347c0.202-0.081,0.343-0.182,0.424-0.303s0.121-0.352,0.121-0.695V28.65
		c0-0.302-0.051-0.534-0.153-0.696c-0.102-0.161-0.295-0.241-0.58-0.241c-0.47,0-0.918,0.045-1.346,0.136
		c-0.428,0.09-0.642,0.216-0.642,0.378v7.71c-0.786,0.141-1.487,0.242-2.101,0.302c-0.616,0.061-1.306,0.091-2.072,0.091h-0.272
		c-1.109,0-2.041-0.106-2.797-0.317c-0.756-0.212-1.366-0.56-1.829-1.044c-0.464-0.483-0.797-1.108-0.998-1.874
		c-0.202-0.766-0.302-1.713-0.302-2.843V24.78C423.791,23.671,423.901,22.729,424.124,21.952 M405.094,38.235
		c0.282,0.101,0.554,0.151,0.817,0.151h11.399c0.08,0,0.151-0.06,0.212-0.181c0.06-0.121,0.11-0.272,0.151-0.454
		c0.04-0.181,0.07-0.372,0.091-0.574c0.019-0.201,0.03-0.383,0.03-0.544c0-0.202-0.071-0.363-0.212-0.484
		c-0.141-0.121-0.302-0.182-0.484-0.182h-9.706v-7.438h8.981c0.08,0,0.151-0.06,0.211-0.181c0.061-0.121,0.116-0.273,0.167-0.454
		c0.05-0.181,0.085-0.373,0.105-0.575c0.02-0.201,0.031-0.372,0.031-0.514c0-0.221-0.071-0.393-0.212-0.514
		c-0.141-0.121-0.313-0.181-0.514-0.181h-8.769v-7.045h9.918c0.08,0,0.151-0.061,0.212-0.182c0.06-0.121,0.11-0.272,0.151-0.453
		c0.04-0.182,0.07-0.373,0.091-0.575c0.019-0.201,0.03-0.382,0.03-0.544c0-0.222-0.071-0.388-0.212-0.499
		c-0.141-0.11-0.302-0.166-0.484-0.166h-11.701c-0.484,0-0.726,0.262-0.726,0.786v20.41
		C404.672,38.004,404.812,38.134,405.094,38.235 M400.898,19.065c0.08,0,0.151-0.061,0.211-0.182
		c0.061-0.121,0.116-0.272,0.167-0.453c0.05-0.182,0.085-0.373,0.105-0.575c0.02-0.201,0.031-0.382,0.031-0.544
		c0-0.201-0.076-0.363-0.227-0.484s-0.328-0.181-0.529-0.181h-14.665c-0.101,0-0.182,0.065-0.242,0.196
		c-0.061,0.132-0.111,0.288-0.151,0.469c-0.041,0.181-0.071,0.373-0.091,0.575c-0.02,0.201-0.03,0.373-0.03,0.514
		c0,0.201,0.07,0.362,0.211,0.483c0.141,0.121,0.323,0.182,0.545,0.182h5.835v19.17c0,0.101,0.071,0.181,0.212,0.242
		c0.141,0.06,0.318,0.111,0.529,0.151c0.212,0.04,0.433,0.071,0.665,0.091c0.232,0.02,0.429,0.03,0.59,0.03
		c0.222,0,0.398-0.081,0.529-0.242c0.131-0.161,0.197-0.352,0.197-0.574V19.065H400.898z M377.549,20.304
		c0.02-0.201,0.05-0.382,0.091-0.544c0,0.101,0.025,0.283,0.075,0.544c0.05,0.263,0.096,0.444,0.136,0.545l2.903,8.799h-6.259
		l2.933-8.799C377.489,20.688,377.53,20.506,377.549,20.304 M384.172,38.643c0.342,0.071,0.796,0.106,1.36,0.106
		c0.182,0,0.358-0.035,0.53-0.106c0.171-0.071,0.257-0.196,0.257-0.378c0-0.121-0.011-0.211-0.031-0.272l-7.257-21.136
		c-0.121-0.382-0.352-0.574-0.695-0.574c-0.383,0-0.801,0.035-1.255,0.106c-0.453,0.071-0.721,0.217-0.801,0.438l-7.287,21.166
		c-0.041,0.121-0.061,0.212-0.061,0.272c0,0.182,0.086,0.307,0.257,0.378s0.358,0.106,0.56,0.106c0.463,0,0.881-0.02,1.255-0.06
		c0.372-0.041,0.599-0.182,0.68-0.424l2.116-6.259h7.681l2.026,6.138C383.607,38.406,383.828,38.572,384.172,38.643 M355.568,21.877
		c0.181-0.786,0.488-1.421,0.922-1.905c0.433-0.484,1.018-0.836,1.754-1.058c0.735-0.222,1.658-0.333,2.767-0.333h0.241
		c0.464,0,0.917,0.02,1.361,0.06c0.443,0.041,0.851,0.086,1.225,0.137c0.372,0.05,0.7,0.095,0.982,0.136
		c0.282,0.04,0.494,0.07,0.635,0.09c0.182,0.021,0.313-0.161,0.393-0.544c0.081-0.383,0.121-0.796,0.121-1.24
		c0-0.14-0.176-0.272-0.529-0.393c-0.353-0.121-0.786-0.221-1.3-0.302c-0.514-0.08-1.053-0.141-1.618-0.182
		c-0.564-0.04-1.068-0.06-1.511-0.06h-0.242c-1.391,0-2.606,0.136-3.644,0.408c-1.038,0.272-1.895,0.726-2.57,1.361
		c-0.676,0.635-1.184,1.472-1.527,2.51c-0.343,1.038-0.514,2.323-0.514,3.855v6.198c0,1.533,0.166,2.818,0.499,3.856
		c0.332,1.038,0.836,1.874,1.512,2.509c0.675,0.635,1.521,1.089,2.54,1.361c1.017,0.272,2.212,0.408,3.583,0.408h0.242
		c0.503,0,1.047-0.02,1.632-0.06c0.585-0.041,1.129-0.101,1.633-0.182s0.927-0.176,1.27-0.287c0.343-0.111,0.514-0.247,0.514-0.408
		c0-0.182-0.01-0.378-0.03-0.59c-0.02-0.212-0.056-0.413-0.106-0.605c-0.05-0.191-0.116-0.347-0.196-0.468
		c-0.081-0.121-0.182-0.171-0.303-0.151c-0.262,0.04-0.771,0.126-1.527,0.257c-0.756,0.131-1.638,0.196-2.646,0.196h-0.241
		c-1.089,0-1.991-0.11-2.707-0.333c-0.715-0.221-1.29-0.574-1.723-1.058c-0.434-0.484-0.736-1.119-0.907-1.905
		c-0.172-0.786-0.257-1.754-0.257-2.903V24.78C355.296,23.631,355.385,22.663,355.568,21.877 M327.66,16.797
		c-0.101-0.141-0.212-0.262-0.333-0.363c-0.121-0.1-0.262-0.151-0.423-0.151c-0.182,0-0.378,0.01-0.59,0.03
		c-0.212,0.021-0.419,0.056-0.62,0.106c-0.202,0.051-0.368,0.111-0.499,0.181c-0.131,0.071-0.196,0.147-0.196,0.227v21.408
		c0,0.101,0.07,0.181,0.211,0.242c0.141,0.06,0.313,0.111,0.514,0.151c0.202,0.04,0.413,0.071,0.635,0.091
		c0.222,0.02,0.413,0.03,0.575,0.03c0.222,0,0.398-0.081,0.529-0.242c0.131-0.161,0.197-0.352,0.197-0.574v-16.54l10.855,16.872
		c0.06,0.081,0.166,0.151,0.317,0.212c0.151,0.06,0.328,0.111,0.529,0.151c0.202,0.04,0.403,0.071,0.605,0.091
		c0.201,0.02,0.373,0.03,0.514,0.03c0.201,0,0.368-0.075,0.499-0.227c0.131-0.151,0.197-0.337,0.197-0.559V17.13
		c0-0.242-0.046-0.444-0.136-0.605c-0.091-0.161-0.248-0.242-0.469-0.242c-0.182,0-0.393,0.01-0.635,0.03
		c-0.242,0.021-0.469,0.051-0.68,0.091c-0.212,0.041-0.389,0.091-0.53,0.151c-0.141,0.061-0.211,0.131-0.211,0.212V33.7
		L327.66,16.797z M320.509,17.099c0-0.221-0.066-0.413-0.197-0.574c-0.131-0.161-0.307-0.242-0.529-0.242
		c-0.181,0-0.383,0.01-0.605,0.03c-0.222,0.021-0.438,0.056-0.65,0.106c-0.211,0.051-0.388,0.111-0.529,0.181
		c-0.141,0.071-0.211,0.147-0.211,0.227v21.408c0,0.101,0.07,0.181,0.211,0.242c0.141,0.06,0.318,0.111,0.529,0.151
		c0.212,0.04,0.428,0.071,0.65,0.091c0.222,0.02,0.424,0.03,0.605,0.03c0.222,0,0.398-0.081,0.529-0.242
		c0.131-0.161,0.197-0.352,0.197-0.574V17.099z M301.35,27.35l10.069,10.855c0.221,0.242,0.534,0.393,0.937,0.453
		c0.403,0.061,0.836,0.091,1.3,0.091c0.141,0,0.303-0.02,0.484-0.06c0.182-0.041,0.272-0.162,0.272-0.363
		c0-0.222-0.161-0.504-0.484-0.847l-9.706-10.432l8.86-9.494c0.342-0.363,0.514-0.645,0.514-0.847c0-0.201-0.091-0.322-0.272-0.363
		c-0.182-0.04-0.353-0.06-0.514-0.06c-0.444,0-0.873,0.03-1.285,0.091c-0.414,0.06-0.731,0.211-0.953,0.453l-9.222,9.948v-9.676
		c0-0.221-0.066-0.413-0.197-0.574c-0.131-0.161-0.307-0.242-0.529-0.242c-0.181,0-0.383,0.01-0.605,0.03
		c-0.222,0.021-0.438,0.056-0.65,0.106c-0.211,0.051-0.388,0.111-0.529,0.181c-0.141,0.071-0.212,0.147-0.212,0.227v21.408
		c0,0.101,0.071,0.181,0.212,0.242c0.141,0.06,0.318,0.111,0.529,0.151c0.212,0.04,0.428,0.071,0.65,0.091
		c0.222,0.02,0.424,0.03,0.605,0.03c0.222,0,0.398-0.081,0.529-0.242c0.131-0.161,0.197-0.352,0.197-0.574V27.35z M286.41,20.304
		c0.02-0.201,0.05-0.382,0.091-0.544c0,0.101,0.025,0.283,0.075,0.544c0.05,0.263,0.096,0.444,0.136,0.545l2.903,8.799h-6.259
		l2.933-8.799C286.35,20.688,286.391,20.506,286.41,20.304 M293.033,38.643c0.342,0.071,0.796,0.106,1.36,0.106
		c0.182,0,0.358-0.035,0.53-0.106c0.171-0.071,0.257-0.196,0.257-0.378c0-0.121-0.011-0.211-0.031-0.272l-7.257-21.136
		c-0.12-0.382-0.352-0.574-0.695-0.574c-0.383,0-0.801,0.035-1.255,0.106c-0.453,0.071-0.721,0.217-0.801,0.438l-7.287,21.166
		c-0.041,0.121-0.061,0.212-0.061,0.272c0,0.182,0.086,0.307,0.257,0.378c0.171,0.071,0.358,0.106,0.56,0.106
		c0.463,0,0.881-0.02,1.255-0.06c0.372-0.041,0.599-0.182,0.68-0.424l2.116-6.259h7.681l2.026,6.138
		C292.467,38.406,292.69,38.572,293.033,38.643 M262.031,38.235c0.282,0.101,0.554,0.151,0.816,0.151h11.4
		c0.08,0,0.151-0.06,0.211-0.181c0.061-0.121,0.111-0.272,0.151-0.454c0.041-0.181,0.071-0.372,0.091-0.574
		c0.02-0.201,0.03-0.383,0.03-0.544c0-0.202-0.07-0.363-0.211-0.484c-0.142-0.121-0.303-0.182-0.484-0.182h-9.706v-7.438h8.98
		c0.081,0,0.151-0.06,0.212-0.181c0.06-0.121,0.116-0.273,0.166-0.454c0.05-0.181,0.086-0.373,0.106-0.575
		c0.02-0.201,0.03-0.372,0.03-0.514c0-0.221-0.071-0.393-0.211-0.514c-0.142-0.121-0.313-0.181-0.514-0.181h-8.769v-7.045h9.918
		c0.08,0,0.151-0.061,0.211-0.182c0.061-0.121,0.111-0.272,0.151-0.453c0.041-0.182,0.071-0.373,0.091-0.575
		c0.02-0.201,0.03-0.382,0.03-0.544c0-0.222-0.07-0.388-0.211-0.499c-0.142-0.11-0.303-0.166-0.484-0.166h-11.702
		c-0.484,0-0.725,0.262-0.725,0.786v20.41C261.608,38.004,261.747,38.134,262.031,38.235 M251.672,19.352
		c0.726,0.212,1.315,0.559,1.769,1.043c0.453,0.484,0.776,1.114,0.967,1.89c0.192,0.776,0.288,1.719,0.288,2.827v4.778
		c0,1.108-0.096,2.051-0.288,2.827c-0.191,0.776-0.514,1.406-0.967,1.89c-0.454,0.483-1.043,0.831-1.769,1.043
		c-0.726,0.211-1.633,0.317-2.721,0.317h-4.143V19.035h4.143C250.038,19.035,250.946,19.14,251.672,19.352 M242.359,16.797
		c-0.181,0.121-0.272,0.323-0.272,0.605v20.44c0,0.162,0.136,0.292,0.408,0.393c0.272,0.101,0.549,0.151,0.832,0.151h5.624
		c1.451,0,2.711-0.136,3.779-0.408c1.069-0.272,1.955-0.726,2.661-1.361s1.23-1.471,1.572-2.509
		c0.343-1.038,0.515-2.323,0.515-3.856V24.78c0-1.532-0.172-2.817-0.515-3.856c-0.342-1.038-0.866-1.874-1.572-2.509
		c-0.706-0.635-1.592-1.094-2.661-1.376c-1.068-0.282-2.328-0.423-3.779-0.423h-5.987C242.742,16.616,242.54,16.676,242.359,16.797"
		/>
</g>
<metadata><?xpacket begin="?" id="W5M0MpCehiHzreSzNTczkc9d"?>
		<x:xmpmeta xmlns:x="adobe:ns:meta/" x:xmptk="Adobe XMP Core 9.1-c003 1.000000, 0000/00/00-00:00:00        ">
		   <rdf:RDF xmlns:rdf="http://www.w3.org/1999/02/22-rdf-syntax-ns#">
		      <rdf:Description rdf:about=""
		            xmlns:dc="http://purl.org/dc/elements/1.1/"
		            xmlns:xmp="http://ns.adobe.com/xap/1.0/"
		            xmlns:xmpMM="http://ns.adobe.com/xap/1.0/mm/"
		            xmlns:stRef="http://ns.adobe.com/xap/1.0/sType/ResourceRef#"
		            xmlns:stEvt="http://ns.adobe.com/xap/1.0/sType/ResourceEvent#"
		            xmlns:xmpRights="http://ns.adobe.com/xap/1.0/rights/"
		            xmlns:pdf="http://ns.adobe.com/pdf/1.3/">
		         <dc:format>application/pdf</dc:format>
		         <dc:creator>
		            <rdf:Seq>
		               <rdf:li>Deakin Automation v1.55</rdf:li>
		            </rdf:Seq>
		         </dc:creator>
		         <dc:title>
		            <rdf:Alt>
		               <rdf:li xml:lang="x-default">Logo Roundel Reverse SVG</rdf:li>
		            </rdf:Alt>
		         </dc:title>
		         <dc:subject>
		            <rdf:Bag>
		               <rdf:li>ENTITY NAME RUNS OVER THESE TWO LINES</rdf:li>
		               <rdf:li>GENERIC</rdf:li>
					   <rdf:li>Roundel Reverse, </rdf:li>
					<rdf:li>branding</rdf:li>
					<rdf:li>wordmark</rdf:li>
		            </rdf:Bag>
		         </dc:subject>
		         <dc:description>
		            <rdf:Alt>
		               <rdf:li xml:lang="x-default">This asset is part of the Masterbrand logo wordmark set for this area of Deakin. Refer to the related items below for alternate formats and file types.</rdf:li>
		            </rdf:Alt>
		         </dc:description>
		      </rdf:Description>
		   </rdf:RDF>
		</x:xmpmeta>
		<?xpacket end="w"?></metadata></svg>
