<?xml version="1.0" encoding="iso-8859-1"?>
<!-- Generator: Adobe Illustrator 29.5.1, SVG Export Plug-In . SVG Version: 9.03 Build 0)  -->
<svg version="1.1" id="Layer_1" xmlns="http://www.w3.org/2000/svg" xmlns:xlink="http://www.w3.org/1999/xlink" x="0px" y="0px"
	 viewBox="0 0 1000 144" style="enable-background:new 0 0 1000 144;" xml:space="preserve">
<g>
	<defs>
		<rect id="SVGID_1_" width="1000" height="144"/>
	</defs>
	<clipPath id="SVGID_00000049202219797375513750000004214159971377931678_">
		<use xlink:href="#SVGID_1_"  style="overflow:visible;"/>
	</clipPath>
	<path style="clip-path:url(#SVGID_00000049202219797375513750000004214159971377931678_);fill:#FFFFFF;" d="M414.759,115.025
		v11.825c0,0.397-0.133,0.706-0.443,0.927c-0.265,0.221-0.619,0.353-1.062,0.353c-0.265,0-0.664,0-1.106-0.044
		c-0.442-0.044-0.929-0.088-1.372-0.132c-0.442-0.045-0.841-0.177-1.195-0.309c-0.309-0.133-0.486-0.309-0.486-0.486v-12.09
		L398.74,94.903c-0.354-0.706-0.399-1.192-0.133-1.5c0.266-0.309,0.752-0.486,1.46-0.486c0.443,0,0.885,0,1.372,0.044
		c0.443,0,0.885,0.044,1.283,0.133c0.399,0.044,0.753,0.132,1.018,0.22c0.266,0.089,0.487,0.221,0.575,0.441l7.612,15.489
		l7.611-15.444c0.089-0.177,0.265-0.354,0.575-0.442c0.266-0.088,0.62-0.176,1.018-0.264c0.398-0.045,0.841-0.089,1.283-0.133
		c0.443,0,0.93-0.044,1.372-0.044c0.708,0,1.195,0.132,1.461,0.441c0.221,0.309,0.177,0.795-0.178,1.545L414.759,115.025z
		 M384.491,98.521v28.329c0,0.397-0.133,0.706-0.443,0.927c-0.31,0.221-0.619,0.353-1.018,0.353c-0.265,0-0.663,0-1.15-0.044
		c-0.487-0.044-0.974-0.088-1.416-0.132c-0.443-0.045-0.841-0.177-1.151-0.309c-0.354-0.133-0.486-0.309-0.486-0.486V98.565h-8.762
		c-0.354,0-0.62-0.132-0.885-0.397c-0.222-0.265-0.354-0.573-0.354-0.971c0-0.265,0-0.573,0.044-1.015
		c0.044-0.397,0.088-0.838,0.133-1.235c0.044-0.397,0.177-0.75,0.265-1.059c0.133-0.265,0.266-0.441,0.487-0.441h23.453
		c0.354,0,0.62,0.132,0.885,0.397c0.222,0.265,0.354,0.617,0.354,0.971c0,0.264,0,0.573-0.044,1.014
		c-0.044,0.442-0.088,0.839-0.133,1.236c-0.044,0.397-0.132,0.75-0.265,1.015s-0.266,0.441-0.487,0.441H384.491z M364.046,126.85
		c0,0.397-0.132,0.706-0.442,0.927c-0.266,0.221-0.62,0.353-1.062,0.353c-0.266,0-0.664,0-1.151-0.044
		c-0.486-0.044-0.929-0.088-1.416-0.132c-0.442-0.045-0.84-0.177-1.195-0.309c-0.309-0.133-0.486-0.309-0.486-0.486V93.932
		c0-0.177,0.177-0.353,0.486-0.486c0.355-0.132,0.753-0.264,1.195-0.308c0.443-0.044,0.93-0.133,1.416-0.133
		c0.487-0.044,0.841-0.044,1.151-0.044c0.398,0,0.752,0.133,1.062,0.397c0.265,0.265,0.442,0.574,0.442,0.927V126.85z
		 M332.141,122.305c0.265,0.044,0.62,0.177,1.151,0.265c0.531,0.132,1.106,0.265,1.814,0.397c0.664,0.133,1.416,0.221,2.257,0.353
		c0.796,0.088,1.637,0.133,2.434,0.133c0.885,0,1.725-0.089,2.522-0.221c0.796-0.132,1.549-0.397,2.168-0.706
		c0.62-0.353,1.151-0.794,1.505-1.324c0.398-0.574,0.575-1.235,0.575-2.074c0-1.147-0.354-2.118-1.106-2.912
		c-0.753-0.794-1.682-1.545-2.788-2.251c-1.106-0.706-2.345-1.412-3.673-2.118s-2.522-1.544-3.673-2.471
		c-1.15-0.926-2.08-2.03-2.788-3.309c-0.752-1.28-1.106-2.824-1.106-4.678c0-1.544,0.265-2.868,0.841-3.927
		c0.575-1.059,1.327-1.941,2.301-2.647c0.973-0.662,2.168-1.192,3.496-1.501c1.371-0.309,2.876-0.485,4.513-0.485
		c0.354,0,0.885,0,1.593,0.044s1.461,0.088,2.257,0.176c0.797,0.089,1.593,0.177,2.346,0.309c0.796,0.133,1.416,0.309,1.858,0.53
		c0.443,0.176,0.708,0.397,0.797,0.618c0.088,0.22,0.088,0.573,0.044,1.103c-0.044,0.838-0.221,1.5-0.531,2.074
		c-0.266,0.573-0.664,0.794-1.195,0.706c-0.796-0.177-1.681-0.309-2.699-0.486c-1.018-0.132-2.169-0.22-3.408-0.22
		c-1.947,0-3.584,0.309-4.823,0.838c-1.239,0.574-1.859,1.5-1.859,2.824c0,1.059,0.355,1.942,1.107,2.692
		c0.752,0.75,1.681,1.456,2.788,2.118c1.106,0.662,2.345,1.368,3.672,2.074c1.328,0.706,2.523,1.544,3.673,2.515
		c1.107,0.971,2.08,2.118,2.788,3.442c0.752,1.324,1.106,3.001,1.106,4.898c0,1.809-0.354,3.31-1.017,4.457
		c-0.664,1.191-1.593,2.074-2.7,2.736c-1.106,0.662-2.434,1.103-3.894,1.368c-1.46,0.264-3.009,0.397-4.602,0.397
		c-0.708,0-1.505-0.044-2.301-0.088c-0.797-0.045-1.549-0.133-2.345-0.221c-0.753-0.088-1.461-0.221-2.169-0.353
		c-0.664-0.133-1.239-0.265-1.726-0.441c-0.486-0.177-0.752-0.353-0.84-0.53c-0.089-0.221-0.133-0.574-0.045-1.059
		c0.089-0.927,0.266-1.721,0.531-2.339C331.344,122.482,331.698,122.173,332.141,122.305 M313.953,98.477h-6.593v11.429h6.593
		c1.284,0,2.346-0.089,3.098-0.221c0.797-0.132,1.372-0.397,1.814-0.794c0.443-0.397,0.709-0.883,0.841-1.545
		c0.133-0.661,0.221-1.544,0.221-2.603v-1.059c0-1.059-0.088-1.942-0.221-2.648c-0.132-0.661-0.442-1.191-0.841-1.588
		c-0.442-0.397-1.017-0.618-1.814-0.795C316.255,98.565,315.237,98.477,313.953,98.477 M301.652,127.115V94.638
		c0-0.353,0.132-0.618,0.442-0.883c0.31-0.22,0.62-0.352,1.062-0.352h10.488c2.168,0,4.027,0.176,5.575,0.485
		c1.549,0.309,2.788,0.882,3.762,1.677c0.973,0.794,1.681,1.853,2.124,3.177c0.443,1.324,0.664,2.956,0.664,4.986v1.059
		c0,1.5-0.133,2.78-0.354,3.883c-0.222,1.103-0.62,2.074-1.107,2.869c-0.486,0.794-1.194,1.412-2.035,1.897
		s-1.859,0.838-3.009,1.103l6.593,11.385c0.354,0.617,0.531,1.059,0.531,1.368c0,0.176-0.088,0.353-0.221,0.485
		c-0.177,0.132-0.354,0.221-0.531,0.265c-0.177,0.044-0.398,0.088-0.575,0.132c-0.222,0-0.354,0.044-0.443,0.044
		c-0.265,0-0.664,0-1.106-0.044c-0.443-0.044-0.885-0.088-1.328-0.176c-0.442-0.089-0.885-0.177-1.239-0.353
		c-0.354-0.177-0.619-0.398-0.796-0.662l-6.992-11.914h-5.841v11.914c0,0.397-0.133,0.662-0.443,0.882
		c-0.265,0.221-0.619,0.353-1.018,0.353c-0.265,0-0.663,0-1.15-0.044c-0.487-0.044-0.929-0.088-1.416-0.132
		c-0.443-0.044-0.841-0.177-1.195-0.309C301.829,127.468,301.652,127.336,301.652,127.115 M273.773,126.586V94.638
		c0-0.397,0.133-0.706,0.443-0.927c0.265-0.22,0.619-0.308,1.062-0.308h19.072c0.354,0,0.664,0.132,0.885,0.441
		c0.221,0.265,0.354,0.617,0.354,0.971c0,0.264,0,0.573-0.044,1.014c-0.044,0.442-0.089,0.839-0.133,1.236
		c-0.044,0.397-0.177,0.75-0.265,1.015c-0.133,0.265-0.31,0.441-0.487,0.441h-15.134v9.178h12.966c0.309,0,0.575,0.133,0.84,0.397
		c0.222,0.265,0.354,0.574,0.354,0.927c0,0.265,0,0.574-0.044,1.015c-0.044,0.441-0.088,0.838-0.133,1.236
		c-0.044,0.397-0.177,0.75-0.265,1.059c-0.133,0.264-0.266,0.441-0.487,0.441h-13.275v9.708h14.824c0.354,0,0.664,0.132,0.885,0.397
		c0.221,0.265,0.354,0.574,0.354,0.971c0,0.264,0,0.573-0.044,1.015c-0.045,0.397-0.089,0.838-0.133,1.235
		c-0.044,0.397-0.177,0.75-0.266,1.059c-0.132,0.309-0.309,0.441-0.486,0.441h-18.675c-0.442,0-0.929-0.088-1.416-0.309
		C273.994,127.027,273.773,126.806,273.773,126.586 M256.338,118.466l7.169-24.578c0.442-0.442,0.973-0.706,1.548-0.839
		c0.576-0.088,1.239-0.176,2.036-0.176c0.31,0,0.664,0,0.974,0.044c0.353,0.044,0.619,0.088,0.84,0.221
		c0.222,0.132,0.399,0.265,0.531,0.485c0.133,0.221,0.089,0.486,0,0.883l-11.018,32.874c-0.045,0.265-0.222,0.441-0.487,0.574
		c-0.266,0.132-0.531,0.176-0.841,0.176c-1.062,0-1.947-0.044-2.655-0.176c-0.708-0.133-1.151-0.309-1.328-0.53l-10.974-32.918
		c-0.088-0.309-0.088-0.574,0-0.795c0.089-0.22,0.221-0.353,0.442-0.485c0.178-0.132,0.399-0.221,0.664-0.265
		c0.222-0.044,0.443-0.088,0.576-0.088c0.486,0,0.973,0,1.46,0.044s0.929,0.088,1.372,0.177c0.398,0.088,0.752,0.22,1.062,0.352
		c0.265,0.177,0.487,0.354,0.575,0.618l7.346,24.358c0.133,0.397,0.221,0.794,0.265,1.192c0.045,0.441,0.089,0.794,0.177,1.147
		c0.045-0.353,0.089-0.75,0.133-1.147C256.117,119.216,256.205,118.819,256.338,118.466 M237.929,126.85
		c0,0.397-0.133,0.706-0.442,0.927c-0.266,0.221-0.62,0.353-1.062,0.353c-0.266,0-0.664,0-1.151-0.044
		c-0.487-0.044-0.929-0.088-1.416-0.132c-0.442-0.045-0.841-0.177-1.195-0.309c-0.354-0.133-0.487-0.309-0.487-0.486V93.932
		c0-0.177,0.177-0.353,0.487-0.486c0.354-0.132,0.708-0.264,1.195-0.308c0.442-0.044,0.929-0.133,1.416-0.133
		c0.487-0.044,0.841-0.044,1.151-0.044c0.398,0,0.752,0.133,1.062,0.397c0.265,0.265,0.442,0.574,0.442,0.927V126.85z
		 M220.494,117.584V93.755c0-0.176,0.177-0.352,0.531-0.441c0.354-0.132,0.752-0.22,1.239-0.265c0.487-0.044,0.974-0.088,1.46-0.132
		c0.487-0.044,0.885-0.044,1.151-0.044c0.841,0,1.239,0.485,1.239,1.412v32.565c0,0.397-0.133,0.662-0.442,0.883
		c-0.31,0.221-0.62,0.353-0.974,0.353c-0.266,0-0.575,0-1.018-0.044c-0.442-0.044-0.841-0.044-1.283-0.133
		c-0.443-0.088-0.797-0.176-1.151-0.264c-0.354-0.133-0.575-0.265-0.708-0.442l-15.444-23.696v23.343
		c0,0.397-0.132,0.706-0.442,0.927c-0.266,0.221-0.62,0.353-1.018,0.353c-0.265,0-0.664,0-1.15-0.044
		c-0.487-0.044-0.974-0.088-1.417-0.132c-0.442-0.045-0.84-0.177-1.15-0.309c-0.354-0.133-0.487-0.309-0.487-0.486V93.932
		c0-0.177,0.177-0.353,0.487-0.485c0.354-0.133,0.708-0.265,1.15-0.309c0.443-0.044,0.886-0.089,1.372-0.133
		c0.487-0.044,0.841-0.044,1.151-0.044c0.354,0,0.664,0.088,0.885,0.309c0.221,0.221,0.442,0.441,0.575,0.706L220.494,117.584z
		 M187.571,115.466V94.02c0-0.176,0.177-0.353,0.486-0.485c0.355-0.132,0.753-0.265,1.195-0.353
		c0.487-0.088,0.974-0.177,1.416-0.221c0.487-0.044,0.841-0.088,1.151-0.088c0.398,0,0.752,0.132,1.018,0.441
		c0.265,0.309,0.398,0.618,0.398,0.971v21.446c0,2.338-0.266,4.28-0.797,5.868c-0.531,1.589-1.283,2.824-2.345,3.839
		c-1.062,0.971-2.389,1.677-3.983,2.074c-1.593,0.397-3.495,0.618-5.62,0.618h-0.398c-2.08,0-3.938-0.221-5.487-0.618
		c-1.593-0.397-2.876-1.103-3.938-2.074c-1.062-0.97-1.815-2.25-2.346-3.839c-0.531-1.544-0.796-3.53-0.796-5.868V94.02
		c0-0.176,0.177-0.353,0.486-0.485c0.355-0.132,0.708-0.265,1.195-0.353c0.443-0.088,0.93-0.177,1.416-0.221
		c0.487-0.044,0.885-0.088,1.151-0.088c0.398,0,0.708,0.132,1.018,0.441c0.265,0.309,0.442,0.618,0.442,0.971v21.137
		c0,1.367,0.089,2.515,0.31,3.486c0.221,0.97,0.575,1.765,1.106,2.338c0.531,0.618,1.239,1.059,2.124,1.324s1.992,0.441,3.319,0.441
		h0.398c1.372,0,2.479-0.132,3.408-0.441c0.885-0.309,1.637-0.75,2.168-1.324c0.531-0.618,0.93-1.368,1.151-2.338
		C187.482,117.981,187.571,116.834,187.571,115.466 M393.474,38.244v40.994h-11.329V16.622h15.798l15.179,38.567V16.622h11.505
		v62.616h-14.426L393.474,38.244z M360.949,16.622h12.745v62.615h-12.745V16.622z M312.051,16.622h13.098v27.226l16.329-27.226
		h13.674l-18.143,28.815l18.143,33.845h-15.179l-14.824-30.447v30.447h-13.098V16.622z M290.721,65.338H272.49l-3.319,13.944
		h-13.143l17.701-62.66h16.727l17.435,62.66h-13.762L290.721,65.338z M288.11,54.439l-6.283-25.903l-6.594,25.903H288.11z
		 M217.928,16.622h33.94v10.635h-20.665v13.37h19.028v10.899h-19.028v16.68h20.71v11.032h-33.985V16.622z M189.12,16.622
		c16.771,0,21.948,8.87,21.948,31.33c0,22.461-5.221,31.33-21.993,31.33h-21.506v-62.66H189.12z M180.756,68.471h5.974
		c9.78,0,11.019-5.736,11.019-20.74c0-14.958-1.239-20.695-11.019-20.695h-5.974V68.471z"/>
	<path style="clip-path:url(#SVGID_00000049202219797375513750000004214159971377931678_);fill:#FFFFFF;" d="M71.713,1.288
		C32.549,1.288,0.799,32.947,0.799,72s31.749,70.712,70.913,70.712S142.625,111.053,142.625,72S110.877,1.288,71.713,1.288"/>
	<path style="clip-path:url(#SVGID_00000049202219797375513750000004214159971377931678_);fill:#FFFFFF;" d="M71.713,2.968
		c38.175,0,69.233,30.968,69.233,69.032s-31.058,69.032-69.233,69.032S2.479,110.064,2.479,72S33.538,2.968,71.713,2.968"/>
	<path style="clip-path:url(#SVGID_00000049202219797375513750000004214159971377931678_);" d="M95.076,94.204L68.262,47.816
		l3.533-5.928l30.099,52.316H95.076z M82.396,94.204L61.86,58.843l3.45-5.804l23.655,41.165H82.396z M69.509,94.204L55.416,69.953
		l3.575-6.011l17.336,30.22h-6.818V94.204z M56.539,94.204l-7.567-13.1l3.576-6.011l10.933,19.111H56.539z M41.365,94.204
		l4.614-7.877l4.615,7.877H41.365z M35.503,36.416V85.83c0,19.94,16.213,36.107,36.209,36.107c19.997,0,36.21-16.167,36.21-36.107
		V36.416H35.503z"/>
</g>
<rect x="471.959" y="16.622" style="fill:#FFFFFF;" width="2" height="110.978"/>
<g>
	<defs>
		<rect id="SVGID_00000001628968636645728230000013154660250128336790_" width="1000" height="144"/>
	</defs>
	<clipPath id="SVGID_00000095337691312243243660000002438935100576274093_">
		<use xlink:href="#SVGID_00000001628968636645728230000013154660250128336790_"  style="overflow:visible;"/>
	</clipPath>
	<path style="clip-path:url(#SVGID_00000095337691312243243660000002438935100576274093_);fill:#FFFFFF;" d="M782.772,108.842
		v18.948h9.339v-2.101h-6.931v-16.847H782.772z M775.053,121.231h-6.137l3.037-10.16L775.053,121.231z M770.492,108.842
		l-6.008,18.948h2.46l1.396-4.51h7.315l1.371,4.51h2.703l-6.175-18.948H770.492z M758.861,127.79h2.447v-18.948h-2.447V127.79z
		 M749.85,110.943c0.871,0,1.544,0.242,2.018,0.724c0.474,0.483,0.711,1.215,0.711,2.197c0,1.008-0.261,1.787-0.782,2.338
		s-1.345,0.827-2.472,0.827h-2.947v-6.086H749.85z M743.944,108.842v18.948h2.434v-8.712h2.05c1.102,0,1.866,0.094,2.293,0.282
		c0.427,0.188,0.754,0.493,0.98,0.916c0.227,0.423,0.37,1.031,0.43,1.826l0.102,1.473l0.103,2.063
		c0.017,0.35,0.064,0.713,0.14,1.089c0.077,0.375,0.18,0.73,0.308,1.063h2.524c-0.402-1.691-0.613-3.327-0.634-4.907
		c-0.022-1.58-0.24-2.75-0.654-3.51c-0.414-0.76-1.228-1.243-2.44-1.448c1.11-0.213,1.964-0.704,2.562-1.473
		c0.598-0.769,0.897-1.738,0.897-2.908c0-1.435-0.408-2.577-1.224-3.427c-0.815-0.85-1.885-1.275-3.209-1.275H743.944z
		 M728.566,108.842v2.101h4.958v16.847h2.434v-16.847h4.984v-2.101H728.566z M710.163,108.842v18.948h2.408v-9.89l6.726,9.89h3.088
		l-7.29-10.39l6.905-8.558h-2.728l-6.701,8.327v-8.327H710.163z M701.312,110.943c0.872,0,1.544,0.242,2.018,0.724
		c0.474,0.483,0.711,1.215,0.711,2.197c0,1.008-0.26,1.787-0.781,2.338s-1.346,0.827-2.473,0.827h-2.946v-6.086H701.312z
		 M695.406,108.842v18.948h2.435v-8.712h2.049c1.102,0,1.866,0.094,2.294,0.282c0.427,0.188,0.753,0.493,0.98,0.916
		c0.226,0.423,0.369,1.031,0.429,1.826l0.102,1.473l0.103,2.063c0.017,0.35,0.064,0.713,0.141,1.089
		c0.077,0.375,0.179,0.73,0.307,1.063h2.524c-0.402-1.691-0.613-3.327-0.634-4.907c-0.022-1.58-0.239-2.75-0.654-3.51
		c-0.414-0.76-1.227-1.243-2.44-1.448c1.11-0.213,1.964-0.704,2.562-1.473c0.598-0.769,0.897-1.738,0.897-2.908
		c0-1.435-0.408-2.577-1.224-3.427c-0.815-0.85-1.885-1.275-3.209-1.275H695.406z M682.024,115.171c0-1.657,0.27-2.859,0.808-3.606
		c0.538-0.748,1.426-1.121,2.664-1.121c1.256,0,2.155,0.408,2.697,1.223c0.542,0.816,0.814,2.052,0.814,3.709v4.497
		c0,1.844-0.092,3.147-0.276,3.907c-0.184,0.76-0.527,1.33-1.031,1.71c-0.504,0.38-1.247,0.57-2.229,0.57
		c-1.247,0-2.133-0.39-2.659-1.172c-0.525-0.781-0.788-2.133-0.788-4.055V115.171z M690.038,110.149
		c-0.961-1.187-2.475-1.781-4.542-1.781c-2.067,0-3.572,0.562-4.516,1.685c-0.943,1.123-1.415,3.047-1.415,5.771v4.933
		c0,2.519,0.463,4.375,1.39,5.566c0.926,1.191,2.393,1.787,4.4,1.787c2.161,0,3.722-0.591,4.683-1.774s1.441-3.32,1.441-6.412
		v-3.549C691.479,113.412,690.999,111.336,690.038,110.149 M654.253,108.842l4.625,18.948h2.934l3.856-16.424l3.625,16.424h2.934
		l5.009-18.948h-2.511l-3.882,16.424l-3.471-16.424h-3.113l-3.831,16.424l-3.6-16.424H654.253z M639.815,108.842v2.101h4.958v16.847
		h2.434v-16.847h4.983v-2.101H639.815z M627.465,108.842v18.948h9.941v-2.101h-7.533v-6.585h6.829v-2.075h-6.829v-6.086h7.354
		v-2.101H627.465z M610.3,108.842v18.948h2.178v-16.424l7.533,16.424h3.28v-18.948h-2.152v16.219l-7.456-16.219H610.3z
		 M591.487,108.842v18.948h9.942v-2.101h-7.533v-6.585h6.828v-2.075h-6.828v-6.086h7.353v-2.101H591.487z M574.323,108.842v18.948
		h2.178v-16.424l7.532,16.424h3.28v-18.948h-2.152v16.219l-7.456-16.219H574.323z M567.561,127.79h2.447v-18.948h-2.447V127.79z
		 M555.157,108.842v18.948h9.339v-2.101h-6.931v-16.847H555.157z M537.98,108.842v18.948h2.178v-16.424l7.533,16.424h3.279v-18.948
		h-2.152v16.219l-7.456-16.219H537.98z M524.51,115.171c0-1.657,0.269-2.859,0.807-3.606c0.538-0.748,1.426-1.121,2.664-1.121
		c1.256,0,2.155,0.408,2.697,1.223c0.542,0.816,0.814,2.052,0.814,3.709v4.497c0,1.844-0.092,3.147-0.276,3.907
		c-0.183,0.76-0.527,1.33-1.031,1.71c-0.504,0.38-1.247,0.57-2.229,0.57c-1.247,0-2.133-0.39-2.658-1.172
		c-0.526-0.781-0.788-2.133-0.788-4.055V115.171z M532.523,110.149c-0.961-1.187-2.475-1.781-4.542-1.781s-3.572,0.562-4.515,1.685
		c-0.944,1.123-1.416,3.047-1.416,5.771v4.933c0,2.519,0.463,4.375,1.39,5.566s2.393,1.787,4.401,1.787
		c2.16,0,3.721-0.591,4.682-1.774s1.441-3.32,1.441-6.412v-3.549C533.964,113.412,533.484,111.336,532.523,110.149"/>
	<path style="clip-path:url(#SVGID_00000095337691312243243660000002438935100576274093_);fill:#FFFFFF;" d="M932.669,79.342V98.29
		h2.421v-8.738h6.636v8.738h2.408V79.342h-2.408v8.109h-6.636v-8.109H932.669z M917.192,79.342v2.101h4.958V98.29h2.435V81.443
		h4.983v-2.101H917.192z M908.338,79.342V98.29h9.339v-2.101h-6.93V79.342H908.338z M900.619,91.73h-6.136l3.036-10.159
		L900.619,91.73z M896.058,79.342L890.05,98.29h2.46l1.396-4.51h7.315l1.371,4.51h2.703l-6.175-18.948H896.058z M877.606,79.342
		V98.29h9.942v-2.101h-7.533v-6.585h6.828v-2.076h-6.828v-6.085h7.353v-2.101H877.606z M861.967,79.342V98.29h2.421v-8.738h6.636
		v8.738h2.409V79.342h-2.409v8.109h-6.636v-8.109H861.967z M844.627,79.342V98.29h9.339v-2.101h-6.931V79.342H844.627z
		 M836.908,91.73h-6.137l3.036-10.159L836.908,91.73z M832.347,79.342l-6.008,18.948h2.459l1.397-4.51h7.315l1.371,4.51h2.703
		l-6.175-18.948H832.347z M814.344,79.342v2.101h4.958V98.29h2.434V81.443h4.983v-2.101H814.344z M798.263,79.342V98.29h2.177
		V81.866l7.533,16.424h3.28V79.342h-2.152v16.219l-7.456-16.219H798.263z M784.903,79.342V98.29h9.942v-2.101h-7.533v-6.585h6.828
		v-2.076h-6.828v-6.085h7.353v-2.101H784.903z M763.318,79.342V98.29h2.23V81.469l5.278,16.821h2.255l5.355-16.821V98.29h2.306
		V79.342h-3.857l-4.855,15.899l-4.804-15.899H763.318z M751.372,98.29h2.549v-2.729h-2.549V98.29z M751.372,87.874h2.549v-2.831
		h-2.549V87.874z M737.257,79.342l5.124,11.287v7.661h2.383v-7.61l5.202-11.338h-2.473l-3.805,9.16l-3.728-9.16H737.257z
		 M730.152,81.443c0.871,0,1.544,0.241,2.018,0.724c0.474,0.482,0.711,1.215,0.711,2.197c0,1.008-0.261,1.787-0.781,2.338
		c-0.521,0.551-1.346,0.826-2.473,0.826h-2.946v-6.085H730.152z M724.246,79.342V98.29h2.435v-8.712h2.049
		c1.102,0,1.866,0.094,2.293,0.282c0.427,0.188,0.754,0.493,0.981,0.916c0.226,0.423,0.369,1.031,0.429,1.825l0.102,1.474
		l0.103,2.062c0.017,0.351,0.064,0.714,0.141,1.089c0.076,0.376,0.179,0.73,0.307,1.064h2.524c-0.402-1.691-0.613-3.327-0.634-4.907
		c-0.022-1.58-0.24-2.75-0.654-3.51s-1.228-1.243-2.44-1.448c1.11-0.213,1.964-0.705,2.562-1.473
		c0.598-0.769,0.897-1.738,0.897-2.908c0-1.435-0.408-2.577-1.224-3.427c-0.815-0.85-1.885-1.275-3.209-1.275H724.246z
		 M710.973,79.342V98.29h9.941v-2.101h-7.533v-6.585h6.828v-2.076h-6.828v-6.085h7.354v-2.101H710.973z M694.073,79.342
		l5.483,18.948h2.882l5.535-18.948h-2.46l-4.471,16.667l-4.356-16.667H694.073z M682.296,85.671c0-1.657,0.269-2.859,0.807-3.607
		c0.538-0.747,1.426-1.121,2.665-1.121c1.255,0,2.154,0.408,2.697,1.224c0.542,0.816,0.813,2.052,0.813,3.709v4.496
		c0,1.845-0.092,3.148-0.275,3.908c-0.184,0.76-0.528,1.33-1.032,1.71c-0.504,0.38-1.247,0.57-2.229,0.57
		c-1.247,0-2.133-0.391-2.658-1.172c-0.525-0.782-0.788-2.133-0.788-4.055V85.671z M690.309,80.649
		c-0.96-1.187-2.474-1.781-4.541-1.781c-2.067,0-3.572,0.562-4.516,1.685c-0.944,1.123-1.416,3.047-1.416,5.771v4.932
		c0,2.52,0.464,4.375,1.39,5.567c0.927,1.191,2.394,1.787,4.401,1.787c2.161,0,3.722-0.591,4.682-1.774
		c0.961-1.183,1.442-3.321,1.442-6.412v-3.549C691.751,83.911,691.27,81.836,690.309,80.649 M674.924,80.386
		c-0.82-0.833-2.088-1.249-3.805-1.249c-2.152,0-3.702,0.57-4.65,1.71c-0.948,1.14-1.422,3-1.422,5.58v3.997
		c0,3.108,0.474,5.246,1.422,6.412c0.948,1.165,2.357,1.748,4.227,1.748c1.888,0,3.308-0.467,4.26-1.403
		c0.952-0.935,1.428-2.367,1.428-4.298v-0.346h-2.485c-0.017,1.333-0.29,2.328-0.82,2.985c-0.53,0.658-1.307,0.987-2.332,0.987
		c-1.144,0-1.968-0.412-2.472-1.236c-0.504-0.825-0.756-2.24-0.756-4.247v-4.599c0-2.119,0.282-3.521,0.846-4.209
		c0.563-0.687,1.409-1.031,2.536-1.031c0.991,0,1.693,0.258,2.108,0.775c0.414,0.517,0.621,1.343,0.621,2.479v0.282h2.524v-0.5
		C676.154,82.498,675.744,81.219,674.924,80.386 M652.219,79.342V98.29h9.941v-2.101h-7.533v-6.585h6.828v-2.076h-6.828v-6.085
		h7.354v-2.101H652.219z M643.368,81.443c0.871,0,1.544,0.241,2.018,0.724c0.474,0.482,0.711,1.215,0.711,2.197
		c0,1.008-0.261,1.787-0.782,2.338c-0.521,0.551-1.345,0.826-2.472,0.826h-2.947v-6.085H643.368z M637.462,79.342V98.29h2.434
		v-8.712h2.05c1.102,0,1.866,0.094,2.293,0.282c0.427,0.188,0.754,0.493,0.98,0.916c0.227,0.423,0.37,1.031,0.429,1.825l0.103,1.474
		l0.102,2.062c0.017,0.351,0.065,0.714,0.141,1.089c0.077,0.376,0.18,0.73,0.308,1.064h2.524c-0.402-1.691-0.613-3.327-0.635-4.907
		c-0.021-1.58-0.239-2.75-0.653-3.51s-1.228-1.243-2.44-1.448c1.11-0.213,1.964-0.705,2.562-1.473
		c0.598-0.769,0.897-1.738,0.897-2.908c0-1.435-0.408-2.577-1.224-3.427c-0.816-0.85-1.885-1.275-3.209-1.275H637.462z
		 M623.761,94.779c-0.436,0.641-0.966,1.128-1.589,1.461c-0.624,0.333-1.345,0.499-2.165,0.499c-1.196,0-2.159-0.341-2.889-1.024
		c-0.73-0.684-1.095-1.585-1.095-2.704c0-0.828,0.237-1.548,0.711-2.158c0.474-0.611,1.257-1.271,2.351-1.98L623.761,94.779z
		 M618.265,84.473c-0.359-0.594-0.538-1.13-0.538-1.608c0-0.598,0.189-1.067,0.57-1.409c0.38-0.342,0.89-0.513,1.531-0.513
		c0.657,0,1.163,0.167,1.518,0.5c0.354,0.333,0.531,0.79,0.531,1.371c0,0.563-0.179,1.144-0.538,1.742
		c-0.358,0.598-0.88,1.187-1.563,1.768C619.127,85.683,618.623,85.067,618.265,84.473 M623.562,85.203
		c0.465-0.798,0.698-1.612,0.698-2.44c0-1.196-0.382-2.103-1.146-2.723c-0.765-0.619-1.852-0.929-3.261-0.929
		c-1.435,0-2.556,0.31-3.363,0.929c-0.807,0.62-1.21,1.497-1.21,2.633c0,0.717,0.224,1.51,0.672,2.376
		c0.449,0.867,1.048,1.677,1.8,2.428c-1.46,0.829-2.517,1.67-3.171,2.524c-0.653,0.854-0.98,1.913-0.98,3.177
		c0,1.708,0.562,3.053,1.685,4.035c1.123,0.983,2.645,1.474,4.567,1.474c1.162,0,2.135-0.175,2.921-0.526
		c0.786-0.35,1.542-0.956,2.268-1.819l1.524,1.948h2.729l-3.036-4.062c0.358-0.623,0.621-1.383,0.788-2.28
		c0.166-0.897,0.249-1.87,0.249-2.921v-1.883h-1.985c0.017,0.077,0.025,0.184,0.025,0.32v0.987c0,0.717-0.036,1.439-0.109,2.165
		c-0.072,0.726-0.185,1.358-0.339,1.896l-3.702-4.689C622.304,86.875,623.096,86.002,623.562,85.203 M592.982,79.342V98.29h2.421
		v-8.738h6.636v8.738h2.409V79.342h-2.409v8.109h-6.636v-8.109H592.982z M577.506,79.342v2.101h4.958V98.29h2.434V81.443h4.983
		v-2.101H577.506z M568.651,79.342V98.29h9.34v-2.101h-6.931V79.342H568.651z M560.932,91.73h-6.136l3.036-10.159L560.932,91.73z
		 M556.372,79.342l-6.009,18.948h2.46l1.396-4.51h7.315l1.371,4.51h2.703l-6.175-18.948H556.372z M537.919,79.342V98.29h9.942
		v-2.101h-7.533v-6.585h6.828v-2.076h-6.828v-6.085h7.353v-2.101H537.919z M522.28,79.342V98.29h2.421v-8.738h6.636v8.738h2.409
		V79.342h-2.409v8.109h-6.636v-8.109H522.28z"/>
	<path style="clip-path:url(#SVGID_00000095337691312243243660000002438935100576274093_);fill:#FFFFFF;" d="M770.671,16.543V58.79
		h23.509v-6.599h-14.682V39.966h13.111v-6.513h-13.111V23.056h14.225v-6.513H770.671z M750.083,45.964h14.339v-5.941h-14.339V45.964
		z M712.443,16.543V58.79h8.198V27.912L732.21,58.79h11.597V16.543h-8.198v29.25l-11.283-29.25H712.443z M685.604,34.796
		c0-5.008,0.4-8.431,1.199-10.269c0.8-1.838,2.276-2.757,4.428-2.757c2.19,0,3.68,0.862,4.47,2.585
		c0.79,1.724,1.186,4.509,1.186,8.355v4.028c0,2.781-0.053,5.484-0.157,8.112c-0.105,2.628-0.543,4.69-1.314,6.185
		c-0.772,1.495-2.186,2.242-4.242,2.242c-1.467,0-2.595-0.438-3.385-1.314s-1.352-2.228-1.685-4.056
		c-0.334-1.828-0.5-5.008-0.5-9.541V34.796z M691.031,59.561c2.666,0,4.894-0.314,6.684-0.943c1.79-0.628,3.232-1.518,4.328-2.67
		c1.094-1.152,1.918-2.576,2.47-4.271c0.553-1.694,0.924-3.513,1.114-5.456c0.191-1.942,0.286-4.893,0.286-8.855
		c0-4.417-0.143-7.755-0.428-10.011c-0.286-2.257-0.881-4.294-1.786-6.113c-0.904-1.818-2.361-3.242-4.37-4.271
		c-2.009-1.028-4.727-1.542-8.155-1.542c-3.447,0-6.251,0.667-8.412,1.999c-2.162,1.334-3.728,3.438-4.699,6.313
		c-0.971,2.876-1.457,7.341-1.457,13.397c0,5.142,0.243,8.917,0.728,11.326c0.486,2.409,1.224,4.404,2.214,5.984
		c0.99,1.581,2.423,2.828,4.299,3.742C685.722,59.104,688.117,59.561,691.031,59.561 M628.635,16.543V58.79h8.369V26.198
		l7.827,32.592h8.426l8.255-32.592V58.79h8.598V16.543H656.37l-7.084,28.736l-6.684-28.736H628.635z M605.036,23.056h1.885
		c2.685,0,4.437,0.428,5.256,1.285c0.818,0.857,1.228,2.333,1.228,4.428c0,2.113-0.414,3.646-1.242,4.598
		c-0.829,0.953-2.519,1.429-5.071,1.429h-2.056V23.056z M596.151,16.543V58.79h8.884V41.308h1.714c2.646,0,4.446,0.453,5.398,1.357
		c0.952,0.905,1.429,2.576,1.429,5.013v6.484c0,1.143,0.066,1.986,0.199,2.528c0.133,0.543,0.381,1.243,0.743,2.1h8.655
		c-0.19-0.571-0.328-1.324-0.414-2.257s-0.157-1.914-0.214-2.942l-0.429-7.255c-0.171-2.723-0.776-4.694-1.814-5.913
		c-1.038-1.219-2.947-2.018-5.727-2.4c2.609-0.494,4.537-1.58,5.785-3.256c1.247-1.675,1.871-4.018,1.871-7.027
		c0-3.808-0.934-6.627-2.8-8.455c-1.866-1.828-4.732-2.742-8.598-2.742H596.151z M573.615,24.684l4.399,18.367h-8.541
		L573.615,24.684z M568.359,16.543L556.648,58.79h8.741l2.399-9.369h12.026l2.342,9.369h9.312l-11.454-42.247H568.359z
		 M523.971,16.543V58.79h8.912V40.194h9.998V58.79h8.883V16.543h-8.883v16.739h-9.998V16.543H523.971z"/>
</g>
</svg>
