<?xml version="1.0" encoding="iso-8859-1"?>
<!-- Generator: Adobe Illustrator 29.5.1, SVG Export Plug-In . SVG Version: 9.03 Build 0)  -->
<svg version="1.1" id="Layer_1" xmlns="http://www.w3.org/2000/svg" xmlns:xlink="http://www.w3.org/1999/xlink" x="0px" y="0px"
	 viewBox="0 0 1000 144" style="enable-background:new 0 0 1000 144;" xml:space="preserve">
<g>
	<defs>
		<rect id="SVGID_1_" width="1000" height="144"/>
	</defs>
	<clipPath id="SVGID_00000048501206449687285970000006869372656218423957_">
		<use xlink:href="#SVGID_1_"  style="overflow:visible;"/>
	</clipPath>
	<path style="clip-path:url(#SVGID_00000048501206449687285970000006869372656218423957_);fill:#FFFFFF;" d="M414.759,115.025
		v11.825c0,0.397-0.133,0.706-0.443,0.927c-0.265,0.221-0.619,0.353-1.062,0.353c-0.265,0-0.664,0-1.106-0.044
		c-0.442-0.044-0.929-0.088-1.372-0.132c-0.442-0.045-0.841-0.177-1.195-0.309c-0.309-0.133-0.486-0.309-0.486-0.486v-12.09
		L398.74,94.903c-0.354-0.706-0.399-1.192-0.133-1.5c0.266-0.309,0.752-0.486,1.46-0.486c0.443,0,0.885,0,1.372,0.044
		c0.443,0,0.885,0.044,1.283,0.133c0.399,0.044,0.753,0.132,1.018,0.22c0.266,0.089,0.487,0.221,0.575,0.441l7.612,15.489
		l7.611-15.444c0.089-0.177,0.265-0.354,0.575-0.442c0.266-0.088,0.62-0.176,1.018-0.264c0.398-0.045,0.841-0.089,1.283-0.133
		c0.443,0,0.93-0.044,1.372-0.044c0.708,0,1.195,0.132,1.461,0.441c0.221,0.309,0.177,0.795-0.178,1.545L414.759,115.025z
		 M384.491,98.521v28.329c0,0.397-0.133,0.706-0.443,0.927c-0.31,0.221-0.619,0.353-1.018,0.353c-0.265,0-0.663,0-1.15-0.044
		c-0.487-0.044-0.974-0.088-1.416-0.132c-0.443-0.045-0.841-0.177-1.151-0.309c-0.354-0.133-0.486-0.309-0.486-0.486V98.565h-8.762
		c-0.354,0-0.62-0.132-0.885-0.397c-0.222-0.265-0.354-0.573-0.354-0.971c0-0.265,0-0.573,0.044-1.015
		c0.044-0.397,0.088-0.838,0.133-1.235c0.044-0.397,0.177-0.75,0.265-1.059c0.133-0.265,0.266-0.441,0.487-0.441h23.453
		c0.354,0,0.62,0.132,0.885,0.397c0.222,0.265,0.354,0.617,0.354,0.971c0,0.264,0,0.573-0.044,1.014
		c-0.044,0.442-0.088,0.839-0.133,1.236c-0.044,0.397-0.132,0.75-0.265,1.015s-0.266,0.441-0.487,0.441H384.491z M364.046,126.85
		c0,0.397-0.132,0.706-0.442,0.927c-0.266,0.221-0.62,0.353-1.062,0.353c-0.266,0-0.664,0-1.151-0.044
		c-0.486-0.044-0.929-0.088-1.416-0.132c-0.442-0.045-0.84-0.177-1.195-0.309c-0.309-0.133-0.486-0.309-0.486-0.486V93.932
		c0-0.177,0.177-0.353,0.486-0.486c0.355-0.132,0.753-0.264,1.195-0.308c0.443-0.044,0.93-0.133,1.416-0.133
		c0.487-0.044,0.841-0.044,1.151-0.044c0.398,0,0.752,0.133,1.062,0.397c0.265,0.265,0.442,0.574,0.442,0.927V126.85z
		 M332.141,122.305c0.265,0.044,0.62,0.177,1.151,0.265c0.531,0.132,1.106,0.265,1.814,0.397c0.664,0.133,1.416,0.221,2.257,0.353
		c0.796,0.088,1.637,0.133,2.434,0.133c0.885,0,1.725-0.089,2.522-0.221c0.796-0.132,1.549-0.397,2.168-0.706
		c0.62-0.353,1.151-0.794,1.505-1.324c0.398-0.574,0.575-1.235,0.575-2.074c0-1.147-0.354-2.118-1.106-2.912
		c-0.753-0.794-1.682-1.545-2.788-2.251c-1.106-0.706-2.345-1.412-3.673-2.118s-2.522-1.544-3.673-2.471
		c-1.15-0.926-2.08-2.03-2.788-3.309c-0.752-1.28-1.106-2.824-1.106-4.678c0-1.544,0.265-2.868,0.841-3.927
		c0.575-1.059,1.327-1.941,2.301-2.647c0.973-0.662,2.168-1.192,3.496-1.501c1.371-0.309,2.876-0.485,4.513-0.485
		c0.354,0,0.885,0,1.593,0.044s1.461,0.088,2.257,0.176c0.797,0.089,1.593,0.177,2.346,0.309c0.796,0.133,1.416,0.309,1.858,0.53
		c0.443,0.176,0.708,0.397,0.797,0.618c0.088,0.22,0.088,0.573,0.044,1.103c-0.044,0.838-0.221,1.5-0.531,2.074
		c-0.266,0.573-0.664,0.794-1.195,0.706c-0.796-0.177-1.681-0.309-2.699-0.486c-1.018-0.132-2.169-0.22-3.408-0.22
		c-1.947,0-3.584,0.309-4.823,0.838c-1.239,0.574-1.859,1.5-1.859,2.824c0,1.059,0.355,1.942,1.107,2.692
		c0.752,0.75,1.681,1.456,2.788,2.118c1.106,0.662,2.345,1.368,3.672,2.074c1.328,0.706,2.523,1.544,3.673,2.515
		c1.107,0.971,2.08,2.118,2.788,3.442c0.752,1.324,1.106,3.001,1.106,4.898c0,1.809-0.354,3.31-1.017,4.457
		c-0.664,1.191-1.593,2.074-2.7,2.736c-1.106,0.662-2.434,1.103-3.894,1.368c-1.46,0.264-3.009,0.397-4.602,0.397
		c-0.708,0-1.505-0.044-2.301-0.088c-0.797-0.045-1.549-0.133-2.345-0.221c-0.753-0.088-1.461-0.221-2.169-0.353
		c-0.664-0.133-1.239-0.265-1.726-0.441c-0.486-0.177-0.752-0.353-0.84-0.53c-0.089-0.221-0.133-0.574-0.045-1.059
		c0.089-0.927,0.266-1.721,0.531-2.339C331.344,122.482,331.698,122.173,332.141,122.305 M313.953,98.477h-6.593v11.429h6.593
		c1.284,0,2.346-0.089,3.098-0.221c0.797-0.132,1.372-0.397,1.814-0.794c0.443-0.397,0.709-0.883,0.841-1.545
		c0.133-0.661,0.221-1.544,0.221-2.603v-1.059c0-1.059-0.088-1.942-0.221-2.648c-0.132-0.661-0.442-1.191-0.841-1.588
		c-0.442-0.397-1.017-0.618-1.814-0.795C316.255,98.565,315.237,98.477,313.953,98.477 M301.652,127.115V94.638
		c0-0.353,0.132-0.618,0.442-0.883c0.31-0.22,0.62-0.352,1.062-0.352h10.488c2.168,0,4.027,0.176,5.575,0.485
		c1.549,0.309,2.788,0.882,3.762,1.677c0.973,0.794,1.681,1.853,2.124,3.177c0.443,1.324,0.664,2.956,0.664,4.986v1.059
		c0,1.5-0.133,2.78-0.354,3.883c-0.222,1.103-0.62,2.074-1.107,2.869c-0.486,0.794-1.194,1.412-2.035,1.897
		s-1.859,0.838-3.009,1.103l6.593,11.385c0.354,0.617,0.531,1.059,0.531,1.368c0,0.176-0.088,0.353-0.221,0.485
		c-0.177,0.132-0.354,0.221-0.531,0.265c-0.177,0.044-0.398,0.088-0.575,0.132c-0.222,0-0.354,0.044-0.443,0.044
		c-0.265,0-0.664,0-1.106-0.044c-0.443-0.044-0.885-0.088-1.328-0.176c-0.442-0.089-0.885-0.177-1.239-0.353
		c-0.354-0.177-0.619-0.398-0.796-0.662l-6.992-11.914h-5.841v11.914c0,0.397-0.133,0.662-0.443,0.882
		c-0.265,0.221-0.619,0.353-1.018,0.353c-0.265,0-0.663,0-1.15-0.044c-0.487-0.044-0.929-0.088-1.416-0.132
		c-0.443-0.044-0.841-0.177-1.195-0.309C301.829,127.468,301.652,127.336,301.652,127.115 M273.773,126.586V94.638
		c0-0.397,0.133-0.706,0.443-0.927c0.265-0.22,0.619-0.308,1.062-0.308h19.072c0.354,0,0.664,0.132,0.885,0.441
		c0.221,0.265,0.354,0.617,0.354,0.971c0,0.264,0,0.573-0.044,1.014c-0.044,0.442-0.089,0.839-0.133,1.236
		c-0.044,0.397-0.177,0.75-0.265,1.015c-0.133,0.265-0.31,0.441-0.487,0.441h-15.134v9.178h12.966c0.309,0,0.575,0.133,0.84,0.397
		c0.222,0.265,0.354,0.574,0.354,0.927c0,0.265,0,0.574-0.044,1.015c-0.044,0.441-0.088,0.838-0.133,1.236
		c-0.044,0.397-0.177,0.75-0.265,1.059c-0.133,0.264-0.266,0.441-0.487,0.441h-13.275v9.708h14.824c0.354,0,0.664,0.132,0.885,0.397
		c0.221,0.265,0.354,0.574,0.354,0.971c0,0.264,0,0.573-0.044,1.015c-0.045,0.397-0.089,0.838-0.133,1.235
		c-0.044,0.397-0.177,0.75-0.266,1.059c-0.132,0.309-0.309,0.441-0.486,0.441h-18.675c-0.442,0-0.929-0.088-1.416-0.309
		C273.994,127.027,273.773,126.806,273.773,126.586 M256.338,118.466l7.169-24.578c0.442-0.442,0.973-0.706,1.548-0.839
		c0.576-0.088,1.239-0.176,2.036-0.176c0.31,0,0.664,0,0.974,0.044c0.353,0.044,0.619,0.088,0.84,0.221
		c0.222,0.132,0.399,0.265,0.531,0.485c0.133,0.221,0.089,0.486,0,0.883l-11.018,32.874c-0.045,0.265-0.222,0.441-0.487,0.574
		c-0.266,0.132-0.531,0.176-0.841,0.176c-1.062,0-1.947-0.044-2.655-0.176c-0.708-0.133-1.151-0.309-1.328-0.53l-10.974-32.918
		c-0.088-0.309-0.088-0.574,0-0.795c0.089-0.22,0.221-0.353,0.442-0.485c0.178-0.132,0.399-0.221,0.664-0.265
		c0.222-0.044,0.443-0.088,0.576-0.088c0.486,0,0.973,0,1.46,0.044s0.929,0.088,1.372,0.177c0.398,0.088,0.752,0.22,1.062,0.352
		c0.265,0.177,0.487,0.354,0.575,0.618l7.346,24.358c0.133,0.397,0.221,0.794,0.265,1.192c0.045,0.441,0.089,0.794,0.177,1.147
		c0.045-0.353,0.089-0.75,0.133-1.147C256.117,119.216,256.205,118.819,256.338,118.466 M237.929,126.85
		c0,0.397-0.133,0.706-0.442,0.927c-0.266,0.221-0.62,0.353-1.062,0.353c-0.266,0-0.664,0-1.151-0.044
		c-0.487-0.044-0.929-0.088-1.416-0.132c-0.442-0.045-0.841-0.177-1.195-0.309c-0.354-0.133-0.487-0.309-0.487-0.486V93.932
		c0-0.177,0.177-0.353,0.487-0.486c0.354-0.132,0.708-0.264,1.195-0.308c0.442-0.044,0.929-0.133,1.416-0.133
		c0.487-0.044,0.841-0.044,1.151-0.044c0.398,0,0.752,0.133,1.062,0.397c0.265,0.265,0.442,0.574,0.442,0.927V126.85z
		 M220.494,117.584V93.755c0-0.176,0.177-0.352,0.531-0.441c0.354-0.132,0.752-0.22,1.239-0.265c0.487-0.044,0.974-0.088,1.46-0.132
		c0.487-0.044,0.885-0.044,1.151-0.044c0.841,0,1.239,0.485,1.239,1.412v32.565c0,0.397-0.133,0.662-0.442,0.883
		c-0.31,0.221-0.62,0.353-0.974,0.353c-0.266,0-0.575,0-1.018-0.044c-0.442-0.044-0.841-0.044-1.283-0.133
		c-0.443-0.088-0.797-0.176-1.151-0.264c-0.354-0.133-0.575-0.265-0.708-0.442l-15.444-23.696v23.343
		c0,0.397-0.132,0.706-0.442,0.927c-0.266,0.221-0.62,0.353-1.018,0.353c-0.265,0-0.664,0-1.15-0.044
		c-0.487-0.044-0.974-0.088-1.417-0.132c-0.442-0.045-0.84-0.177-1.15-0.309c-0.354-0.133-0.487-0.309-0.487-0.486V93.932
		c0-0.177,0.177-0.353,0.487-0.485c0.354-0.133,0.708-0.265,1.15-0.309c0.443-0.044,0.886-0.089,1.372-0.133
		c0.487-0.044,0.841-0.044,1.151-0.044c0.354,0,0.664,0.088,0.885,0.309c0.221,0.221,0.442,0.441,0.575,0.706L220.494,117.584z
		 M187.571,115.466V94.02c0-0.176,0.177-0.353,0.486-0.485c0.355-0.132,0.753-0.265,1.195-0.353
		c0.487-0.088,0.974-0.177,1.416-0.221c0.487-0.044,0.841-0.088,1.151-0.088c0.398,0,0.752,0.132,1.018,0.441
		c0.265,0.309,0.398,0.618,0.398,0.971v21.446c0,2.338-0.266,4.28-0.797,5.868c-0.531,1.589-1.283,2.824-2.345,3.839
		c-1.062,0.971-2.389,1.677-3.983,2.074c-1.593,0.397-3.495,0.618-5.62,0.618h-0.398c-2.08,0-3.938-0.221-5.487-0.618
		c-1.593-0.397-2.876-1.103-3.938-2.074c-1.062-0.97-1.815-2.25-2.346-3.839c-0.531-1.544-0.796-3.53-0.796-5.868V94.02
		c0-0.176,0.177-0.353,0.486-0.485c0.355-0.132,0.708-0.265,1.195-0.353c0.443-0.088,0.93-0.177,1.416-0.221
		c0.487-0.044,0.885-0.088,1.151-0.088c0.398,0,0.708,0.132,1.018,0.441c0.265,0.309,0.442,0.618,0.442,0.971v21.137
		c0,1.367,0.089,2.515,0.31,3.486c0.221,0.97,0.575,1.765,1.106,2.338c0.531,0.618,1.239,1.059,2.124,1.324s1.992,0.441,3.319,0.441
		h0.398c1.372,0,2.479-0.132,3.408-0.441c0.885-0.309,1.637-0.75,2.168-1.324c0.531-0.618,0.93-1.368,1.151-2.338
		C187.482,117.981,187.571,116.834,187.571,115.466 M393.474,38.244v40.994h-11.329V16.622h15.798l15.179,38.567V16.622h11.505
		v62.616h-14.426L393.474,38.244z M360.949,16.622h12.745v62.615h-12.745V16.622z M312.051,16.622h13.098v27.226l16.329-27.226
		h13.674l-18.143,28.815l18.143,33.845h-15.179l-14.824-30.447v30.447h-13.098V16.622z M290.721,65.338H272.49l-3.319,13.944
		h-13.143l17.701-62.66h16.727l17.435,62.66h-13.762L290.721,65.338z M288.11,54.439l-6.283-25.903l-6.594,25.903H288.11z
		 M217.928,16.622h33.94v10.635h-20.665v13.37h19.028v10.899h-19.028v16.68h20.71v11.032h-33.985V16.622z M189.12,16.622
		c16.771,0,21.948,8.87,21.948,31.33c0,22.461-5.221,31.33-21.993,31.33h-21.506v-62.66H189.12z M180.756,68.471h5.974
		c9.78,0,11.019-5.736,11.019-20.74c0-14.958-1.239-20.695-11.019-20.695h-5.974V68.471z"/>
	<path style="clip-path:url(#SVGID_00000048501206449687285970000006869372656218423957_);fill:#FFFFFF;" d="M71.713,1.288
		C32.549,1.288,0.799,32.947,0.799,72s31.749,70.712,70.913,70.712S142.625,111.053,142.625,72S110.877,1.288,71.713,1.288"/>
	<path style="clip-path:url(#SVGID_00000048501206449687285970000006869372656218423957_);fill:#FFFFFF;" d="M71.713,2.968
		c38.175,0,69.233,30.968,69.233,69.032s-31.058,69.032-69.233,69.032S2.479,110.064,2.479,72S33.538,2.968,71.713,2.968"/>
	<path style="clip-path:url(#SVGID_00000048501206449687285970000006869372656218423957_);" d="M95.076,94.204L68.262,47.816
		l3.533-5.928l30.099,52.316H95.076z M82.396,94.204L61.86,58.843l3.45-5.804l23.655,41.165H82.396z M69.509,94.204L55.416,69.953
		l3.575-6.011l17.336,30.22h-6.818V94.204z M56.539,94.204l-7.567-13.1l3.576-6.011l10.933,19.111H56.539z M41.365,94.204
		l4.614-7.877l4.615,7.877H41.365z M35.503,36.416V85.83c0,19.94,16.213,36.107,36.209,36.107c19.997,0,36.21-16.167,36.21-36.107
		V36.416H35.503z"/>
</g>
<rect x="471.959" y="16.622" style="fill:#FFFFFF;" width="2" height="110.978"/>
<g>
	<defs>
		<rect id="SVGID_00000048470534811245431330000014935400248884357766_" width="1000" height="144"/>
	</defs>
	<clipPath id="SVGID_00000107589423704505354020000015724682084452267962_">
		<use xlink:href="#SVGID_00000048470534811245431330000014935400248884357766_"  style="overflow:visible;"/>
	</clipPath>
	<path style="clip-path:url(#SVGID_00000107589423704505354020000015724682084452267962_);fill:#FFFFFF;" d="M744.049,108.842
		v18.948h2.229v-16.821l5.278,16.821h2.255l5.355-16.821v16.821h2.306v-18.948h-3.856l-4.855,15.899l-4.804-15.899H744.049z
		 M736.292,121.23h-6.136l3.036-10.159L736.292,121.23z M731.731,108.842l-6.008,18.948h2.46l1.396-4.51h7.315l1.371,4.51h2.703
		l-6.175-18.948H731.731z M717.715,110.943c0.871,0,1.544,0.241,2.018,0.724c0.474,0.482,0.711,1.215,0.711,2.197
		c0,1.008-0.261,1.787-0.782,2.338c-0.521,0.551-1.345,0.826-2.472,0.826h-2.947v-6.085H717.715z M711.809,108.842v18.948h2.434
		v-8.712h2.05c1.102,0,1.866,0.094,2.293,0.282c0.427,0.188,0.754,0.493,0.98,0.916c0.226,0.423,0.37,1.031,0.429,1.825l0.103,1.474
		l0.102,2.062c0.017,0.351,0.064,0.714,0.141,1.089c0.077,0.376,0.18,0.73,0.308,1.064h2.524c-0.402-1.691-0.613-3.327-0.635-4.907
		c-0.021-1.58-0.239-2.75-0.653-3.51s-1.228-1.243-2.44-1.448c1.11-0.213,1.964-0.705,2.562-1.473
		c0.597-0.769,0.896-1.738,0.896-2.908c0-1.435-0.407-2.577-1.223-3.427c-0.816-0.85-1.885-1.275-3.209-1.275H711.809z
		 M706.512,109.745c-0.808-0.858-2.223-1.287-4.247-1.287c-1.495,0-2.699,0.243-3.613,0.73c-0.914,0.487-1.604,1.266-2.069,2.338
		c-0.466,1.072-0.698,2.838-0.698,5.297v2.652c0,3.348,0.497,5.633,1.492,6.854c0.995,1.222,2.607,1.832,4.836,1.832
		c1.931,0,3.741-0.465,5.432-1.396v-9.211h-5.906v2.152h3.459v5.611c-0.41,0.308-0.867,0.521-1.37,0.641
		c-0.504,0.119-1.008,0.179-1.512,0.179c-1.426,0-2.439-0.404-3.036-1.211c-0.598-0.807-0.897-2.256-0.897-4.349v-4.33
		c0-2.298,0.263-3.839,0.788-4.625c0.525-0.786,1.514-1.179,2.966-1.179c1.05,0,1.823,0.289,2.318,0.865
		c0.496,0.577,0.743,1.446,0.743,2.607h2.524v-0.269C707.722,111.904,707.319,110.604,706.512,109.745 M682.692,115.171
		c0-1.657,0.269-2.859,0.807-3.607c0.538-0.747,1.426-1.121,2.665-1.121c1.255,0,2.154,0.408,2.696,1.224
		c0.542,0.816,0.814,2.052,0.814,3.709v4.496c0,1.845-0.092,3.148-0.276,3.908c-0.183,0.76-0.527,1.33-1.031,1.71
		c-0.504,0.38-1.247,0.57-2.229,0.57c-1.247,0-2.133-0.391-2.658-1.172c-0.526-0.782-0.788-2.133-0.788-4.055V115.171z
		 M690.705,110.149c-0.961-1.187-2.475-1.781-4.541-1.781c-2.068,0-3.573,0.562-4.516,1.685c-0.944,1.123-1.416,3.047-1.416,5.771
		v4.932c0,2.52,0.463,4.375,1.39,5.567c0.927,1.191,2.393,1.787,4.401,1.787c2.16,0,3.721-0.591,4.682-1.774
		s1.441-3.321,1.441-6.412v-3.549C692.146,113.411,691.666,111.336,690.705,110.149 M671.579,110.943
		c0.871,0,1.544,0.241,2.018,0.724c0.474,0.482,0.711,1.215,0.711,2.197c0,1.008-0.261,1.787-0.782,2.338
		c-0.521,0.551-1.345,0.826-2.472,0.826h-2.947v-6.085H671.579z M665.673,108.842v18.948h2.434v-8.712h2.05
		c1.102,0,1.866,0.094,2.293,0.282c0.427,0.188,0.754,0.493,0.98,0.916c0.226,0.423,0.369,1.031,0.429,1.825l0.103,1.474
		l0.102,2.062c0.017,0.351,0.064,0.714,0.141,1.089c0.077,0.376,0.18,0.73,0.308,1.064h2.523c-0.401-1.691-0.612-3.327-0.634-4.907
		c-0.021-1.58-0.239-2.75-0.653-3.51s-1.228-1.243-2.441-1.448c1.111-0.213,1.965-0.705,2.563-1.473
		c0.597-0.769,0.896-1.738,0.896-2.908c0-1.435-0.408-2.577-1.223-3.427c-0.816-0.85-1.885-1.275-3.209-1.275H665.673z
		 M653.791,110.943h2.831c1.085,0,1.886,0.263,2.402,0.788c0.517,0.525,0.775,1.296,0.775,2.312c0,1.205-0.309,2.056-0.928,2.556
		c-0.62,0.5-1.57,0.75-2.851,0.75h-2.229V110.943z M651.37,108.842v18.948h2.421v-8.34h2.831c1.802,0,3.184-0.434,4.145-1.301
		c0.96-0.867,1.441-2.192,1.441-3.978c0-1.836-0.438-3.183-1.313-4.041c-0.876-0.859-2.24-1.288-4.093-1.288H651.37z
		 M628.124,108.842v18.948h2.178v-16.424l7.533,16.424h3.279v-18.948h-2.152v16.219l-7.456-16.219H628.124z M614.654,115.171
		c0-1.657,0.269-2.859,0.807-3.607c0.538-0.747,1.426-1.121,2.664-1.121c1.256,0,2.155,0.408,2.697,1.224s0.814,2.052,0.814,3.709
		v4.496c0,1.845-0.092,3.148-0.276,3.908c-0.183,0.76-0.527,1.33-1.031,1.71c-0.504,0.38-1.247,0.57-2.229,0.57
		c-1.247,0-2.133-0.391-2.658-1.172c-0.526-0.782-0.788-2.133-0.788-4.055V115.171z M622.667,110.149
		c-0.961-1.187-2.475-1.781-4.542-1.781s-3.572,0.562-4.515,1.685c-0.944,1.123-1.416,3.047-1.416,5.771v4.932
		c0,2.52,0.463,4.375,1.39,5.567c0.926,1.191,2.393,1.787,4.4,1.787c2.161,0,3.722-0.591,4.683-1.774s1.441-3.321,1.441-6.412
		v-3.549C624.108,113.411,623.628,111.336,622.667,110.149 M605.617,127.79h2.447v-18.948h-2.447V127.79z M590.068,108.842v2.101
		h4.958v16.847h2.434v-16.847h4.984v-2.101H590.068z M584.456,127.79h2.447v-18.948h-2.447V127.79z M575.445,110.943
		c0.871,0,1.543,0.241,2.017,0.724c0.474,0.482,0.711,1.215,0.711,2.197c0,1.008-0.26,1.787-0.781,2.338
		c-0.521,0.551-1.345,0.826-2.473,0.826h-2.946v-6.085H575.445z M569.539,108.842v18.948h2.434v-8.712h2.05
		c1.101,0,1.866,0.094,2.293,0.282c0.427,0.188,0.753,0.493,0.98,0.916c0.226,0.423,0.369,1.031,0.429,1.825l0.102,1.474
		l0.103,2.062c0.017,0.351,0.064,0.714,0.141,1.089c0.077,0.376,0.179,0.73,0.307,1.064h2.524c-0.401-1.691-0.613-3.327-0.634-4.907
		c-0.021-1.58-0.239-2.75-0.653-3.51c-0.415-0.76-1.228-1.243-2.441-1.448c1.11-0.213,1.964-0.705,2.562-1.473
		c0.598-0.769,0.897-1.738,0.897-2.908c0-1.435-0.408-2.577-1.223-3.427c-0.816-0.85-1.886-1.275-3.21-1.275H569.539z
		 M554.161,108.842v2.101h4.958v16.847h2.434v-16.847h4.983v-2.101H554.161z M539.408,108.842v13.259
		c0,1.939,0.506,3.434,1.519,4.484c1.012,1.051,2.457,1.576,4.336,1.576c1.99,0,3.465-0.553,4.426-1.659
		c0.961-1.106,1.442-2.756,1.442-4.951v-12.709h-2.358v12.914c0,1.452-0.275,2.536-0.826,3.254
		c-0.551,0.717-1.437,1.076-2.658,1.076c-1.145,0-2.01-0.348-2.595-1.044c-0.585-0.696-0.877-1.698-0.877-3.005v-13.195H539.408z
		 M522.255,108.842v18.948h2.178v-16.424l7.533,16.424h3.279v-18.948h-2.152v16.219l-7.456-16.219H522.255z"/>
	<path style="clip-path:url(#SVGID_00000107589423704505354020000015724682084452267962_);fill:#FFFFFF;" d="M873.637,94.779
		c-0.436,0.641-0.965,1.128-1.589,1.461c-0.623,0.333-1.345,0.499-2.165,0.499c-1.196,0-2.159-0.341-2.889-1.025
		c-0.73-0.683-1.095-1.584-1.095-2.703c0-0.828,0.237-1.548,0.711-2.158c0.474-0.611,1.257-1.271,2.351-1.98L873.637,94.779z
		 M868.141,84.473c-0.359-0.594-0.538-1.13-0.538-1.608c0-0.598,0.19-1.068,0.57-1.409c0.38-0.342,0.89-0.513,1.531-0.513
		c0.657,0,1.163,0.167,1.518,0.5c0.354,0.333,0.531,0.79,0.531,1.371c0,0.563-0.179,1.144-0.538,1.742
		c-0.358,0.598-0.879,1.187-1.563,1.768C869.003,85.683,868.5,85.066,868.141,84.473 M873.438,85.203
		c0.466-0.798,0.698-1.612,0.698-2.441c0-1.195-0.382-2.103-1.146-2.722c-0.765-0.619-1.851-0.929-3.261-0.929
		c-1.435,0-2.555,0.31-3.363,0.929c-0.807,0.619-1.21,1.497-1.21,2.633c0,0.717,0.224,1.51,0.672,2.376
		c0.449,0.867,1.049,1.677,1.8,2.428c-1.46,0.828-2.517,1.67-3.17,2.524c-0.654,0.854-0.98,1.913-0.98,3.177
		c0,1.708,0.561,3.053,1.684,4.035c1.123,0.983,2.646,1.474,4.567,1.474c1.162,0,2.135-0.176,2.921-0.526
		c0.786-0.35,1.542-0.956,2.268-1.819l1.524,1.948h2.729l-3.036-4.062c0.359-0.623,0.621-1.383,0.788-2.28
		c0.166-0.897,0.25-1.87,0.25-2.921v-1.883h-1.986c0.017,0.077,0.025,0.184,0.025,0.32v0.987c0,0.717-0.036,1.439-0.108,2.165
		c-0.073,0.726-0.186,1.358-0.34,1.896l-3.702-4.689C872.18,86.875,872.973,86.002,873.438,85.203 M843.691,79.342l5.124,11.286
		v7.662h2.383v-7.61l5.201-11.338h-2.472l-3.805,9.16l-3.728-9.16H843.691z M839.543,91.73h-6.137l3.037-10.159L839.543,91.73z
		 M834.982,79.342l-6.008,18.948h2.46l1.396-4.51h7.315l1.371,4.51h2.703l-6.175-18.948H834.982z M817.57,79.342V98.29h9.339v-2.102
		h-6.931V79.342H817.57z M805.663,81.443h2.831c1.085,0,1.885,0.263,2.402,0.788c0.517,0.525,0.775,1.296,0.775,2.312
		c0,1.204-0.31,2.056-0.929,2.556s-1.569,0.749-2.85,0.749h-2.229V81.443z M803.241,79.342V98.29h2.422v-8.341h2.831
		c1.802,0,3.184-0.433,4.144-1.3c0.961-0.867,1.442-2.193,1.442-3.978c0-1.836-0.438-3.183-1.314-4.042
		c-0.875-0.858-2.239-1.287-4.093-1.287H803.241z M784.249,79.342V98.29h9.941v-2.102h-7.533v-6.584h6.829v-2.076h-6.829v-6.085
		h7.354v-2.101H784.249z M767.349,79.342l5.483,18.948h2.883l5.534-18.948h-2.46l-4.471,16.667l-4.356-16.667H767.349z
		 M761.749,98.29h2.447V79.342h-2.447V98.29z M746.2,79.342v2.101h4.958V98.29h2.434V81.443h4.984v-2.101H746.2z M742.402,80.386
		c-0.82-0.833-2.088-1.249-3.805-1.249c-2.152,0-3.702,0.57-4.65,1.71s-1.422,3-1.422,5.579v3.998c0,3.108,0.474,5.246,1.422,6.411
		c0.948,1.166,2.357,1.749,4.227,1.749c1.888,0,3.308-0.467,4.26-1.403c0.952-0.935,1.429-2.368,1.429-4.298v-0.346h-2.486
		c-0.017,1.333-0.29,2.328-0.82,2.985c-0.529,0.658-1.306,0.987-2.331,0.987c-1.145,0-1.969-0.412-2.473-1.237
		c-0.504-0.824-0.756-2.239-0.756-4.246v-4.6c0-2.118,0.282-3.52,0.846-4.208c0.563-0.687,1.409-1.031,2.536-1.031
		c0.991,0,1.693,0.258,2.108,0.775c0.414,0.517,0.621,1.343,0.621,2.479v0.282h2.524v-0.5
		C743.632,82.498,743.222,81.219,742.402,80.386 M725.668,91.73h-6.137l3.036-10.159L725.668,91.73z M721.107,79.342l-6.008,18.948
		h2.459l1.397-4.51h7.315l1.371,4.51h2.703l-6.175-18.948H721.107z M705.561,95.561l-1.358,6.085h1.678l2.383-6.085H705.561z
		 M700.057,80.245c-0.807-0.858-2.223-1.287-4.247-1.287c-1.495,0-2.699,0.243-3.613,0.73c-0.914,0.487-1.603,1.266-2.069,2.338
		c-0.465,1.072-0.698,2.838-0.698,5.297v2.652c0,3.348,0.497,5.633,1.492,6.854c0.995,1.221,2.608,1.832,4.837,1.832
		c1.93,0,3.741-0.465,5.432-1.396v-9.212h-5.906v2.153h3.459v5.611c-0.41,0.307-0.867,0.521-1.371,0.641
		c-0.504,0.119-1.008,0.179-1.512,0.179c-1.426,0-2.438-0.404-3.036-1.211c-0.598-0.807-0.897-2.257-0.897-4.349v-4.33
		c0-2.298,0.263-3.839,0.788-4.625s1.514-1.179,2.966-1.179c1.05,0,1.823,0.289,2.319,0.865c0.495,0.577,0.743,1.446,0.743,2.607
		h2.523v-0.269C701.267,82.404,700.864,81.103,700.057,80.245 M672.511,79.342V98.29h2.178V81.866l7.533,16.424h3.28V79.342h-2.152
		v16.219l-7.456-16.219H672.511z M665.75,98.29h2.447V79.342h-2.447V98.29z M652.363,96.188V81.443h2.703
		c1.162,0,2.042,0.203,2.64,0.608c0.597,0.406,1.007,1.079,1.229,2.018c0.222,0.94,0.333,2.434,0.333,4.484
		c0,2.451-0.13,4.132-0.39,5.041c-0.261,0.91-0.711,1.57-1.352,1.98c-0.64,0.41-1.729,0.614-3.267,0.614H652.363z M649.929,79.342
		V98.29h4.33c1.828,0,3.284-0.263,4.369-0.788c1.084-0.526,1.864-1.373,2.338-2.543s0.711-3.096,0.711-5.778
		c0-2.46-0.118-4.236-0.352-5.33c-0.235-1.093-0.583-1.957-1.044-2.594c-0.462-0.636-1.098-1.114-1.909-1.435
		c-0.812-0.32-1.773-0.48-2.883-0.48H649.929z M636.618,79.342V98.29h9.941v-2.102h-7.533v-6.584h6.829v-2.076h-6.829v-6.085h7.354
		v-2.101H636.618z M623.331,79.342V98.29h9.942v-2.102h-7.533v-6.584h6.828v-2.076h-6.828v-6.085h7.353v-2.101H623.331z
		 M610.948,79.342V98.29h2.434v-8.686h6.585v-2.076h-6.585v-6.085h6.956v-2.101H610.948z M590.687,79.342v2.101h4.958V98.29h2.434
		V81.443h4.983v-2.101H590.687z M574.606,79.342V98.29h2.178V81.866l7.533,16.424h3.279V79.342h-2.152v16.219l-7.456-16.219H574.606
		z M566.826,91.73h-6.136l3.036-10.159L566.826,91.73z M562.266,79.342l-6.009,18.948h2.46l1.396-4.51h7.315l1.371,4.51h2.703
		l-6.175-18.948H562.266z M546.275,79.342V98.29h2.434v-8.686h6.585v-2.076h-6.585v-6.085h6.956v-2.101H546.275z M529.195,79.342
		V98.29h2.178V81.866l7.533,16.424h3.28V79.342h-2.153v16.219l-7.456-16.219H529.195z M522.434,98.29h2.447V79.342h-2.447V98.29z"/>
</g>
<path style="fill:#FFFFFF;" d="M676.181,16.543v6.855h9.712V58.79h8.969V23.398h9.826v-6.855H676.181z M640.004,16.543V58.79h8.198
	V27.911l11.569,30.879h11.597V16.543h-8.198v29.25l-11.283-29.25H640.004z M617.31,24.684l4.399,18.366h-8.541L617.31,24.684z
	 M612.054,16.543L600.343,58.79h8.741l2.399-9.37h12.026l2.342,9.37h9.312l-11.454-42.247H612.054z M578.043,16.543V58.79h8.883
	V40.365h12.454v-6.484h-12.454V23.055h13.054v-6.512H578.043z M539.625,16.543V58.79h8.198V27.911l11.569,30.879h11.597V16.543
	h-8.198v29.25l-11.283-29.25H539.625z M523.685,58.79h8.826V16.543h-8.826V58.79z"/>
</svg>
