<?xml version="1.0" encoding="iso-8859-1"?>
<!-- Generator: Adobe Illustrator 29.5.1, SVG Export Plug-In . SVG Version: 9.03 Build 0)  -->
<svg version="1.1" id="Layer_1" xmlns="http://www.w3.org/2000/svg" xmlns:xlink="http://www.w3.org/1999/xlink" x="0px" y="0px"
	 viewBox="0 0 1000 144" style="enable-background:new 0 0 1000 144;" xml:space="preserve">
<g>
	<defs>
		<rect id="SVGID_1_" width="1000" height="144"/>
	</defs>
	<clipPath id="SVGID_00000047770085866125862190000011022226438580764813_">
		<use xlink:href="#SVGID_1_"  style="overflow:visible;"/>
	</clipPath>
	<path style="clip-path:url(#SVGID_00000047770085866125862190000011022226438580764813_);fill:#FFFFFF;" d="M414.759,115.025
		v11.825c0,0.397-0.133,0.706-0.443,0.927c-0.265,0.221-0.619,0.353-1.062,0.353c-0.265,0-0.664,0-1.106-0.044
		c-0.442-0.044-0.929-0.088-1.372-0.132c-0.442-0.045-0.841-0.177-1.195-0.309c-0.309-0.133-0.486-0.309-0.486-0.486v-12.09
		L398.74,94.903c-0.354-0.706-0.399-1.192-0.133-1.5c0.266-0.309,0.752-0.486,1.46-0.486c0.443,0,0.885,0,1.372,0.044
		c0.443,0,0.885,0.044,1.283,0.133c0.399,0.044,0.753,0.132,1.018,0.22c0.266,0.089,0.487,0.221,0.575,0.441l7.612,15.489
		l7.611-15.444c0.089-0.177,0.265-0.354,0.575-0.442c0.266-0.088,0.62-0.176,1.018-0.264c0.398-0.045,0.841-0.089,1.283-0.133
		c0.443,0,0.93-0.044,1.372-0.044c0.708,0,1.195,0.132,1.461,0.441c0.221,0.309,0.177,0.795-0.178,1.545L414.759,115.025z
		 M384.491,98.521v28.329c0,0.397-0.133,0.706-0.443,0.927c-0.31,0.221-0.619,0.353-1.018,0.353c-0.265,0-0.663,0-1.15-0.044
		c-0.487-0.044-0.974-0.088-1.416-0.132c-0.443-0.045-0.841-0.177-1.151-0.309c-0.354-0.133-0.486-0.309-0.486-0.486V98.565h-8.762
		c-0.354,0-0.62-0.132-0.885-0.397c-0.222-0.265-0.354-0.573-0.354-0.971c0-0.265,0-0.573,0.044-1.015
		c0.044-0.397,0.088-0.838,0.133-1.235c0.044-0.397,0.177-0.75,0.265-1.059c0.133-0.265,0.266-0.441,0.487-0.441h23.453
		c0.354,0,0.62,0.132,0.885,0.397c0.222,0.265,0.354,0.617,0.354,0.971c0,0.264,0,0.573-0.044,1.014
		c-0.044,0.442-0.088,0.839-0.133,1.236c-0.044,0.397-0.132,0.75-0.265,1.015s-0.266,0.441-0.487,0.441H384.491z M364.046,126.85
		c0,0.397-0.132,0.706-0.442,0.927c-0.266,0.221-0.62,0.353-1.062,0.353c-0.266,0-0.664,0-1.151-0.044
		c-0.486-0.044-0.929-0.088-1.416-0.132c-0.442-0.045-0.84-0.177-1.195-0.309c-0.309-0.133-0.486-0.309-0.486-0.486V93.932
		c0-0.177,0.177-0.353,0.486-0.486c0.355-0.132,0.753-0.264,1.195-0.308c0.443-0.044,0.93-0.133,1.416-0.133
		c0.487-0.044,0.841-0.044,1.151-0.044c0.398,0,0.752,0.133,1.062,0.397c0.265,0.265,0.442,0.574,0.442,0.927V126.85z
		 M332.141,122.305c0.265,0.044,0.62,0.177,1.151,0.265c0.531,0.132,1.106,0.265,1.814,0.397c0.664,0.133,1.416,0.221,2.257,0.353
		c0.796,0.088,1.637,0.133,2.434,0.133c0.885,0,1.725-0.089,2.522-0.221c0.796-0.132,1.549-0.397,2.168-0.706
		c0.62-0.353,1.151-0.794,1.505-1.324c0.398-0.574,0.575-1.235,0.575-2.074c0-1.147-0.354-2.118-1.106-2.912
		c-0.753-0.794-1.682-1.545-2.788-2.251c-1.106-0.706-2.345-1.412-3.673-2.118s-2.522-1.544-3.673-2.471
		c-1.15-0.926-2.08-2.03-2.788-3.309c-0.752-1.28-1.106-2.824-1.106-4.678c0-1.544,0.265-2.868,0.841-3.927
		c0.575-1.059,1.327-1.941,2.301-2.647c0.973-0.662,2.168-1.192,3.496-1.501c1.371-0.309,2.876-0.485,4.513-0.485
		c0.354,0,0.885,0,1.593,0.044s1.461,0.088,2.257,0.176c0.797,0.089,1.593,0.177,2.346,0.309c0.796,0.133,1.416,0.309,1.858,0.53
		c0.443,0.176,0.708,0.397,0.797,0.618c0.088,0.22,0.088,0.573,0.044,1.103c-0.044,0.838-0.221,1.5-0.531,2.074
		c-0.266,0.573-0.664,0.794-1.195,0.706c-0.796-0.177-1.681-0.309-2.699-0.486c-1.018-0.132-2.169-0.22-3.408-0.22
		c-1.947,0-3.584,0.309-4.823,0.838c-1.239,0.574-1.859,1.5-1.859,2.824c0,1.059,0.355,1.942,1.107,2.692
		c0.752,0.75,1.681,1.456,2.788,2.118c1.106,0.662,2.345,1.368,3.672,2.074c1.328,0.706,2.523,1.544,3.673,2.515
		c1.107,0.971,2.08,2.118,2.788,3.442c0.752,1.324,1.106,3.001,1.106,4.898c0,1.809-0.354,3.31-1.017,4.457
		c-0.664,1.191-1.593,2.074-2.7,2.736c-1.106,0.662-2.434,1.103-3.894,1.368c-1.46,0.264-3.009,0.397-4.602,0.397
		c-0.708,0-1.505-0.044-2.301-0.088c-0.797-0.045-1.549-0.133-2.345-0.221c-0.753-0.088-1.461-0.221-2.169-0.353
		c-0.664-0.133-1.239-0.265-1.726-0.441c-0.486-0.177-0.752-0.353-0.84-0.53c-0.089-0.221-0.133-0.574-0.045-1.059
		c0.089-0.927,0.266-1.721,0.531-2.339C331.344,122.482,331.698,122.173,332.141,122.305 M313.953,98.477h-6.593v11.429h6.593
		c1.284,0,2.346-0.089,3.098-0.221c0.797-0.132,1.372-0.397,1.814-0.794c0.443-0.397,0.709-0.883,0.841-1.545
		c0.133-0.661,0.221-1.544,0.221-2.603v-1.059c0-1.059-0.088-1.942-0.221-2.648c-0.132-0.661-0.442-1.191-0.841-1.588
		c-0.442-0.397-1.017-0.618-1.814-0.795C316.255,98.565,315.237,98.477,313.953,98.477 M301.652,127.115V94.638
		c0-0.353,0.132-0.618,0.442-0.883c0.31-0.22,0.62-0.352,1.062-0.352h10.488c2.168,0,4.027,0.176,5.575,0.485
		c1.549,0.309,2.788,0.882,3.762,1.677c0.973,0.794,1.681,1.853,2.124,3.177c0.443,1.324,0.664,2.956,0.664,4.986v1.059
		c0,1.5-0.133,2.78-0.354,3.883c-0.222,1.103-0.62,2.074-1.107,2.869c-0.486,0.794-1.194,1.412-2.035,1.897
		s-1.859,0.838-3.009,1.103l6.593,11.385c0.354,0.617,0.531,1.059,0.531,1.368c0,0.176-0.088,0.353-0.221,0.485
		c-0.177,0.132-0.354,0.221-0.531,0.265c-0.177,0.044-0.398,0.088-0.575,0.132c-0.222,0-0.354,0.044-0.443,0.044
		c-0.265,0-0.664,0-1.106-0.044c-0.443-0.044-0.885-0.088-1.328-0.176c-0.442-0.089-0.885-0.177-1.239-0.353
		c-0.354-0.177-0.619-0.398-0.796-0.662l-6.992-11.914h-5.841v11.914c0,0.397-0.133,0.662-0.443,0.882
		c-0.265,0.221-0.619,0.353-1.018,0.353c-0.265,0-0.663,0-1.15-0.044c-0.487-0.044-0.929-0.088-1.416-0.132
		c-0.443-0.044-0.841-0.177-1.195-0.309C301.829,127.468,301.652,127.336,301.652,127.115 M273.773,126.586V94.638
		c0-0.397,0.133-0.706,0.443-0.927c0.265-0.22,0.619-0.308,1.062-0.308h19.072c0.354,0,0.664,0.132,0.885,0.441
		c0.221,0.265,0.354,0.617,0.354,0.971c0,0.264,0,0.573-0.044,1.014c-0.044,0.442-0.089,0.839-0.133,1.236
		c-0.044,0.397-0.177,0.75-0.265,1.015c-0.133,0.265-0.31,0.441-0.487,0.441h-15.134v9.178h12.966c0.309,0,0.575,0.133,0.84,0.397
		c0.222,0.265,0.354,0.574,0.354,0.927c0,0.265,0,0.574-0.044,1.015c-0.044,0.441-0.088,0.838-0.133,1.236
		c-0.044,0.397-0.177,0.75-0.265,1.059c-0.133,0.264-0.266,0.441-0.487,0.441h-13.275v9.708h14.824c0.354,0,0.664,0.132,0.885,0.397
		c0.221,0.265,0.354,0.574,0.354,0.971c0,0.264,0,0.573-0.044,1.015c-0.045,0.397-0.089,0.838-0.133,1.235
		c-0.044,0.397-0.177,0.75-0.266,1.059c-0.132,0.309-0.309,0.441-0.486,0.441h-18.675c-0.442,0-0.929-0.088-1.416-0.309
		C273.994,127.027,273.773,126.806,273.773,126.586 M256.338,118.466l7.169-24.578c0.442-0.442,0.973-0.706,1.548-0.839
		c0.576-0.088,1.239-0.176,2.036-0.176c0.31,0,0.664,0,0.974,0.044c0.353,0.044,0.619,0.088,0.84,0.221
		c0.222,0.132,0.399,0.265,0.531,0.485c0.133,0.221,0.089,0.486,0,0.883l-11.018,32.874c-0.045,0.265-0.222,0.441-0.487,0.574
		c-0.266,0.132-0.531,0.176-0.841,0.176c-1.062,0-1.947-0.044-2.655-0.176c-0.708-0.133-1.151-0.309-1.328-0.53l-10.974-32.918
		c-0.088-0.309-0.088-0.574,0-0.795c0.089-0.22,0.221-0.353,0.442-0.485c0.178-0.132,0.399-0.221,0.664-0.265
		c0.222-0.044,0.443-0.088,0.576-0.088c0.486,0,0.973,0,1.46,0.044s0.929,0.088,1.372,0.177c0.398,0.088,0.752,0.22,1.062,0.352
		c0.265,0.177,0.487,0.354,0.575,0.618l7.346,24.358c0.133,0.397,0.221,0.794,0.265,1.192c0.045,0.441,0.089,0.794,0.177,1.147
		c0.045-0.353,0.089-0.75,0.133-1.147C256.117,119.216,256.205,118.819,256.338,118.466 M237.929,126.85
		c0,0.397-0.133,0.706-0.442,0.927c-0.266,0.221-0.62,0.353-1.062,0.353c-0.266,0-0.664,0-1.151-0.044
		c-0.487-0.044-0.929-0.088-1.416-0.132c-0.442-0.045-0.841-0.177-1.195-0.309c-0.354-0.133-0.487-0.309-0.487-0.486V93.932
		c0-0.177,0.177-0.353,0.487-0.486c0.354-0.132,0.708-0.264,1.195-0.308c0.442-0.044,0.929-0.133,1.416-0.133
		c0.487-0.044,0.841-0.044,1.151-0.044c0.398,0,0.752,0.133,1.062,0.397c0.265,0.265,0.442,0.574,0.442,0.927V126.85z
		 M220.494,117.584V93.755c0-0.176,0.177-0.352,0.531-0.441c0.354-0.132,0.752-0.22,1.239-0.265c0.487-0.044,0.974-0.088,1.46-0.132
		c0.487-0.044,0.885-0.044,1.151-0.044c0.841,0,1.239,0.485,1.239,1.412v32.565c0,0.397-0.133,0.662-0.442,0.883
		c-0.31,0.221-0.62,0.353-0.974,0.353c-0.266,0-0.575,0-1.018-0.044c-0.442-0.044-0.841-0.044-1.283-0.133
		c-0.443-0.088-0.797-0.176-1.151-0.264c-0.354-0.133-0.575-0.265-0.708-0.442l-15.444-23.696v23.343
		c0,0.397-0.132,0.706-0.442,0.927c-0.266,0.221-0.62,0.353-1.018,0.353c-0.265,0-0.664,0-1.15-0.044
		c-0.487-0.044-0.974-0.088-1.417-0.132c-0.442-0.045-0.84-0.177-1.15-0.309c-0.354-0.133-0.487-0.309-0.487-0.486V93.932
		c0-0.177,0.177-0.353,0.487-0.485c0.354-0.133,0.708-0.265,1.15-0.309c0.443-0.044,0.886-0.089,1.372-0.133
		c0.487-0.044,0.841-0.044,1.151-0.044c0.354,0,0.664,0.088,0.885,0.309c0.221,0.221,0.442,0.441,0.575,0.706L220.494,117.584z
		 M187.571,115.466V94.02c0-0.176,0.177-0.353,0.486-0.485c0.355-0.132,0.753-0.265,1.195-0.353
		c0.487-0.088,0.974-0.177,1.416-0.221c0.487-0.044,0.841-0.088,1.151-0.088c0.398,0,0.752,0.132,1.018,0.441
		c0.265,0.309,0.398,0.618,0.398,0.971v21.446c0,2.338-0.266,4.28-0.797,5.868c-0.531,1.589-1.283,2.824-2.345,3.839
		c-1.062,0.971-2.389,1.677-3.983,2.074c-1.593,0.397-3.495,0.618-5.62,0.618h-0.398c-2.08,0-3.938-0.221-5.487-0.618
		c-1.593-0.397-2.876-1.103-3.938-2.074c-1.062-0.97-1.815-2.25-2.346-3.839c-0.531-1.544-0.796-3.53-0.796-5.868V94.02
		c0-0.176,0.177-0.353,0.486-0.485c0.355-0.132,0.708-0.265,1.195-0.353c0.443-0.088,0.93-0.177,1.416-0.221
		c0.487-0.044,0.885-0.088,1.151-0.088c0.398,0,0.708,0.132,1.018,0.441c0.265,0.309,0.442,0.618,0.442,0.971v21.137
		c0,1.367,0.089,2.515,0.31,3.486c0.221,0.97,0.575,1.765,1.106,2.338c0.531,0.618,1.239,1.059,2.124,1.324s1.992,0.441,3.319,0.441
		h0.398c1.372,0,2.479-0.132,3.408-0.441c0.885-0.309,1.637-0.75,2.168-1.324c0.531-0.618,0.93-1.368,1.151-2.338
		C187.482,117.981,187.571,116.834,187.571,115.466 M393.474,38.244v40.994h-11.329V16.622h15.798l15.179,38.567V16.622h11.505
		v62.616h-14.426L393.474,38.244z M360.949,16.622h12.745v62.615h-12.745V16.622z M312.051,16.622h13.098v27.226l16.329-27.226
		h13.674l-18.143,28.815l18.143,33.845h-15.179l-14.824-30.447v30.447h-13.098V16.622z M290.721,65.338H272.49l-3.319,13.944
		h-13.143l17.701-62.66h16.727l17.435,62.66h-13.762L290.721,65.338z M288.11,54.439l-6.283-25.903l-6.594,25.903H288.11z
		 M217.928,16.622h33.94v10.635h-20.665v13.37h19.028v10.899h-19.028v16.68h20.71v11.032h-33.985V16.622z M189.12,16.622
		c16.771,0,21.948,8.87,21.948,31.33c0,22.461-5.221,31.33-21.993,31.33h-21.506v-62.66H189.12z M180.756,68.471h5.974
		c9.78,0,11.019-5.736,11.019-20.74c0-14.958-1.239-20.695-11.019-20.695h-5.974V68.471z"/>
	<path style="clip-path:url(#SVGID_00000047770085866125862190000011022226438580764813_);fill:#FFFFFF;" d="M71.713,1.288
		C32.549,1.288,0.799,32.947,0.799,72s31.749,70.712,70.913,70.712S142.625,111.053,142.625,72S110.877,1.288,71.713,1.288"/>
	<path style="clip-path:url(#SVGID_00000047770085866125862190000011022226438580764813_);fill:#FFFFFF;" d="M71.713,2.968
		c38.175,0,69.233,30.968,69.233,69.032s-31.058,69.032-69.233,69.032S2.479,110.064,2.479,72S33.538,2.968,71.713,2.968"/>
	<path style="clip-path:url(#SVGID_00000047770085866125862190000011022226438580764813_);" d="M95.076,94.204L68.262,47.816
		l3.533-5.928l30.099,52.316H95.076z M82.396,94.204L61.86,58.843l3.45-5.804l23.655,41.165H82.396z M69.509,94.204L55.416,69.953
		l3.575-6.011l17.336,30.22h-6.818V94.204z M56.539,94.204l-7.567-13.1l3.576-6.011l10.933,19.111H56.539z M41.365,94.204
		l4.614-7.877l4.615,7.877H41.365z M35.503,36.416V85.83c0,19.94,16.213,36.107,36.209,36.107c19.997,0,36.21-16.167,36.21-36.107
		V36.416H35.503z"/>
</g>
<rect x="471.959" y="16.622" style="fill:#FFFFFF;" width="2" height="110.978"/>
<g>
	<defs>
		<rect id="SVGID_00000034803067523614659980000008273570870527608495_" width="1000" height="144"/>
	</defs>
	<clipPath id="SVGID_00000059309774972694766820000015922605339985383040_">
		<use xlink:href="#SVGID_00000034803067523614659980000008273570870527608495_"  style="overflow:visible;"/>
	</clipPath>
	<path style="clip-path:url(#SVGID_00000059309774972694766820000015922605339985383040_);fill:#FFFFFF;" d="M956.714,94.729v32.876
		h6.379v-24.029l9.003,24.029h9.024V94.729h-6.379v22.762l-8.78-22.762H956.714z M936.456,108.933c0-3.897,0.311-6.56,0.934-7.991
		c0.622-1.43,1.77-2.145,3.445-2.145c1.704,0,2.864,0.671,3.479,2.012c0.614,1.341,0.922,3.509,0.922,6.502v3.134
		c0,2.164-0.041,4.268-0.122,6.313c-0.082,2.045-0.422,3.649-1.023,4.812c-0.6,1.164-1.7,1.745-3.301,1.745
		c-1.141,0-2.019-0.341-2.634-1.022c-0.615-0.682-1.052-1.734-1.311-3.157c-0.259-1.422-0.389-3.897-0.389-7.424V108.933z
		 M940.679,128.205c2.075,0,3.809-0.244,5.202-0.733c1.392-0.489,2.515-1.182,3.367-2.079c0.852-0.896,1.493-2.004,1.923-3.323
		c0.43-1.318,0.719-2.734,0.867-4.245c0.148-1.512,0.222-3.809,0.222-6.891c0-3.438-0.111-6.035-0.333-7.791
		c-0.222-1.756-0.686-3.342-1.389-4.757c-0.704-1.415-1.838-2.523-3.401-3.323c-1.564-0.8-3.679-1.2-6.347-1.2
		c-2.682,0-4.864,0.518-6.546,1.556c-1.682,1.037-2.901,2.675-3.656,4.912c-0.756,2.238-1.134,5.713-1.134,10.425
		c0,4.001,0.189,6.939,0.567,8.814c0.378,1.874,0.952,3.427,1.723,4.656c0.77,1.231,1.885,2.201,3.345,2.912
		C936.548,127.85,938.412,128.205,940.679,128.205 M918.15,127.605h6.869V94.729h-6.869V127.605z M892.906,94.729v5.335h7.557
		v27.541h6.98v-27.541h7.646v-5.335H892.906z M881.003,101.065l3.424,14.292h-6.647L881.003,101.065z M876.914,94.729l-9.114,32.876
		h6.802l1.867-7.291h9.358l1.823,7.291h7.246l-8.913-32.876H876.914z M865.993,104.11c0-3.393-0.811-5.887-2.434-7.48
		c-1.622-1.593-3.997-2.39-7.124-2.39c-2.667,0-4.79,0.442-6.368,1.323c-1.578,0.882-2.705,2.071-3.379,3.568
		c-0.674,1.497-1.108,3.119-1.3,4.868c-0.193,1.748-0.289,4.156-0.289,7.224c0,3.897,0.181,6.743,0.544,8.536
		s0.919,3.267,1.668,4.423c0.748,1.156,1.833,2.075,3.256,2.756c1.423,0.682,3.268,1.023,5.535,1.023
		c3.482,0,6.061-0.874,7.735-2.623c1.675-1.749,2.512-4.364,2.512-7.847v-0.956h-6.78v0.378c0,2.12-0.3,3.665-0.9,4.635
		c-0.6,0.971-1.486,1.456-2.656,1.456c-1.393,0-2.386-0.634-2.979-1.901c-0.593-1.267-0.919-2.867-0.978-4.801
		c-0.059-1.934-0.089-3.479-0.089-4.635c0-3.437,0.089-5.89,0.267-7.357c0.178-1.467,0.545-2.679,1.1-3.634
		c0.556-0.956,1.434-1.434,2.634-1.434c1.053,0,1.864,0.411,2.435,1.234c0.57,0.822,0.855,2.159,0.855,4.012v0.622h6.735V104.11z
		 M818.591,94.729v22.007c0,3.867,0.893,6.746,2.679,8.635c1.785,1.89,4.546,2.834,8.28,2.834c3.912,0,6.78-0.929,8.602-2.789
		c1.823-1.86,2.734-4.738,2.734-8.636V94.729h-6.69v22.184c0,2.12-0.371,3.716-1.112,4.791c-0.741,1.074-1.882,1.611-3.423,1.611
		c-1.437,0-2.497-0.53-3.179-1.589c-0.681-1.06-1.022-2.679-1.022-4.857v-22.14H818.591z M799.217,99.798h1.912
		c2.015,0,3.412,0.277,4.19,0.833c0.778,0.556,1.334,1.645,1.667,3.268c0.334,1.622,0.5,4.212,0.5,7.768
		c0,3.379-0.192,5.739-0.578,7.08c-0.385,1.342-0.959,2.297-1.722,2.868c-0.764,0.57-2.198,0.855-4.302,0.855h-1.667V99.798z
		 M792.193,94.729v32.876h10.114c3.023,0,5.394-0.47,7.113-1.411c1.719-0.941,2.975-2.416,3.768-4.424
		c0.792-2.008,1.189-5.435,1.189-10.28c0-3.72-0.156-6.447-0.467-8.18c-0.311-1.734-0.844-3.235-1.6-4.502
		c-0.756-1.267-1.905-2.263-3.446-2.989c-1.541-0.726-3.578-1.09-6.112-1.09H792.193z M770.186,94.729v32.876h18.294v-5.135h-11.426
		v-9.513h10.203v-5.068h-10.203v-8.091h11.07v-5.069H770.186z M730.889,94.729v32.876h6.38v-24.029l9.002,24.029h9.025V94.729
		h-6.379v22.762l-8.781-22.762H730.889z M710.632,108.933c0-3.897,0.311-6.56,0.933-7.991c0.623-1.43,1.771-2.145,3.446-2.145
		c1.704,0,2.863,0.671,3.478,2.012c0.615,1.341,0.923,3.509,0.923,6.502v3.134c0,2.164-0.041,4.268-0.122,6.313
		c-0.082,2.045-0.423,3.649-1.023,4.812c-0.6,1.164-1.7,1.745-3.301,1.745c-1.141,0-2.019-0.341-2.634-1.022
		c-0.615-0.682-1.052-1.734-1.311-3.157c-0.26-1.422-0.389-3.897-0.389-7.424V108.933z M714.855,128.205
		c2.075,0,3.808-0.244,5.201-0.733c1.393-0.489,2.516-1.182,3.368-2.079c0.852-0.896,1.493-2.004,1.923-3.323
		c0.429-1.318,0.718-2.734,0.867-4.245c0.148-1.512,0.222-3.809,0.222-6.891c0-3.438-0.111-6.035-0.334-7.791
		c-0.222-1.756-0.685-3.342-1.389-4.757s-1.837-2.523-3.401-3.323c-1.563-0.8-3.679-1.2-6.346-1.2c-2.682,0-4.864,0.518-6.546,1.556
		c-1.682,1.037-2.901,2.675-3.657,4.912c-0.755,2.238-1.133,5.713-1.133,10.425c0,4.001,0.189,6.939,0.566,8.814
		c0.378,1.874,0.952,3.427,1.723,4.656c0.771,1.231,1.886,2.201,3.346,2.912C710.724,127.85,712.588,128.205,714.855,128.205
		 M692.325,127.605h6.869V94.729h-6.869V127.605z M667.081,94.729v5.335h7.558v27.541h6.979v-27.541h7.647v-5.335H667.081z
		 M655.179,101.065l3.423,14.292h-6.646L655.179,101.065z M651.089,94.729l-9.113,32.876h6.801l1.868-7.291h9.358l1.822,7.291h7.247
		l-8.914-32.876H651.089z M623.025,94.729v32.876h17.161v-5.468h-10.203V94.729H623.025z M595.94,94.729v22.007
		c0,3.867,0.893,6.746,2.679,8.635c1.785,1.89,4.545,2.834,8.28,2.834c3.912,0,6.779-0.929,8.602-2.789
		c1.823-1.86,2.734-4.738,2.734-8.636V94.729h-6.691v22.184c0,2.12-0.37,3.716-1.111,4.791c-0.741,1.074-1.882,1.611-3.423,1.611
		c-1.438,0-2.497-0.53-3.179-1.589c-0.682-1.06-1.022-2.679-1.022-4.857v-22.14H595.94z M558.879,94.729v32.876h6.513v-25.362
		l6.091,25.362h6.557l6.424-25.362v25.362h6.691V94.729h-10.692l-5.513,22.362l-5.201-22.362H558.879z M547.225,127.605h6.869
		V94.729h-6.869V127.605z M540.539,125.838c1.852-1.578,2.779-3.946,2.779-7.102c0-2.06-0.401-3.686-1.201-4.879
		s-2.089-2.345-3.867-3.457l-6.647-4.245c-0.726-0.459-1.256-0.986-1.589-1.578c-0.334-0.593-0.5-1.23-0.5-1.912
		c0-1.111,0.3-1.997,0.9-2.656s1.411-0.989,2.434-0.989c2.208,0,3.312,1.422,3.312,4.267v0.778h6.735v-1.133
		c0-3.171-0.811-5.42-2.434-6.747c-1.622-1.326-3.982-1.989-7.079-1.989c-3.468,0-6.147,0.76-8.036,2.278
		c-1.889,1.52-2.834,3.672-2.834,6.458c0,2.06,0.385,3.76,1.156,5.101c0.77,1.341,2.445,2.812,5.023,4.412l5.446,3.335
		c0.741,0.459,1.301,0.993,1.678,1.6c0.378,0.608,0.567,1.349,0.567,2.223c0,1.156-0.315,2.049-0.944,2.678
		c-0.63,0.631-1.531,0.945-2.701,0.945c-1.378,0-2.342-0.407-2.89-1.222c-0.548-0.815-0.822-2.045-0.822-3.69v-0.867h-6.98v2.045
		c0,2.89,0.845,5.064,2.534,6.524c1.689,1.46,4.171,2.189,7.447,2.189C535.849,128.205,538.686,127.416,540.539,125.838"/>
	<path style="clip-path:url(#SVGID_00000059309774972694766820000015922605339985383040_);fill:#FFFFFF;" d="M897.725,51.43v32.876
		h6.38V60.277l9.002,24.029h9.025V51.43h-6.38v22.762l-8.78-22.762H897.725z M880.702,57.765l3.424,14.293h-6.647L880.702,57.765z
		 M876.612,51.43l-9.113,32.876h6.802l1.867-7.291h9.358l1.823,7.291h7.246l-8.913-32.876H876.612z M857.549,84.306h6.869V51.43
		h-6.869V84.306z M839.753,56.498h1.467c2.09,0,3.453,0.333,4.09,1c0.637,0.667,0.956,1.816,0.956,3.446
		c0,1.645-0.322,2.838-0.967,3.578c-0.645,0.742-1.96,1.112-3.946,1.112h-1.6V56.498z M832.84,51.43v32.876h6.913V70.702h1.334
		c2.059,0,3.46,0.352,4.201,1.056c0.741,0.704,1.111,2.004,1.111,3.901v5.046c0,0.889,0.052,1.545,0.156,1.967
		c0.103,0.422,0.296,0.967,0.578,1.634h6.735c-0.148-0.445-0.256-1.03-0.322-1.756c-0.067-0.726-0.123-1.49-0.167-2.29l-0.334-5.646
		c-0.133-2.119-0.603-3.653-1.411-4.601c-0.808-0.948-2.293-1.571-4.457-1.867c2.03-0.385,3.531-1.23,4.501-2.534
		c0.971-1.304,1.456-3.127,1.456-5.468c0-2.964-0.726-5.157-2.178-6.58c-1.452-1.423-3.683-2.134-6.691-2.134H832.84z
		 M812.704,65.634c0-3.897,0.311-6.561,0.934-7.991c0.622-1.43,1.77-2.145,3.445-2.145c1.704,0,2.864,0.67,3.479,2.011
		c0.615,1.342,0.922,3.509,0.922,6.502v3.134c0,2.164-0.041,4.268-0.122,6.313c-0.081,2.045-0.422,3.65-1.022,4.813
		c-0.6,1.163-1.701,1.745-3.301,1.745c-1.141,0-2.02-0.341-2.634-1.023c-0.615-0.681-1.053-1.734-1.312-3.156
		c-0.259-1.423-0.389-3.898-0.389-7.425V65.634z M816.928,84.906c2.074,0,3.808-0.245,5.201-0.734
		c1.393-0.489,2.515-1.181,3.368-2.078c0.852-0.896,1.492-2.004,1.922-3.323s0.719-2.734,0.867-4.246
		c0.148-1.511,0.223-3.808,0.223-6.891c0-3.437-0.112-6.035-0.334-7.791c-0.222-1.756-0.685-3.341-1.389-4.756
		s-1.838-2.523-3.401-3.324c-1.564-0.8-3.679-1.2-6.346-1.2c-2.683,0-4.865,0.519-6.546,1.556c-1.683,1.038-2.901,2.675-3.657,4.913
		c-0.756,2.237-1.134,5.712-1.134,10.425c0,4.001,0.189,6.939,0.567,8.813c0.378,1.875,0.952,3.427,1.723,4.657
		c0.77,1.23,1.885,2.201,3.345,2.912C812.797,84.55,814.66,84.906,816.928,84.906 M781.174,51.43v5.335h7.557v27.541h6.98V56.765
		h7.646V51.43H781.174z M778.732,60.81c0-3.393-0.811-5.886-2.434-7.479c-1.623-1.593-3.997-2.39-7.124-2.39
		c-2.667,0-4.79,0.441-6.368,1.323c-1.579,0.881-2.705,2.071-3.379,3.567c-0.675,1.497-1.108,3.12-1.3,4.868
		c-0.193,1.749-0.289,4.157-0.289,7.224c0,3.898,0.181,6.743,0.544,8.536c0.363,1.793,0.919,3.268,1.667,4.423
		c0.748,1.156,1.834,2.075,3.257,2.757c1.422,0.681,3.267,1.022,5.535,1.022c3.482,0,6.06-0.874,7.735-2.623
		c1.674-1.748,2.512-4.364,2.512-7.846v-0.956h-6.78v0.378c0,2.119-0.3,3.664-0.9,4.634c-0.6,0.971-1.486,1.456-2.656,1.456
		c-1.393,0-2.386-0.633-2.979-1.9s-0.919-2.868-0.978-4.801c-0.059-1.934-0.089-3.479-0.089-4.635c0-3.438,0.089-5.891,0.267-7.358
		c0.178-1.467,0.544-2.678,1.1-3.634c0.556-0.956,1.434-1.434,2.634-1.434c1.052,0,1.864,0.412,2.434,1.234
		c0.57,0.822,0.856,2.16,0.856,4.012v0.623h6.735V60.81z M746.555,84.306h6.869V51.43h-6.869V84.306z M718.687,51.43l8.114,32.876
		h8.046l8.692-32.876h-6.78l-5.78,23.918l-5.134-23.918H718.687z M692.106,51.43v32.876h17.16v-5.468h-10.203V51.43H692.106z
		 M675.126,57.765l3.424,14.293h-6.647L675.126,57.765z M671.036,51.43l-9.113,32.876h6.802l1.867-7.291h9.358l1.823,7.291h7.246
		l-8.913-32.876H671.036z M634.369,51.43v32.876h6.38V60.277l9.002,24.029h9.025V51.43h-6.38v22.762l-8.78-22.762H634.369z
		 M614.111,65.634c0-3.897,0.311-6.561,0.934-7.991c0.622-1.43,1.77-2.145,3.445-2.145c1.704,0,2.864,0.67,3.479,2.011
		c0.615,1.342,0.922,3.509,0.922,6.502v3.134c0,2.164-0.041,4.268-0.122,6.313c-0.082,2.045-0.422,3.65-1.022,4.813
		c-0.601,1.163-1.701,1.745-3.301,1.745c-1.142,0-2.02-0.341-2.634-1.023c-0.615-0.681-1.053-1.734-1.312-3.156
		c-0.259-1.423-0.389-3.898-0.389-7.425V65.634z M618.335,84.906c2.074,0,3.808-0.245,5.201-0.734
		c1.393-0.489,2.515-1.181,3.368-2.078c0.852-0.896,1.492-2.004,1.922-3.323c0.43-1.319,0.719-2.734,0.867-4.246
		c0.148-1.511,0.223-3.808,0.223-6.891c0-3.437-0.112-6.035-0.334-7.791c-0.222-1.756-0.686-3.341-1.389-4.756
		c-0.704-1.415-1.838-2.523-3.401-3.324c-1.564-0.8-3.679-1.2-6.346-1.2c-2.683,0-4.865,0.519-6.547,1.556
		c-1.682,1.038-2.9,2.675-3.656,4.913c-0.756,2.237-1.134,5.712-1.134,10.425c0,4.001,0.189,6.939,0.567,8.813
		c0.378,1.875,0.952,3.427,1.723,4.657c0.77,1.23,1.885,2.201,3.345,2.912S616.067,84.906,618.335,84.906 M595.805,84.306h6.869
		V51.43h-6.869V84.306z M590.903,60.499c0-3.171-0.919-5.613-2.757-7.324c-1.837-1.712-4.453-2.567-7.846-2.567
		c-2.727,0-4.942,0.518-6.646,1.556c-1.705,1.037-2.957,2.652-3.757,4.845c-0.8,2.194-1.2,5.602-1.2,10.225
		c0,4.979,0.318,8.577,0.956,10.792c0.636,2.216,1.9,3.883,3.789,5.002c1.89,1.119,4.539,1.678,7.947,1.678
		c1.023,0,2.126-0.06,3.312-0.178c1.185-0.119,3.253-0.452,6.202-1V66.879h-10.559v5.09h3.779v7.246
		c-0.563,0.208-1.126,0.364-1.689,0.467c-0.564,0.104-1.156,0.156-1.778,0.156c-1.794,0-3.05-0.626-3.768-1.879
		c-0.719-1.252-1.108-3.056-1.167-5.412l-0.067-5.09c0-1.097,0.03-2.716,0.089-4.857c0.059-2.141,0.419-3.86,1.078-5.157
		s1.775-1.945,3.345-1.945c1.186,0,2.134,0.393,2.846,1.178c0.711,0.786,1.067,1.8,1.067,3.045v1.601h6.824V60.499z M547.466,51.43
		v32.876h18.294v-5.135h-11.425v-9.514h10.202v-5.068h-10.202v-8.091h11.069V51.43H547.466z M529.647,56.498h1.467
		c2.09,0,3.453,0.333,4.09,1c0.637,0.667,0.956,1.816,0.956,3.446c0,1.645-0.322,2.838-0.967,3.578
		c-0.645,0.742-1.96,1.112-3.946,1.112h-1.6V56.498z M522.734,51.43v32.876h6.913V70.702h1.334c2.059,0,3.46,0.352,4.201,1.056
		c0.741,0.704,1.111,2.004,1.111,3.901v5.046c0,0.889,0.052,1.545,0.156,1.967c0.103,0.422,0.296,0.967,0.578,1.634h6.735
		c-0.148-0.445-0.256-1.03-0.322-1.756c-0.067-0.726-0.123-1.49-0.167-2.29l-0.333-5.646c-0.134-2.119-0.604-3.653-1.412-4.601
		s-2.293-1.571-4.457-1.867c2.03-0.385,3.531-1.23,4.502-2.534c0.97-1.304,1.455-3.127,1.455-5.468c0-2.964-0.726-5.157-2.178-6.58
		c-1.452-1.423-3.683-2.134-6.691-2.134H522.734z"/>
	<path style="clip-path:url(#SVGID_00000059309774972694766820000015922605339985383040_);fill:#FFFFFF;" d="M829.075,19.201
		c0.575,0.111,1.018,0.313,1.331,0.605c0.312,0.292,0.529,0.695,0.65,1.209c0.121,0.514,0.181,1.175,0.181,1.981v0.514
		c0,0.806-0.06,1.466-0.181,1.98c-0.121,0.514-0.338,0.912-0.65,1.195c-0.313,0.282-0.756,0.479-1.331,0.589
		c-0.574,0.111-1.315,0.166-2.222,0.166h-4.657v-8.405h4.657C827.76,19.035,828.5,19.09,829.075,19.201 M819.702,38.447
		c0.151,0.06,0.332,0.115,0.544,0.166c0.212,0.05,0.428,0.086,0.65,0.106c0.222,0.02,0.413,0.03,0.575,0.03
		c0.221,0,0.398-0.075,0.529-0.227c0.131-0.151,0.196-0.337,0.196-0.559v-8.104h4.536l4.596,8.074
		c0.08,0.161,0.212,0.297,0.393,0.408c0.181,0.11,0.378,0.196,0.59,0.257c0.211,0.06,0.428,0.101,0.65,0.121
		c0.221,0.02,0.413,0.03,0.574,0.03c0.141,0,0.318-0.03,0.529-0.091c0.212-0.06,0.318-0.191,0.318-0.393
		c0-0.201-0.091-0.443-0.272-0.725l-4.475-7.953c0.846-0.121,1.547-0.332,2.101-0.635c0.554-0.302,1.003-0.695,1.346-1.179
		c0.342-0.484,0.584-1.078,0.725-1.784c0.141-0.705,0.212-1.532,0.212-2.479v-0.514c0-1.21-0.121-2.223-0.363-3.039
		c-0.242-0.817-0.645-1.471-1.209-1.966c-0.565-0.493-1.316-0.846-2.253-1.058c-0.937-0.212-2.091-0.317-3.462-0.317h-6.501
		c-0.222,0-0.403,0.075-0.544,0.226c-0.142,0.152-0.212,0.338-0.212,0.56v20.803C819.474,38.306,819.551,38.386,819.702,38.447
		 M801.076,21.756c0.191-0.746,0.514-1.346,0.968-1.799c0.453-0.454,1.048-0.776,1.784-0.968c0.735-0.191,1.648-0.287,2.736-0.287
		h0.242c1.089,0,1.996,0.096,2.721,0.287c0.726,0.192,1.316,0.514,1.769,0.968c0.454,0.453,0.776,1.053,0.968,1.799
		c0.191,0.746,0.287,1.673,0.287,2.782v5.956c0,1.109-0.096,2.037-0.287,2.782c-0.192,0.746-0.514,1.346-0.968,1.799
		c-0.453,0.454-1.043,0.777-1.769,0.968c-0.725,0.192-1.632,0.287-2.721,0.287h-0.242c-1.088,0-2.001-0.095-2.736-0.287
		c-0.736-0.191-1.331-0.514-1.784-0.968c-0.454-0.453-0.777-1.053-0.968-1.799c-0.192-0.745-0.287-1.673-0.287-2.782v-5.956
		C800.789,23.429,800.884,22.502,801.076,21.756 M810.555,38.341c1.069-0.272,1.955-0.726,2.661-1.361s1.235-1.471,1.588-2.509
		c0.352-1.038,0.529-2.323,0.529-3.856v-6.198c0-1.532-0.177-2.817-0.529-3.855c-0.353-1.038-0.882-1.875-1.588-2.51
		c-0.706-0.635-1.592-1.089-2.661-1.361c-1.068-0.272-2.318-0.408-3.749-0.408h-0.242c-1.451,0-2.711,0.136-3.78,0.408
		c-1.068,0.272-1.955,0.726-2.66,1.361c-0.706,0.635-1.235,1.472-1.588,2.51s-0.529,2.323-0.529,3.855v6.198
		c0,1.533,0.176,2.818,0.529,3.856c0.353,1.038,0.882,1.874,1.588,2.509c0.705,0.635,1.592,1.089,2.66,1.361
		c1.069,0.272,2.329,0.408,3.78,0.408h0.242C808.237,38.749,809.487,38.613,810.555,38.341 M793.644,28.529
		c0.08,0,0.151-0.06,0.212-0.181c0.06-0.121,0.11-0.273,0.151-0.454c0.04-0.181,0.07-0.368,0.091-0.559
		c0.019-0.192,0.03-0.368,0.03-0.53c0-0.221-0.071-0.393-0.212-0.514c-0.141-0.121-0.302-0.181-0.484-0.181h-8.345v-7.045h9.918
		c0.08,0,0.151-0.061,0.211-0.182c0.061-0.121,0.111-0.272,0.152-0.453c0.04-0.182,0.07-0.373,0.09-0.575
		c0.02-0.201,0.031-0.382,0.031-0.544c0-0.222-0.071-0.388-0.212-0.499c-0.141-0.11-0.303-0.166-0.484-0.166h-11.43
		c-0.665,0-0.997,0.211-0.997,0.635v20.924c0,0.081,0.07,0.156,0.211,0.227c0.141,0.07,0.318,0.125,0.529,0.166
		c0.212,0.04,0.434,0.076,0.666,0.106c0.231,0.03,0.428,0.045,0.589,0.045c0.222,0,0.398-0.086,0.529-0.257s0.197-0.367,0.197-0.59
		v-9.373H793.644z M758.599,38.235c0.282,0.101,0.554,0.151,0.816,0.151h11.4c0.08,0,0.151-0.06,0.211-0.181
		c0.061-0.121,0.111-0.272,0.151-0.454c0.041-0.181,0.071-0.372,0.091-0.574c0.02-0.201,0.03-0.383,0.03-0.544
		c0-0.202-0.07-0.363-0.211-0.484c-0.141-0.121-0.303-0.182-0.484-0.182h-9.706v-7.438h8.98c0.081,0,0.151-0.06,0.212-0.181
		c0.06-0.121,0.116-0.273,0.166-0.454c0.05-0.181,0.086-0.373,0.106-0.575c0.02-0.201,0.03-0.372,0.03-0.514
		c0-0.221-0.071-0.393-0.211-0.514c-0.142-0.121-0.313-0.181-0.514-0.181h-8.769v-7.045h9.918c0.08,0,0.151-0.061,0.211-0.182
		c0.061-0.121,0.111-0.272,0.151-0.453c0.041-0.182,0.071-0.373,0.091-0.575c0.02-0.201,0.03-0.382,0.03-0.544
		c0-0.222-0.07-0.388-0.211-0.499c-0.141-0.11-0.303-0.166-0.484-0.166h-11.702c-0.484,0-0.725,0.262-0.725,0.786v20.41
		C758.177,38.004,758.317,38.134,758.599,38.235 M754.403,19.065c0.081,0,0.152-0.061,0.212-0.182s0.116-0.272,0.166-0.453
		c0.05-0.182,0.086-0.373,0.106-0.575c0.02-0.201,0.03-0.382,0.03-0.544c0-0.201-0.075-0.363-0.226-0.484
		c-0.152-0.121-0.328-0.181-0.53-0.181h-14.665c-0.101,0-0.181,0.065-0.241,0.196c-0.061,0.132-0.111,0.288-0.152,0.469
		c-0.04,0.181-0.07,0.373-0.09,0.575c-0.021,0.201-0.031,0.373-0.031,0.514c0,0.201,0.071,0.362,0.212,0.483
		c0.141,0.121,0.322,0.182,0.544,0.182h5.836v19.17c0,0.101,0.071,0.181,0.212,0.242c0.141,0.06,0.317,0.111,0.529,0.151
		s0.433,0.071,0.665,0.091c0.232,0.02,0.428,0.03,0.59,0.03c0.221,0,0.398-0.081,0.529-0.242c0.131-0.161,0.196-0.352,0.196-0.574
		V19.065H754.403z M732.715,33.352c-0.182,0.716-0.474,1.29-0.877,1.723c-0.404,0.434-0.928,0.752-1.573,0.953
		c-0.645,0.202-1.441,0.302-2.388,0.302h-0.242c-0.907,0-1.674-0.1-2.298-0.302c-0.625-0.201-1.134-0.519-1.527-0.953
		c-0.393-0.433-0.676-1.007-0.847-1.723s-0.257-1.588-0.257-2.616V17.16c0-0.222-0.066-0.423-0.196-0.605
		c-0.132-0.181-0.308-0.272-0.53-0.272c-0.161,0-0.358,0.015-0.589,0.045c-0.232,0.031-0.454,0.071-0.665,0.121
		c-0.212,0.051-0.389,0.116-0.53,0.197c-0.141,0.081-0.211,0.161-0.211,0.242v13.969c0,1.492,0.156,2.737,0.468,3.735
		c0.313,0.997,0.787,1.809,1.422,2.434s1.431,1.068,2.388,1.33c0.958,0.262,2.081,0.393,3.372,0.393h0.242
		c1.31,0,2.454-0.131,3.432-0.393c0.977-0.262,1.793-0.705,2.449-1.33c0.655-0.625,1.144-1.437,1.466-2.434
		c0.322-0.998,0.484-2.243,0.484-3.735V17.16c0-0.222-0.066-0.423-0.196-0.605c-0.132-0.181-0.308-0.272-0.53-0.272
		c-0.181,0-0.383,0.015-0.604,0.045c-0.222,0.031-0.439,0.071-0.65,0.121c-0.212,0.051-0.389,0.116-0.53,0.197
		s-0.211,0.161-0.211,0.242v13.848C732.987,31.764,732.896,32.636,732.715,33.352 M716.212,19.065c0.08,0,0.151-0.061,0.211-0.182
		c0.061-0.121,0.116-0.272,0.167-0.453c0.05-0.182,0.085-0.373,0.105-0.575c0.02-0.201,0.031-0.382,0.031-0.544
		c0-0.201-0.076-0.363-0.227-0.484s-0.328-0.181-0.529-0.181h-14.665c-0.101,0-0.182,0.065-0.242,0.196
		c-0.061,0.132-0.111,0.288-0.151,0.469c-0.041,0.181-0.071,0.373-0.091,0.575c-0.02,0.201-0.03,0.373-0.03,0.514
		c0,0.201,0.07,0.362,0.211,0.483s0.323,0.182,0.545,0.182h5.835v19.17c0,0.101,0.071,0.181,0.212,0.242
		c0.141,0.06,0.317,0.111,0.529,0.151c0.212,0.04,0.433,0.071,0.665,0.091c0.232,0.02,0.428,0.03,0.59,0.03
		c0.222,0,0.398-0.081,0.529-0.242c0.131-0.161,0.197-0.352,0.197-0.574V19.065H716.212z M697.531,17.099
		c0-0.221-0.065-0.413-0.196-0.574c-0.131-0.161-0.308-0.242-0.529-0.242c-0.182,0-0.383,0.01-0.605,0.03
		c-0.222,0.021-0.438,0.056-0.65,0.106c-0.212,0.051-0.388,0.111-0.529,0.181c-0.142,0.071-0.212,0.147-0.212,0.227v21.408
		c0,0.101,0.07,0.181,0.212,0.242c0.141,0.06,0.317,0.111,0.529,0.151c0.212,0.04,0.428,0.071,0.65,0.091
		c0.222,0.02,0.423,0.03,0.605,0.03c0.221,0,0.398-0.081,0.529-0.242c0.131-0.161,0.196-0.352,0.196-0.574V17.099z M691.036,19.065
		c0.08,0,0.151-0.061,0.212-0.182c0.06-0.121,0.115-0.272,0.166-0.453c0.05-0.182,0.085-0.373,0.106-0.575
		c0.02-0.201,0.03-0.382,0.03-0.544c0-0.201-0.076-0.363-0.227-0.484s-0.328-0.181-0.529-0.181H676.13
		c-0.101,0-0.181,0.065-0.242,0.196c-0.06,0.132-0.111,0.288-0.151,0.469c-0.041,0.181-0.071,0.373-0.091,0.575
		c-0.02,0.201-0.03,0.373-0.03,0.514c0,0.201,0.07,0.362,0.212,0.483c0.14,0.121,0.322,0.182,0.544,0.182h5.836v19.17
		c0,0.101,0.07,0.181,0.211,0.242c0.141,0.06,0.318,0.111,0.529,0.151c0.212,0.04,0.434,0.071,0.666,0.091
		c0.231,0.02,0.428,0.03,0.589,0.03c0.222,0,0.398-0.081,0.529-0.242c0.131-0.161,0.197-0.352,0.197-0.574V19.065H691.036z
		 M660.146,36.179c-0.111,0.323-0.186,0.685-0.227,1.088c-0.02,0.242-0.01,0.409,0.031,0.499c0.04,0.091,0.201,0.187,0.483,0.288
		c0.283,0.101,0.637,0.191,1.061,0.272c0.424,0.08,0.879,0.151,1.364,0.211c0.485,0.061,0.98,0.111,1.485,0.152
		c0.505,0.04,0.98,0.06,1.425,0.06c0.929,0,1.833-0.086,2.712-0.257c0.879-0.171,1.662-0.463,2.349-0.877
		c0.687-0.413,1.233-0.972,1.637-1.678c0.404-0.705,0.606-1.592,0.606-2.661c0-1.189-0.241-2.207-0.725-3.054
		c-0.484-0.846-1.094-1.587-1.83-2.222c-0.736-0.635-1.527-1.204-2.373-1.709c-0.847-0.503-1.638-0.997-2.374-1.481
		c-0.736-0.484-1.345-0.998-1.829-1.542c-0.484-0.545-0.726-1.189-0.726-1.935c0-0.504,0.116-0.933,0.348-1.286
		c0.231-0.352,0.549-0.639,0.952-0.861c0.403-0.222,0.882-0.383,1.437-0.484c0.554-0.101,1.153-0.151,1.799-0.151
		c0.766,0,1.471,0.05,2.116,0.151c0.645,0.101,1.26,0.212,1.845,0.333c0.262,0.04,0.468-0.066,0.62-0.318
		c0.151-0.252,0.246-0.579,0.287-0.983c0.04-0.242,0.025-0.418-0.045-0.529c-0.071-0.11-0.227-0.216-0.469-0.317
		c-0.303-0.121-0.68-0.217-1.134-0.288c-0.454-0.07-0.912-0.13-1.376-0.181c-0.464-0.05-0.907-0.085-1.33-0.106
		c-0.424-0.02-0.767-0.03-1.028-0.03c-0.948,0-1.83,0.096-2.646,0.287c-0.816,0.192-1.53,0.489-2.141,0.892
		c-0.612,0.404-1.09,0.928-1.436,1.573c-0.347,0.645-0.52,1.421-0.52,2.328c0,1.109,0.242,2.056,0.726,2.842
		c0.483,0.786,1.093,1.487,1.829,2.102c0.735,0.615,1.527,1.169,2.373,1.663c0.847,0.494,1.638,0.997,2.374,1.511
		c0.736,0.514,1.346,1.074,1.829,1.679c0.484,0.604,0.726,1.32,0.726,2.146c0,0.646-0.141,1.17-0.423,1.573
		c-0.283,0.403-0.65,0.725-1.104,0.967c-0.453,0.242-0.967,0.409-1.542,0.499c-0.574,0.091-1.144,0.136-1.708,0.136
		c-0.504,0-1.003-0.025-1.497-0.075s-0.953-0.116-1.376-0.197c-0.423-0.08-0.812-0.161-1.164-0.242
		c-0.353-0.08-0.63-0.151-0.832-0.211C660.444,35.715,660.258,35.857,660.146,36.179 M642.809,16.797
		c-0.101-0.141-0.211-0.262-0.332-0.363c-0.121-0.1-0.263-0.151-0.424-0.151c-0.181,0-0.378,0.01-0.589,0.03
		c-0.212,0.021-0.419,0.056-0.62,0.106c-0.202,0.051-0.368,0.111-0.499,0.181c-0.131,0.071-0.197,0.147-0.197,0.227v21.408
		c0,0.101,0.071,0.181,0.212,0.242c0.141,0.06,0.312,0.111,0.514,0.151c0.201,0.04,0.413,0.071,0.635,0.091
		c0.222,0.02,0.413,0.03,0.575,0.03c0.221,0,0.397-0.081,0.529-0.242c0.131-0.161,0.196-0.352,0.196-0.574v-16.54l10.855,16.872
		c0.061,0.081,0.167,0.151,0.318,0.212c0.151,0.06,0.327,0.111,0.529,0.151c0.201,0.04,0.403,0.071,0.605,0.091
		c0.201,0.02,0.373,0.03,0.514,0.03c0.201,0,0.367-0.075,0.499-0.227c0.131-0.151,0.196-0.337,0.196-0.559V17.13
		c0-0.242-0.045-0.444-0.136-0.605c-0.09-0.161-0.247-0.242-0.468-0.242c-0.182,0-0.394,0.01-0.635,0.03
		c-0.242,0.021-0.469,0.051-0.681,0.091c-0.211,0.041-0.388,0.091-0.529,0.151c-0.141,0.061-0.212,0.131-0.212,0.212V33.7
		L642.809,16.797z M635.659,17.099c0-0.221-0.066-0.413-0.197-0.574c-0.131-0.161-0.308-0.242-0.529-0.242
		c-0.182,0-0.383,0.01-0.605,0.03c-0.222,0.021-0.438,0.056-0.65,0.106c-0.212,0.051-0.388,0.111-0.529,0.181
		c-0.141,0.071-0.212,0.147-0.212,0.227v21.408c0,0.101,0.071,0.181,0.212,0.242c0.141,0.06,0.317,0.111,0.529,0.151
		c0.212,0.04,0.428,0.071,0.65,0.091c0.222,0.02,0.423,0.03,0.605,0.03c0.221,0,0.398-0.081,0.529-0.242
		c0.131-0.161,0.197-0.352,0.197-0.574V17.099z M607.66,16.797c-0.101-0.141-0.212-0.262-0.333-0.363
		c-0.121-0.1-0.262-0.151-0.423-0.151c-0.182,0-0.378,0.01-0.59,0.03c-0.212,0.021-0.419,0.056-0.62,0.106
		c-0.202,0.051-0.368,0.111-0.499,0.181c-0.131,0.071-0.196,0.147-0.196,0.227v21.408c0,0.101,0.07,0.181,0.211,0.242
		c0.141,0.06,0.313,0.111,0.514,0.151c0.202,0.04,0.413,0.071,0.635,0.091c0.222,0.02,0.413,0.03,0.575,0.03
		c0.222,0,0.398-0.081,0.529-0.242c0.131-0.161,0.197-0.352,0.197-0.574v-16.54l10.855,16.872c0.06,0.081,0.166,0.151,0.317,0.212
		c0.151,0.06,0.328,0.111,0.529,0.151c0.202,0.04,0.403,0.071,0.605,0.091c0.201,0.02,0.373,0.03,0.514,0.03
		c0.201,0,0.368-0.075,0.499-0.227c0.131-0.151,0.197-0.337,0.197-0.559V17.13c0-0.242-0.046-0.444-0.137-0.605
		c-0.09-0.161-0.247-0.242-0.468-0.242c-0.182,0-0.393,0.01-0.635,0.03c-0.242,0.021-0.469,0.051-0.681,0.091
		c-0.211,0.041-0.388,0.091-0.529,0.151c-0.141,0.061-0.211,0.131-0.211,0.212V33.7L607.66,16.797z M600.509,17.099
		c0-0.221-0.066-0.413-0.197-0.574c-0.131-0.161-0.307-0.242-0.529-0.242c-0.181,0-0.383,0.01-0.605,0.03
		c-0.222,0.021-0.438,0.056-0.65,0.106c-0.211,0.051-0.388,0.111-0.529,0.181c-0.141,0.071-0.211,0.147-0.211,0.227v21.408
		c0,0.101,0.07,0.181,0.211,0.242c0.141,0.06,0.318,0.111,0.529,0.151c0.212,0.04,0.428,0.071,0.65,0.091
		c0.222,0.02,0.424,0.03,0.605,0.03c0.222,0,0.398-0.081,0.529-0.242c0.131-0.161,0.197-0.352,0.197-0.574V17.099z M581.351,27.35
		l10.069,10.855c0.221,0.242,0.534,0.393,0.937,0.453c0.403,0.061,0.836,0.091,1.3,0.091c0.141,0,0.303-0.02,0.484-0.06
		c0.181-0.041,0.272-0.162,0.272-0.363c0-0.222-0.161-0.504-0.484-0.847l-9.706-10.432l8.86-9.494
		c0.342-0.363,0.514-0.645,0.514-0.847c0-0.201-0.091-0.322-0.272-0.363c-0.182-0.04-0.353-0.06-0.514-0.06
		c-0.444,0-0.873,0.03-1.285,0.091c-0.414,0.06-0.731,0.211-0.953,0.453l-9.222,9.948v-9.676c0-0.221-0.066-0.413-0.197-0.574
		c-0.131-0.161-0.307-0.242-0.529-0.242c-0.181,0-0.383,0.01-0.605,0.03c-0.222,0.021-0.438,0.056-0.65,0.106
		c-0.211,0.051-0.388,0.111-0.529,0.181c-0.141,0.071-0.212,0.147-0.212,0.227v21.408c0,0.101,0.071,0.181,0.212,0.242
		c0.141,0.06,0.318,0.111,0.529,0.151c0.212,0.04,0.428,0.071,0.65,0.091c0.222,0.02,0.424,0.03,0.605,0.03
		c0.222,0,0.398-0.081,0.529-0.242c0.131-0.161,0.197-0.352,0.197-0.574V27.35z M566.411,20.304c0.02-0.201,0.05-0.382,0.091-0.544
		c0,0.101,0.025,0.283,0.075,0.544c0.05,0.263,0.096,0.444,0.136,0.545l2.903,8.799h-6.259l2.933-8.799
		C566.35,20.688,566.39,20.506,566.411,20.304 M573.033,38.643c0.342,0.071,0.796,0.106,1.36,0.106c0.182,0,0.358-0.035,0.53-0.106
		c0.171-0.071,0.257-0.196,0.257-0.378c0-0.121-0.011-0.211-0.031-0.272l-7.257-21.136c-0.121-0.382-0.352-0.574-0.695-0.574
		c-0.383,0-0.801,0.035-1.255,0.106c-0.453,0.071-0.721,0.217-0.801,0.438l-7.287,21.166c-0.041,0.121-0.061,0.212-0.061,0.272
		c0,0.182,0.086,0.307,0.257,0.378c0.171,0.071,0.358,0.106,0.56,0.106c0.463,0,0.881-0.02,1.254-0.06
		c0.373-0.041,0.6-0.182,0.681-0.424l2.116-6.259h7.681l2.026,6.138C572.468,38.406,572.69,38.572,573.033,38.643 M542.031,38.235
		c0.282,0.101,0.554,0.151,0.816,0.151h11.4c0.08,0,0.151-0.06,0.211-0.181c0.061-0.121,0.111-0.272,0.151-0.454
		c0.041-0.181,0.071-0.372,0.091-0.574c0.02-0.201,0.03-0.383,0.03-0.544c0-0.202-0.07-0.363-0.211-0.484
		c-0.142-0.121-0.303-0.182-0.484-0.182h-9.706v-7.438h8.98c0.081,0,0.151-0.06,0.212-0.181c0.06-0.121,0.116-0.273,0.166-0.454
		s0.086-0.373,0.106-0.575c0.02-0.201,0.03-0.372,0.03-0.514c0-0.221-0.071-0.393-0.211-0.514c-0.142-0.121-0.313-0.181-0.514-0.181
		h-8.769v-7.045h9.918c0.08,0,0.151-0.061,0.211-0.182c0.061-0.121,0.111-0.272,0.151-0.453c0.041-0.182,0.071-0.373,0.091-0.575
		c0.02-0.201,0.03-0.382,0.03-0.544c0-0.222-0.07-0.388-0.211-0.499c-0.142-0.11-0.303-0.166-0.484-0.166h-11.702
		c-0.484,0-0.726,0.262-0.726,0.786v20.41C541.607,38.004,541.747,38.134,542.031,38.235 M531.672,19.352
		c0.726,0.212,1.315,0.559,1.769,1.043c0.453,0.484,0.776,1.114,0.967,1.89c0.192,0.776,0.288,1.719,0.288,2.827v4.778
		c0,1.108-0.096,2.051-0.288,2.827c-0.191,0.776-0.514,1.406-0.967,1.89c-0.454,0.483-1.043,0.831-1.769,1.043
		c-0.726,0.211-1.633,0.317-2.721,0.317h-4.143V19.035h4.143C530.039,19.035,530.945,19.14,531.672,19.352 M522.359,16.797
		c-0.181,0.121-0.272,0.323-0.272,0.605v20.44c0,0.162,0.136,0.292,0.408,0.393c0.272,0.101,0.549,0.151,0.832,0.151h5.624
		c1.451,0,2.711-0.136,3.779-0.408c1.069-0.272,1.955-0.726,2.661-1.361c0.705-0.635,1.229-1.471,1.572-2.509
		c0.343-1.038,0.515-2.323,0.515-3.856V24.78c0-1.532-0.172-2.817-0.515-3.856c-0.343-1.038-0.867-1.874-1.572-2.509
		c-0.706-0.635-1.592-1.094-2.661-1.376c-1.068-0.282-2.328-0.423-3.779-0.423h-5.987C522.742,16.616,522.54,16.676,522.359,16.797"
		/>
</g>
</svg>
