<?xml version="1.0" encoding="iso-8859-1"?>
<!-- Generator: Adobe Illustrator 29.5.1, SVG Export Plug-In . SVG Version: 9.03 Build 0)  -->
<svg version="1.1" id="Layer_1" xmlns="http://www.w3.org/2000/svg" xmlns:xlink="http://www.w3.org/1999/xlink" x="0px" y="0px"
	 viewBox="0 0 1000 144" style="enable-background:new 0 0 1000 144;" xml:space="preserve">
<g>
	<defs>
		<rect id="SVGID_1_" width="1000" height="144"/>
	</defs>
	<clipPath id="SVGID_00000095336810918276026440000009152269036430756250_">
		<use xlink:href="#SVGID_1_"  style="overflow:visible;"/>
	</clipPath>
	<path style="clip-path:url(#SVGID_00000095336810918276026440000009152269036430756250_);fill:#FFFFFF;" d="M414.759,115.025
		v11.825c0,0.397-0.133,0.706-0.443,0.927c-0.265,0.221-0.619,0.353-1.062,0.353c-0.265,0-0.664,0-1.106-0.044
		c-0.442-0.044-0.929-0.088-1.372-0.132c-0.442-0.045-0.841-0.177-1.195-0.309c-0.309-0.133-0.486-0.309-0.486-0.486v-12.09
		L398.74,94.903c-0.354-0.706-0.399-1.192-0.133-1.5c0.266-0.309,0.752-0.486,1.46-0.486c0.443,0,0.885,0,1.372,0.044
		c0.443,0,0.885,0.044,1.283,0.133c0.399,0.044,0.753,0.132,1.018,0.22c0.266,0.089,0.487,0.221,0.575,0.441l7.612,15.489
		l7.611-15.444c0.089-0.177,0.265-0.354,0.575-0.442c0.266-0.088,0.62-0.176,1.018-0.264c0.398-0.045,0.841-0.089,1.283-0.133
		c0.443,0,0.93-0.044,1.372-0.044c0.708,0,1.195,0.132,1.461,0.441c0.221,0.309,0.177,0.795-0.178,1.545L414.759,115.025z
		 M384.491,98.521v28.329c0,0.397-0.133,0.706-0.443,0.927c-0.31,0.221-0.619,0.353-1.018,0.353c-0.265,0-0.663,0-1.15-0.044
		c-0.487-0.044-0.974-0.088-1.416-0.132c-0.443-0.045-0.841-0.177-1.151-0.309c-0.354-0.133-0.486-0.309-0.486-0.486V98.565h-8.762
		c-0.354,0-0.62-0.132-0.885-0.397c-0.222-0.265-0.354-0.573-0.354-0.971c0-0.265,0-0.573,0.044-1.015
		c0.044-0.397,0.088-0.838,0.133-1.235c0.044-0.397,0.177-0.75,0.265-1.059c0.133-0.265,0.266-0.441,0.487-0.441h23.453
		c0.354,0,0.62,0.132,0.885,0.397c0.222,0.265,0.354,0.617,0.354,0.971c0,0.264,0,0.573-0.044,1.014
		c-0.044,0.442-0.088,0.839-0.133,1.236c-0.044,0.397-0.132,0.75-0.265,1.015s-0.266,0.441-0.487,0.441H384.491z M364.046,126.85
		c0,0.397-0.132,0.706-0.442,0.927c-0.266,0.221-0.62,0.353-1.062,0.353c-0.266,0-0.664,0-1.151-0.044
		c-0.486-0.044-0.929-0.088-1.416-0.132c-0.442-0.045-0.84-0.177-1.195-0.309c-0.309-0.133-0.486-0.309-0.486-0.486V93.932
		c0-0.177,0.177-0.353,0.486-0.486c0.355-0.132,0.753-0.264,1.195-0.308c0.443-0.044,0.93-0.133,1.416-0.133
		c0.487-0.044,0.841-0.044,1.151-0.044c0.398,0,0.752,0.133,1.062,0.397c0.265,0.265,0.442,0.574,0.442,0.927V126.85z
		 M332.141,122.305c0.265,0.044,0.62,0.177,1.151,0.265c0.531,0.132,1.106,0.265,1.814,0.397c0.664,0.133,1.416,0.221,2.257,0.353
		c0.796,0.088,1.637,0.133,2.434,0.133c0.885,0,1.725-0.089,2.522-0.221c0.796-0.132,1.549-0.397,2.168-0.706
		c0.62-0.353,1.151-0.794,1.505-1.324c0.398-0.574,0.575-1.235,0.575-2.074c0-1.147-0.354-2.118-1.106-2.912
		c-0.753-0.794-1.682-1.545-2.788-2.251c-1.106-0.706-2.345-1.412-3.673-2.118s-2.522-1.544-3.673-2.471
		c-1.15-0.926-2.08-2.03-2.788-3.309c-0.752-1.28-1.106-2.824-1.106-4.678c0-1.544,0.265-2.868,0.841-3.927
		c0.575-1.059,1.327-1.941,2.301-2.647c0.973-0.662,2.168-1.192,3.496-1.501c1.371-0.309,2.876-0.485,4.513-0.485
		c0.354,0,0.885,0,1.593,0.044s1.461,0.088,2.257,0.176c0.797,0.089,1.593,0.177,2.346,0.309c0.796,0.133,1.416,0.309,1.858,0.53
		c0.443,0.176,0.708,0.397,0.797,0.618c0.088,0.22,0.088,0.573,0.044,1.103c-0.044,0.838-0.221,1.5-0.531,2.074
		c-0.266,0.573-0.664,0.794-1.195,0.706c-0.796-0.177-1.681-0.309-2.699-0.486c-1.018-0.132-2.169-0.22-3.408-0.22
		c-1.947,0-3.584,0.309-4.823,0.838c-1.239,0.574-1.859,1.5-1.859,2.824c0,1.059,0.355,1.942,1.107,2.692
		c0.752,0.75,1.681,1.456,2.788,2.118c1.106,0.662,2.345,1.368,3.672,2.074c1.328,0.706,2.523,1.544,3.673,2.515
		c1.107,0.971,2.08,2.118,2.788,3.442c0.752,1.324,1.106,3.001,1.106,4.898c0,1.809-0.354,3.31-1.017,4.457
		c-0.664,1.191-1.593,2.074-2.7,2.736c-1.106,0.662-2.434,1.103-3.894,1.368c-1.46,0.264-3.009,0.397-4.602,0.397
		c-0.708,0-1.505-0.044-2.301-0.088c-0.797-0.045-1.549-0.133-2.345-0.221c-0.753-0.088-1.461-0.221-2.169-0.353
		c-0.664-0.133-1.239-0.265-1.726-0.441c-0.486-0.177-0.752-0.353-0.84-0.53c-0.089-0.221-0.133-0.574-0.045-1.059
		c0.089-0.927,0.266-1.721,0.531-2.339C331.344,122.482,331.698,122.173,332.141,122.305 M313.953,98.477h-6.593v11.429h6.593
		c1.284,0,2.346-0.089,3.098-0.221c0.797-0.132,1.372-0.397,1.814-0.794c0.443-0.397,0.709-0.883,0.841-1.545
		c0.133-0.661,0.221-1.544,0.221-2.603v-1.059c0-1.059-0.088-1.942-0.221-2.648c-0.132-0.661-0.442-1.191-0.841-1.588
		c-0.442-0.397-1.017-0.618-1.814-0.795C316.255,98.565,315.237,98.477,313.953,98.477 M301.652,127.115V94.638
		c0-0.353,0.132-0.618,0.442-0.883c0.31-0.22,0.62-0.352,1.062-0.352h10.488c2.168,0,4.027,0.176,5.575,0.485
		c1.549,0.309,2.788,0.882,3.762,1.677c0.973,0.794,1.681,1.853,2.124,3.177c0.443,1.324,0.664,2.956,0.664,4.986v1.059
		c0,1.5-0.133,2.78-0.354,3.883c-0.222,1.103-0.62,2.074-1.107,2.869c-0.486,0.794-1.194,1.412-2.035,1.897
		s-1.859,0.838-3.009,1.103l6.593,11.385c0.354,0.617,0.531,1.059,0.531,1.368c0,0.176-0.088,0.353-0.221,0.485
		c-0.177,0.132-0.354,0.221-0.531,0.265c-0.177,0.044-0.398,0.088-0.575,0.132c-0.222,0-0.354,0.044-0.443,0.044
		c-0.265,0-0.664,0-1.106-0.044c-0.443-0.044-0.885-0.088-1.328-0.176c-0.442-0.089-0.885-0.177-1.239-0.353
		c-0.354-0.177-0.619-0.398-0.796-0.662l-6.992-11.914h-5.841v11.914c0,0.397-0.133,0.662-0.443,0.882
		c-0.265,0.221-0.619,0.353-1.018,0.353c-0.265,0-0.663,0-1.15-0.044c-0.487-0.044-0.929-0.088-1.416-0.132
		c-0.443-0.044-0.841-0.177-1.195-0.309C301.829,127.468,301.652,127.336,301.652,127.115 M273.773,126.586V94.638
		c0-0.397,0.133-0.706,0.443-0.927c0.265-0.22,0.619-0.308,1.062-0.308h19.072c0.354,0,0.664,0.132,0.885,0.441
		c0.221,0.265,0.354,0.617,0.354,0.971c0,0.264,0,0.573-0.044,1.014c-0.044,0.442-0.089,0.839-0.133,1.236
		c-0.044,0.397-0.177,0.75-0.265,1.015c-0.133,0.265-0.31,0.441-0.487,0.441h-15.134v9.178h12.966c0.309,0,0.575,0.133,0.84,0.397
		c0.222,0.265,0.354,0.574,0.354,0.927c0,0.265,0,0.574-0.044,1.015c-0.044,0.441-0.088,0.838-0.133,1.236
		c-0.044,0.397-0.177,0.75-0.265,1.059c-0.133,0.264-0.266,0.441-0.487,0.441h-13.275v9.708h14.824c0.354,0,0.664,0.132,0.885,0.397
		c0.221,0.265,0.354,0.574,0.354,0.971c0,0.264,0,0.573-0.044,1.015c-0.045,0.397-0.089,0.838-0.133,1.235
		c-0.044,0.397-0.177,0.75-0.266,1.059c-0.132,0.309-0.309,0.441-0.486,0.441h-18.675c-0.442,0-0.929-0.088-1.416-0.309
		C273.994,127.027,273.773,126.806,273.773,126.586 M256.338,118.466l7.169-24.578c0.442-0.442,0.973-0.706,1.548-0.839
		c0.576-0.088,1.239-0.176,2.036-0.176c0.31,0,0.664,0,0.974,0.044c0.353,0.044,0.619,0.088,0.84,0.221
		c0.222,0.132,0.399,0.265,0.531,0.485c0.133,0.221,0.089,0.486,0,0.883l-11.018,32.874c-0.045,0.265-0.222,0.441-0.487,0.574
		c-0.266,0.132-0.531,0.176-0.841,0.176c-1.062,0-1.947-0.044-2.655-0.176c-0.708-0.133-1.151-0.309-1.328-0.53l-10.974-32.918
		c-0.088-0.309-0.088-0.574,0-0.795c0.089-0.22,0.221-0.353,0.442-0.485c0.178-0.132,0.399-0.221,0.664-0.265
		c0.222-0.044,0.443-0.088,0.576-0.088c0.486,0,0.973,0,1.46,0.044s0.929,0.088,1.372,0.177c0.398,0.088,0.752,0.22,1.062,0.352
		c0.265,0.177,0.487,0.354,0.575,0.618l7.346,24.358c0.133,0.397,0.221,0.794,0.265,1.192c0.045,0.441,0.089,0.794,0.177,1.147
		c0.045-0.353,0.089-0.75,0.133-1.147C256.117,119.216,256.205,118.819,256.338,118.466 M237.929,126.85
		c0,0.397-0.133,0.706-0.442,0.927c-0.266,0.221-0.62,0.353-1.062,0.353c-0.266,0-0.664,0-1.151-0.044
		c-0.487-0.044-0.929-0.088-1.416-0.132c-0.442-0.045-0.841-0.177-1.195-0.309c-0.354-0.133-0.487-0.309-0.487-0.486V93.932
		c0-0.177,0.177-0.353,0.487-0.486c0.354-0.132,0.708-0.264,1.195-0.308c0.442-0.044,0.929-0.133,1.416-0.133
		c0.487-0.044,0.841-0.044,1.151-0.044c0.398,0,0.752,0.133,1.062,0.397c0.265,0.265,0.442,0.574,0.442,0.927V126.85z
		 M220.494,117.584V93.755c0-0.176,0.177-0.352,0.531-0.441c0.354-0.132,0.752-0.22,1.239-0.265c0.487-0.044,0.974-0.088,1.46-0.132
		c0.487-0.044,0.885-0.044,1.151-0.044c0.841,0,1.239,0.485,1.239,1.412v32.565c0,0.397-0.133,0.662-0.442,0.883
		c-0.31,0.221-0.62,0.353-0.974,0.353c-0.266,0-0.575,0-1.018-0.044c-0.442-0.044-0.841-0.044-1.283-0.133
		c-0.443-0.088-0.797-0.176-1.151-0.264c-0.354-0.133-0.575-0.265-0.708-0.442l-15.444-23.696v23.343
		c0,0.397-0.132,0.706-0.442,0.927c-0.266,0.221-0.62,0.353-1.018,0.353c-0.265,0-0.664,0-1.15-0.044
		c-0.487-0.044-0.974-0.088-1.417-0.132c-0.442-0.045-0.84-0.177-1.15-0.309c-0.354-0.133-0.487-0.309-0.487-0.486V93.932
		c0-0.177,0.177-0.353,0.487-0.485c0.354-0.133,0.708-0.265,1.15-0.309c0.443-0.044,0.886-0.089,1.372-0.133
		c0.487-0.044,0.841-0.044,1.151-0.044c0.354,0,0.664,0.088,0.885,0.309c0.221,0.221,0.442,0.441,0.575,0.706L220.494,117.584z
		 M187.571,115.466V94.02c0-0.176,0.177-0.353,0.486-0.485c0.355-0.132,0.753-0.265,1.195-0.353
		c0.487-0.088,0.974-0.177,1.416-0.221c0.487-0.044,0.841-0.088,1.151-0.088c0.398,0,0.752,0.132,1.018,0.441
		c0.265,0.309,0.398,0.618,0.398,0.971v21.446c0,2.338-0.266,4.28-0.797,5.868c-0.531,1.589-1.283,2.824-2.345,3.839
		c-1.062,0.971-2.389,1.677-3.983,2.074c-1.593,0.397-3.495,0.618-5.62,0.618h-0.398c-2.08,0-3.938-0.221-5.487-0.618
		c-1.593-0.397-2.876-1.103-3.938-2.074c-1.062-0.97-1.815-2.25-2.346-3.839c-0.531-1.544-0.796-3.53-0.796-5.868V94.02
		c0-0.176,0.177-0.353,0.486-0.485c0.355-0.132,0.708-0.265,1.195-0.353c0.443-0.088,0.93-0.177,1.416-0.221
		c0.487-0.044,0.885-0.088,1.151-0.088c0.398,0,0.708,0.132,1.018,0.441c0.265,0.309,0.442,0.618,0.442,0.971v21.137
		c0,1.367,0.089,2.515,0.31,3.486c0.221,0.97,0.575,1.765,1.106,2.338c0.531,0.618,1.239,1.059,2.124,1.324s1.992,0.441,3.319,0.441
		h0.398c1.372,0,2.479-0.132,3.408-0.441c0.885-0.309,1.637-0.75,2.168-1.324c0.531-0.618,0.93-1.368,1.151-2.338
		C187.482,117.981,187.571,116.834,187.571,115.466 M393.474,38.244v40.994h-11.329V16.622h15.798l15.179,38.567V16.622h11.505
		v62.616h-14.426L393.474,38.244z M360.949,16.622h12.745v62.615h-12.745V16.622z M312.051,16.622h13.098v27.226l16.329-27.226
		h13.674l-18.143,28.815l18.143,33.845h-15.179l-14.824-30.447v30.447h-13.098V16.622z M290.721,65.338H272.49l-3.319,13.944
		h-13.143l17.701-62.66h16.727l17.435,62.66h-13.762L290.721,65.338z M288.11,54.439l-6.283-25.903l-6.594,25.903H288.11z
		 M217.928,16.622h33.94v10.635h-20.665v13.37h19.028v10.899h-19.028v16.68h20.71v11.032h-33.985V16.622z M189.12,16.622
		c16.771,0,21.948,8.87,21.948,31.33c0,22.461-5.221,31.33-21.993,31.33h-21.506v-62.66H189.12z M180.756,68.471h5.974
		c9.78,0,11.019-5.736,11.019-20.74c0-14.958-1.239-20.695-11.019-20.695h-5.974V68.471z"/>
	<path style="clip-path:url(#SVGID_00000095336810918276026440000009152269036430756250_);fill:#FFFFFF;" d="M71.713,1.288
		C32.549,1.288,0.799,32.947,0.799,72s31.749,70.712,70.913,70.712S142.625,111.053,142.625,72S110.877,1.288,71.713,1.288"/>
	<path style="clip-path:url(#SVGID_00000095336810918276026440000009152269036430756250_);fill:#FFFFFF;" d="M71.713,2.968
		c38.175,0,69.233,30.968,69.233,69.032s-31.058,69.032-69.233,69.032S2.479,110.064,2.479,72S33.538,2.968,71.713,2.968"/>
	<path style="clip-path:url(#SVGID_00000095336810918276026440000009152269036430756250_);" d="M95.076,94.204L68.262,47.816
		l3.533-5.928l30.099,52.316H95.076z M82.396,94.204L61.86,58.843l3.45-5.804l23.655,41.165H82.396z M69.509,94.204L55.416,69.953
		l3.575-6.011l17.336,30.22h-6.818V94.204z M56.539,94.204l-7.567-13.1l3.576-6.011l10.933,19.111H56.539z M41.365,94.204
		l4.614-7.877l4.615,7.877H41.365z M35.503,36.416V85.83c0,19.94,16.213,36.107,36.209,36.107c19.997,0,36.21-16.167,36.21-36.107
		V36.416H35.503z"/>
</g>
<rect x="471.959" y="16.622" style="fill:#FFFFFF;" width="2" height="110.978"/>
<g>
	<defs>
		<rect id="SVGID_00000036960020802024305600000002184532391185414553_" width="1000" height="144"/>
	</defs>
	<clipPath id="SVGID_00000063621367375558796090000011362387744565696151_">
		<use xlink:href="#SVGID_00000036960020802024305600000002184532391185414553_"  style="overflow:visible;"/>
	</clipPath>
	<path style="clip-path:url(#SVGID_00000063621367375558796090000011362387744565696151_);fill:#FFFFFF;" d="M739.952,51.429v32.876
		h18.294V79.17h-11.425v-9.513h10.203v-5.068h-10.203v-8.091h11.07v-5.069H739.952z M722.133,56.498h1.467
		c2.09,0,3.453,0.333,4.09,1s0.956,1.815,0.956,3.445c0,1.645-0.322,2.838-0.967,3.579c-0.644,0.741-1.96,1.111-3.945,1.111h-1.601
		V56.498z M715.22,51.429v32.876h6.913V70.701h1.334c2.059,0,3.46,0.353,4.201,1.056c0.741,0.704,1.111,2.005,1.111,3.901v5.046
		c0,0.889,0.052,1.545,0.156,1.967c0.104,0.423,0.296,0.967,0.578,1.634h6.735c-0.148-0.444-0.255-1.03-0.322-1.756
		c-0.067-0.726-0.122-1.489-0.167-2.289l-0.333-5.646c-0.134-2.119-0.604-3.653-1.412-4.602c-0.808-0.948-2.293-1.57-4.457-1.867
		c2.031-0.385,3.531-1.23,4.502-2.534c0.97-1.304,1.456-3.126,1.456-5.468c0-2.964-0.727-5.157-2.179-6.58
		c-1.452-1.422-3.682-2.134-6.69-2.134H715.22z M690.059,51.429v5.335h7.558v27.541h6.98V56.764h7.646v-5.335H690.059z
		 M662.549,51.429v32.876h6.38V60.276l9.002,24.029h9.025V51.429h-6.38v22.762l-8.78-22.762H662.549z M640.559,51.429v32.876h18.294
		V79.17h-11.426v-9.513h10.203v-5.068h-10.203v-8.091h11.07v-5.069H640.559z M636.55,60.81c0-3.393-0.811-5.887-2.434-7.48
		c-1.623-1.593-3.998-2.39-7.124-2.39c-2.668,0-4.79,0.442-6.369,1.323c-1.578,0.882-2.704,2.071-3.378,3.568
		c-0.675,1.497-1.108,3.119-1.301,4.868c-0.192,1.748-0.289,4.156-0.289,7.224c0,3.897,0.182,6.743,0.545,8.536
		c0.363,1.793,0.919,3.267,1.667,4.423s1.834,2.075,3.257,2.756c1.422,0.682,3.267,1.023,5.534,1.023
		c3.483,0,6.061-0.874,7.736-2.623c1.674-1.749,2.512-4.364,2.512-7.847v-0.956h-6.78v0.378c0,2.12-0.3,3.665-0.9,4.635
		c-0.6,0.971-1.486,1.456-2.656,1.456c-1.394,0-2.387-0.634-2.979-1.901c-0.593-1.267-0.919-2.867-0.978-4.801
		c-0.06-1.934-0.089-3.479-0.089-4.635c0-3.437,0.089-5.89,0.267-7.357c0.178-1.467,0.544-2.679,1.1-3.634
		c0.556-0.956,1.434-1.434,2.634-1.434c1.052,0,1.863,0.411,2.434,1.233c0.57,0.823,0.856,2.16,0.856,4.013v0.622h6.735V60.81z
		 M584.272,51.429v32.876h18.294V79.17h-11.425v-9.513h10.203v-5.068h-10.203v-8.091h11.07v-5.069H584.272z M547.092,51.429v32.876
		h6.513V58.943l6.09,25.362h6.557l6.424-25.362v25.362h6.691V51.429h-10.692l-5.512,22.362l-5.202-22.362H547.092z M540.539,82.538
		c1.852-1.578,2.779-3.946,2.779-7.102c0-2.06-0.401-3.686-1.201-4.879c-0.8-1.193-2.089-2.345-3.867-3.457l-6.647-4.245
		c-0.726-0.459-1.256-0.986-1.589-1.578c-0.334-0.593-0.5-1.23-0.5-1.912c0-1.111,0.3-1.997,0.9-2.656
		c0.6-0.66,1.411-0.989,2.434-0.989c2.208,0,3.312,1.422,3.312,4.267v0.778h6.735v-1.133c0-3.171-0.811-5.42-2.434-6.747
		c-1.622-1.326-3.982-1.989-7.079-1.989c-3.468,0-6.147,0.76-8.036,2.278c-1.889,1.52-2.834,3.672-2.834,6.458
		c0,2.06,0.385,3.76,1.156,5.101c0.77,1.341,2.445,2.812,5.023,4.412l5.446,3.335c0.741,0.459,1.301,0.993,1.678,1.6
		c0.378,0.608,0.567,1.349,0.567,2.223c0,1.156-0.315,2.049-0.944,2.678c-0.63,0.631-1.531,0.945-2.701,0.945
		c-1.378,0-2.342-0.407-2.89-1.222c-0.548-0.815-0.822-2.045-0.822-3.69v-0.867h-6.98v2.045c0,2.889,0.845,5.064,2.534,6.524
		c1.689,1.46,4.171,2.189,7.447,2.189C535.849,84.905,538.686,84.116,540.539,82.538"/>
	<path style="clip-path:url(#SVGID_00000063621367375558796090000011362387744565696151_);fill:#FFFFFF;" d="M661.496,16.798
		c-0.101-0.141-0.212-0.262-0.333-0.363c-0.121-0.101-0.262-0.151-0.423-0.151c-0.181,0-0.378,0.01-0.59,0.03
		c-0.211,0.02-0.418,0.056-0.619,0.106c-0.202,0.05-0.369,0.111-0.499,0.181c-0.132,0.071-0.197,0.147-0.197,0.227v21.408
		c0,0.101,0.07,0.181,0.212,0.242c0.141,0.06,0.312,0.11,0.514,0.151c0.201,0.04,0.413,0.07,0.635,0.09
		c0.221,0.02,0.413,0.031,0.574,0.031c0.222,0,0.398-0.081,0.529-0.242c0.131-0.161,0.197-0.353,0.197-0.575V21.394l10.855,16.872
		c0.061,0.081,0.166,0.151,0.318,0.212c0.151,0.06,0.327,0.11,0.529,0.151c0.201,0.04,0.403,0.07,0.604,0.09
		c0.202,0.02,0.373,0.031,0.514,0.031c0.202,0,0.368-0.076,0.499-0.227s0.197-0.337,0.197-0.559V17.13
		c0-0.242-0.045-0.443-0.136-0.605c-0.091-0.161-0.247-0.241-0.469-0.241c-0.181,0-0.393,0.01-0.635,0.03
		c-0.242,0.02-0.468,0.05-0.68,0.091c-0.212,0.04-0.388,0.09-0.529,0.151c-0.142,0.06-0.212,0.131-0.212,0.211V33.7L661.496,16.798z
		 M654.345,17.1c0-0.222-0.065-0.413-0.196-0.575c-0.132-0.161-0.308-0.241-0.529-0.241c-0.182,0-0.384,0.01-0.605,0.03
		c-0.222,0.02-0.439,0.056-0.65,0.106c-0.212,0.05-0.389,0.111-0.529,0.181c-0.142,0.071-0.212,0.147-0.212,0.227v21.408
		c0,0.101,0.07,0.181,0.212,0.242c0.14,0.06,0.317,0.11,0.529,0.151c0.211,0.04,0.428,0.07,0.65,0.09
		c0.221,0.02,0.423,0.031,0.605,0.031c0.221,0,0.397-0.081,0.529-0.242c0.131-0.161,0.196-0.353,0.196-0.575V17.1z M635.187,27.35
		l10.069,10.855c0.222,0.242,0.534,0.394,0.937,0.454s0.837,0.091,1.301,0.091c0.14,0,0.302-0.021,0.483-0.061
		c0.182-0.04,0.273-0.161,0.273-0.363c0-0.221-0.162-0.503-0.484-0.846l-9.706-10.432l8.859-9.494
		c0.343-0.363,0.514-0.645,0.514-0.847c0-0.201-0.091-0.322-0.272-0.363c-0.181-0.04-0.353-0.06-0.514-0.06
		c-0.444,0-0.872,0.03-1.285,0.09c-0.413,0.061-0.731,0.212-0.953,0.454l-9.222,9.948V17.1c0-0.222-0.066-0.413-0.196-0.575
		c-0.132-0.161-0.308-0.241-0.53-0.241c-0.181,0-0.383,0.01-0.604,0.03c-0.222,0.02-0.439,0.056-0.65,0.106
		c-0.212,0.05-0.389,0.111-0.53,0.181c-0.141,0.071-0.211,0.147-0.211,0.227v21.408c0,0.101,0.07,0.181,0.211,0.242
		c0.141,0.06,0.318,0.11,0.53,0.151c0.211,0.04,0.428,0.07,0.65,0.09c0.221,0.02,0.423,0.031,0.604,0.031
		c0.222,0,0.398-0.081,0.53-0.242c0.13-0.161,0.196-0.353,0.196-0.575V27.35z M620.247,20.305c0.02-0.201,0.05-0.383,0.091-0.544
		c0,0.101,0.025,0.282,0.075,0.544c0.051,0.262,0.096,0.444,0.137,0.544l2.902,8.799h-6.259l2.933-8.799
		C620.187,20.688,620.227,20.507,620.247,20.305 M626.869,38.644c0.343,0.07,0.796,0.106,1.361,0.106
		c0.181,0,0.357-0.036,0.529-0.106c0.171-0.071,0.257-0.197,0.257-0.378c0-0.121-0.01-0.212-0.03-0.272l-7.257-21.136
		c-0.121-0.383-0.353-0.574-0.696-0.574c-0.383,0-0.801,0.035-1.254,0.105c-0.454,0.071-0.721,0.217-0.802,0.439l-7.287,21.166
		c-0.041,0.121-0.06,0.211-0.06,0.272c0,0.181,0.085,0.307,0.257,0.378c0.171,0.07,0.357,0.106,0.559,0.106
		c0.464,0,0.882-0.021,1.255-0.061c0.373-0.04,0.599-0.181,0.68-0.423l2.117-6.259h7.68l2.026,6.138
		C626.305,38.407,626.526,38.573,626.869,38.644 M595.867,38.236c0.282,0.101,0.554,0.151,0.817,0.151h11.399
		c0.08,0,0.151-0.061,0.212-0.182c0.06-0.12,0.11-0.272,0.151-0.453c0.04-0.182,0.07-0.373,0.09-0.575
		c0.02-0.201,0.031-0.382,0.031-0.544c0-0.201-0.071-0.363-0.212-0.484c-0.141-0.121-0.302-0.181-0.484-0.181h-9.706V28.53h8.981
		c0.08,0,0.151-0.061,0.211-0.182c0.061-0.121,0.116-0.272,0.167-0.453c0.05-0.182,0.085-0.373,0.105-0.575
		c0.02-0.201,0.031-0.373,0.031-0.514c0-0.221-0.071-0.393-0.212-0.514c-0.141-0.121-0.313-0.181-0.514-0.181h-8.769v-7.046h9.918
		c0.08,0,0.151-0.06,0.212-0.181c0.06-0.121,0.11-0.272,0.151-0.454c0.04-0.181,0.07-0.372,0.09-0.574
		c0.02-0.201,0.031-0.383,0.031-0.544c0-0.222-0.071-0.388-0.212-0.499s-0.302-0.167-0.484-0.167H596.17
		c-0.484,0-0.726,0.263-0.726,0.787v20.41C595.444,38.004,595.585,38.135,595.867,38.236 M585.508,19.353
		c0.726,0.211,1.316,0.559,1.769,1.043c0.454,0.484,0.776,1.114,0.968,1.89c0.191,0.776,0.287,1.718,0.287,2.827v4.777
		c0,1.109-0.096,2.052-0.287,2.827c-0.192,0.777-0.514,1.406-0.968,1.89c-0.453,0.484-1.043,0.832-1.769,1.043
		c-0.725,0.212-1.632,0.318-2.721,0.318h-4.142V19.035h4.142C583.876,19.035,584.783,19.141,585.508,19.353 M576.195,16.798
		c-0.181,0.121-0.272,0.322-0.272,0.604v20.441c0,0.161,0.136,0.292,0.408,0.393c0.273,0.101,0.549,0.151,0.832,0.151h5.624
		c1.451,0,2.711-0.136,3.78-0.408c1.068-0.272,1.955-0.726,2.66-1.361c0.706-0.635,1.23-1.471,1.573-2.51
		c0.342-1.038,0.514-2.323,0.514-3.855V24.78c0-1.531-0.172-2.817-0.514-3.855c-0.343-1.038-0.867-1.875-1.573-2.51
		c-0.705-0.635-1.592-1.093-2.66-1.375c-1.069-0.283-2.329-0.424-3.78-0.424H576.8C576.578,16.616,576.377,16.677,576.195,16.798
		 M571.738,30.508c0.081-0.133,0.141-0.296,0.182-0.49c0.04-0.194,0.065-0.393,0.075-0.597s0.016-0.378,0.016-0.521
		c0-0.163-0.046-0.306-0.137-0.429c-0.09-0.122-0.226-0.183-0.408-0.183h-6.924c-0.141,0-0.252,0.066-0.333,0.199
		c-0.08,0.133-0.141,0.296-0.181,0.49c-0.041,0.194-0.066,0.393-0.076,0.597s-0.015,0.378-0.015,0.52
		c0,0.164,0.046,0.307,0.136,0.429c0.091,0.123,0.217,0.184,0.378,0.184h6.955C571.547,30.707,571.658,30.641,571.738,30.508
		 M553.288,20.305c0.02-0.201,0.05-0.383,0.091-0.544c0,0.101,0.025,0.282,0.075,0.544s0.096,0.444,0.136,0.544l2.903,8.799h-6.259
		l2.933-8.799C553.227,20.688,553.268,20.507,553.288,20.305 M559.91,38.644c0.342,0.07,0.796,0.106,1.361,0.106
		c0.181,0,0.357-0.036,0.529-0.106c0.171-0.071,0.257-0.197,0.257-0.378c0-0.121-0.011-0.212-0.031-0.272l-7.256-21.136
		c-0.121-0.383-0.353-0.574-0.696-0.574c-0.383,0-0.801,0.035-1.255,0.105c-0.453,0.071-0.721,0.217-0.801,0.439l-7.287,21.166
		c-0.041,0.121-0.061,0.211-0.061,0.272c0,0.181,0.086,0.307,0.257,0.378c0.171,0.07,0.358,0.106,0.56,0.106
		c0.463,0,0.881-0.021,1.255-0.061c0.372-0.04,0.599-0.181,0.68-0.423l2.117-6.259h7.68l2.026,6.138
		C559.345,38.407,559.567,38.573,559.91,38.644 M538.762,19.232c0.585,0.111,1.043,0.312,1.376,0.604
		c0.332,0.293,0.564,0.696,0.695,1.21c0.131,0.514,0.197,1.164,0.197,1.95v0.514c0,0.786-0.066,1.437-0.197,1.951
		c-0.131,0.514-0.363,0.917-0.695,1.209c-0.333,0.292-0.791,0.494-1.376,0.605c-0.585,0.111-1.33,0.166-2.237,0.166h-4.536v-8.376
		h4.536C537.432,19.065,538.177,19.121,538.762,19.232 M529.494,38.447c0.152,0.061,0.333,0.116,0.545,0.167
		c0.211,0.05,0.428,0.085,0.65,0.105c0.221,0.02,0.413,0.031,0.574,0.031c0.222,0,0.398-0.076,0.529-0.227s0.197-0.337,0.197-0.559
		V29.86h4.536c1.35,0,2.489-0.095,3.416-0.287s1.679-0.529,2.253-1.013c0.575-0.484,0.987-1.134,1.24-1.95
		c0.252-0.817,0.378-1.85,0.378-3.1v-0.514c0-1.209-0.121-2.222-0.363-3.039c-0.242-0.816-0.646-1.466-1.21-1.95
		c-0.564-0.484-1.315-0.831-2.252-1.043c-0.938-0.212-2.092-0.318-3.462-0.318h-6.501c-0.222,0-0.404,0.046-0.545,0.137
		c-0.141,0.09-0.211,0.307-0.211,0.65v20.772C529.268,38.307,529.343,38.387,529.494,38.447 M524.808,17.1
		c0-0.222-0.066-0.413-0.197-0.575c-0.131-0.161-0.307-0.241-0.529-0.241c-0.181,0-0.383,0.01-0.604,0.03
		c-0.222,0.02-0.439,0.056-0.651,0.106c-0.211,0.05-0.388,0.111-0.529,0.181c-0.141,0.071-0.211,0.147-0.211,0.227v21.408
		c0,0.101,0.07,0.181,0.211,0.242c0.141,0.06,0.318,0.11,0.529,0.151c0.212,0.04,0.429,0.07,0.651,0.09
		c0.221,0.02,0.423,0.031,0.604,0.031c0.222,0,0.398-0.081,0.529-0.242c0.131-0.161,0.197-0.353,0.197-0.575V17.1z"/>
</g>
</svg>
