<?xml version="1.0" encoding="iso-8859-1"?>
<!-- Generator: Adobe Illustrator 29.5.1, SVG Export Plug-In . SVG Version: 9.03 Build 0)  -->
<svg version="1.1" id="Layer_1" xmlns="http://www.w3.org/2000/svg" xmlns:xlink="http://www.w3.org/1999/xlink" x="0px" y="0px"
	 viewBox="0 0 1000 144" style="enable-background:new 0 0 1000 144;" xml:space="preserve">
<g>
	<defs>
		<rect id="SVGID_1_" width="1000" height="144"/>
	</defs>
	<clipPath id="SVGID_00000080204260323416691490000005814420823004084360_">
		<use xlink:href="#SVGID_1_"  style="overflow:visible;"/>
	</clipPath>
	<path style="clip-path:url(#SVGID_00000080204260323416691490000005814420823004084360_);fill:#FFFFFF;" d="M414.759,115.025
		v11.825c0,0.397-0.133,0.706-0.443,0.927c-0.265,0.221-0.619,0.353-1.062,0.353c-0.265,0-0.664,0-1.106-0.044
		c-0.442-0.044-0.929-0.088-1.372-0.132c-0.442-0.045-0.841-0.177-1.195-0.309c-0.309-0.133-0.486-0.309-0.486-0.486v-12.09
		L398.74,94.903c-0.354-0.706-0.399-1.192-0.133-1.5c0.266-0.309,0.752-0.486,1.46-0.486c0.443,0,0.885,0,1.372,0.044
		c0.443,0,0.885,0.044,1.283,0.133c0.399,0.044,0.753,0.132,1.018,0.22c0.266,0.089,0.487,0.221,0.575,0.441l7.612,15.489
		l7.611-15.444c0.089-0.177,0.265-0.354,0.575-0.442c0.266-0.088,0.62-0.176,1.018-0.264c0.398-0.045,0.841-0.089,1.283-0.133
		c0.443,0,0.93-0.044,1.372-0.044c0.708,0,1.195,0.132,1.461,0.441c0.221,0.309,0.177,0.795-0.178,1.545L414.759,115.025z
		 M384.491,98.521v28.329c0,0.397-0.133,0.706-0.443,0.927c-0.31,0.221-0.619,0.353-1.018,0.353c-0.265,0-0.663,0-1.15-0.044
		c-0.487-0.044-0.974-0.088-1.416-0.132c-0.443-0.045-0.841-0.177-1.151-0.309c-0.354-0.133-0.486-0.309-0.486-0.486V98.565h-8.762
		c-0.354,0-0.62-0.132-0.885-0.397c-0.222-0.265-0.354-0.573-0.354-0.971c0-0.265,0-0.573,0.044-1.015
		c0.044-0.397,0.088-0.838,0.133-1.235c0.044-0.397,0.177-0.75,0.265-1.059c0.133-0.265,0.266-0.441,0.487-0.441h23.453
		c0.354,0,0.62,0.132,0.885,0.397c0.222,0.265,0.354,0.617,0.354,0.971c0,0.264,0,0.573-0.044,1.014
		c-0.044,0.442-0.088,0.839-0.133,1.236c-0.044,0.397-0.132,0.75-0.265,1.015s-0.266,0.441-0.487,0.441H384.491z M364.046,126.85
		c0,0.397-0.132,0.706-0.442,0.927c-0.266,0.221-0.62,0.353-1.062,0.353c-0.266,0-0.664,0-1.151-0.044
		c-0.486-0.044-0.929-0.088-1.416-0.132c-0.442-0.045-0.84-0.177-1.195-0.309c-0.309-0.133-0.486-0.309-0.486-0.486V93.932
		c0-0.177,0.177-0.353,0.486-0.486c0.355-0.132,0.753-0.264,1.195-0.308c0.443-0.044,0.93-0.133,1.416-0.133
		c0.487-0.044,0.841-0.044,1.151-0.044c0.398,0,0.752,0.133,1.062,0.397c0.265,0.265,0.442,0.574,0.442,0.927V126.85z
		 M332.141,122.305c0.265,0.044,0.62,0.177,1.151,0.265c0.531,0.132,1.106,0.265,1.814,0.397c0.664,0.133,1.416,0.221,2.257,0.353
		c0.796,0.088,1.637,0.133,2.434,0.133c0.885,0,1.725-0.089,2.522-0.221c0.796-0.132,1.549-0.397,2.168-0.706
		c0.62-0.353,1.151-0.794,1.505-1.324c0.398-0.574,0.575-1.235,0.575-2.074c0-1.147-0.354-2.118-1.106-2.912
		c-0.753-0.794-1.682-1.545-2.788-2.251c-1.106-0.706-2.345-1.412-3.673-2.118s-2.522-1.544-3.673-2.471
		c-1.15-0.926-2.08-2.03-2.788-3.309c-0.752-1.28-1.106-2.824-1.106-4.678c0-1.544,0.265-2.868,0.841-3.927
		c0.575-1.059,1.327-1.941,2.301-2.647c0.973-0.662,2.168-1.192,3.496-1.501c1.371-0.309,2.876-0.485,4.513-0.485
		c0.354,0,0.885,0,1.593,0.044s1.461,0.088,2.257,0.176c0.797,0.089,1.593,0.177,2.346,0.309c0.796,0.133,1.416,0.309,1.858,0.53
		c0.443,0.176,0.708,0.397,0.797,0.618c0.088,0.22,0.088,0.573,0.044,1.103c-0.044,0.838-0.221,1.5-0.531,2.074
		c-0.266,0.573-0.664,0.794-1.195,0.706c-0.796-0.177-1.681-0.309-2.699-0.486c-1.018-0.132-2.169-0.22-3.408-0.22
		c-1.947,0-3.584,0.309-4.823,0.838c-1.239,0.574-1.859,1.5-1.859,2.824c0,1.059,0.355,1.942,1.107,2.692
		c0.752,0.75,1.681,1.456,2.788,2.118c1.106,0.662,2.345,1.368,3.672,2.074c1.328,0.706,2.523,1.544,3.673,2.515
		c1.107,0.971,2.08,2.118,2.788,3.442c0.752,1.324,1.106,3.001,1.106,4.898c0,1.809-0.354,3.31-1.017,4.457
		c-0.664,1.191-1.593,2.074-2.7,2.736c-1.106,0.662-2.434,1.103-3.894,1.368c-1.46,0.264-3.009,0.397-4.602,0.397
		c-0.708,0-1.505-0.044-2.301-0.088c-0.797-0.045-1.549-0.133-2.345-0.221c-0.753-0.088-1.461-0.221-2.169-0.353
		c-0.664-0.133-1.239-0.265-1.726-0.441c-0.486-0.177-0.752-0.353-0.84-0.53c-0.089-0.221-0.133-0.574-0.045-1.059
		c0.089-0.927,0.266-1.721,0.531-2.339C331.344,122.482,331.698,122.173,332.141,122.305 M313.953,98.477h-6.593v11.429h6.593
		c1.284,0,2.346-0.089,3.098-0.221c0.797-0.132,1.372-0.397,1.814-0.794c0.443-0.397,0.709-0.883,0.841-1.545
		c0.133-0.661,0.221-1.544,0.221-2.603v-1.059c0-1.059-0.088-1.942-0.221-2.648c-0.132-0.661-0.442-1.191-0.841-1.588
		c-0.442-0.397-1.017-0.618-1.814-0.795C316.255,98.565,315.237,98.477,313.953,98.477 M301.652,127.115V94.638
		c0-0.353,0.132-0.618,0.442-0.883c0.31-0.22,0.62-0.352,1.062-0.352h10.488c2.168,0,4.027,0.176,5.575,0.485
		c1.549,0.309,2.788,0.882,3.762,1.677c0.973,0.794,1.681,1.853,2.124,3.177c0.443,1.324,0.664,2.956,0.664,4.986v1.059
		c0,1.5-0.133,2.78-0.354,3.883c-0.222,1.103-0.62,2.074-1.107,2.869c-0.486,0.794-1.194,1.412-2.035,1.897
		s-1.859,0.838-3.009,1.103l6.593,11.385c0.354,0.617,0.531,1.059,0.531,1.368c0,0.176-0.088,0.353-0.221,0.485
		c-0.177,0.132-0.354,0.221-0.531,0.265c-0.177,0.044-0.398,0.088-0.575,0.132c-0.222,0-0.354,0.044-0.443,0.044
		c-0.265,0-0.664,0-1.106-0.044c-0.443-0.044-0.885-0.088-1.328-0.176c-0.442-0.089-0.885-0.177-1.239-0.353
		c-0.354-0.177-0.619-0.398-0.796-0.662l-6.992-11.914h-5.841v11.914c0,0.397-0.133,0.662-0.443,0.882
		c-0.265,0.221-0.619,0.353-1.018,0.353c-0.265,0-0.663,0-1.15-0.044c-0.487-0.044-0.929-0.088-1.416-0.132
		c-0.443-0.044-0.841-0.177-1.195-0.309C301.829,127.468,301.652,127.336,301.652,127.115 M273.773,126.586V94.638
		c0-0.397,0.133-0.706,0.443-0.927c0.265-0.22,0.619-0.308,1.062-0.308h19.072c0.354,0,0.664,0.132,0.885,0.441
		c0.221,0.265,0.354,0.617,0.354,0.971c0,0.264,0,0.573-0.044,1.014c-0.044,0.442-0.089,0.839-0.133,1.236
		c-0.044,0.397-0.177,0.75-0.265,1.015c-0.133,0.265-0.31,0.441-0.487,0.441h-15.134v9.178h12.966c0.309,0,0.575,0.133,0.84,0.397
		c0.222,0.265,0.354,0.574,0.354,0.927c0,0.265,0,0.574-0.044,1.015c-0.044,0.441-0.088,0.838-0.133,1.236
		c-0.044,0.397-0.177,0.75-0.265,1.059c-0.133,0.264-0.266,0.441-0.487,0.441h-13.275v9.708h14.824c0.354,0,0.664,0.132,0.885,0.397
		c0.221,0.265,0.354,0.574,0.354,0.971c0,0.264,0,0.573-0.044,1.015c-0.045,0.397-0.089,0.838-0.133,1.235
		c-0.044,0.397-0.177,0.75-0.266,1.059c-0.132,0.309-0.309,0.441-0.486,0.441h-18.675c-0.442,0-0.929-0.088-1.416-0.309
		C273.994,127.027,273.773,126.806,273.773,126.586 M256.338,118.466l7.169-24.578c0.442-0.442,0.973-0.706,1.548-0.839
		c0.576-0.088,1.239-0.176,2.036-0.176c0.31,0,0.664,0,0.974,0.044c0.353,0.044,0.619,0.088,0.84,0.221
		c0.222,0.132,0.399,0.265,0.531,0.485c0.133,0.221,0.089,0.486,0,0.883l-11.018,32.874c-0.045,0.265-0.222,0.441-0.487,0.574
		c-0.266,0.132-0.531,0.176-0.841,0.176c-1.062,0-1.947-0.044-2.655-0.176c-0.708-0.133-1.151-0.309-1.328-0.53l-10.974-32.918
		c-0.088-0.309-0.088-0.574,0-0.795c0.089-0.22,0.221-0.353,0.442-0.485c0.178-0.132,0.399-0.221,0.664-0.265
		c0.222-0.044,0.443-0.088,0.576-0.088c0.486,0,0.973,0,1.46,0.044s0.929,0.088,1.372,0.177c0.398,0.088,0.752,0.22,1.062,0.352
		c0.265,0.177,0.487,0.354,0.575,0.618l7.346,24.358c0.133,0.397,0.221,0.794,0.265,1.192c0.045,0.441,0.089,0.794,0.177,1.147
		c0.045-0.353,0.089-0.75,0.133-1.147C256.117,119.216,256.205,118.819,256.338,118.466 M237.929,126.85
		c0,0.397-0.133,0.706-0.442,0.927c-0.266,0.221-0.62,0.353-1.062,0.353c-0.266,0-0.664,0-1.151-0.044
		c-0.487-0.044-0.929-0.088-1.416-0.132c-0.442-0.045-0.841-0.177-1.195-0.309c-0.354-0.133-0.487-0.309-0.487-0.486V93.932
		c0-0.177,0.177-0.353,0.487-0.486c0.354-0.132,0.708-0.264,1.195-0.308c0.442-0.044,0.929-0.133,1.416-0.133
		c0.487-0.044,0.841-0.044,1.151-0.044c0.398,0,0.752,0.133,1.062,0.397c0.265,0.265,0.442,0.574,0.442,0.927V126.85z
		 M220.494,117.584V93.755c0-0.176,0.177-0.352,0.531-0.441c0.354-0.132,0.752-0.22,1.239-0.265c0.487-0.044,0.974-0.088,1.46-0.132
		c0.487-0.044,0.885-0.044,1.151-0.044c0.841,0,1.239,0.485,1.239,1.412v32.565c0,0.397-0.133,0.662-0.442,0.883
		c-0.31,0.221-0.62,0.353-0.974,0.353c-0.266,0-0.575,0-1.018-0.044c-0.442-0.044-0.841-0.044-1.283-0.133
		c-0.443-0.088-0.797-0.176-1.151-0.264c-0.354-0.133-0.575-0.265-0.708-0.442l-15.444-23.696v23.343
		c0,0.397-0.132,0.706-0.442,0.927c-0.266,0.221-0.62,0.353-1.018,0.353c-0.265,0-0.664,0-1.15-0.044
		c-0.487-0.044-0.974-0.088-1.417-0.132c-0.442-0.045-0.84-0.177-1.15-0.309c-0.354-0.133-0.487-0.309-0.487-0.486V93.932
		c0-0.177,0.177-0.353,0.487-0.485c0.354-0.133,0.708-0.265,1.15-0.309c0.443-0.044,0.886-0.089,1.372-0.133
		c0.487-0.044,0.841-0.044,1.151-0.044c0.354,0,0.664,0.088,0.885,0.309c0.221,0.221,0.442,0.441,0.575,0.706L220.494,117.584z
		 M187.571,115.466V94.02c0-0.176,0.177-0.353,0.486-0.485c0.355-0.132,0.753-0.265,1.195-0.353
		c0.487-0.088,0.974-0.177,1.416-0.221c0.487-0.044,0.841-0.088,1.151-0.088c0.398,0,0.752,0.132,1.018,0.441
		c0.265,0.309,0.398,0.618,0.398,0.971v21.446c0,2.338-0.266,4.28-0.797,5.868c-0.531,1.589-1.283,2.824-2.345,3.839
		c-1.062,0.971-2.389,1.677-3.983,2.074c-1.593,0.397-3.495,0.618-5.62,0.618h-0.398c-2.08,0-3.938-0.221-5.487-0.618
		c-1.593-0.397-2.876-1.103-3.938-2.074c-1.062-0.97-1.815-2.25-2.346-3.839c-0.531-1.544-0.796-3.53-0.796-5.868V94.02
		c0-0.176,0.177-0.353,0.486-0.485c0.355-0.132,0.708-0.265,1.195-0.353c0.443-0.088,0.93-0.177,1.416-0.221
		c0.487-0.044,0.885-0.088,1.151-0.088c0.398,0,0.708,0.132,1.018,0.441c0.265,0.309,0.442,0.618,0.442,0.971v21.137
		c0,1.367,0.089,2.515,0.31,3.486c0.221,0.97,0.575,1.765,1.106,2.338c0.531,0.618,1.239,1.059,2.124,1.324s1.992,0.441,3.319,0.441
		h0.398c1.372,0,2.479-0.132,3.408-0.441c0.885-0.309,1.637-0.75,2.168-1.324c0.531-0.618,0.93-1.368,1.151-2.338
		C187.482,117.981,187.571,116.834,187.571,115.466 M393.474,38.244v40.994h-11.329V16.622h15.798l15.179,38.567V16.622h11.505
		v62.616h-14.426L393.474,38.244z M360.949,16.622h12.745v62.615h-12.745V16.622z M312.051,16.622h13.098v27.226l16.329-27.226
		h13.674l-18.143,28.815l18.143,33.845h-15.179l-14.824-30.447v30.447h-13.098V16.622z M290.721,65.338H272.49l-3.319,13.944
		h-13.143l17.701-62.66h16.727l17.435,62.66h-13.762L290.721,65.338z M288.11,54.439l-6.283-25.903l-6.594,25.903H288.11z
		 M217.928,16.622h33.94v10.635h-20.665v13.37h19.028v10.899h-19.028v16.68h20.71v11.032h-33.985V16.622z M189.12,16.622
		c16.771,0,21.948,8.87,21.948,31.33c0,22.461-5.221,31.33-21.993,31.33h-21.506v-62.66H189.12z M180.756,68.471h5.974
		c9.78,0,11.019-5.736,11.019-20.74c0-14.958-1.239-20.695-11.019-20.695h-5.974V68.471z"/>
	<path style="clip-path:url(#SVGID_00000080204260323416691490000005814420823004084360_);fill:#FFFFFF;" d="M71.713,1.288
		C32.549,1.288,0.799,32.947,0.799,72s31.749,70.712,70.913,70.712S142.625,111.053,142.625,72S110.877,1.288,71.713,1.288"/>
	<path style="clip-path:url(#SVGID_00000080204260323416691490000005814420823004084360_);fill:#FFFFFF;" d="M71.713,2.968
		c38.175,0,69.233,30.968,69.233,69.032s-31.058,69.032-69.233,69.032S2.479,110.064,2.479,72S33.538,2.968,71.713,2.968"/>
	<path style="clip-path:url(#SVGID_00000080204260323416691490000005814420823004084360_);" d="M95.076,94.204L68.262,47.816
		l3.533-5.928l30.099,52.316H95.076z M82.396,94.204L61.86,58.843l3.45-5.804l23.655,41.165H82.396z M69.509,94.204L55.416,69.953
		l3.575-6.011l17.336,30.22h-6.818V94.204z M56.539,94.204l-7.567-13.1l3.576-6.011l10.933,19.111H56.539z M41.365,94.204
		l4.614-7.877l4.615,7.877H41.365z M35.503,36.416V85.83c0,19.94,16.213,36.107,36.209,36.107c19.997,0,36.21-16.167,36.21-36.107
		V36.416H35.503z"/>
</g>
<rect x="471.959" y="16.622" style="fill:#FFFFFF;" width="2" height="110.978"/>
<g>
	<defs>
		<rect id="SVGID_00000060716659001189666000000010901244975900736433_" width="1000" height="144"/>
	</defs>
	<clipPath id="SVGID_00000040542039878978741650000011022771295224462505_">
		<use xlink:href="#SVGID_00000060716659001189666000000010901244975900736433_"  style="overflow:visible;"/>
	</clipPath>
	<path style="clip-path:url(#SVGID_00000040542039878978741650000011022771295224462505_);fill:#FFFFFF;" d="M813.553,108.842
		v18.947h2.408v-9.89l6.726,9.89h3.087l-7.289-10.389l6.905-8.558h-2.729l-6.7,8.327v-8.327H813.553z M804.702,110.943
		c0.871,0,1.544,0.241,2.018,0.724c0.474,0.482,0.711,1.215,0.711,2.197c0,1.008-0.261,1.787-0.782,2.338s-1.345,0.826-2.472,0.826
		h-2.947v-6.085H804.702z M798.796,108.842v18.947h2.434v-8.711h2.05c1.102,0,1.866,0.094,2.293,0.282s0.754,0.493,0.98,0.916
		c0.226,0.423,0.369,1.031,0.429,1.825l0.103,1.474l0.102,2.062c0.017,0.351,0.064,0.713,0.141,1.089
		c0.077,0.376,0.18,0.73,0.308,1.063h2.523c-0.401-1.691-0.612-3.326-0.634-4.906c-0.021-1.58-0.239-2.75-0.653-3.51
		c-0.414-0.76-1.228-1.243-2.441-1.448c1.111-0.213,1.965-0.705,2.563-1.473c0.597-0.769,0.896-1.738,0.896-2.908
		c0-1.435-0.408-2.577-1.223-3.427c-0.816-0.85-1.885-1.275-3.209-1.275H798.796z M785.414,115.171c0-1.657,0.269-2.859,0.807-3.607
		c0.538-0.747,1.426-1.121,2.665-1.121c1.255,0,2.154,0.408,2.696,1.224c0.543,0.815,0.814,2.052,0.814,3.709v4.496
		c0,1.845-0.092,3.148-0.275,3.908c-0.184,0.76-0.528,1.33-1.032,1.71c-0.504,0.38-1.247,0.57-2.229,0.57
		c-1.247,0-2.133-0.391-2.658-1.172c-0.525-0.782-0.788-2.133-0.788-4.055V115.171z M793.427,110.149
		c-0.96-1.187-2.474-1.781-4.541-1.781s-3.573,0.562-4.516,1.685c-0.944,1.123-1.416,3.047-1.416,5.771v4.932
		c0,2.52,0.463,4.375,1.39,5.567c0.927,1.191,2.394,1.787,4.401,1.787c2.161,0,3.722-0.592,4.682-1.775
		c0.961-1.182,1.442-3.32,1.442-6.412v-3.548C794.869,113.411,794.388,111.336,793.427,110.149 M757.643,108.842l4.625,18.947h2.933
		l3.856-16.423l3.626,16.423h2.934l5.009-18.947h-2.511l-3.882,16.424l-3.472-16.424h-3.113l-3.83,16.424l-3.6-16.424H757.643z
		 M743.204,108.842v2.101h4.958v16.846h2.435v-16.846h4.983v-2.101H743.204z M730.855,108.842v18.947h9.941v-2.101h-7.533v-6.584
		h6.828v-2.076h-6.828v-6.085h7.354v-2.101H730.855z M713.69,108.842v18.947h2.178v-16.423l7.533,16.423h3.279v-18.947h-2.152
		v16.219l-7.456-16.219H713.69z M702.826,109.796c-0.876-0.858-2.163-1.287-3.863-1.287c-1.759,0-3.143,0.457-4.15,1.371
		c-1.008,0.914-1.512,2.135-1.512,3.664c0,0.973,0.231,1.832,0.692,2.575c0.461,0.743,1.17,1.405,2.126,1.985
		c0.957,0.581,1.975,1.136,3.056,1.666c1.08,0.529,1.791,1.063,2.133,1.601c0.341,0.538,0.512,1.076,0.512,1.614
		c0,0.914-0.307,1.647-0.922,2.197c-0.615,0.551-1.418,0.827-2.409,0.827c-0.965,0-1.748-0.303-2.35-0.91
		c-0.602-0.606-0.904-1.46-0.904-2.562v-0.551h-2.382v0.743c0,1.751,0.478,3.081,1.434,3.991c0.957,0.909,2.34,1.364,4.151,1.364
		c1.751,0,3.165-0.457,4.241-1.371c1.076-0.913,1.614-2.156,1.614-3.728c0-1.033-0.22-1.891-0.66-2.575
		c-0.44-0.683-1.078-1.326-1.915-1.928c-0.837-0.602-1.772-1.136-2.806-1.601c-1.033-0.466-1.817-0.995-2.351-1.589
		c-0.533-0.593-0.8-1.244-0.8-1.953c0-0.872,0.264-1.544,0.794-2.018c0.529-0.474,1.264-0.711,2.203-0.711
		c0.966,0,1.683,0.265,2.153,0.794c0.469,0.53,0.704,1.32,0.704,2.37v0.269h2.524v-0.423
		C704.139,111.929,703.701,110.655,702.826,109.796 M681.078,108.842v18.947h9.339v-2.101h-6.93v-16.846H681.078z M673.359,121.23
		h-6.136l3.036-10.159L673.359,121.23z M668.798,108.842l-6.008,18.947h2.46l1.396-4.509h7.315l1.371,4.509h2.703l-6.175-18.947
		H668.798z M657.167,127.789h2.447v-18.948h-2.447V127.789z M648.156,110.943c0.872,0,1.544,0.241,2.018,0.724
		c0.474,0.482,0.711,1.215,0.711,2.197c0,1.008-0.261,1.787-0.781,2.338c-0.521,0.551-1.346,0.826-2.473,0.826h-2.946v-6.085
		H648.156z M642.25,108.842v18.947h2.435v-8.711h2.049c1.102,0,1.866,0.094,2.294,0.282c0.426,0.188,0.753,0.493,0.98,0.916
		c0.226,0.423,0.369,1.031,0.429,1.825l0.102,1.474l0.103,2.062c0.017,0.351,0.064,0.713,0.141,1.089
		c0.076,0.376,0.179,0.73,0.307,1.063h2.524c-0.402-1.691-0.613-3.326-0.634-4.906c-0.022-1.58-0.24-2.75-0.654-3.51
		c-0.414-0.76-1.228-1.243-2.44-1.448c1.11-0.213,1.964-0.705,2.562-1.473c0.598-0.769,0.897-1.738,0.897-2.908
		c0-1.435-0.408-2.577-1.224-3.427c-0.815-0.85-1.885-1.275-3.209-1.275H642.25z M626.872,108.842v2.101h4.958v16.846h2.434v-16.846
		h4.984v-2.101H626.872z M611.441,108.842v18.947h9.34v-2.101h-6.931v-16.846H611.441z M603.722,121.23h-6.136l3.036-10.159
		L603.722,121.23z M599.162,108.842l-6.009,18.947h2.46l1.396-4.509h7.315l1.371,4.509h2.703l-6.175-18.947H599.162z
		 M589.584,109.886c-0.82-0.833-2.089-1.249-3.805-1.249c-2.152,0-3.703,0.57-4.651,1.71s-1.422,3-1.422,5.579v3.997
		c0,3.109,0.474,5.247,1.422,6.412c0.948,1.166,2.358,1.749,4.228,1.749c1.887,0,3.307-0.468,4.26-1.403
		c0.952-0.935,1.428-2.368,1.428-4.298v-0.346h-2.485c-0.017,1.333-0.291,2.328-0.82,2.985c-0.53,0.658-1.307,0.987-2.332,0.987
		c-1.144,0-1.968-0.412-2.472-1.237c-0.504-0.824-0.756-2.239-0.756-4.246v-4.6c0-2.118,0.282-3.52,0.845-4.208
		c0.564-0.687,1.41-1.031,2.537-1.031c0.991,0,1.693,0.258,2.107,0.775c0.415,0.517,0.622,1.343,0.622,2.479v0.282h2.524v-0.5
		C590.814,111.998,590.404,110.719,589.584,109.886 M573.22,127.789h2.447v-18.948h-2.447V127.789z M555.902,108.842v18.947h2.178
		v-16.423l7.533,16.423h3.28v-18.947h-2.152v16.219l-7.456-16.219H555.902z M549.141,127.789h2.447v-18.948h-2.447V127.789z
		 M536.737,108.842v18.947h9.339v-2.101h-6.931v-16.846H536.737z M531.761,109.886c-0.82-0.833-2.088-1.249-3.805-1.249
		c-2.152,0-3.702,0.57-4.65,1.71s-1.422,3-1.422,5.579v3.997c0,3.109,0.474,5.247,1.422,6.412c0.948,1.166,2.357,1.749,4.227,1.749
		c1.888,0,3.308-0.468,4.26-1.403c0.952-0.935,1.428-2.368,1.428-4.298v-0.346h-2.485c-0.017,1.333-0.29,2.328-0.82,2.985
		c-0.529,0.658-1.307,0.987-2.331,0.987c-1.145,0-1.969-0.412-2.473-1.237c-0.504-0.824-0.756-2.239-0.756-4.246v-4.6
		c0-2.118,0.282-3.52,0.846-4.208c0.563-0.687,1.409-1.031,2.536-1.031c0.991,0,1.693,0.258,2.108,0.775
		c0.414,0.517,0.621,1.343,0.621,2.479v0.282h2.524v-0.5C532.991,111.998,532.581,110.719,531.761,109.886"/>
	<path style="clip-path:url(#SVGID_00000040542039878978741650000011022771295224462505_);fill:#FFFFFF;" d="M938.813,79.342V98.29
		h9.339v-2.101h-6.931V79.342H938.813z M931.094,91.73h-6.137l3.036-10.159L931.094,91.73z M926.533,79.342l-6.009,18.948h2.46
		l1.397-4.51h7.315l1.371,4.51h2.703l-6.175-18.948H926.533z M912.517,81.443c0.871,0,1.543,0.241,2.017,0.724
		c0.474,0.482,0.711,1.215,0.711,2.197c0,1.008-0.26,1.787-0.781,2.338c-0.521,0.551-1.345,0.826-2.473,0.826h-2.946v-6.085H912.517
		z M906.611,79.342V98.29h2.434v-8.712h2.05c1.101,0,1.866,0.094,2.293,0.282c0.427,0.188,0.753,0.493,0.98,0.916
		c0.226,0.423,0.369,1.031,0.429,1.825l0.102,1.474l0.103,2.062c0.017,0.351,0.064,0.714,0.141,1.089
		c0.077,0.376,0.179,0.73,0.307,1.064h2.524c-0.401-1.691-0.613-3.327-0.634-4.907s-0.239-2.75-0.653-3.51
		c-0.415-0.76-1.228-1.243-2.441-1.448c1.11-0.213,1.964-0.705,2.562-1.473c0.598-0.769,0.897-1.738,0.897-2.908
		c0-1.435-0.408-2.577-1.223-3.427c-0.816-0.85-1.886-1.275-3.21-1.275H906.611z M893.338,79.342V98.29h9.941v-2.101h-7.533v-6.585
		h6.828v-2.076h-6.828v-6.085h7.354v-2.101H893.338z M876.172,79.342V98.29h2.178V81.866l7.533,16.424h3.28V79.342h-2.153v16.219
		l-7.456-16.219H876.172z M862.813,79.342V98.29h9.941v-2.101h-7.533v-6.585h6.829v-2.076h-6.829v-6.085h7.354v-2.101H862.813z
		 M857.503,80.245c-0.807-0.858-2.223-1.287-4.247-1.287c-1.495,0-2.699,0.243-3.613,0.73s-1.603,1.266-2.069,2.338
		c-0.465,1.072-0.698,2.838-0.698,5.297v2.652c0,3.348,0.497,5.633,1.492,6.854c0.995,1.222,2.607,1.832,4.837,1.832
		c1.93,0,3.74-0.465,5.431-1.396v-9.211h-5.905v2.152h3.459v5.611c-0.41,0.308-0.867,0.521-1.371,0.641
		c-0.504,0.119-1.008,0.179-1.512,0.179c-1.426,0-2.438-0.404-3.036-1.211s-0.897-2.256-0.897-4.349v-4.33
		c0-2.298,0.263-3.839,0.788-4.625c0.525-0.786,1.514-1.179,2.966-1.179c1.05,0,1.823,0.289,2.319,0.865
		c0.495,0.577,0.743,1.446,0.743,2.607h2.523v-0.269C858.714,82.404,858.31,81.104,857.503,80.245 M834.366,91.73h-6.137
		l3.036-10.159L834.366,91.73z M829.805,79.342l-6.008,18.948h2.459l1.397-4.51h7.315l1.371,4.51h2.703l-6.175-18.948H829.805z
		 M818.174,98.29h2.447V79.342h-2.447V98.29z M805.77,79.342V98.29h9.34v-2.101h-6.931V79.342H805.77z M798.05,91.73h-6.136
		l3.036-10.159L798.05,91.73z M793.49,79.342l-6.009,18.948h2.46l1.396-4.51h7.316l1.37,4.51h2.703l-6.174-18.948H793.49z
		 M779.474,81.443c0.872,0,1.544,0.241,2.018,0.724c0.474,0.482,0.711,1.215,0.711,2.197c0,1.008-0.26,1.787-0.781,2.338
		c-0.521,0.551-1.345,0.826-2.473,0.826h-2.946v-6.085H779.474z M773.568,79.342V98.29h2.434v-8.712h2.049
		c1.102,0,1.866,0.094,2.294,0.282c0.427,0.188,0.753,0.493,0.98,0.916c0.226,0.423,0.369,1.031,0.429,1.825l0.102,1.474
		l0.103,2.062c0.017,0.351,0.064,0.714,0.141,1.089c0.077,0.376,0.179,0.73,0.307,1.064h2.524c-0.402-1.691-0.613-3.327-0.634-4.907
		c-0.022-1.58-0.239-2.75-0.654-3.51c-0.414-0.76-1.227-1.243-2.44-1.448c1.11-0.213,1.964-0.705,2.562-1.473
		c0.598-0.769,0.897-1.738,0.897-2.908c0-1.435-0.408-2.577-1.224-3.427c-0.815-0.85-1.885-1.275-3.209-1.275H773.568z
		 M758.19,79.342v2.101h4.957V98.29h2.435V81.443h4.983v-2.101H758.19z M754.245,80.296c-0.875-0.858-2.163-1.287-3.862-1.287
		c-1.76,0-3.143,0.457-4.151,1.371c-1.008,0.914-1.512,2.135-1.512,3.664c0,0.973,0.231,1.832,0.692,2.575s1.17,1.405,2.127,1.985
		c0.956,0.581,1.975,1.136,3.055,1.666c1.081,0.53,1.792,1.063,2.133,1.601c0.342,0.538,0.513,1.076,0.513,1.614
		c0,0.914-0.308,1.647-0.923,2.198c-0.615,0.55-1.417,0.826-2.408,0.826c-0.965,0-1.749-0.303-2.351-0.91
		c-0.602-0.606-0.903-1.46-0.903-2.562v-0.551h-2.383v0.743c0,1.751,0.478,3.081,1.435,3.991c0.956,0.909,2.34,1.364,4.151,1.364
		c1.75,0,3.164-0.457,4.24-1.371c1.076-0.913,1.614-2.156,1.614-3.728c0-1.033-0.22-1.891-0.66-2.575
		c-0.439-0.683-1.078-1.326-1.915-1.928c-0.837-0.602-1.772-1.135-2.805-1.601c-1.034-0.465-1.818-0.995-2.351-1.589
		c-0.534-0.593-0.801-1.244-0.801-1.953c0-0.871,0.265-1.544,0.794-2.018c0.53-0.474,1.264-0.711,2.204-0.711
		c0.965,0,1.682,0.265,2.152,0.794c0.47,0.53,0.705,1.32,0.705,2.37v0.269h2.524v-0.422
		C755.56,82.429,755.121,81.155,754.245,80.296 M728.935,79.342v13.259c0,1.939,0.506,3.434,1.518,4.484
		c1.012,1.051,2.457,1.576,4.336,1.576c1.99,0,3.466-0.553,4.427-1.659c0.96-1.106,1.441-2.756,1.441-4.951V79.342H738.3v12.914
		c0,1.452-0.276,2.536-0.827,3.254c-0.551,0.717-1.437,1.076-2.658,1.076c-1.145,0-2.009-0.348-2.594-1.044
		s-0.878-1.698-0.878-3.005V79.342H728.935z M721.833,91.73h-6.136l3.036-10.159L721.833,91.73z M717.271,79.342l-6.008,18.948h2.46
		l1.396-4.51h7.315l1.371,4.51h2.703l-6.175-18.948H717.271z M691.553,79.342V98.29h2.421v-8.738h6.636v8.738h2.409V79.342h-2.409
		v8.109h-6.636v-8.109H691.553z M676.078,79.342v2.101h4.958V98.29h2.434V81.443h4.984v-2.101H676.078z M667.224,79.342V98.29h9.339
		v-2.101h-6.931V79.342H667.224z M659.505,91.73h-6.137l3.036-10.159L659.505,91.73z M654.943,79.342l-6.009,18.948h2.46l1.397-4.51
		h7.315l1.37,4.51h2.704l-6.175-18.948H654.943z M636.492,79.342V98.29h9.941v-2.101h-7.533v-6.585h6.828v-2.076h-6.828v-6.085
		h7.354v-2.101H636.492z M620.852,79.342V98.29h2.422v-8.738h6.636v8.738h2.408V79.342h-2.408v8.109h-6.636v-8.109H620.852z
		 M603.511,79.342V98.29h9.34v-2.101h-6.931V79.342H603.511z M595.792,91.73h-6.136l3.036-10.159L595.792,91.73z M591.232,79.342
		l-6.009,18.948h2.46l1.396-4.51h7.315l1.371,4.51h2.703l-6.175-18.948H591.232z M573.229,79.342v2.101h4.958V98.29h2.434V81.443
		h4.984v-2.101H573.229z M557.147,79.342V98.29h2.178V81.866l7.533,16.424h3.28V79.342h-2.153v16.219l-7.456-16.219H557.147z
		 M543.789,79.342V98.29h9.941v-2.101h-7.533v-6.585h6.828v-2.076h-6.828v-6.085h7.354v-2.101H543.789z M522.203,79.342V98.29h2.229
		V81.469l5.278,16.821h2.255l5.355-16.821V98.29h2.306V79.342h-3.856l-4.855,15.899l-4.805-15.899H522.203z"/>
	<path style="clip-path:url(#SVGID_00000040542039878978741650000011022771295224462505_);fill:#FFFFFF;" d="M708.933,16.543v6.855
		h9.712V58.79h8.97V23.398h9.826v-6.855H708.933z M681.692,16.543V58.79H705.2v-6.599h-14.682V39.966h13.111v-6.513h-13.111V23.056
		h14.225v-6.513H681.692z M643.161,16.543V58.79h8.198V27.912l11.569,30.878h11.597V16.543h-8.198v29.25l-11.283-29.25H643.161z
		 M636.057,28.197c0-4.075-1.181-7.212-3.542-9.412c-2.361-2.199-5.722-3.299-10.083-3.299c-3.504,0-6.351,0.667-8.541,2
		s-3.799,3.409-4.827,6.227c-1.028,2.818-1.543,7.198-1.543,13.139c0,6.399,0.41,11.022,1.229,13.868
		c0.818,2.847,2.442,4.99,4.87,6.427c2.428,1.438,5.832,2.157,10.212,2.157c1.314,0,2.732-0.076,4.256-0.229
		c1.523-0.152,4.18-0.58,7.969-1.285V36.395h-13.568v6.542h4.856v9.312c-0.724,0.266-1.447,0.466-2.171,0.599
		c-0.724,0.134-1.485,0.2-2.285,0.2c-2.304,0-3.918-0.804-4.842-2.413c-0.923-1.609-1.423-3.928-1.499-6.956l-0.086-6.541
		c0-1.409,0.038-3.489,0.114-6.241c0.076-2.752,0.538-4.961,1.386-6.627c0.847-1.666,2.28-2.5,4.299-2.5
		c1.523,0,2.742,0.505,3.656,1.514c0.914,1.01,1.371,2.314,1.371,3.914v2.056h8.769V28.197z M586.763,24.684l4.399,18.367h-8.541
		L586.763,24.684z M581.507,16.543L569.796,58.79h8.741l2.399-9.369h12.026l2.342,9.369h9.312l-11.454-42.247H581.507z
		 M523.513,16.543V58.79h8.369V26.198l7.827,32.592h8.427l8.255-32.592V58.79h8.598V16.543h-13.74l-7.084,28.736l-6.684-28.736
		H523.513z"/>
</g>
</svg>
